<?xml version="1.0" encoding="UTF-8" standalone="no"?>
<!-- Created with Inkscape (http://www.inkscape.org/) -->

<svg
   width="1600"
   height="900"
   viewBox="0 0 423.33328 238.12497"
   version="1.1"
   id="svg1"
   inkscape:version="1.4-beta3 (01c8a1c, 2024-08-28, custom)"
   sodipodi:docname="background.svg"
   xmlns:inkscape="http://www.inkscape.org/namespaces/inkscape"
   xmlns:sodipodi="http://sodipodi.sourceforge.net/DTD/sodipodi-0.dtd"
   xmlns="http://www.w3.org/2000/svg"
   xmlns:svg="http://www.w3.org/2000/svg">
  <sodipodi:namedview
     id="namedview1"
     pagecolor="#ffffff"
     bordercolor="#000000"
     borderopacity="0.25"
     inkscape:showpageshadow="2"
     inkscape:pageopacity="0.0"
     inkscape:pagecheckerboard="0"
     inkscape:deskcolor="#585858"
     inkscape:document-units="px"
     inkscape:zoom="0.51150168"
     inkscape:cx="624.63138"
     inkscape:cy="494.62203"
     inkscape:window-width="1920"
     inkscape:window-height="1014"
     inkscape:window-x="-8"
     inkscape:window-y="-8"
     inkscape:window-maximized="1"
     inkscape:current-layer="layer1" />
  <defs
     id="defs1">
    <filter
       id="mask-powermask-path-effect3_inverse"
       inkscape:label="filtermask-powermask-path-effect3"
       style="color-interpolation-filters:sRGB"
       height="100"
       width="100"
       x="-50"
       y="-50">
      <feColorMatrix
         id="mask-powermask-path-effect3_primitive1"
         values="1"
         type="saturate"
         result="fbSourceGraphic" />
      <feColorMatrix
         id="mask-powermask-path-effect3_primitive2"
         values="-1 0 0 0 1 0 -1 0 0 1 0 0 -1 0 1 0 0 0 1 0 "
         in="fbSourceGraphic" />
    </filter>
  </defs>
  <g
     inkscape:label="Layer 1"
     inkscape:groupmode="layer"
     id="layer1">
    <path
       id="rect1"
       style="fill:#4895fa;stroke-width:41.3892;stroke-linecap:round;stroke-linejoin:round"
       d="M 0,0 H 423.33328 V 238.12497 H 0 Z" />
    <path
       id="path1"
       style="fill:#66a4f6;stroke-width:21.1469;stroke-linecap:round;stroke-linejoin:round"
       d="M 24.660507 79.004987 A 33.072914 33.072914 0 0 0 -8.4124054 112.0779 A 33.072914 33.072914 0 0 0 24.660507 145.15081 A 33.072914 33.072914 0 0 0 34.693485 143.58398 A 44.960228 44.960228 0 0 0 79.199807 182.19661 A 44.960228 44.960228 0 0 0 121.69592 151.88528 A 28.317987 28.317987 0 0 0 132.31594 154.01797 A 28.317987 28.317987 0 0 0 138.59049 153.30535 A 44.960228 44.960228 0 0 0 176.17889 173.64468 A 44.960228 44.960228 0 0 0 216.6839 148.18215 A 25.209 25.209 0 0 0 220.13796 148.42968 A 25.209 25.209 0 0 0 232.54288 145.09603 A 29.598162 29.598162 0 0 0 255.33425 155.87625 A 29.598162 29.598162 0 0 0 274.26229 148.98727 A 29.598162 29.598162 0 0 0 301.47303 167.05955 A 29.598162 29.598162 0 0 0 311.76853 165.13099 A 53.738552 53.738552 0 0 0 362.53803 201.60576 A 53.738552 53.738552 0 0 0 415.5782 156.21163 A 31.609859 31.609859 0 0 0 440.74307 125.27192 A 31.609859 31.609859 0 0 0 409.13363 93.661971 A 31.609859 31.609859 0 0 0 388.88164 101.04705 A 53.738552 53.738552 0 0 0 362.53803 94.129126 A 53.738552 53.738552 0 0 0 320.38195 114.73768 A 29.598162 29.598162 0 0 0 301.47303 107.86317 A 29.598162 29.598162 0 0 0 282.54499 114.75267 A 29.598162 29.598162 0 0 0 255.33425 96.679875 A 29.598162 29.598162 0 0 0 236.12561 103.77918 A 25.209 25.209 0 0 0 220.13796 98.011576 A 25.209 25.209 0 0 0 210.6636 99.917403 A 44.960228 44.960228 0 0 0 176.17889 83.724078 A 44.960228 44.960228 0 0 0 142.20164 99.239925 A 28.317987 28.317987 0 0 0 132.31594 97.381641 A 28.317987 28.317987 0 0 0 111.72753 106.34285 A 44.960228 44.960228 0 0 0 79.199807 92.27601 A 44.960228 44.960228 0 0 0 55.102573 99.298836 A 33.072914 33.072914 0 0 0 24.660507 79.004987 z " />
    <path
       id="path1-5"
       style="fill:#73adf9;fill-opacity:1;stroke-width:26.0582;stroke-linecap:round;stroke-linejoin:round"
       d="M 26.099179 120.09033 A 40.753948 40.753948 0 0 0 -14.654918 160.84443 A 40.753948 40.753948 0 0 0 26.099179 201.59852 A 40.753948 40.753948 0 0 0 61.790536 180.3006 A 33.072914 33.072914 0 0 0 81.804299 187.14773 A 33.072914 33.072914 0 0 0 88.179103 186.44803 A 39.473774 39.473774 0 0 0 126.24447 215.67725 A 39.473774 39.473774 0 0 0 157.98 199.51079 A 29.232397 29.232397 0 0 0 175.98872 205.80137 A 29.232397 29.232397 0 0 0 176.62589 205.75589 A 57.944832 57.944832 0 0 0 232.13309 247.13269 A 57.944832 57.944832 0 0 0 283.22609 216.21727 A 33.072914 33.072914 0 0 0 285.90034 216.40847 A 33.072914 33.072914 0 0 0 314.55337 199.69528 A 25.940525 25.940525 0 0 0 321.56224 200.68075 A 25.940525 25.940525 0 0 0 337.63051 195.03252 A 33.072914 33.072914 0 0 0 361.61354 205.4355 A 33.072914 33.072914 0 0 0 373.61642 203.09455 A 38.559368 38.559368 0 0 0 408.7967 225.91848 A 38.559368 38.559368 0 0 0 447.3561 187.35908 A 38.559368 38.559368 0 0 0 408.7967 148.79968 A 38.559368 38.559368 0 0 0 389.25268 154.20969 A 33.072914 33.072914 0 0 0 361.61354 139.28967 A 33.072914 33.072914 0 0 0 335.15831 152.65526 A 25.940525 25.940525 0 0 0 321.56224 148.79968 A 25.940525 25.940525 0 0 0 304.02947 155.68092 A 33.072914 33.072914 0 0 0 285.90034 150.26264 A 33.072914 33.072914 0 0 0 276.303 151.707 A 57.944832 57.944832 0 0 0 232.13309 131.24314 A 57.944832 57.944832 0 0 0 189.12125 150.46211 A 29.232397 29.232397 0 0 0 175.98872 147.33672 A 29.232397 29.232397 0 0 0 158.39341 153.31775 A 39.473774 39.473774 0 0 0 126.24447 136.72962 A 39.473774 39.473774 0 0 0 111.56217 139.65709 A 33.072914 33.072914 0 0 0 81.804299 121.0019 A 33.072914 33.072914 0 0 0 56.139719 133.31174 A 40.753948 40.753948 0 0 0 26.099179 120.09033 z " />
    <path
       id="path1-5-63"
       style="fill:#89b9f8;fill-opacity:1;stroke-width:29.8001;stroke-linecap:round;stroke-linejoin:round"
       d="M 3.0559129 109.48329 A 46.606163 46.606163 0 0 0 -43.550022 156.08974 A 46.606163 46.606163 0 0 0 3.0559129 202.69568 A 46.606163 46.606163 0 0 0 36.128825 188.75958 A 33.072914 33.072914 0 0 0 55.103892 194.82846 A 33.072914 33.072914 0 0 0 71.615027 190.32589 A 39.473774 39.473774 0 0 0 101.73825 204.33847 A 39.473774 39.473774 0 0 0 132.12605 189.97242 A 36.730549 36.730549 0 0 0 154.59135 197.75489 A 36.730549 36.730549 0 0 0 165.88265 195.9147 A 32.341385 32.341385 0 0 0 183.85261 201.41203 A 32.341385 32.341385 0 0 0 198.18971 197.99726 A 33.072914 33.072914 0 0 0 228.47572 217.87149 A 33.072914 33.072914 0 0 0 259.61438 195.71057 A 30.69545 30.69545 0 0 0 274.37885 199.58372 A 30.69545 30.69545 0 0 0 291.65997 194.19749 A 44.228703 44.228703 0 0 0 332.16963 220.79793 A 44.228703 44.228703 0 0 0 358.87188 211.68789 A 46.240402 46.240402 0 0 0 394.16636 228.11324 A 46.240402 46.240402 0 0 0 440.40694 181.87266 A 46.240402 46.240402 0 0 0 394.16636 135.63208 A 46.240402 46.240402 0 0 0 364.53458 146.44072 A 44.228703 44.228703 0 0 0 332.16963 132.34029 A 44.228703 44.228703 0 0 0 297.72264 148.96976 A 30.69545 30.69545 0 0 0 274.37885 138.19264 A 30.69545 30.69545 0 0 0 246.18109 156.87626 A 33.072914 33.072914 0 0 0 228.47572 151.72567 A 33.072914 33.072914 0 0 0 213.22084 155.54197 A 32.341385 32.341385 0 0 0 183.85261 136.72969 A 32.341385 32.341385 0 0 0 182.2279 136.84596 A 36.730549 36.730549 0 0 0 154.59135 124.29375 A 36.730549 36.730549 0 0 0 128.21467 135.58815 A 39.473774 39.473774 0 0 0 101.73825 125.39084 A 39.473774 39.473774 0 0 0 75.324361 135.59642 A 33.072914 33.072914 0 0 0 55.103892 128.68263 A 33.072914 33.072914 0 0 0 42.478308 131.25612 A 46.606163 46.606163 0 0 0 3.0559129 109.48329 z "
       transform="translate(2.639346,49.854767)" />
  </g>
</svg>
