<svg width="150" height="200" viewBox="0 0 150 200" fill="none" xmlns="http://www.w3.org/2000/svg">
<g clip-path="url(#clip0_1_512)">
<rect width="150" height="200" fill="#4895FA"/>
<path d="M-23.9348 197.039L-28.0936 262.485L-21.6813 279.416L46.2314 276.497L97.2391 280L153.784 275.913L194.59 277.373L198.962 237.379L194.12 197.451L124.054 183.418L13.5867 178.456L-23.9348 197.039Z" fill="#50754E"/>
<path d="M-23.9349 197.039L68.8107 192.498L160.732 200.754L194.12 197.452L191.029 97.1563L182.785 74.6561L65.1007 60L-10.3323 76.9268L-28.057 90.9635L-29.2936 154.542L-23.9349 197.039Z" fill="#48CB43"/>
<path d="M1.18002 130.145L-5.13528 117.043" stroke="#70EF6B" stroke-width="0.999999" stroke-linecap="round" stroke-linejoin="round"/>
<path d="M6.59285 124.272L1.18005 105.297" stroke="#70EF6B" stroke-width="0.999999" stroke-linecap="round" stroke-linejoin="round"/>
<path d="M13.8102 120.658L14.7123 103.49" stroke="#70EF6B" stroke-width="0.999999" stroke-linecap="round" stroke-linejoin="round"/>
<path d="M23.2826 108.459L23.7335 92.6469" stroke="#70EF6B" stroke-width="0.999999" stroke-linecap="round" stroke-linejoin="round"/>
<path d="M32.3043 136.018L35.9129 116.591" stroke="#70EF6B" stroke-width="0.999999" stroke-linecap="round" stroke-linejoin="round"/>
<path d="M45.3857 138.729L53.9563 127.434" stroke="#70EF6B" stroke-width="0.999999" stroke-linecap="round" stroke-linejoin="round"/>
<path d="M53.9563 145.054L61.6245 138.277" stroke="#70EF6B" stroke-width="0.999999" stroke-linecap="round" stroke-linejoin="round"/>
<path d="M97.7109 105.297L87.336 91.2914" stroke="#70EF6B" stroke-width="0.999999" stroke-linecap="round" stroke-linejoin="round"/>
<path d="M100.868 102.586V89.9359" stroke="#70EF6B" stroke-width="0.999999" stroke-linecap="round" stroke-linejoin="round"/>
<path d="M111.243 101.683L116.205 82.2556" stroke="#70EF6B" stroke-width="0.999999" stroke-linecap="round" stroke-linejoin="round"/>
<path d="M122.971 103.941L137.406 89.9359" stroke="#70EF6B" stroke-width="0.999999" stroke-linecap="round" stroke-linejoin="round"/>
<path d="M132.444 114.332L140.563 98.9717" stroke="#70EF6B" stroke-width="0.999999" stroke-linecap="round" stroke-linejoin="round"/>
<path d="M103.124 159.963L99.5152 143.698" stroke="#70EF6B" stroke-width="0.999999" stroke-linecap="round" stroke-linejoin="round"/>
<path d="M108.988 158.156L107.635 136.922" stroke="#70EF6B" stroke-width="0.999999" stroke-linecap="round" stroke-linejoin="round"/>
<path d="M114.401 158.608L118.46 140.988" stroke="#70EF6B" stroke-width="0.999999" stroke-linecap="round" stroke-linejoin="round"/>
<path d="M93.2001 160.867L89.5914 150.475" stroke="#70EF6B" stroke-width="0.999999" stroke-linecap="round" stroke-linejoin="round"/>
<path d="M124.325 163.577L131.542 154.542" stroke="#70EF6B" stroke-width="0.999999" stroke-linecap="round" stroke-linejoin="round"/>
<path d="M17.87 176.679L11.1036 164.029" stroke="#70EF6B" stroke-width="0.999999" stroke-linecap="round" stroke-linejoin="round"/>
<path d="M27.7936 172.161L29.598 158.156" stroke="#70EF6B" stroke-width="0.999999" stroke-linecap="round" stroke-linejoin="round"/>
<path opacity="0.314159" d="M-42.9068 144.517L-33.5698 216.954L-26.0144 229.761L51.4586 244.287L137.615 241.125L180.918 243.383L198.962 237.379L202.796 165.676L197.834 114.624L196.339 91.7765L208.688 130.603L208.834 251.245L194.59 277.373L153.784 275.913L97.2391 280L46.2315 276.497L-21.6813 279.416L-36.5815 256.848L-41.2597 235.53L-46 163.1L-42.9068 144.517Z" fill="#3238B1"/>
<g filter="url(#filter0_b_1_512)">
<rect y="118" width="150" height="82" fill="black" fill-opacity="0.5"/>
</g>
<rect x="1" y="1" width="148" height="198" rx="15" stroke="black" stroke-width="2"/>
<path d="M55.9009 138V130.3H57.5289V133.22H60.7959V130.3H62.4239V138H60.7959V134.711H57.5289V138H55.9009ZM63.4268 138L66.3418 130.3H68.1953L71.1543 138H69.3228L68.7233 136.35H65.7918L65.2088 138H63.4268ZM66.1768 134.975H68.3273L67.2383 132.082L66.1768 134.975ZM74.4581 138.165C73.8458 138.165 73.2885 138.092 72.7861 137.945C72.2875 137.795 71.8456 137.575 71.4606 137.285L72.1811 136.009C72.4415 136.236 72.7568 136.416 73.1271 136.548C73.4975 136.68 73.8825 136.746 74.2821 136.746C74.6121 136.746 74.8963 136.702 75.1346 136.614C75.3766 136.522 75.5636 136.398 75.6956 136.24C75.8276 136.079 75.8936 135.892 75.8936 135.679C75.8936 135.353 75.7781 135.105 75.5471 134.936C75.3198 134.768 74.966 134.683 74.4856 134.683H72.9456V133.424H74.3591C74.6305 133.424 74.8633 133.387 75.0576 133.314C75.252 133.241 75.4023 133.134 75.5086 132.995C75.615 132.856 75.6681 132.689 75.6681 132.494C75.6681 132.304 75.615 132.144 75.5086 132.016C75.406 131.884 75.252 131.785 75.0466 131.719C74.8413 131.649 74.5883 131.614 74.2876 131.614C73.9393 131.614 73.6001 131.673 73.2701 131.79C72.9401 131.908 72.6615 132.069 72.4341 132.274L71.6916 131.081C72.0326 130.78 72.447 130.547 72.9346 130.382C73.426 130.217 73.9503 130.135 74.5076 130.135C75.0833 130.135 75.5783 130.217 75.9926 130.382C76.407 130.544 76.726 130.777 76.9496 131.081C77.1733 131.385 77.2851 131.75 77.2851 132.175C77.2851 132.406 77.2356 132.63 77.1366 132.846C77.0376 133.059 76.9038 133.252 76.7351 133.424C76.5665 133.596 76.3813 133.73 76.1796 133.825C76.6086 133.972 76.9496 134.207 77.2026 134.529C77.4593 134.852 77.5858 135.254 77.5821 135.734C77.5821 136.2 77.452 136.616 77.1916 136.982C76.9313 137.349 76.5665 137.639 76.0971 137.851C75.6278 138.061 75.0815 138.165 74.4581 138.165ZM78.1436 138L81.0586 130.3H82.9121L85.8711 138H84.0396L83.4401 136.35H80.5086L79.9256 138H78.1436ZM80.8936 134.975H83.0441L81.9551 132.082L80.8936 134.975ZM91.9016 138V131.785H89.3276V132.538C89.3276 133.437 89.2818 134.207 89.1901 134.848C89.0985 135.486 88.9518 136.016 88.7501 136.438C88.5521 136.86 88.2881 137.193 87.9581 137.439C87.6281 137.685 87.2266 137.864 86.7536 137.978L86.1871 136.619C86.5098 136.546 86.7738 136.434 86.9791 136.284C87.1881 136.134 87.3513 135.912 87.4686 135.618C87.586 135.321 87.6666 134.925 87.7106 134.43C87.7583 133.932 87.7821 133.301 87.7821 132.538V130.3H93.5296V138H91.9016ZM86.1871 139.947V136.619L87.1606 136.663L87.6941 136.509H94.7671V139.947H93.2216V138H87.7326V139.947H86.1871Z" fill="white"/>
<path d="M16.0219 159.108L15.6439 158.181C15.8449 158.118 16.0174 158.041 16.1614 157.951C16.3054 157.861 16.4254 157.74 16.5214 157.587C16.6204 157.431 16.6969 157.228 16.7509 156.979C16.8079 156.727 16.8484 156.411 16.8724 156.03C16.8964 155.646 16.9084 155.178 16.9084 154.626V152.7H21.3139V159H20.3059V153.622H17.8759V154.59C17.8759 155.244 17.8564 155.808 17.8174 156.282C17.7784 156.753 17.7139 157.152 17.6239 157.479C17.5369 157.803 17.4214 158.071 17.2774 158.284C17.1364 158.494 16.9609 158.664 16.7509 158.793C16.5439 158.922 16.3009 159.027 16.0219 159.108ZM22.8223 159V154.545H23.8123L23.8078 156.264H25.3153V157.083H23.8078L23.8123 159H22.8223ZM27.1828 159.135C26.7148 159.135 26.2993 159.029 25.9363 158.815C25.5733 158.599 25.2868 158.313 25.0768 157.956C24.8698 157.596 24.7663 157.201 24.7663 156.772C24.7663 156.454 24.8263 156.154 24.9463 155.872C25.0663 155.587 25.2343 155.335 25.4503 155.116C25.6663 154.897 25.9213 154.725 26.2153 154.599C26.5093 154.473 26.8318 154.41 27.1828 154.41C27.6508 154.41 28.0663 154.518 28.4293 154.734C28.7923 154.947 29.0773 155.233 29.2843 155.593C29.4943 155.95 29.5993 156.343 29.5993 156.772C29.5993 157.087 29.5393 157.387 29.4193 157.672C29.2993 157.957 29.1313 158.209 28.9153 158.428C28.6993 158.647 28.4443 158.82 28.1503 158.946C27.8563 159.072 27.5338 159.135 27.1828 159.135ZM27.1828 158.257C27.4588 158.257 27.7033 158.197 27.9163 158.077C28.1293 157.954 28.2973 157.782 28.4203 157.56C28.5433 157.338 28.6048 157.075 28.6048 156.772C28.6048 156.469 28.5433 156.207 28.4203 155.985C28.2973 155.76 28.1293 155.587 27.9163 155.467C27.7033 155.347 27.4588 155.287 27.1828 155.287C26.9068 155.287 26.6608 155.347 26.4448 155.467C26.2318 155.587 26.0638 155.76 25.9408 155.985C25.8208 156.207 25.7608 156.469 25.7608 156.772C25.7608 157.075 25.8208 157.338 25.9408 157.56C26.0638 157.782 26.2318 157.954 26.4448 158.077C26.6608 158.197 26.9068 158.257 27.1828 158.257ZM32.7698 159.135C32.3948 159.135 32.0558 159.071 31.7528 158.941C31.4498 158.812 31.1918 158.626 30.9788 158.383C30.7658 158.137 30.6023 157.839 30.4883 157.488C30.3773 157.134 30.3218 156.732 30.3218 156.282C30.3218 155.787 30.3593 155.343 30.4343 154.95C30.5123 154.557 30.6338 154.216 30.7988 153.928C30.9668 153.64 31.1873 153.403 31.4603 153.217C31.7363 153.031 32.0708 152.898 32.4638 152.817L34.5968 152.385L34.7588 153.244L32.6843 153.645C32.3363 153.717 32.0633 153.832 31.8653 153.991C31.6673 154.15 31.5218 154.353 31.4288 154.599C31.3358 154.845 31.2743 155.134 31.2443 155.467C31.4333 155.212 31.6688 155.008 31.9508 154.855C32.2328 154.702 32.5613 154.626 32.9363 154.626C33.3593 154.626 33.7328 154.726 34.0568 154.927C34.3838 155.125 34.6388 155.391 34.8218 155.724C35.0048 156.057 35.0963 156.426 35.0963 156.831C35.0963 157.146 35.0408 157.443 34.9298 157.722C34.8218 158.001 34.6643 158.247 34.4573 158.46C34.2503 158.67 34.0043 158.835 33.7193 158.955C33.4343 159.075 33.1178 159.135 32.7698 159.135ZM32.7473 158.257C33.0083 158.257 33.2408 158.2 33.4448 158.086C33.6518 157.969 33.8138 157.806 33.9308 157.596C34.0478 157.383 34.1063 157.131 34.1063 156.84C34.1063 156.549 34.0478 156.298 33.9308 156.088C33.8138 155.875 33.6518 155.712 33.4448 155.598C33.2408 155.481 33.0083 155.422 32.7473 155.422C32.4863 155.422 32.2523 155.481 32.0453 155.598C31.8413 155.712 31.6808 155.875 31.5638 156.088C31.4468 156.298 31.3883 156.549 31.3883 156.84C31.3883 157.131 31.4468 157.383 31.5638 157.596C31.6808 157.806 31.8413 157.969 32.0453 158.086C32.2523 158.2 32.4863 158.257 32.7473 158.257ZM38.2112 159.135C37.7462 159.135 37.3307 159.029 36.9647 158.815C36.6017 158.599 36.3167 158.313 36.1097 157.956C35.9027 157.596 35.7992 157.201 35.7992 156.772C35.7992 156.454 35.8577 156.154 35.9747 155.872C36.0947 155.587 36.2627 155.335 36.4787 155.116C36.6977 154.897 36.9542 154.725 37.2482 154.599C37.5422 154.473 37.8647 154.41 38.2157 154.41C38.6807 154.41 39.0947 154.518 39.4577 154.734C39.8237 154.947 40.1102 155.233 40.3172 155.593C40.5242 155.95 40.6277 156.343 40.6277 156.772C40.6277 157.087 40.5677 157.387 40.4477 157.672C40.3307 157.957 40.1642 158.209 39.9482 158.428C39.7322 158.647 39.4772 158.82 39.1832 158.946C38.8892 159.072 38.5652 159.135 38.2112 159.135ZM38.2112 158.257C38.4872 158.257 38.7317 158.197 38.9447 158.077C39.1607 157.954 39.3302 157.782 39.4532 157.56C39.5762 157.338 39.6377 157.075 39.6377 156.772C39.6377 156.469 39.5762 156.207 39.4532 155.985C39.3302 155.76 39.1607 155.587 38.9447 155.467C38.7317 155.347 38.4872 155.287 38.2112 155.287C37.9352 155.287 37.6892 155.347 37.4732 155.467C37.2602 155.587 37.0922 155.76 36.9692 155.985C36.8492 156.207 36.7892 156.469 36.7892 156.772C36.7892 157.075 36.8507 157.338 36.9737 157.56C37.0967 157.782 37.2647 157.954 37.4777 158.077C37.6937 158.197 37.9382 158.257 38.2112 158.257ZM41.6221 159V154.545H42.5806V157.551L44.9971 154.545H45.8611V159H44.9071V155.958L42.4681 159H41.6221ZM43.7416 153.78C43.4086 153.78 43.1161 153.711 42.8641 153.573C42.6121 153.435 42.4171 153.244 42.2791 153.001C42.1411 152.758 42.0766 152.479 42.0856 152.164H42.9136C42.9016 152.44 42.9706 152.664 43.1206 152.835C43.2736 153.003 43.4806 153.087 43.7416 153.087C44.0026 153.087 44.2081 153.003 44.3581 152.835C44.5081 152.664 44.5756 152.44 44.5606 152.164H45.3931C45.3991 152.476 45.3316 152.754 45.1906 152.997C45.0526 153.24 44.8576 153.432 44.6056 153.573C44.3566 153.711 44.0686 153.78 43.7416 153.78ZM49.2824 159.077L48.9359 158.185C49.2419 158.107 49.4654 157.984 49.6064 157.816C49.7504 157.648 49.8404 157.414 49.8764 157.114C49.9154 156.814 49.9349 156.427 49.9349 155.953V154.545H53.5574V159H52.5674V155.364H50.8574V155.953C50.8574 156.43 50.8349 156.846 50.7899 157.2C50.7479 157.554 50.6699 157.855 50.5559 158.104C50.4419 158.353 50.2814 158.557 50.0744 158.716C49.8704 158.872 49.6064 158.992 49.2824 159.077ZM56.9715 159.135C56.4915 159.135 56.07 159.038 55.707 158.842C55.344 158.644 55.0605 158.368 54.8565 158.014C54.6555 157.66 54.555 157.249 54.555 156.781C54.555 156.439 54.6135 156.124 54.7305 155.836C54.8475 155.545 55.0125 155.293 55.2255 155.08C55.4385 154.867 55.6875 154.702 55.9725 154.585C56.2605 154.468 56.574 154.41 56.913 154.41C57.282 154.41 57.6105 154.476 57.8985 154.608C58.1865 154.737 58.425 154.918 58.614 155.152C58.806 155.386 58.941 155.661 59.019 155.976C59.1 156.288 59.1135 156.627 59.0595 156.993H55.5045C55.4985 157.26 55.557 157.494 55.68 157.695C55.803 157.893 55.9785 158.047 56.2065 158.158C56.4375 158.269 56.709 158.325 57.021 158.325C57.273 158.325 57.516 158.287 57.75 158.212C57.987 158.134 58.2015 158.02 58.3935 157.87L58.776 158.581C58.632 158.698 58.458 158.799 58.254 158.883C58.05 158.964 57.837 159.026 57.615 159.068C57.393 159.113 57.1785 159.135 56.9715 159.135ZM55.563 156.264H58.0875C58.0785 155.928 57.9705 155.664 57.7635 155.472C57.5595 155.28 57.2685 155.184 56.8905 155.184C56.5245 155.184 56.22 155.28 55.977 155.472C55.737 155.664 55.599 155.928 55.563 156.264ZM60.0879 159V154.545H60.9474H60.9744L62.9724 157.434L62.5449 157.443L64.4439 154.545H65.3214V159H64.4214L64.4349 155.706L64.6194 155.787L63.0264 158.113H62.3874L60.7224 155.782L60.9069 155.701L60.9204 159H60.0879ZM66.6973 159V154.545H67.5568H67.5838L69.5818 157.434L69.1543 157.443L71.0533 154.545H71.9308V159H71.0308L71.0443 155.706L71.2288 155.787L69.6358 158.113H68.9968L67.3318 155.782L67.5163 155.701L67.5298 159H66.6973ZM73.3067 159V154.545H74.2652V157.551L76.6817 154.545H77.5457V159H76.5917V155.958L74.1527 159H73.3067ZM78.9229 159V154.545H79.9129V156.264H82.1449V154.545H83.1349V159H82.1449V157.083H79.9129V159H78.9229ZM84.5127 159V154.545H87.4467V155.364H85.5027V159H84.5127ZM93.8039 159V155.364H92.0039V155.953C92.0039 156.358 91.9799 156.724 91.9319 157.051C91.8839 157.378 91.7984 157.666 91.6754 157.915C91.5524 158.161 91.3799 158.365 91.1579 158.527C90.9389 158.689 90.6584 158.808 90.3164 158.883L90.0734 158.212C90.3584 158.143 90.5729 158.014 90.7169 157.825C90.8609 157.636 90.9569 157.387 91.0049 157.078C91.0559 156.766 91.0814 156.391 91.0814 155.953V154.545H94.7939V159H93.8039ZM90.0734 160.35V158.212L90.6854 158.275L90.8384 158.181H95.6894V160.35H94.7849V159H90.9779V160.35H90.0734ZM96.5625 159V154.545H98.6865C99.1905 154.545 99.594 154.641 99.897 154.833C100.2 155.025 100.352 155.313 100.352 155.697C100.352 155.877 100.308 156.037 100.221 156.178C100.134 156.316 100.014 156.432 99.861 156.525C99.708 156.618 99.5295 156.685 99.3255 156.728L99.3075 156.507C99.7005 156.561 100.005 156.691 100.221 156.898C100.437 157.105 100.545 157.368 100.545 157.686C100.545 157.956 100.475 158.19 100.334 158.388C100.193 158.583 99.99 158.734 99.726 158.842C99.462 158.947 99.1455 159 98.7765 159H96.5625ZM97.521 158.266H98.6415C98.9385 158.266 99.1665 158.217 99.3255 158.118C99.4875 158.019 99.5685 157.87 99.5685 157.672C99.5685 157.477 99.489 157.332 99.33 157.236C99.171 157.137 98.9415 157.087 98.6415 157.087H97.3905V156.381H98.538C98.817 156.381 99.033 156.339 99.186 156.255C99.339 156.168 99.4155 156.027 99.4155 155.832C99.4155 155.637 99.339 155.496 99.186 155.409C99.033 155.319 98.817 155.274 98.538 155.274H97.521V158.266ZM101.66 159V154.545H102.619V157.551L105.035 154.545H105.899V159H104.945V155.958L102.506 159H101.66ZM107.276 159V154.545H110.21V155.364H108.266V159H107.276ZM112.364 159.135C112.055 159.135 111.783 159.078 111.549 158.964C111.315 158.847 111.132 158.683 111 158.473C110.871 158.26 110.807 158.01 110.807 157.722C110.807 157.479 110.868 157.26 110.991 157.065C111.114 156.867 111.305 156.703 111.562 156.574C111.824 156.445 112.158 156.36 112.566 156.318C112.974 156.273 113.465 156.279 114.038 156.336L114.056 157.02C113.648 156.963 113.297 156.939 113.003 156.948C112.709 156.957 112.467 156.994 112.278 157.06C112.092 157.123 111.954 157.209 111.864 157.317C111.777 157.422 111.734 157.543 111.734 157.681C111.734 157.897 111.81 158.064 111.963 158.181C112.119 158.298 112.332 158.356 112.602 158.356C112.833 158.356 113.04 158.314 113.223 158.23C113.406 158.146 113.55 158.028 113.655 157.875C113.763 157.722 113.817 157.542 113.817 157.335V156.151C113.817 155.953 113.775 155.782 113.691 155.638C113.607 155.491 113.48 155.377 113.309 155.296C113.138 155.215 112.925 155.175 112.67 155.175C112.436 155.175 112.205 155.211 111.977 155.283C111.749 155.352 111.531 155.461 111.324 155.611L111.045 154.882C111.324 154.693 111.615 154.56 111.918 154.482C112.221 154.404 112.512 154.365 112.791 154.365C113.205 154.365 113.559 154.431 113.853 154.563C114.15 154.692 114.378 154.888 114.537 155.152C114.696 155.413 114.776 155.743 114.776 156.142V159H113.885V158.473C113.735 158.686 113.526 158.85 113.259 158.964C112.992 159.078 112.694 159.135 112.364 159.135ZM118.126 159.135C117.646 159.135 117.224 159.038 116.861 158.842C116.498 158.644 116.215 158.368 116.011 158.014C115.81 157.66 115.709 157.249 115.709 156.781C115.709 156.439 115.768 156.124 115.885 155.836C116.002 155.545 116.167 155.293 116.38 155.08C116.593 154.867 116.842 154.702 117.127 154.585C117.415 154.468 117.728 154.41 118.067 154.41C118.436 154.41 118.765 154.476 119.053 154.608C119.341 154.737 119.579 154.918 119.768 155.152C119.96 155.386 120.095 155.661 120.173 155.976C120.254 156.288 120.268 156.627 120.214 156.993H116.659C116.653 157.26 116.711 157.494 116.834 157.695C116.957 157.893 117.133 158.047 117.361 158.158C117.592 158.269 117.863 158.325 118.175 158.325C118.427 158.325 118.67 158.287 118.904 158.212C119.141 158.134 119.356 158.02 119.548 157.87L119.93 158.581C119.786 158.698 119.612 158.799 119.408 158.883C119.204 158.964 118.991 159.026 118.769 159.068C118.547 159.113 118.333 159.135 118.126 159.135ZM116.717 156.264H119.242C119.233 155.928 119.125 155.664 118.918 155.472C118.714 155.28 118.423 155.184 118.045 155.184C117.679 155.184 117.374 155.28 117.131 155.472C116.891 155.664 116.753 155.928 116.717 156.264ZM122.237 159V155.364H120.774V154.545H124.694V155.364H123.227V159H122.237ZM127.645 159.135C127.177 159.135 126.76 159.033 126.394 158.829C126.028 158.622 125.74 158.341 125.53 157.987C125.323 157.63 125.219 157.225 125.219 156.772C125.219 156.43 125.281 156.117 125.404 155.832C125.527 155.544 125.701 155.293 125.926 155.08C126.151 154.867 126.415 154.702 126.718 154.585C127.024 154.468 127.355 154.41 127.712 154.41C128.012 154.41 128.29 154.45 128.545 154.531C128.803 154.609 129.04 154.731 129.256 154.896L128.779 155.652C128.641 155.529 128.482 155.437 128.302 155.377C128.125 155.317 127.936 155.287 127.735 155.287C127.423 155.287 127.154 155.346 126.929 155.463C126.704 155.58 126.529 155.749 126.403 155.971C126.28 156.19 126.218 156.456 126.218 156.768C126.218 157.233 126.353 157.597 126.623 157.861C126.896 158.125 127.267 158.257 127.735 158.257C127.957 158.257 128.167 158.217 128.365 158.136C128.563 158.052 128.728 157.942 128.86 157.807L129.332 158.559C129.095 158.739 128.831 158.88 128.54 158.982C128.249 159.084 127.951 159.135 127.645 159.135ZM129.932 159L131.642 156.718L131.858 157.357C131.489 157.36 131.174 157.306 130.913 157.195C130.652 157.081 130.452 156.922 130.314 156.718C130.179 156.511 130.112 156.267 130.112 155.985C130.112 155.682 130.188 155.424 130.341 155.211C130.494 154.995 130.71 154.83 130.989 154.716C131.268 154.602 131.595 154.545 131.97 154.545H133.892V159H132.938V155.296H132.069C131.751 155.296 131.51 155.352 131.345 155.463C131.183 155.574 131.102 155.74 131.102 155.962C131.102 156.178 131.177 156.346 131.327 156.466C131.48 156.583 131.7 156.642 131.988 156.642H133.064V157.362H132.281L131.061 159H129.932ZM23.9033 170V165.545H24.8933V167.264H27.1253V165.545H28.1153V170H27.1253V168.083H24.8933V170H23.9033ZM30.7307 170.135C30.4217 170.135 30.1502 170.078 29.9162 169.964C29.6822 169.847 29.4992 169.683 29.3672 169.473C29.2382 169.26 29.1737 169.01 29.1737 168.722C29.1737 168.479 29.2352 168.26 29.3582 168.065C29.4812 167.867 29.6717 167.703 29.9297 167.574C30.1907 167.445 30.5252 167.36 30.9332 167.318C31.3412 167.273 31.8317 167.279 32.4047 167.336L32.4227 168.02C32.0147 167.963 31.6637 167.939 31.3697 167.948C31.0757 167.957 30.8342 167.994 30.6452 168.06C30.4592 168.123 30.3212 168.209 30.2312 168.317C30.1442 168.422 30.1007 168.543 30.1007 168.681C30.1007 168.897 30.1772 169.064 30.3302 169.181C30.4862 169.298 30.6992 169.356 30.9692 169.356C31.2002 169.356 31.4072 169.314 31.5902 169.23C31.7732 169.146 31.9172 169.028 32.0222 168.875C32.1302 168.722 32.1842 168.542 32.1842 168.335V167.151C32.1842 166.953 32.1422 166.782 32.0582 166.638C31.9742 166.491 31.8467 166.377 31.6757 166.296C31.5047 166.215 31.2917 166.175 31.0367 166.175C30.8027 166.175 30.5717 166.211 30.3437 166.283C30.1157 166.352 29.8982 166.461 29.6912 166.611L29.4122 165.882C29.6912 165.693 29.9822 165.56 30.2852 165.482C30.5882 165.404 30.8792 165.365 31.1582 165.365C31.5722 165.365 31.9262 165.431 32.2202 165.563C32.5172 165.692 32.7452 165.888 32.9042 166.152C33.0632 166.413 33.1427 166.743 33.1427 167.142V170H32.2517V169.473C32.1017 169.686 31.8932 169.85 31.6262 169.964C31.3592 170.078 31.0607 170.135 30.7307 170.135ZM36.5121 170V169.28L37.8756 168.033C38.3076 167.637 38.6556 167.297 38.9196 167.012C39.1836 166.724 39.3756 166.464 39.4956 166.233C39.6156 166.002 39.6756 165.768 39.6756 165.531C39.6756 165.186 39.5571 164.918 39.3201 164.726C39.0861 164.531 38.7591 164.433 38.3391 164.433C38.0601 164.433 37.7931 164.481 37.5381 164.577C37.2831 164.673 37.0656 164.813 36.8856 164.996L36.5166 164.262C36.7716 164.034 37.0656 163.862 37.3986 163.745C37.7316 163.625 38.0811 163.565 38.4471 163.565C38.8821 163.565 39.2616 163.643 39.5856 163.799C39.9126 163.952 40.1661 164.169 40.3461 164.451C40.5291 164.73 40.6206 165.057 40.6206 165.432C40.6206 165.693 40.5681 165.954 40.4631 166.215C40.3611 166.473 40.1766 166.764 39.9096 167.088C39.6456 167.412 39.2706 167.801 38.7846 168.254L37.8171 169.145H40.7781V170H36.5121ZM44.1885 170V165.545H48.396V170H47.406V166.364H45.1785V170H44.1885ZM51.7991 170.135C51.3341 170.135 50.9186 170.029 50.5526 169.815C50.1896 169.599 49.9046 169.313 49.6976 168.956C49.4906 168.596 49.3871 168.201 49.3871 167.772C49.3871 167.454 49.4456 167.154 49.5626 166.872C49.6826 166.587 49.8506 166.335 50.0666 166.116C50.2856 165.897 50.5421 165.725 50.8361 165.599C51.1301 165.473 51.4526 165.41 51.8036 165.41C52.2686 165.41 52.6826 165.518 53.0456 165.734C53.4116 165.947 53.6981 166.233 53.9051 166.593C54.1121 166.95 54.2156 167.343 54.2156 167.772C54.2156 168.087 54.1556 168.387 54.0356 168.672C53.9186 168.957 53.7521 169.209 53.5361 169.428C53.3201 169.647 53.0651 169.82 52.7711 169.946C52.4771 170.072 52.1531 170.135 51.7991 170.135ZM51.7991 169.257C52.0751 169.257 52.3196 169.197 52.5326 169.077C52.7486 168.954 52.9181 168.782 53.0411 168.56C53.1641 168.338 53.2256 168.075 53.2256 167.772C53.2256 167.469 53.1641 167.207 53.0411 166.985C52.9181 166.76 52.7486 166.587 52.5326 166.467C52.3196 166.347 52.0751 166.287 51.7991 166.287C51.5231 166.287 51.2771 166.347 51.0611 166.467C50.8481 166.587 50.6801 166.76 50.5571 166.985C50.4371 167.207 50.3771 167.469 50.3771 167.772C50.3771 168.075 50.4386 168.338 50.5616 168.56C50.6846 168.782 50.8526 168.954 51.0656 169.077C51.2816 169.197 51.5261 169.257 51.7991 169.257ZM55.048 170.077L54.7015 169.185C55.0075 169.107 55.231 168.984 55.372 168.816C55.516 168.648 55.606 168.414 55.642 168.114C55.681 167.814 55.7005 167.427 55.7005 166.953V165.545H59.323V170H58.333V166.364H56.623V166.953C56.623 167.43 56.6005 167.846 56.5555 168.2C56.5135 168.554 56.4355 168.855 56.3215 169.104C56.2075 169.353 56.047 169.557 55.84 169.716C55.636 169.872 55.372 169.992 55.048 170.077ZM60.3926 170L62.1026 167.718L62.3186 168.357C61.9496 168.36 61.6346 168.306 61.3736 168.195C61.1126 168.081 60.9131 167.922 60.7751 167.718C60.6401 167.511 60.5726 167.267 60.5726 166.985C60.5726 166.682 60.6491 166.424 60.8021 166.211C60.9551 165.995 61.1711 165.83 61.4501 165.716C61.7291 165.602 62.0561 165.545 62.4311 165.545H64.3526V170H63.3986V166.296H62.5301C62.2121 166.296 61.9706 166.352 61.8056 166.463C61.6436 166.574 61.5626 166.74 61.5626 166.962C61.5626 167.178 61.6376 167.346 61.7876 167.466C61.9406 167.583 62.1611 167.642 62.4491 167.642H63.5246V168.362H62.7416L61.5221 170H60.3926ZM67.9365 170V165.545H70.0605C70.5645 165.545 70.968 165.641 71.271 165.833C71.574 166.025 71.7255 166.313 71.7255 166.697C71.7255 166.877 71.682 167.037 71.595 167.178C71.508 167.316 71.388 167.432 71.235 167.525C71.082 167.618 70.9035 167.685 70.6995 167.728L70.6815 167.507C71.0745 167.561 71.379 167.691 71.595 167.898C71.811 168.105 71.919 168.368 71.919 168.686C71.919 168.956 71.8485 169.19 71.7075 169.388C71.5665 169.583 71.364 169.734 71.1 169.842C70.836 169.947 70.5195 170 70.1505 170H67.9365ZM68.895 169.266H70.0155C70.3125 169.266 70.5405 169.217 70.6995 169.118C70.8615 169.019 70.9425 168.87 70.9425 168.672C70.9425 168.477 70.863 168.332 70.704 168.236C70.545 168.137 70.3155 168.087 70.0155 168.087H68.7645V167.381H69.912C70.191 167.381 70.407 167.339 70.56 167.255C70.713 167.168 70.7895 167.027 70.7895 166.832C70.7895 166.637 70.713 166.496 70.56 166.409C70.407 166.319 70.191 166.274 69.912 166.274H68.895V169.266ZM72.8722 170.077L72.5257 169.185C72.8317 169.107 73.0552 168.984 73.1962 168.816C73.3402 168.648 73.4302 168.414 73.4662 168.114C73.5052 167.814 73.5247 167.427 73.5247 166.953V165.545H77.1472V170H76.1572V166.364H74.4472V166.953C74.4472 167.43 74.4247 167.846 74.3797 168.2C74.3377 168.554 74.2597 168.855 74.1457 169.104C74.0317 169.353 73.8712 169.557 73.6642 169.716C73.4602 169.872 73.1962 169.992 72.8722 170.077ZM80.5614 170.135C80.0814 170.135 79.6599 170.038 79.2969 169.842C78.9339 169.644 78.6504 169.368 78.4464 169.014C78.2454 168.66 78.1449 168.249 78.1449 167.781C78.1449 167.439 78.2034 167.124 78.3204 166.836C78.4374 166.545 78.6024 166.293 78.8154 166.08C79.0284 165.867 79.2774 165.702 79.5624 165.585C79.8504 165.468 80.1639 165.41 80.5029 165.41C80.8719 165.41 81.2004 165.476 81.4884 165.608C81.7764 165.737 82.0149 165.918 82.2039 166.152C82.3959 166.386 82.5309 166.661 82.6089 166.976C82.6899 167.288 82.7034 167.627 82.6494 167.993H79.0944C79.0884 168.26 79.1469 168.494 79.2699 168.695C79.3929 168.893 79.5684 169.047 79.7964 169.158C80.0274 169.269 80.2989 169.325 80.6109 169.325C80.8629 169.325 81.1059 169.287 81.3399 169.212C81.5769 169.134 81.7914 169.02 81.9834 168.87L82.3659 169.581C82.2219 169.698 82.0479 169.799 81.8439 169.883C81.6399 169.964 81.4269 170.026 81.2049 170.068C80.9829 170.113 80.7684 170.135 80.5614 170.135ZM79.1529 167.264H81.6774C81.6684 166.928 81.5604 166.664 81.3534 166.472C81.1494 166.28 80.8584 166.184 80.4804 166.184C80.1144 166.184 79.8099 166.28 79.5669 166.472C79.3269 166.664 79.1889 166.928 79.1529 167.264ZM83.6778 170V165.545H85.8018C86.3058 165.545 86.7093 165.641 87.0123 165.833C87.3153 166.025 87.4668 166.313 87.4668 166.697C87.4668 166.877 87.4233 167.037 87.3363 167.178C87.2493 167.316 87.1293 167.432 86.9763 167.525C86.8233 167.618 86.6448 167.685 86.4408 167.728L86.4228 167.507C86.8158 167.561 87.1203 167.691 87.3363 167.898C87.5523 168.105 87.6603 168.368 87.6603 168.686C87.6603 168.956 87.5898 169.19 87.4488 169.388C87.3078 169.583 87.1053 169.734 86.8413 169.842C86.5773 169.947 86.2608 170 85.8918 170H83.6778ZM84.6363 169.266H85.7568C86.0538 169.266 86.2818 169.217 86.4408 169.118C86.6028 169.019 86.6838 168.87 86.6838 168.672C86.6838 168.477 86.6043 168.332 86.4453 168.236C86.2863 168.137 86.0568 168.087 85.7568 168.087H84.5058V167.381H85.6533C85.9323 167.381 86.1483 167.339 86.3013 167.255C86.4543 167.168 86.5308 167.027 86.5308 166.832C86.5308 166.637 86.4543 166.496 86.3013 166.409C86.1483 166.319 85.9323 166.274 85.6533 166.274H84.6363V169.266ZM90.8049 170.135C90.3399 170.135 89.9244 170.029 89.5584 169.815C89.1954 169.599 88.9104 169.313 88.7034 168.956C88.4964 168.596 88.3929 168.201 88.3929 167.772C88.3929 167.454 88.4514 167.154 88.5684 166.872C88.6884 166.587 88.8564 166.335 89.0724 166.116C89.2914 165.897 89.5479 165.725 89.8419 165.599C90.1359 165.473 90.4584 165.41 90.8094 165.41C91.2744 165.41 91.6884 165.518 92.0514 165.734C92.4174 165.947 92.7039 166.233 92.9109 166.593C93.1179 166.95 93.2214 167.343 93.2214 167.772C93.2214 168.087 93.1614 168.387 93.0414 168.672C92.9244 168.957 92.7579 169.209 92.5419 169.428C92.3259 169.647 92.0709 169.82 91.7769 169.946C91.4829 170.072 91.1589 170.135 90.8049 170.135ZM90.8049 169.257C91.0809 169.257 91.3254 169.197 91.5384 169.077C91.7544 168.954 91.9239 168.782 92.0469 168.56C92.1699 168.338 92.2314 168.075 92.2314 167.772C92.2314 167.469 92.1699 167.207 92.0469 166.985C91.9239 166.76 91.7544 166.587 91.5384 166.467C91.3254 166.347 91.0809 166.287 90.8049 166.287C90.5289 166.287 90.2829 166.347 90.0669 166.467C89.8539 166.587 89.6859 166.76 89.5629 166.985C89.4429 167.207 89.3829 167.469 89.3829 167.772C89.3829 168.075 89.4444 168.338 89.5674 168.56C89.6904 168.782 89.8584 168.954 90.0714 169.077C90.2874 169.197 90.5319 169.257 90.8049 169.257ZM96.4219 170V165.545H98.5459C99.0499 165.545 99.4534 165.641 99.7564 165.833C100.059 166.025 100.211 166.313 100.211 166.697C100.211 166.877 100.167 167.037 100.08 167.178C99.9934 167.316 99.8734 167.432 99.7204 167.525C99.5674 167.618 99.3889 167.685 99.1849 167.728L99.1669 167.507C99.5599 167.561 99.8644 167.691 100.08 167.898C100.296 168.105 100.404 168.368 100.404 168.686C100.404 168.956 100.334 169.19 100.193 169.388C100.052 169.583 99.8494 169.734 99.5854 169.842C99.3214 169.947 99.0049 170 98.6359 170H96.4219ZM97.3804 169.266H98.5009C98.7979 169.266 99.0259 169.217 99.1849 169.118C99.3469 169.019 99.4279 168.87 99.4279 168.672C99.4279 168.477 99.3484 168.332 99.1894 168.236C99.0304 168.137 98.8009 168.087 98.5009 168.087H97.2499V167.381H98.3974C98.6764 167.381 98.8924 167.339 99.0454 167.255C99.1984 167.168 99.2749 167.027 99.2749 166.832C99.2749 166.637 99.1984 166.496 99.0454 166.409C98.8924 166.319 98.6764 166.274 98.3974 166.274H97.3804V169.266ZM101.52 170V165.545H102.379H102.406L104.404 168.434L103.977 168.443L105.876 165.545H106.753V170H105.853L105.867 166.706L106.051 166.787L104.458 169.113H103.819L102.154 166.782L102.339 166.701L102.352 170H101.52ZM110.163 170.135C109.683 170.135 109.261 170.038 108.898 169.842C108.535 169.644 108.252 169.368 108.048 169.014C107.847 168.66 107.746 168.249 107.746 167.781C107.746 167.439 107.805 167.124 107.922 166.836C108.039 166.545 108.204 166.293 108.417 166.08C108.63 165.867 108.879 165.702 109.164 165.585C109.452 165.468 109.765 165.41 110.104 165.41C110.473 165.41 110.802 165.476 111.09 165.608C111.378 165.737 111.616 165.918 111.805 166.152C111.997 166.386 112.132 166.661 112.21 166.976C112.291 167.288 112.305 167.627 112.251 167.993H108.696C108.69 168.26 108.748 168.494 108.871 168.695C108.994 168.893 109.17 169.047 109.398 169.158C109.629 169.269 109.9 169.325 110.212 169.325C110.464 169.325 110.707 169.287 110.941 169.212C111.178 169.134 111.393 169.02 111.585 168.87L111.967 169.581C111.823 169.698 111.649 169.799 111.445 169.883C111.241 169.964 111.028 170.026 110.806 170.068C110.584 170.113 110.37 170.135 110.163 170.135ZM108.754 167.264H111.279C111.27 166.928 111.162 166.664 110.955 166.472C110.751 166.28 110.46 166.184 110.082 166.184C109.716 166.184 109.411 166.28 109.168 166.472C108.928 166.664 108.79 166.928 108.754 167.264ZM115.366 170.135C114.898 170.135 114.481 170.033 114.115 169.829C113.749 169.622 113.461 169.341 113.251 168.987C113.044 168.63 112.941 168.225 112.941 167.772C112.941 167.43 113.002 167.117 113.125 166.832C113.248 166.544 113.422 166.293 113.647 166.08C113.872 165.867 114.136 165.702 114.439 165.585C114.745 165.468 115.077 165.41 115.434 165.41C115.734 165.41 116.011 165.45 116.266 165.531C116.524 165.609 116.761 165.731 116.977 165.896L116.5 166.652C116.362 166.529 116.203 166.437 116.023 166.377C115.846 166.317 115.657 166.287 115.456 166.287C115.144 166.287 114.876 166.346 114.651 166.463C114.426 166.58 114.25 166.749 114.124 166.971C114.001 167.19 113.94 167.456 113.94 167.768C113.94 168.233 114.075 168.597 114.345 168.861C114.618 169.125 114.988 169.257 115.456 169.257C115.678 169.257 115.888 169.217 116.086 169.136C116.284 169.052 116.449 168.942 116.581 168.807L117.054 169.559C116.817 169.739 116.553 169.88 116.262 169.982C115.971 170.084 115.672 170.135 115.366 170.135ZM118.958 170V166.364H117.496V165.545H121.415V166.364H119.948V170H118.958ZM124.357 170.135C123.877 170.135 123.456 170.038 123.093 169.842C122.73 169.644 122.446 169.368 122.242 169.014C122.041 168.66 121.941 168.249 121.941 167.781C121.941 167.439 121.999 167.124 122.116 166.836C122.233 166.545 122.398 166.293 122.611 166.08C122.824 165.867 123.073 165.702 123.358 165.585C123.646 165.468 123.96 165.41 124.299 165.41C124.668 165.41 124.996 165.476 125.284 165.608C125.572 165.737 125.811 165.918 126 166.152C126.192 166.386 126.327 166.661 126.405 166.976C126.486 167.288 126.499 167.627 126.445 167.993H122.89C122.884 168.26 122.943 168.494 123.066 168.695C123.189 168.893 123.364 169.047 123.592 169.158C123.823 169.269 124.095 169.325 124.407 169.325C124.659 169.325 124.902 169.287 125.136 169.212C125.373 169.134 125.587 169.02 125.779 168.87L126.162 169.581C126.018 169.698 125.844 169.799 125.64 169.883C125.436 169.964 125.223 170.026 125.001 170.068C124.779 170.113 124.564 170.135 124.357 170.135ZM122.949 167.264H125.473C125.464 166.928 125.356 166.664 125.149 166.472C124.945 166.28 124.654 166.184 124.276 166.184C123.91 166.184 123.606 166.28 123.363 166.472C123.123 166.664 122.985 166.928 122.949 167.264ZM12.8023 181.135C12.3343 181.135 11.9173 181.033 11.5513 180.829C11.1853 180.622 10.8973 180.341 10.6873 179.987C10.4803 179.63 10.3768 179.225 10.3768 178.772C10.3768 178.43 10.4383 178.117 10.5613 177.832C10.6843 177.544 10.8583 177.293 11.0833 177.08C11.3083 176.867 11.5723 176.702 11.8753 176.585C12.1813 176.468 12.5128 176.41 12.8698 176.41C13.1698 176.41 13.4473 176.45 13.7023 176.531C13.9603 176.609 14.1973 176.731 14.4133 176.896L13.9363 177.652C13.7983 177.529 13.6393 177.437 13.4593 177.377C13.2823 177.317 13.0933 177.287 12.8923 177.287C12.5803 177.287 12.3118 177.346 12.0868 177.463C11.8618 177.58 11.6863 177.749 11.5603 177.971C11.4373 178.19 11.3758 178.456 11.3758 178.768C11.3758 179.233 11.5108 179.597 11.7808 179.861C12.0538 180.125 12.4243 180.257 12.8923 180.257C13.1143 180.257 13.3243 180.217 13.5223 180.136C13.7203 180.052 13.8853 179.942 14.0173 179.807L14.4898 180.559C14.2528 180.739 13.9888 180.88 13.6978 180.982C13.4068 181.084 13.1083 181.135 12.8023 181.135ZM17.3415 181.135C16.8765 181.135 16.461 181.029 16.095 180.815C15.732 180.599 15.447 180.313 15.24 179.956C15.033 179.596 14.9295 179.201 14.9295 178.772C14.9295 178.454 14.988 178.154 15.105 177.872C15.225 177.587 15.393 177.335 15.609 177.116C15.828 176.897 16.0845 176.725 16.3785 176.599C16.6725 176.473 16.995 176.41 17.346 176.41C17.811 176.41 18.225 176.518 18.588 176.734C18.954 176.947 19.2405 177.233 19.4475 177.593C19.6545 177.95 19.758 178.343 19.758 178.772C19.758 179.087 19.698 179.387 19.578 179.672C19.461 179.957 19.2945 180.209 19.0785 180.428C18.8625 180.647 18.6075 180.82 18.3135 180.946C18.0195 181.072 17.6955 181.135 17.3415 181.135ZM17.3415 180.257C17.6175 180.257 17.862 180.197 18.075 180.077C18.291 179.954 18.4605 179.782 18.5835 179.56C18.7065 179.338 18.768 179.075 18.768 178.772C18.768 178.469 18.7065 178.207 18.5835 177.985C18.4605 177.76 18.291 177.587 18.075 177.467C17.862 177.347 17.6175 177.287 17.3415 177.287C17.0655 177.287 16.8195 177.347 16.6035 177.467C16.3905 177.587 16.2225 177.76 16.0995 177.985C15.9795 178.207 15.9195 178.469 15.9195 178.772C15.9195 179.075 15.981 179.338 16.104 179.56C16.227 179.782 16.395 179.954 16.608 180.077C16.824 180.197 17.0685 180.257 17.3415 180.257ZM22.9585 181V176.545H25.0825C25.5865 176.545 25.99 176.641 26.293 176.833C26.596 177.025 26.7475 177.313 26.7475 177.697C26.7475 177.877 26.704 178.037 26.617 178.178C26.53 178.316 26.41 178.432 26.257 178.525C26.104 178.618 25.9255 178.685 25.7215 178.728L25.7035 178.507C26.0965 178.561 26.401 178.691 26.617 178.898C26.833 179.105 26.941 179.368 26.941 179.686C26.941 179.956 26.8705 180.19 26.7295 180.388C26.5885 180.583 26.386 180.734 26.122 180.842C25.858 180.947 25.5415 181 25.1725 181H22.9585ZM23.917 180.266H25.0375C25.3345 180.266 25.5625 180.217 25.7215 180.118C25.8835 180.019 25.9645 179.87 25.9645 179.672C25.9645 179.477 25.885 179.332 25.726 179.236C25.567 179.137 25.3375 179.087 25.0375 179.087H23.7865V178.381H24.934C25.213 178.381 25.429 178.339 25.582 178.255C25.735 178.168 25.8115 178.027 25.8115 177.832C25.8115 177.637 25.735 177.496 25.582 177.409C25.429 177.319 25.213 177.274 24.934 177.274H23.917V180.266ZM30.0992 181.135C29.6312 181.135 29.2142 181.033 28.8482 180.829C28.4822 180.622 28.1942 180.341 27.9842 179.987C27.7772 179.63 27.6737 179.225 27.6737 178.772C27.6737 178.43 27.7352 178.117 27.8582 177.832C27.9812 177.544 28.1552 177.293 28.3802 177.08C28.6052 176.867 28.8692 176.702 29.1722 176.585C29.4782 176.468 29.8097 176.41 30.1667 176.41C30.4667 176.41 30.7442 176.45 30.9992 176.531C31.2572 176.609 31.4942 176.731 31.7102 176.896L31.2332 177.652C31.0952 177.529 30.9362 177.437 30.7562 177.377C30.5792 177.317 30.3902 177.287 30.1892 177.287C29.8772 177.287 29.6087 177.346 29.3837 177.463C29.1587 177.58 28.9832 177.749 28.8572 177.971C28.7342 178.19 28.6727 178.456 28.6727 178.768C28.6727 179.233 28.8077 179.597 29.0777 179.861C29.3507 180.125 29.7212 180.257 30.1892 180.257C30.4112 180.257 30.6212 180.217 30.8192 180.136C31.0172 180.052 31.1822 179.942 31.3142 179.807L31.7867 180.559C31.5497 180.739 31.2857 180.88 30.9947 180.982C30.7037 181.084 30.4052 181.135 30.0992 181.135ZM34.6429 181.135C34.1629 181.135 33.7414 181.038 33.3784 180.842C33.0154 180.644 32.7319 180.368 32.5279 180.014C32.3269 179.66 32.2264 179.249 32.2264 178.781C32.2264 178.439 32.2849 178.124 32.4019 177.836C32.5189 177.545 32.6839 177.293 32.8969 177.08C33.1099 176.867 33.3589 176.702 33.6439 176.585C33.9319 176.468 34.2454 176.41 34.5844 176.41C34.9534 176.41 35.2819 176.476 35.5699 176.608C35.8579 176.737 36.0964 176.918 36.2854 177.152C36.4774 177.386 36.6124 177.661 36.6904 177.976C36.7714 178.288 36.7849 178.627 36.7309 178.993H33.1759C33.1699 179.26 33.2284 179.494 33.3514 179.695C33.4744 179.893 33.6499 180.047 33.8779 180.158C34.1089 180.269 34.3804 180.325 34.6924 180.325C34.9444 180.325 35.1874 180.287 35.4214 180.212C35.6584 180.134 35.8729 180.02 36.0649 179.87L36.4474 180.581C36.3034 180.698 36.1294 180.799 35.9254 180.883C35.7214 180.964 35.5084 181.026 35.2864 181.068C35.0644 181.113 34.8499 181.135 34.6429 181.135ZM33.2344 178.264H35.7589C35.7499 177.928 35.6419 177.664 35.4349 177.472C35.2309 177.28 34.9399 177.184 34.5619 177.184C34.1959 177.184 33.8914 177.28 33.6484 177.472C33.4084 177.664 33.2704 177.928 33.2344 178.264ZM37.7593 181V176.545H38.6188H38.6458L40.6438 179.434L40.2163 179.443L42.1153 176.545H42.9928V181H42.0928L42.1063 177.706L42.2908 177.787L40.6978 180.113H40.0588L38.3938 177.782L38.5783 177.701L38.5918 181H37.7593ZM44.3687 181V176.545H45.3272V179.551L47.7437 176.545H48.6077V181H47.6537V177.958L45.2147 181H44.3687ZM52.0289 181.077L51.6824 180.185C51.9884 180.107 52.2119 179.984 52.3529 179.816C52.4969 179.648 52.5869 179.414 52.6229 179.114C52.6619 178.814 52.6814 178.427 52.6814 177.953V176.545H56.3039V181H55.3139V177.364H53.6039V177.953C53.6039 178.43 53.5814 178.846 53.5364 179.2C53.4944 179.554 53.4164 179.855 53.3024 180.104C53.1884 180.353 53.0279 180.557 52.8209 180.716C52.6169 180.872 52.3529 180.992 52.0289 181.077ZM59.7181 181.135C59.2381 181.135 58.8166 181.038 58.4536 180.842C58.0906 180.644 57.8071 180.368 57.6031 180.014C57.4021 179.66 57.3016 179.249 57.3016 178.781C57.3016 178.439 57.3601 178.124 57.4771 177.836C57.5941 177.545 57.7591 177.293 57.9721 177.08C58.1851 176.867 58.4341 176.702 58.7191 176.585C59.0071 176.468 59.3206 176.41 59.6596 176.41C60.0286 176.41 60.3571 176.476 60.6451 176.608C60.9331 176.737 61.1716 176.918 61.3606 177.152C61.5526 177.386 61.6876 177.661 61.7656 177.976C61.8466 178.288 61.8601 178.627 61.8061 178.993H58.2511C58.2451 179.26 58.3036 179.494 58.4266 179.695C58.5496 179.893 58.7251 180.047 58.9531 180.158C59.1841 180.269 59.4556 180.325 59.7676 180.325C60.0196 180.325 60.2626 180.287 60.4966 180.212C60.7336 180.134 60.9481 180.02 61.1401 179.87L61.5226 180.581C61.3786 180.698 61.2046 180.799 61.0006 180.883C60.7966 180.964 60.5836 181.026 60.3616 181.068C60.1396 181.113 59.9251 181.135 59.7181 181.135ZM58.3096 178.264H60.8341C60.8251 177.928 60.7171 177.664 60.5101 177.472C60.3061 177.28 60.0151 177.184 59.6371 177.184C59.2711 177.184 58.9666 177.28 58.7236 177.472C58.4836 177.664 58.3456 177.928 58.3096 178.264ZM62.8345 181V176.545H63.694H63.721L65.719 179.434L65.2915 179.443L67.1905 176.545H68.068V181H67.168L67.1815 177.706L67.366 177.787L65.773 180.113H65.134L63.469 177.782L63.6535 177.701L63.667 181H62.8345ZM69.4439 181V176.545H70.3034H70.3304L72.3284 179.434L71.9009 179.443L73.7999 176.545H74.6774V181H73.7774L73.7909 177.706L73.9754 177.787L72.3824 180.113H71.7434L70.0784 177.782L70.2629 177.701L70.2764 181H69.4439ZM76.0532 181V176.545H77.0117V179.551L79.4282 176.545H80.2922V181H79.3382V177.958L76.8992 181H76.0532ZM81.6695 181V176.545H82.6595V178.264H84.8915V176.545H85.8815V181H84.8915V179.083H82.6595V181H81.6695ZM87.2593 181V176.545H90.1933V177.364H88.2493V181H87.2593ZM92.3464 181.135C92.0374 181.135 91.7659 181.078 91.5319 180.964C91.2979 180.847 91.1149 180.683 90.9829 180.473C90.8539 180.26 90.7894 180.01 90.7894 179.722C90.7894 179.479 90.8509 179.26 90.9739 179.065C91.0969 178.867 91.2874 178.703 91.5454 178.574C91.8064 178.445 92.1409 178.36 92.5489 178.318C92.9569 178.273 93.4474 178.279 94.0204 178.336L94.0384 179.02C93.6304 178.963 93.2794 178.939 92.9854 178.948C92.6914 178.957 92.4499 178.994 92.2609 179.06C92.0749 179.123 91.9369 179.209 91.8469 179.317C91.7599 179.422 91.7164 179.543 91.7164 179.681C91.7164 179.897 91.7929 180.064 91.9459 180.181C92.1019 180.298 92.3149 180.356 92.5849 180.356C92.8159 180.356 93.0229 180.314 93.2059 180.23C93.3889 180.146 93.5329 180.028 93.6379 179.875C93.7459 179.722 93.7999 179.542 93.7999 179.335V178.151C93.7999 177.953 93.7579 177.782 93.6739 177.638C93.5899 177.491 93.4624 177.377 93.2914 177.296C93.1204 177.215 92.9074 177.175 92.6524 177.175C92.4184 177.175 92.1874 177.211 91.9594 177.283C91.7314 177.352 91.5139 177.461 91.3069 177.611L91.0279 176.882C91.3069 176.693 91.5979 176.56 91.9009 176.482C92.2039 176.404 92.4949 176.365 92.7739 176.365C93.1879 176.365 93.5419 176.431 93.8359 176.563C94.1329 176.692 94.3609 176.888 94.5199 177.152C94.6789 177.413 94.7584 177.743 94.7584 178.142V181H93.8674V180.473C93.7174 180.686 93.5089 180.85 93.2419 180.964C92.9749 181.078 92.6764 181.135 92.3464 181.135ZM96.0747 181V176.545H96.9342H96.9612L98.9592 179.434L98.5317 179.443L100.431 176.545H101.308V181H100.408L100.422 177.706L100.606 177.787L99.0132 180.113H98.3742L96.7092 177.782L96.8937 177.701L96.9072 181H96.0747ZM102.684 181V176.545H103.643V179.551L106.059 176.545H106.923V181H105.969V177.958L103.53 181H102.684ZM110.506 181V176.545H111.496V178.264H113.728V176.545H114.718V181H113.728V179.083H111.496V181H110.506ZM117.334 181.135C117.025 181.135 116.753 181.078 116.519 180.964C116.285 180.847 116.102 180.683 115.97 180.473C115.841 180.26 115.777 180.01 115.777 179.722C115.777 179.479 115.838 179.26 115.961 179.065C116.084 178.867 116.275 178.703 116.533 178.574C116.794 178.445 117.128 178.36 117.536 178.318C117.944 178.273 118.435 178.279 119.008 178.336L119.026 179.02C118.618 178.963 118.267 178.939 117.973 178.948C117.679 178.957 117.437 178.994 117.248 179.06C117.062 179.123 116.924 179.209 116.834 179.317C116.747 179.422 116.704 179.543 116.704 179.681C116.704 179.897 116.78 180.064 116.933 180.181C117.089 180.298 117.302 180.356 117.572 180.356C117.803 180.356 118.01 180.314 118.193 180.23C118.376 180.146 118.52 180.028 118.625 179.875C118.733 179.722 118.787 179.542 118.787 179.335V178.151C118.787 177.953 118.745 177.782 118.661 177.638C118.577 177.491 118.45 177.377 118.279 177.296C118.108 177.215 117.895 177.175 117.64 177.175C117.406 177.175 117.175 177.211 116.947 177.283C116.719 177.352 116.501 177.461 116.294 177.611L116.015 176.882C116.294 176.693 116.585 176.56 116.888 176.482C117.191 176.404 117.482 176.365 117.761 176.365C118.175 176.365 118.529 176.431 118.823 176.563C119.12 176.692 119.348 176.888 119.507 177.152C119.666 177.413 119.746 177.743 119.746 178.142V181H118.855V180.473C118.705 180.686 118.496 180.85 118.229 180.964C117.962 181.078 117.664 181.135 117.334 181.135ZM123.268 181V176.545H124.258V178.264H126.49V176.545H127.48V181H126.49V179.083H124.258V181H123.268ZM130.892 181.135C130.412 181.135 129.99 181.038 129.627 180.842C129.264 180.644 128.981 180.368 128.777 180.014C128.576 179.66 128.475 179.249 128.475 178.781C128.475 178.439 128.534 178.124 128.651 177.836C128.768 177.545 128.933 177.293 129.146 177.08C129.359 176.867 129.608 176.702 129.893 176.585C130.181 176.468 130.494 176.41 130.833 176.41C131.202 176.41 131.531 176.476 131.819 176.608C132.107 176.737 132.345 176.918 132.534 177.152C132.726 177.386 132.861 177.661 132.939 177.976C133.02 178.288 133.034 178.627 132.98 178.993H129.425C129.419 179.26 129.477 179.494 129.6 179.695C129.723 179.893 129.899 180.047 130.127 180.158C130.358 180.269 130.629 180.325 130.941 180.325C131.193 180.325 131.436 180.287 131.67 180.212C131.907 180.134 132.122 180.02 132.314 179.87L132.696 180.581C132.552 180.698 132.378 180.799 132.174 180.883C131.97 180.964 131.757 181.026 131.535 181.068C131.313 181.113 131.099 181.135 130.892 181.135ZM129.483 178.264H132.008C131.999 177.928 131.891 177.664 131.684 177.472C131.48 177.28 131.189 177.184 130.811 177.184C130.445 177.184 130.14 177.28 129.897 177.472C129.657 177.664 129.519 177.928 129.483 178.264ZM129.834 175.757C129.672 175.757 129.528 175.7 129.402 175.586C129.279 175.472 129.218 175.327 129.218 175.15C129.218 175.03 129.246 174.923 129.303 174.83C129.36 174.737 129.435 174.665 129.528 174.614C129.624 174.563 129.726 174.538 129.834 174.538C129.999 174.538 130.143 174.595 130.266 174.709C130.392 174.823 130.455 174.97 130.455 175.15C130.455 175.27 130.427 175.376 130.37 175.469C130.313 175.559 130.236 175.63 130.14 175.681C130.047 175.732 129.945 175.757 129.834 175.757ZM131.783 175.757C131.621 175.757 131.477 175.7 131.351 175.586C131.228 175.472 131.166 175.327 131.166 175.15C131.166 175.03 131.195 174.923 131.252 174.83C131.309 174.737 131.384 174.665 131.477 174.614C131.573 174.563 131.675 174.538 131.783 174.538C131.948 174.538 132.092 174.595 132.215 174.709C132.341 174.823 132.404 174.97 132.404 175.15C132.404 175.27 132.375 175.376 132.318 175.469C132.261 175.559 132.185 175.63 132.089 175.681C131.996 175.732 131.894 175.757 131.783 175.757ZM134.008 181V176.545H134.868H134.895L136.893 179.434L136.465 179.443L138.364 176.545H139.242V181H138.342L138.355 177.706L138.54 177.787L136.947 180.113H136.308L134.643 177.782L134.827 177.701L134.841 181H134.008Z" fill="white"/>
<path d="M76 76.4744L76.2766 72.9303L98.7406 63.8086L121 44.983L120.723 48.527L118.176 52.2875L118.037 55.8716L117.761 59.4157L116.372 63.5896L110.26 67.0377L107.76 69.0338L108.501 74.2059L104.982 76.2929L105.723 80.3762L102.205 82.4632L101.742 87L76 76.4744Z" fill="#14773D"/>
<path d="M106 76.832L105.723 80.3762L102.204 82.4631L102.481 78.919L106 76.832Z" fill="#105F31"/>
<path d="M108.777 70.6619L108.501 74.2059L104.982 76.2929L105.259 72.7489L108.777 70.6619Z" fill="#105F31"/>
<path d="M89.7029 42.4423L87.7584 36.5443L90.4436 36L94.3326 40.6276L102.296 38.9943L108.314 40.6276L114.426 46.7071L119.518 42.6238L121 44.983L118.315 48.7033L118.037 55.8716L116.648 60.0455L110.537 63.4936L108.037 65.4898L108.777 70.6619L105.259 72.7489L106 76.8321L102.481 78.9191L102.018 83.456L89.7029 78.6468L76.2766 72.9303L79.9804 70.7526L78.5915 67.7582L82.2953 65.4898L80.7211 61.4066L86.3695 58.503L84.5175 55.3272L82.11 51.4254L84.2397 47.8867L88.3139 44.5294L89.7029 42.4423Z" fill="#00F249"/>
<path d="M116.648 60.0455L116.372 63.5896L117.76 59.4156L118.037 55.8716L116.648 60.0455Z" fill="#105F31"/>
<path d="M121 44.983L120.723 48.527L118.176 52.2875L118.315 48.7033L121 44.983Z" fill="#105F31"/>
<path d="M95.558 45.6719L91.9594 49.0914L94.0314 52.6177L98.3932 51.1217L99.0475 47.5953L95.558 45.6719Z" fill="#178344"/>
<path d="M106.711 50.0875L103.113 53.5071L105.185 57.0333L109.547 55.5373L110.201 52.011L106.711 50.0875Z" fill="#178344"/>
<path d="M76 66.4744L76.2766 62.9303L98.7406 53.8086L121 34.983L120.723 38.527L118.176 42.2875L118.037 45.8716L117.761 49.4157L116.372 53.5896L110.26 57.0377L107.76 59.0338L108.501 64.2059L104.982 66.2929L105.723 70.3762L102.205 72.4632L101.742 77L76 66.4744Z" fill="#943535"/>
<path d="M106 66.832L105.723 70.3762L102.204 72.4631L102.481 68.919L106 66.832Z" fill="#702A2A"/>
<path d="M108.777 60.6619L108.501 64.2059L104.982 66.2929L105.259 62.7489L108.777 60.6619Z" fill="#702A2A"/>
<path d="M89.7028 32.4423L87.7583 26.5443L90.4435 26L94.3326 30.6276L102.296 28.9943L108.314 30.6276L114.426 36.7071L119.518 32.6238L121 34.983L118.315 38.7033L118.037 45.8716L116.648 50.0455L110.537 53.4936L108.037 55.4898L108.777 60.6619L105.259 62.7489L106 66.8321L102.481 68.9191L102.018 73.456L89.7028 68.6468L76.2765 62.9303L79.9803 60.7526L78.5914 57.7582L82.2952 55.4898L80.7211 51.4066L86.3694 48.503L84.5175 45.3272L82.11 41.4254L84.2397 37.8867L88.3139 34.5294L89.7028 32.4423Z" fill="#E74242"/>
<path d="M116.648 50.0455L116.371 53.5896L117.76 49.4156L118.037 45.8716L116.648 50.0455Z" fill="#702A2A"/>
<path d="M121 34.983L120.723 38.527L118.176 42.2875L118.315 38.7033L121 34.983Z" fill="#672D2D"/>
<path d="M95.558 35.6719L91.9594 39.0914L94.0314 42.6177L98.3932 41.1217L99.0475 37.5953L95.558 35.6719Z" fill="#761E1E"/>
<path d="M106.711 40.0875L103.113 43.5071L105.185 47.0333L109.547 45.5373L110.201 42.011L106.711 40.0875Z" fill="#761E1E"/>
<path d="M76 56.4744L76.2704 52.9303L98.2352 43.8086L120 24.983L119.73 28.527L117.239 32.2875L117.103 35.8716L116.833 39.4157L115.475 43.5896L109.499 47.0377L107.055 49.0338L107.779 54.2059L104.338 56.2929L105.063 60.3762L101.622 62.4632L101.17 67L76 56.4744Z" fill="#798081"/>
<path d="M105.333 56.832L105.063 60.3762L101.622 62.4631L101.892 58.919L105.333 56.832Z" fill="#606566"/>
<path d="M108.049 50.6619L107.779 54.2059L104.338 56.2929L104.609 52.7489L108.049 50.6619Z" fill="#606566"/>
<path d="M89.3983 22.4423L87.497 16.5443L90.1226 16L93.9252 20.6276L101.711 18.9943L107.596 20.6276L113.572 26.7071L118.551 22.6238L120 24.983L117.374 28.7033L117.103 35.8716L115.745 40.0455L109.769 43.4936L107.325 45.4898L108.049 50.6619L104.609 52.7489L105.333 56.8321L101.892 58.9191L101.44 63.456L89.3983 58.6468L76.2704 52.9303L79.8919 50.7526L78.5338 47.7582L82.1553 45.4898L80.6162 41.4066L86.139 38.503L84.3282 35.3272L81.9742 31.4254L84.0566 27.8867L88.0403 24.5294L89.3983 22.4423Z" fill="#F2FDFF"/>
<path d="M115.745 40.0455L115.474 43.5896L116.832 39.4156L117.103 35.8716L115.745 40.0455Z" fill="#606566"/>
<path d="M120 24.983L119.73 28.527L117.239 32.2875L117.374 28.7033L120 24.983Z" fill="#606566"/>
<path d="M95.1234 25.6719L91.6048 29.0914L93.6307 32.6177L97.8956 31.1217L98.5353 27.5953L95.1234 25.6719Z" fill="#7D8485"/>
<path d="M106.029 30.0875L102.51 33.5071L104.536 37.0333L108.801 35.5373L109.441 32.011L106.029 30.0875Z" fill="#7D8485"/>
<path d="M17.643 61.3232L43.1058 103.794L48.0198 82.8711L118.32 94.7499L50.2052 63.5098L58.2017 40.333L17.643 61.3232Z" fill="black" stroke="#4895FA" stroke-width="2"/>
</g>
<defs>
<filter id="filter0_b_1_512" x="-4" y="114" width="158" height="90" filterUnits="userSpaceOnUse" color-interpolation-filters="sRGB">
<feFlood flood-opacity="0" result="BackgroundImageFix"/>
<feGaussianBlur in="BackgroundImageFix" stdDeviation="2"/>
<feComposite in2="SourceAlpha" operator="in" result="effect1_backgroundBlur_1_512"/>
<feBlend mode="normal" in="SourceGraphic" in2="effect1_backgroundBlur_1_512" result="shape"/>
</filter>
<clipPath id="clip0_1_512">
<rect width="150" height="200" rx="16" fill="white"/>
</clipPath>
</defs>
</svg>
