<svg width="150" height="200" viewBox="0 0 150 200" fill="none" xmlns="http://www.w3.org/2000/svg">
<g clip-path="url(#clip0_1_762)">
<rect width="150" height="200" fill="#FF3535"/>
<path d="M-64.8001 215.238L19.9603 212.525L164.549 233L331.029 226.858L432.852 225.834L478.163 212.525L495.473 202.8L490.381 188.979L481.438 178.089L172.694 188.979L-54.8794 176.951L-61.7866 188.326L-64.8001 215.238Z" fill="#3771BE"/>
<path d="M-45.495 104.892L45.1273 96.1899L108.766 99.2611L169.351 88L245.209 94.1424L291.538 90.0475L381.651 93.6306L426.963 91.0712L468.71 100.285L482.456 121.271L475.328 131.509L481.438 178.088L465.146 189.35L425.944 202.146L385.724 198.051L287.975 206.753L239.609 200.611L141.35 199.587L81.7835 193.444H24.7627L-38.8765 186.79L-61.7866 188.326L-71.9689 170.41L-62.2957 158.637L-65.3504 126.902L-54.659 113.593L-45.495 104.892Z" fill="#3D7DD3"/>
<path d="M83.3436 59.4858L96.852 62.9094L95.9353 84.6802L93.8294 110.207L90.1177 126.092L85.3141 134.893L76.8121 86.5225L83.3436 59.4858Z" fill="#4B544B"/>
<path d="M19.1141 68.9769L15.809 71.7609L13 98.6228L14.5986 123.021L16.1762 130.201L21.2011 137.803L23.9534 78.433L19.1141 68.9769Z" fill="#90958F"/>
<path d="M20.4412 110.055L19.0387 132.1L21.2011 137.803L44.1039 136.82L61.3054 138L80.3746 136.623L85.4621 134.88L84.3505 124.756L82.7175 111.307L70.3485 105.467L33.0948 103.795L20.4412 110.055Z" fill="#5A6A59"/>
<path d="M20.4411 110.055L51.7183 108.525L82.7175 111.307L91.2715 106.846L93.4995 92.0088L97 62.8961L75.7192 57.5027L57.5617 60.8432L40.4585 63.2219L19.114 68.977L18.634 95.7402L20.4411 110.055Z" fill="#B9C1A6"/>
<path d="M18.6214 93.1315L39.3573 93.2397L52.1702 93.7808L57.6115 97.1684L62.9073 99.429L70.3485 105.467L76.533 108.387L82.7175 111.307L71.4577 112.419L51.7183 108.525L20.4412 110.055L18.634 95.7403L18.6214 93.1315Z" fill="#6DC466"/>
<path d="M18.6214 93.1315L15.517 92.3115L13.1274 96.1068L13.063 99.5845L13.7993 110.822L14.5986 123.021L16.1762 130.201L21.2011 137.803L19.0387 132.1L20.4412 110.055L18.634 95.7404L18.6214 93.1315Z" fill="#699D65"/>
<path d="M91.2714 106.846L90.2656 126.079L85.462 134.879L82.7175 111.307L91.2714 106.846Z" fill="#5B665B"/>
<path d="M93.2263 93.8286L93.8294 110.208L90.2656 126.079L91.2715 106.846L93.2263 93.8286Z" fill="#566056"/>
<path d="M51.7183 108.525L71.4577 112.419L82.7175 111.307L91.2714 106.846L93.4995 92.0088L93.7899 59.3839L77.6997 52L53.1578 57.371L39.2786 85.4997L51.7183 108.525Z" fill="#B3BEB3"/>
<path d="M86.6676 90.936L91.2714 106.846L93.4995 92.0088L97 62.8961L93.7899 59.3839L86.6676 90.936Z" fill="#6A706A"/>
<path d="M54.5013 87.6661L86.6676 90.9359L91.2715 106.846L82.7175 111.307L71.4577 112.419L51.7183 108.525L54.5013 87.6661Z" fill="#A3ADA3"/>
<path d="M53.1578 57.371L54.5014 87.6662L26.768 106.925L21.2861 85.3797L53.1578 57.371Z" fill="#C2CEC2"/>
<path d="M51.7183 108.525L55.4866 113.693L72.9044 116.432L83.1278 114.831L82.7175 111.307L71.4577 112.419L51.7183 108.525Z" fill="#5B635B"/>
<path d="M26.768 106.925L51.7183 108.525L54.5013 87.6661L26.768 106.925Z" fill="#AAB6AA"/>
<path opacity="0.314159" d="M14.0431 92.3635L17.1919 116.763L19.7399 121.077L45.8666 125.97L74.9216 124.905L84.0898 123.093L90.7685 116.462L93.4669 100.365L96.5743 69.5067L95.9353 84.6803L93.8294 110.208L90.2656 126.079L85.3142 134.893L80.3746 136.623L61.3054 138L44.1039 136.82L21.2011 137.803L16.1762 130.201L14.5986 123.021L13 98.6228L14.0431 92.3635Z" fill="#3238B1"/>
<path d="M34 67.2042L34.3257 62.8957L60.7834 51.8066L87 28.9205L86.6743 33.2289L83.6738 37.8005L83.5104 42.1577L83.1847 46.4661L81.5489 51.5403L74.3511 55.732L71.4066 58.1588L72.279 64.4464L68.1349 66.9835L69.0073 71.9475L64.8631 74.4846L64.3179 80L34 67.2042Z" fill="#798081"/>
<path d="M69.3329 67.639L69.0071 71.9476L64.863 74.4847L65.1886 70.1762L69.3329 67.639Z" fill="#606566"/>
<path d="M72.6045 60.1379L72.2789 64.4463L68.1347 66.9835L68.4604 62.6751L72.6045 60.1379Z" fill="#606566"/>
<path d="M50.1389 25.8318L47.8487 18.6618L51.0113 18L55.5917 23.6257L64.9706 21.6401L72.0592 23.6257L79.2569 31.0165L85.255 26.0525L86.9999 28.9205L83.8373 33.4432L83.5101 42.1577L81.8743 47.2318L74.6765 51.4236L71.7321 53.8504L72.6045 60.138L68.4603 62.6751L69.3328 67.639L65.1887 70.1761L64.6433 75.6916L50.1389 69.8452L34.3257 62.8957L38.6879 60.2483L37.0521 56.608L41.4143 53.8504L39.5604 48.8865L46.2128 45.3566L44.0317 41.4958L41.1962 36.7525L43.7045 32.4505L48.503 28.3691L50.1389 25.8318Z" fill="#F2FDFF"/>
<path d="M81.8744 47.2317L81.5487 51.5403L83.1846 46.466L83.5102 42.1576L81.8744 47.2317Z" fill="#606566"/>
<path d="M87 28.9205L86.6743 33.2289L83.6738 37.8005L83.8374 33.4432L87 28.9205Z" fill="#606566"/>
<path d="M57.035 29.7581L52.7967 33.9152L55.237 38.2019L60.3742 36.3833L61.1448 32.0964L57.035 29.7581Z" fill="#7D8485"/>
<path d="M70.1712 35.1261L65.9329 39.2832L68.3731 43.57L73.5105 41.7514L74.281 37.4644L70.1712 35.1261Z" fill="#7D8485"/>
<path d="M134.609 99.0516L118.187 61.1507L111.84 77.9172L55 60.4224L107.92 93.69L98.7781 111.984L134.609 99.0516Z" fill="black" stroke="#FF3535" stroke-width="2"/>
<g filter="url(#filter0_b_1_762)">
<rect y="118" width="150" height="82" fill="black" fill-opacity="0.5"/>
</g>
<path d="M59.7184 138.165C59.1318 138.165 58.5891 138.064 58.0904 137.862C57.5918 137.657 57.1591 137.373 56.7924 137.01C56.4258 136.647 56.1398 136.222 55.9344 135.734C55.7328 135.246 55.6319 134.718 55.6319 134.15C55.6319 133.578 55.7328 133.048 55.9344 132.56C56.1398 132.073 56.4258 131.647 56.7924 131.284C57.1591 130.921 57.5918 130.639 58.0904 130.437C58.5891 130.236 59.1318 130.135 59.7184 130.135C60.3051 130.135 60.8459 130.238 61.3409 130.443C61.8396 130.648 62.2723 130.934 62.6389 131.301C63.0093 131.668 63.2971 132.095 63.5024 132.582C63.7078 133.066 63.8104 133.589 63.8104 134.15C63.8104 134.718 63.7078 135.246 63.5024 135.734C63.2971 136.222 63.0093 136.647 62.6389 137.01C62.2723 137.373 61.8396 137.657 61.3409 137.862C60.8459 138.064 60.3051 138.165 59.7184 138.165ZM59.7184 136.636C60.0594 136.636 60.3748 136.577 60.6644 136.46C60.9541 136.343 61.2071 136.176 61.4234 135.959C61.6398 135.739 61.8066 135.477 61.9239 135.173C62.0449 134.869 62.1054 134.528 62.1054 134.15C62.1054 133.648 62.0009 133.211 61.7919 132.841C61.5829 132.467 61.2988 132.177 60.9394 131.972C60.5801 131.767 60.1731 131.664 59.7184 131.664C59.3811 131.664 59.0658 131.723 58.7724 131.84C58.4828 131.957 58.2298 132.124 58.0134 132.34C57.8008 132.557 57.6339 132.819 57.5129 133.127C57.3956 133.431 57.3369 133.772 57.3369 134.15C57.3369 134.652 57.4414 135.09 57.6504 135.464C57.8594 135.835 58.1436 136.123 58.5029 136.328C58.8623 136.533 59.2674 136.636 59.7184 136.636ZM65.2091 138V130.3H70.3131V131.719H66.8371V133.385H68.0856C68.9472 133.385 69.6347 133.582 70.1481 133.974C70.6614 134.363 70.9181 134.936 70.9181 135.695C70.9181 136.183 70.8044 136.599 70.5771 136.944C70.3534 137.285 70.0289 137.547 69.6036 137.73C69.1819 137.91 68.6741 138 68.0801 138H65.2091ZM66.8371 136.779H67.9261C68.3477 136.779 68.6704 136.687 68.8941 136.504C69.1177 136.317 69.2296 136.049 69.2296 135.701C69.2296 135.364 69.1214 135.098 68.9051 134.903C68.6887 134.705 68.3862 134.606 67.9976 134.606H66.8371V136.779ZM72.3634 138V130.3H75.2289C75.9989 130.3 76.6149 130.465 77.0769 130.795C77.5425 131.121 77.7754 131.605 77.7754 132.247C77.7754 132.485 77.724 132.707 77.6214 132.912C77.5187 133.118 77.383 133.299 77.2144 133.457C77.0457 133.611 76.8605 133.732 76.6589 133.82C77.0769 133.959 77.416 134.199 77.6764 134.54C77.9404 134.881 78.0724 135.292 78.0724 135.772C78.0724 136.22 77.9605 136.61 77.7369 136.944C77.5132 137.278 77.196 137.538 76.7854 137.725C76.3747 137.908 75.8852 138 75.3169 138H72.3634ZM73.9914 136.779H75.0749C75.5149 136.779 75.843 136.691 76.0594 136.515C76.2757 136.339 76.3839 136.073 76.3839 135.717C76.3839 135.373 76.2775 135.109 76.0649 134.925C75.8522 134.738 75.5332 134.645 75.1079 134.645H73.9914V136.779ZM73.9914 133.501H75.0034C75.249 133.501 75.4599 133.461 75.6359 133.38C75.8155 133.299 75.953 133.184 76.0484 133.033C76.1474 132.879 76.1969 132.694 76.1969 132.478C76.1969 132.17 76.0905 131.933 75.8779 131.768C75.6689 131.603 75.3682 131.521 74.9759 131.521H73.9914V133.501ZM78.6431 138L81.5581 130.3H83.4116L86.3706 138H84.5391L83.9396 136.35H81.0081L80.4251 138H78.6431ZM81.3931 134.975H83.5436L82.4546 132.082L81.3931 134.975ZM87.2696 138.143L86.7141 136.652C86.9635 136.575 87.1743 136.487 87.3466 136.388C87.5226 136.286 87.6675 136.148 87.7811 135.976C87.8985 135.804 87.9901 135.576 88.0561 135.294C88.1221 135.012 88.168 134.652 88.1936 134.216C88.2193 133.78 88.2321 133.244 88.2321 132.61V130.3H93.8916V138H92.2636V131.785H89.7776V132.538C89.7776 133.33 89.752 134.018 89.7006 134.601C89.653 135.18 89.5723 135.675 89.4586 136.086C89.345 136.493 89.191 136.832 88.9966 137.103C88.806 137.371 88.5676 137.587 88.2816 137.752C87.9993 137.917 87.662 138.048 87.2696 138.143Z" fill="white"/>
<path d="M17.82 159V152.7H22.887V159H21.879V153.622H18.828V159H17.82ZM26.425 159.135C25.96 159.135 25.5445 159.029 25.1785 158.815C24.8155 158.599 24.5305 158.313 24.3235 157.956C24.1165 157.596 24.013 157.201 24.013 156.772C24.013 156.454 24.0715 156.154 24.1885 155.872C24.3085 155.587 24.4765 155.335 24.6925 155.116C24.9115 154.897 25.168 154.725 25.462 154.599C25.756 154.473 26.0785 154.41 26.4295 154.41C26.8945 154.41 27.3085 154.518 27.6715 154.734C28.0375 154.947 28.324 155.233 28.531 155.593C28.738 155.95 28.8415 156.343 28.8415 156.772C28.8415 157.087 28.7815 157.387 28.6615 157.672C28.5445 157.957 28.378 158.209 28.162 158.428C27.946 158.647 27.691 158.82 27.397 158.946C27.103 159.072 26.779 159.135 26.425 159.135ZM26.425 158.257C26.701 158.257 26.9455 158.197 27.1585 158.077C27.3745 157.954 27.544 157.782 27.667 157.56C27.79 157.338 27.8515 157.075 27.8515 156.772C27.8515 156.469 27.79 156.207 27.667 155.985C27.544 155.76 27.3745 155.587 27.1585 155.467C26.9455 155.347 26.701 155.287 26.425 155.287C26.149 155.287 25.903 155.347 25.687 155.467C25.474 155.587 25.306 155.76 25.183 155.985C25.063 156.207 25.003 156.469 25.003 156.772C25.003 157.075 25.0645 157.338 25.1875 157.56C25.3105 157.782 25.4785 157.954 25.6915 158.077C25.9075 158.197 26.152 158.257 26.425 158.257ZM29.674 159.077L29.3275 158.185C29.6335 158.107 29.857 157.984 29.998 157.816C30.142 157.648 30.232 157.414 30.268 157.114C30.307 156.814 30.3265 156.427 30.3265 155.953V154.545H33.949V159H32.959V155.364H31.249V155.953C31.249 156.43 31.2265 156.846 31.1815 157.2C31.1395 157.554 31.0615 157.855 30.9475 158.104C30.8335 158.353 30.673 158.557 30.466 158.716C30.262 158.872 29.998 158.992 29.674 159.077ZM37.3631 159.135C36.8831 159.135 36.4616 159.038 36.0986 158.842C35.7356 158.644 35.4521 158.368 35.2481 158.014C35.0471 157.66 34.9466 157.249 34.9466 156.781C34.9466 156.439 35.0051 156.124 35.1221 155.836C35.2391 155.545 35.4041 155.293 35.6171 155.08C35.8301 154.867 36.0791 154.702 36.3641 154.585C36.6521 154.468 36.9656 154.41 37.3046 154.41C37.6736 154.41 38.0021 154.476 38.2901 154.608C38.5781 154.737 38.8166 154.918 39.0056 155.152C39.1976 155.386 39.3326 155.661 39.4106 155.976C39.4916 156.288 39.5051 156.627 39.4511 156.993H35.8961C35.8901 157.26 35.9486 157.494 36.0716 157.695C36.1946 157.893 36.3701 158.047 36.5981 158.158C36.8291 158.269 37.1006 158.325 37.4126 158.325C37.6646 158.325 37.9076 158.287 38.1416 158.212C38.3786 158.134 38.5931 158.02 38.7851 157.87L39.1676 158.581C39.0236 158.698 38.8496 158.799 38.6456 158.883C38.4416 158.964 38.2286 159.026 38.0066 159.068C37.7846 159.113 37.5701 159.135 37.3631 159.135ZM35.9546 156.264H38.4791C38.4701 155.928 38.3621 155.664 38.1551 155.472C37.9511 155.28 37.6601 155.184 37.2821 155.184C36.9161 155.184 36.6116 155.28 36.3686 155.472C36.1286 155.664 35.9906 155.928 35.9546 156.264ZM44.7286 159.135C44.2606 159.135 43.8436 159.033 43.4776 158.829C43.1116 158.622 42.8236 158.341 42.6136 157.987C42.4066 157.63 42.3031 157.225 42.3031 156.772C42.3031 156.43 42.3646 156.117 42.4876 155.832C42.6106 155.544 42.7846 155.293 43.0096 155.08C43.2346 154.867 43.4986 154.702 43.8016 154.585C44.1076 154.468 44.4391 154.41 44.7961 154.41C45.0961 154.41 45.3736 154.45 45.6286 154.531C45.8866 154.609 46.1236 154.731 46.3396 154.896L45.8626 155.652C45.7246 155.529 45.5656 155.437 45.3856 155.377C45.2086 155.317 45.0196 155.287 44.8186 155.287C44.5066 155.287 44.2381 155.346 44.0131 155.463C43.7881 155.58 43.6126 155.749 43.4866 155.971C43.3636 156.19 43.3021 156.456 43.3021 156.768C43.3021 157.233 43.4371 157.597 43.7071 157.861C43.9801 158.125 44.3506 158.257 44.8186 158.257C45.0406 158.257 45.2506 158.217 45.4486 158.136C45.6466 158.052 45.8116 157.942 45.9436 157.807L46.4161 158.559C46.1791 158.739 45.9151 158.88 45.6241 158.982C45.3331 159.084 45.0346 159.135 44.7286 159.135ZM49.2678 159.135C48.8028 159.135 48.3873 159.029 48.0213 158.815C47.6583 158.599 47.3733 158.313 47.1663 157.956C46.9593 157.596 46.8558 157.201 46.8558 156.772C46.8558 156.454 46.9143 156.154 47.0313 155.872C47.1513 155.587 47.3193 155.335 47.5353 155.116C47.7543 154.897 48.0108 154.725 48.3048 154.599C48.5988 154.473 48.9213 154.41 49.2723 154.41C49.7373 154.41 50.1513 154.518 50.5143 154.734C50.8803 154.947 51.1668 155.233 51.3738 155.593C51.5808 155.95 51.6843 156.343 51.6843 156.772C51.6843 157.087 51.6243 157.387 51.5043 157.672C51.3873 157.957 51.2208 158.209 51.0048 158.428C50.7888 158.647 50.5338 158.82 50.2398 158.946C49.9458 159.072 49.6218 159.135 49.2678 159.135ZM49.2678 158.257C49.5438 158.257 49.7883 158.197 50.0013 158.077C50.2173 157.954 50.3868 157.782 50.5098 157.56C50.6328 157.338 50.6943 157.075 50.6943 156.772C50.6943 156.469 50.6328 156.207 50.5098 155.985C50.3868 155.76 50.2173 155.587 50.0013 155.467C49.7883 155.347 49.5438 155.287 49.2678 155.287C48.9918 155.287 48.7458 155.347 48.5298 155.467C48.3168 155.587 48.1488 155.76 48.0258 155.985C47.9058 156.207 47.8458 156.469 47.8458 156.772C47.8458 157.075 47.9073 157.338 48.0303 157.56C48.1533 157.782 48.3213 157.954 48.5343 158.077C48.7503 158.197 48.9948 158.257 49.2678 158.257ZM56.9278 159.135C56.4598 159.135 56.0428 159.033 55.6768 158.829C55.3108 158.622 55.0228 158.341 54.8128 157.987C54.6058 157.63 54.5023 157.225 54.5023 156.772C54.5023 156.43 54.5638 156.117 54.6868 155.832C54.8098 155.544 54.9838 155.293 55.2088 155.08C55.4338 154.867 55.6978 154.702 56.0008 154.585C56.3068 154.468 56.6383 154.41 56.9953 154.41C57.2953 154.41 57.5728 154.45 57.8278 154.531C58.0858 154.609 58.3228 154.731 58.5388 154.896L58.0618 155.652C57.9238 155.529 57.7648 155.437 57.5848 155.377C57.4078 155.317 57.2188 155.287 57.0178 155.287C56.7058 155.287 56.4373 155.346 56.2123 155.463C55.9873 155.58 55.8118 155.749 55.6858 155.971C55.5628 156.19 55.5013 156.456 55.5013 156.768C55.5013 157.233 55.6363 157.597 55.9063 157.861C56.1793 158.125 56.5498 158.257 57.0178 158.257C57.2398 158.257 57.4498 158.217 57.6478 158.136C57.8458 158.052 58.0108 157.942 58.1428 157.807L58.6153 158.559C58.3783 158.739 58.1143 158.88 57.8233 158.982C57.5323 159.084 57.2338 159.135 56.9278 159.135ZM62.4864 159L61.0104 156.633L62.3829 154.545H63.4404L62.0769 156.588L63.6699 159H62.4864ZM59.5254 159V154.545H60.5154V156.264H61.8564V157.083H60.5154V159H59.5254ZM65.7815 159.135C65.4725 159.135 65.201 159.078 64.967 158.964C64.733 158.847 64.55 158.683 64.418 158.473C64.289 158.26 64.2245 158.01 64.2245 157.722C64.2245 157.479 64.286 157.26 64.409 157.065C64.532 156.867 64.7225 156.703 64.9805 156.574C65.2415 156.445 65.576 156.36 65.984 156.318C66.392 156.273 66.8825 156.279 67.4555 156.336L67.4735 157.02C67.0655 156.963 66.7145 156.939 66.4205 156.948C66.1265 156.957 65.885 156.994 65.696 157.06C65.51 157.123 65.372 157.209 65.282 157.317C65.195 157.422 65.1515 157.543 65.1515 157.681C65.1515 157.897 65.228 158.064 65.381 158.181C65.537 158.298 65.75 158.356 66.02 158.356C66.251 158.356 66.458 158.314 66.641 158.23C66.824 158.146 66.968 158.028 67.073 157.875C67.181 157.722 67.235 157.542 67.235 157.335V156.151C67.235 155.953 67.193 155.782 67.109 155.638C67.025 155.491 66.8975 155.377 66.7265 155.296C66.5555 155.215 66.3425 155.175 66.0875 155.175C65.8535 155.175 65.6225 155.211 65.3945 155.283C65.1665 155.352 64.949 155.461 64.742 155.611L64.463 154.882C64.742 154.693 65.033 154.56 65.336 154.482C65.639 154.404 65.93 154.365 66.209 154.365C66.623 154.365 66.977 154.431 67.271 154.563C67.568 154.692 67.796 154.888 67.955 155.152C68.114 155.413 68.1935 155.743 68.1935 156.142V159H67.3025V158.473C67.1525 158.686 66.944 158.85 66.677 158.964C66.41 159.078 66.1115 159.135 65.7815 159.135ZM69.3478 159.077L69.0013 158.185C69.3073 158.107 69.5308 157.984 69.6718 157.816C69.8158 157.648 69.9058 157.414 69.9418 157.114C69.9808 156.814 70.0003 156.427 70.0003 155.953V154.545H73.6228V159H72.6328V155.364H70.9228V155.953C70.9228 156.43 70.9003 156.846 70.8553 157.2C70.8133 157.554 70.7353 157.855 70.6213 158.104C70.5073 158.353 70.3468 158.557 70.1398 158.716C69.9358 158.872 69.6718 158.992 69.3478 159.077ZM77.0325 159.135C76.5675 159.135 76.152 159.029 75.786 158.815C75.423 158.599 75.138 158.313 74.931 157.956C74.724 157.596 74.6205 157.201 74.6205 156.772C74.6205 156.454 74.679 156.154 74.796 155.872C74.916 155.587 75.084 155.335 75.3 155.116C75.519 154.897 75.7755 154.725 76.0695 154.599C76.3635 154.473 76.686 154.41 77.037 154.41C77.502 154.41 77.916 154.518 78.279 154.734C78.645 154.947 78.9315 155.233 79.1385 155.593C79.3455 155.95 79.449 156.343 79.449 156.772C79.449 157.087 79.389 157.387 79.269 157.672C79.152 157.957 78.9855 158.209 78.7695 158.428C78.5535 158.647 78.2985 158.82 78.0045 158.946C77.7105 159.072 77.3865 159.135 77.0325 159.135ZM77.0325 158.257C77.3085 158.257 77.553 158.197 77.766 158.077C77.982 157.954 78.1515 157.782 78.2745 157.56C78.3975 157.338 78.459 157.075 78.459 156.772C78.459 156.469 78.3975 156.207 78.2745 155.985C78.1515 155.76 77.982 155.587 77.766 155.467C77.553 155.347 77.3085 155.287 77.0325 155.287C76.7565 155.287 76.5105 155.347 76.2945 155.467C76.0815 155.587 75.9135 155.76 75.7905 155.985C75.6705 156.207 75.6105 156.469 75.6105 156.772C75.6105 157.075 75.672 157.338 75.795 157.56C75.918 157.782 76.086 157.954 76.299 158.077C76.515 158.197 76.7595 158.257 77.0325 158.257ZM80.4434 159V154.545H81.4019V157.551L83.8184 154.545H84.6824V159H83.7284V155.958L81.2894 159H80.4434ZM82.5629 153.78C82.2299 153.78 81.9374 153.711 81.6854 153.573C81.4334 153.435 81.2384 153.244 81.1004 153.001C80.9624 152.758 80.8979 152.479 80.9069 152.164H81.7349C81.7229 152.44 81.7919 152.664 81.9419 152.835C82.0949 153.003 82.3019 153.087 82.5629 153.087C82.8239 153.087 83.0294 153.003 83.1794 152.835C83.3294 152.664 83.3969 152.44 83.3819 152.164H84.2144C84.2204 152.476 84.1529 152.754 84.0119 152.997C83.8739 153.24 83.6789 153.432 83.4269 153.573C83.1779 153.711 82.8899 153.78 82.5629 153.78ZM88.6481 161.016C88.4861 161.016 88.3271 160.998 88.1711 160.962C88.0151 160.926 87.8621 160.865 87.7121 160.778L87.9371 159.932C88.0301 159.992 88.1321 160.037 88.2431 160.067C88.3541 160.097 88.4531 160.112 88.5401 160.112C88.7501 160.112 88.9151 160.062 89.0351 159.963C89.1551 159.864 89.2496 159.711 89.3186 159.504L89.4671 159.072L87.7121 154.545H88.7966L90.0296 158.001L91.2311 154.545H92.2796L90.3536 159.644C90.2156 160.001 90.0611 160.278 89.8901 160.476C89.7191 160.677 89.5301 160.817 89.3231 160.895C89.1161 160.976 88.8911 161.016 88.6481 161.016ZM96.1418 159V155.364H94.3418V155.953C94.3418 156.358 94.3178 156.724 94.2698 157.051C94.2218 157.378 94.1363 157.666 94.0133 157.915C93.8903 158.161 93.7178 158.365 93.4958 158.527C93.2768 158.689 92.9963 158.808 92.6543 158.883L92.4113 158.212C92.6963 158.143 92.9108 158.014 93.0548 157.825C93.1988 157.636 93.2948 157.387 93.3428 157.078C93.3938 156.766 93.4193 156.391 93.4193 155.953V154.545H97.1318V159H96.1418ZM92.4113 160.35V158.212L93.0233 158.275L93.1763 158.181H98.0273V160.35H97.1228V159H93.3158V160.35H92.4113ZM100.261 159.135C99.952 159.135 99.6805 159.078 99.4465 158.964C99.2125 158.847 99.0295 158.683 98.8975 158.473C98.7685 158.26 98.704 158.01 98.704 157.722C98.704 157.479 98.7655 157.26 98.8885 157.065C99.0115 156.867 99.202 156.703 99.46 156.574C99.721 156.445 100.055 156.36 100.463 156.318C100.871 156.273 101.362 156.279 101.935 156.336L101.953 157.02C101.545 156.963 101.194 156.939 100.9 156.948C100.606 156.957 100.364 156.994 100.175 157.06C99.9895 157.123 99.8515 157.209 99.7615 157.317C99.6745 157.422 99.631 157.543 99.631 157.681C99.631 157.897 99.7075 158.064 99.8605 158.181C100.016 158.298 100.229 158.356 100.499 158.356C100.73 158.356 100.937 158.314 101.12 158.23C101.303 158.146 101.447 158.028 101.552 157.875C101.66 157.722 101.714 157.542 101.714 157.335V156.151C101.714 155.953 101.672 155.782 101.588 155.638C101.504 155.491 101.377 155.377 101.206 155.296C101.035 155.215 100.822 155.175 100.567 155.175C100.333 155.175 100.102 155.211 99.874 155.283C99.646 155.352 99.4285 155.461 99.2215 155.611L98.9425 154.882C99.2215 154.693 99.5125 154.56 99.8155 154.482C100.118 154.404 100.409 154.365 100.688 154.365C101.102 154.365 101.456 154.431 101.75 154.563C102.047 154.692 102.275 154.888 102.434 155.152C102.593 155.413 102.673 155.743 102.673 156.142V159H101.782V158.473C101.632 158.686 101.423 158.85 101.156 158.964C100.889 159.078 100.591 159.135 100.261 159.135ZM103.827 159.077L103.481 158.185C103.787 158.107 104.01 157.984 104.151 157.816C104.295 157.648 104.385 157.414 104.421 157.114C104.46 156.814 104.48 156.427 104.48 155.953V154.545H108.102V159H107.112V155.364H105.402V155.953C105.402 156.43 105.38 156.846 105.335 157.2C105.293 157.554 105.215 157.855 105.101 158.104C104.987 158.353 104.826 158.557 104.619 158.716C104.415 158.872 104.151 158.992 103.827 159.077ZM109.172 159L110.882 156.718L111.098 157.357C110.729 157.36 110.414 157.306 110.153 157.195C109.892 157.081 109.692 156.922 109.554 156.718C109.419 156.511 109.352 156.267 109.352 155.985C109.352 155.682 109.428 155.424 109.581 155.211C109.734 154.995 109.95 154.83 110.229 154.716C110.508 154.602 110.835 154.545 111.21 154.545H113.132V159H112.178V155.296H111.309C110.991 155.296 110.75 155.352 110.585 155.463C110.423 155.574 110.342 155.74 110.342 155.962C110.342 156.178 110.417 156.346 110.567 156.466C110.72 156.583 110.94 156.642 111.228 156.642H112.304V157.362H111.521L110.301 159H109.172ZM116.544 159.135C116.064 159.135 115.642 159.038 115.279 158.842C114.916 158.644 114.633 158.368 114.429 158.014C114.228 157.66 114.127 157.249 114.127 156.781C114.127 156.439 114.186 156.124 114.303 155.836C114.42 155.545 114.585 155.293 114.798 155.08C115.011 154.867 115.26 154.702 115.545 154.585C115.833 154.468 116.146 154.41 116.485 154.41C116.854 154.41 117.183 154.476 117.471 154.608C117.759 154.737 117.997 154.918 118.186 155.152C118.378 155.386 118.513 155.661 118.591 155.976C118.672 156.288 118.686 156.627 118.632 156.993H115.077C115.071 157.26 115.129 157.494 115.252 157.695C115.375 157.893 115.551 158.047 115.779 158.158C116.01 158.269 116.281 158.325 116.593 158.325C116.845 158.325 117.088 158.287 117.322 158.212C117.559 158.134 117.774 158.02 117.966 157.87L118.348 158.581C118.204 158.698 118.03 158.799 117.826 158.883C117.622 158.964 117.409 159.026 117.187 159.068C116.965 159.113 116.751 159.135 116.544 159.135ZM115.135 156.264H117.66C117.651 155.928 117.543 155.664 117.336 155.472C117.132 155.28 116.841 155.184 116.463 155.184C116.097 155.184 115.792 155.28 115.549 155.472C115.309 155.664 115.171 155.928 115.135 156.264ZM120.655 159V155.364H119.192V154.545H123.112V155.364H121.645V159H120.655ZM126.063 159.135C125.595 159.135 125.178 159.033 124.812 158.829C124.446 158.622 124.158 158.341 123.948 157.987C123.741 157.63 123.637 157.225 123.637 156.772C123.637 156.43 123.699 156.117 123.822 155.832C123.945 155.544 124.119 155.293 124.344 155.08C124.569 154.867 124.833 154.702 125.136 154.585C125.442 154.468 125.773 154.41 126.13 154.41C126.43 154.41 126.708 154.45 126.963 154.531C127.221 154.609 127.458 154.731 127.674 154.896L127.197 155.652C127.059 155.529 126.9 155.437 126.72 155.377C126.543 155.317 126.354 155.287 126.153 155.287C125.841 155.287 125.572 155.346 125.347 155.463C125.122 155.58 124.947 155.749 124.821 155.971C124.698 156.19 124.636 156.456 124.636 156.768C124.636 157.233 124.771 157.597 125.041 157.861C125.314 158.125 125.685 158.257 126.153 158.257C126.375 158.257 126.585 158.217 126.783 158.136C126.981 158.052 127.146 157.942 127.278 157.807L127.75 158.559C127.513 158.739 127.249 158.88 126.958 158.982C126.667 159.084 126.369 159.135 126.063 159.135ZM128.35 159L130.06 156.718L130.276 157.357C129.907 157.36 129.592 157.306 129.331 157.195C129.07 157.081 128.87 156.922 128.732 156.718C128.597 156.511 128.53 156.267 128.53 155.985C128.53 155.682 128.606 155.424 128.759 155.211C128.912 154.995 129.128 154.83 129.407 154.716C129.686 154.602 130.013 154.545 130.388 154.545H132.31V159H131.356V155.296H130.487C130.169 155.296 129.928 155.352 129.763 155.463C129.601 155.574 129.52 155.74 129.52 155.962C129.52 156.178 129.595 156.346 129.745 156.466C129.898 156.583 130.118 156.642 130.406 156.642H131.482V157.362H130.699L129.479 159H128.35ZM12.4776 170V165.545H13.4361V168.551L15.8526 165.545H16.7166V170H15.7626V166.958L13.3236 170H12.4776ZM19.5968 170.108C19.3478 170.108 19.1078 170.089 18.8768 170.05C18.6458 170.014 18.4283 169.956 18.2243 169.878C18.0203 169.797 17.8358 169.691 17.6708 169.559L18.1028 168.888C18.2918 169.047 18.5153 169.163 18.7733 169.235C19.0313 169.304 19.2938 169.339 19.5608 169.339C19.9238 169.339 20.2103 169.286 20.4203 169.181C20.6303 169.073 20.7353 168.896 20.7353 168.65C20.7353 168.434 20.6243 168.279 20.4023 168.186C20.1833 168.093 19.8638 168.047 19.4438 168.047H18.6248V167.3H19.4168C19.7888 167.3 20.0753 167.258 20.2763 167.174C20.4773 167.087 20.5778 166.94 20.5778 166.733C20.5778 166.61 20.5343 166.508 20.4473 166.427C20.3633 166.346 20.2433 166.284 20.0873 166.242C19.9343 166.2 19.7543 166.179 19.5473 166.179C19.2923 166.179 19.0463 166.217 18.8093 166.292C18.5723 166.367 18.3653 166.482 18.1883 166.638L17.8193 165.977C18.0473 165.788 18.3233 165.644 18.6473 165.545C18.9713 165.443 19.2983 165.392 19.6283 165.392C20.0123 165.392 20.3423 165.44 20.6183 165.536C20.8943 165.632 21.1073 165.77 21.2573 165.95C21.4073 166.13 21.4823 166.347 21.4823 166.602C21.4823 166.83 21.4088 167.028 21.2618 167.196C21.1178 167.364 20.9078 167.486 20.6318 167.561C20.9678 167.636 21.2228 167.768 21.3968 167.957C21.5738 168.146 21.6623 168.383 21.6623 168.668C21.6623 168.968 21.5768 169.226 21.4058 169.442C21.2378 169.655 20.9978 169.82 20.6858 169.937C20.3768 170.051 20.0138 170.108 19.5968 170.108ZM24.9492 170V165.545H25.9077V168.551L28.3242 165.545H29.1882V170H28.2342V166.958L25.7952 170H24.9492ZM30.5655 170V165.545H33.4995V166.364H31.5555V170H30.5655ZM34.4151 171.89V165.545H35.3061V166.17C35.4831 165.945 35.7096 165.762 35.9856 165.621C36.2616 165.48 36.6021 165.41 37.0071 165.41C37.4421 165.41 37.8276 165.513 38.1636 165.72C38.5026 165.924 38.7666 166.205 38.9556 166.562C39.1446 166.916 39.2391 167.319 39.2391 167.772C39.2391 168.099 39.1851 168.407 39.0771 168.695C38.9691 168.98 38.8146 169.23 38.6136 169.446C38.4156 169.662 38.1786 169.832 37.9026 169.955C37.6296 170.075 37.3266 170.135 36.9936 170.135C36.6456 170.135 36.3396 170.072 36.0756 169.946C35.8116 169.82 35.5866 169.65 35.4006 169.438V171.89H34.4151ZM36.8271 169.257C37.1031 169.257 37.3476 169.197 37.5606 169.077C37.7766 168.954 37.9446 168.782 38.0646 168.56C38.1876 168.338 38.2491 168.075 38.2491 167.772C38.2491 167.469 38.1876 167.207 38.0646 166.985C37.9416 166.76 37.7721 166.587 37.5561 166.467C37.3431 166.347 37.1001 166.287 36.8271 166.287C36.5511 166.287 36.3051 166.347 36.0891 166.467C35.8761 166.587 35.7081 166.76 35.5851 166.985C35.4621 167.207 35.4006 167.469 35.4006 167.772C35.4006 168.075 35.4621 168.338 35.5851 168.56C35.7081 168.782 35.8761 168.954 36.0891 169.077C36.3051 169.197 36.5511 169.257 36.8271 169.257ZM40.2334 170V165.545H41.2234V169.248H42.0289C42.3529 169.248 42.5974 169.185 42.7624 169.059C42.9274 168.933 43.0099 168.746 43.0099 168.497C43.0099 168.251 42.9334 168.062 42.7804 167.93C42.6274 167.798 42.4024 167.732 42.1054 167.732H41.0884V166.989H42.1819C42.7579 166.989 43.2109 167.118 43.5409 167.376C43.8709 167.634 44.0359 168.008 44.0359 168.497C44.0359 168.812 43.9564 169.082 43.7974 169.307C43.6384 169.529 43.4149 169.7 43.1269 169.82C42.8419 169.94 42.5074 170 42.1234 170H40.2334ZM44.7514 170V165.545H45.7414V170H44.7514ZM47.6373 170.135C47.4453 170.135 47.2788 170.074 47.1378 169.95C46.9998 169.827 46.9308 169.667 46.9308 169.469C46.9308 169.334 46.9623 169.217 47.0253 169.118C47.0883 169.016 47.1738 168.938 47.2818 168.884C47.3898 168.827 47.5083 168.798 47.6373 168.798C47.8323 168.798 47.9973 168.86 48.1323 168.983C48.2703 169.103 48.3393 169.265 48.3393 169.469C48.3393 169.601 48.3078 169.718 48.2448 169.82C48.1818 169.919 48.0963 169.996 47.9883 170.05C47.8833 170.107 47.7663 170.135 47.6373 170.135ZM51.6528 170.108L51.2748 169.181C51.4758 169.118 51.6483 169.041 51.7923 168.951C51.9363 168.861 52.0563 168.74 52.1523 168.587C52.2513 168.431 52.3278 168.228 52.3818 167.979C52.4388 167.727 52.4793 167.411 52.5033 167.03C52.5273 166.646 52.5393 166.178 52.5393 165.626V163.7H56.9448V170H55.9368V164.622H53.5068V165.59C53.5068 166.244 53.4873 166.808 53.4483 167.282C53.4093 167.753 53.3448 168.152 53.2548 168.479C53.1678 168.803 53.0523 169.071 52.9083 169.284C52.7673 169.494 52.5918 169.664 52.3818 169.793C52.1748 169.922 51.9318 170.027 51.6528 170.108ZM60.4871 170.135C60.0071 170.135 59.5856 170.038 59.2226 169.842C58.8596 169.644 58.5761 169.368 58.3721 169.014C58.1711 168.66 58.0706 168.249 58.0706 167.781C58.0706 167.439 58.1291 167.124 58.2461 166.836C58.3631 166.545 58.5281 166.293 58.7411 166.08C58.9541 165.867 59.2031 165.702 59.4881 165.585C59.7761 165.468 60.0896 165.41 60.4286 165.41C60.7976 165.41 61.1261 165.476 61.4141 165.608C61.7021 165.737 61.9406 165.918 62.1296 166.152C62.3216 166.386 62.4566 166.661 62.5346 166.976C62.6156 167.288 62.6291 167.627 62.5751 167.993H59.0201C59.0141 168.26 59.0726 168.494 59.1956 168.695C59.3186 168.893 59.4941 169.047 59.7221 169.158C59.9531 169.269 60.2246 169.325 60.5366 169.325C60.7886 169.325 61.0316 169.287 61.2656 169.212C61.5026 169.134 61.7171 169.02 61.9091 168.87L62.2916 169.581C62.1476 169.698 61.9736 169.799 61.7696 169.883C61.5656 169.964 61.3526 170.026 61.1306 170.068C60.9086 170.113 60.6941 170.135 60.4871 170.135ZM59.0786 167.264H61.6031C61.5941 166.928 61.4861 166.664 61.2791 166.472C61.0751 166.28 60.7841 166.184 60.4061 166.184C60.0401 166.184 59.7356 166.28 59.4926 166.472C59.2526 166.664 59.1146 166.928 59.0786 167.264ZM63.6035 170V165.545H64.463H64.49L66.488 168.434L66.0605 168.443L67.9595 165.545H68.837V170H67.937L67.9505 166.706L68.135 166.787L66.542 169.113H65.903L64.238 166.782L64.4225 166.701L64.436 170H63.6035ZM70.2129 170V165.545H71.0724H71.0994L73.0974 168.434L72.6699 168.443L74.5689 165.545H75.4464V170H74.5464L74.5599 166.706L74.7444 166.787L73.1514 169.113H72.5124L70.8474 166.782L71.0319 166.701L71.0454 170H70.2129ZM76.8223 170V165.545H77.7808V168.551L80.1973 165.545H81.0613V170H80.1073V166.958L77.6683 170H76.8223ZM82.4385 170V165.545H83.4285V167.264H85.6605V165.545H86.6505V170H85.6605V168.083H83.4285V170H82.4385ZM88.0283 170V165.545H90.9623V166.364H89.0183V170H88.0283ZM91.878 170V165.545H92.8365V168.551L95.253 165.545H96.117V170H95.163V166.958L92.724 170H91.878ZM101.743 170.135C101.275 170.135 100.858 170.033 100.492 169.829C100.126 169.622 99.8382 169.341 99.6282 168.987C99.4212 168.63 99.3177 168.225 99.3177 167.772C99.3177 167.43 99.3792 167.117 99.5022 166.832C99.6252 166.544 99.7992 166.293 100.024 166.08C100.249 165.867 100.513 165.702 100.816 165.585C101.122 165.468 101.454 165.41 101.811 165.41C102.111 165.41 102.388 165.45 102.643 165.531C102.901 165.609 103.138 165.731 103.354 165.896L102.877 166.652C102.739 166.529 102.58 166.437 102.4 166.377C102.223 166.317 102.034 166.287 101.833 166.287C101.521 166.287 101.253 166.346 101.028 166.463C100.803 166.58 100.627 166.749 100.501 166.971C100.378 167.19 100.317 167.456 100.317 167.768C100.317 168.233 100.452 168.597 100.722 168.861C100.995 169.125 101.365 169.257 101.833 169.257C102.055 169.257 102.265 169.217 102.463 169.136C102.661 169.052 102.826 168.942 102.958 168.807L103.431 169.559C103.194 169.739 102.93 169.88 102.639 169.982C102.348 170.084 102.049 170.135 101.743 170.135ZM106.282 170.135C105.817 170.135 105.402 170.029 105.036 169.815C104.673 169.599 104.388 169.313 104.181 168.956C103.974 168.596 103.87 168.201 103.87 167.772C103.87 167.454 103.929 167.154 104.046 166.872C104.166 166.587 104.334 166.335 104.55 166.116C104.769 165.897 105.025 165.725 105.319 165.599C105.613 165.473 105.936 165.41 106.287 165.41C106.752 165.41 107.166 165.518 107.529 165.734C107.895 165.947 108.181 166.233 108.388 166.593C108.595 166.95 108.699 167.343 108.699 167.772C108.699 168.087 108.639 168.387 108.519 168.672C108.402 168.957 108.235 169.209 108.019 169.428C107.803 169.647 107.548 169.82 107.254 169.946C106.96 170.072 106.636 170.135 106.282 170.135ZM106.282 169.257C106.558 169.257 106.803 169.197 107.016 169.077C107.232 168.954 107.401 168.782 107.524 168.56C107.647 168.338 107.709 168.075 107.709 167.772C107.709 167.469 107.647 167.207 107.524 166.985C107.401 166.76 107.232 166.587 107.016 166.467C106.803 166.347 106.558 166.287 106.282 166.287C106.006 166.287 105.76 166.347 105.544 166.467C105.331 166.587 105.163 166.76 105.04 166.985C104.92 167.207 104.86 167.469 104.86 167.772C104.86 168.075 104.922 168.338 105.045 168.56C105.168 168.782 105.336 168.954 105.549 169.077C105.765 169.197 106.009 169.257 106.282 169.257ZM113.942 170.135C113.474 170.135 113.057 170.033 112.691 169.829C112.325 169.622 112.037 169.341 111.827 168.987C111.62 168.63 111.517 168.225 111.517 167.772C111.517 167.43 111.578 167.117 111.701 166.832C111.824 166.544 111.998 166.293 112.223 166.08C112.448 165.867 112.712 165.702 113.015 165.585C113.321 165.468 113.653 165.41 114.01 165.41C114.31 165.41 114.587 165.45 114.842 165.531C115.1 165.609 115.337 165.731 115.553 165.896L115.076 166.652C114.938 166.529 114.779 166.437 114.599 166.377C114.422 166.317 114.233 166.287 114.032 166.287C113.72 166.287 113.452 166.346 113.227 166.463C113.002 166.58 112.826 166.749 112.7 166.971C112.577 167.19 112.516 167.456 112.516 167.768C112.516 168.233 112.651 168.597 112.921 168.861C113.194 169.125 113.564 169.257 114.032 169.257C114.254 169.257 114.464 169.217 114.662 169.136C114.86 169.052 115.025 168.942 115.157 168.807L115.63 169.559C115.393 169.739 115.129 169.88 114.838 169.982C114.547 170.084 114.248 170.135 113.942 170.135ZM119.501 170L118.025 167.633L119.398 165.545H120.455L119.092 167.588L120.685 170H119.501ZM116.54 170V165.545H117.53V167.264H118.871V168.083H117.53V170H116.54ZM122.796 170.135C122.487 170.135 122.216 170.078 121.982 169.964C121.748 169.847 121.565 169.683 121.433 169.473C121.304 169.26 121.239 169.01 121.239 168.722C121.239 168.479 121.301 168.26 121.424 168.065C121.547 167.867 121.737 167.703 121.995 167.574C122.256 167.445 122.591 167.36 122.999 167.318C123.407 167.273 123.897 167.279 124.47 167.336L124.488 168.02C124.08 167.963 123.729 167.939 123.435 167.948C123.141 167.957 122.9 167.994 122.711 168.06C122.525 168.123 122.387 168.209 122.297 168.317C122.21 168.422 122.166 168.543 122.166 168.681C122.166 168.897 122.243 169.064 122.396 169.181C122.552 169.298 122.765 169.356 123.035 169.356C123.266 169.356 123.473 169.314 123.656 169.23C123.839 169.146 123.983 169.028 124.088 168.875C124.196 168.722 124.25 168.542 124.25 168.335V167.151C124.25 166.953 124.208 166.782 124.124 166.638C124.04 166.491 123.912 166.377 123.741 166.296C123.57 166.215 123.357 166.175 123.102 166.175C122.868 166.175 122.637 166.211 122.409 166.283C122.181 166.352 121.964 166.461 121.757 166.611L121.478 165.882C121.757 165.693 122.048 165.56 122.351 165.482C122.654 165.404 122.945 165.365 123.224 165.365C123.638 165.365 123.992 165.431 124.286 165.563C124.583 165.692 124.811 165.888 124.97 166.152C125.129 166.413 125.208 166.743 125.208 167.142V170H124.317V169.473C124.167 169.686 123.959 169.85 123.692 169.964C123.425 170.078 123.126 170.135 122.796 170.135ZM126.362 170.077L126.016 169.185C126.322 169.107 126.545 168.984 126.686 168.816C126.83 168.648 126.92 168.414 126.956 168.114C126.995 167.814 127.015 167.427 127.015 166.953V165.545H130.637V170H129.647V166.364H127.937V166.953C127.937 167.43 127.915 167.846 127.87 168.2C127.828 168.554 127.75 168.855 127.636 169.104C127.522 169.353 127.361 169.557 127.154 169.716C126.95 169.872 126.686 169.992 126.362 170.077ZM132.018 170V165.545H133.008V169.248H133.813C134.137 169.248 134.382 169.185 134.547 169.059C134.712 168.933 134.794 168.746 134.794 168.497C134.794 168.251 134.718 168.062 134.565 167.93C134.412 167.798 134.187 167.732 133.89 167.732H132.873V166.989H133.966C134.542 166.989 134.995 167.118 135.325 167.376C135.655 167.634 135.82 168.008 135.82 168.497C135.82 168.812 135.741 169.082 135.582 169.307C135.423 169.529 135.199 169.7 134.911 169.82C134.626 169.94 134.292 170 133.908 170H132.018ZM136.536 170V165.545H137.526V170H136.536ZM43.3052 181V176.545H47.5127V181H46.5227V177.364H44.2952V181H43.3052ZM50.1238 181.135C49.8148 181.135 49.5433 181.078 49.3093 180.964C49.0753 180.847 48.8923 180.683 48.7603 180.473C48.6313 180.26 48.5668 180.01 48.5668 179.722C48.5668 179.479 48.6283 179.26 48.7513 179.065C48.8743 178.867 49.0648 178.703 49.3228 178.574C49.5838 178.445 49.9183 178.36 50.3263 178.318C50.7343 178.273 51.2248 178.279 51.7978 178.336L51.8158 179.02C51.4078 178.963 51.0568 178.939 50.7628 178.948C50.4688 178.957 50.2273 178.994 50.0383 179.06C49.8523 179.123 49.7143 179.209 49.6243 179.317C49.5373 179.422 49.4938 179.543 49.4938 179.681C49.4938 179.897 49.5703 180.064 49.7233 180.181C49.8793 180.298 50.0923 180.356 50.3623 180.356C50.5933 180.356 50.8003 180.314 50.9833 180.23C51.1663 180.146 51.3103 180.028 51.4153 179.875C51.5233 179.722 51.5773 179.542 51.5773 179.335V178.151C51.5773 177.953 51.5353 177.782 51.4513 177.638C51.3673 177.491 51.2398 177.377 51.0688 177.296C50.8978 177.215 50.6848 177.175 50.4298 177.175C50.1958 177.175 49.9648 177.211 49.7368 177.283C49.5088 177.352 49.2913 177.461 49.0843 177.611L48.8053 176.882C49.0843 176.693 49.3753 176.56 49.6783 176.482C49.9813 176.404 50.2723 176.365 50.5513 176.365C50.9653 176.365 51.3193 176.431 51.6133 176.563C51.9103 176.692 52.1383 176.888 52.2973 177.152C52.4563 177.413 52.5358 177.743 52.5358 178.142V181H51.6448V180.473C51.4948 180.686 51.2863 180.85 51.0193 180.964C50.7523 181.078 50.4538 181.135 50.1238 181.135ZM57.0876 181V177.364H55.2876V177.953C55.2876 178.358 55.2636 178.724 55.2156 179.051C55.1676 179.378 55.0821 179.666 54.9591 179.915C54.8361 180.161 54.6636 180.365 54.4416 180.527C54.2226 180.689 53.9421 180.808 53.6001 180.883L53.3571 180.212C53.6421 180.143 53.8566 180.014 54.0006 179.825C54.1446 179.636 54.2406 179.387 54.2886 179.078C54.3396 178.766 54.3651 178.391 54.3651 177.953V176.545H58.0776V181H57.0876ZM53.3571 182.35V180.212L53.9691 180.275L54.1221 180.181H58.9731V182.35H58.0686V181H54.2616V182.35H53.3571ZM61.2068 181.135C60.8978 181.135 60.6263 181.078 60.3923 180.964C60.1583 180.847 59.9753 180.683 59.8433 180.473C59.7143 180.26 59.6498 180.01 59.6498 179.722C59.6498 179.479 59.7113 179.26 59.8343 179.065C59.9573 178.867 60.1478 178.703 60.4058 178.574C60.6668 178.445 61.0013 178.36 61.4093 178.318C61.8173 178.273 62.3078 178.279 62.8808 178.336L62.8988 179.02C62.4908 178.963 62.1398 178.939 61.8458 178.948C61.5518 178.957 61.3103 178.994 61.1213 179.06C60.9353 179.123 60.7973 179.209 60.7073 179.317C60.6203 179.422 60.5768 179.543 60.5768 179.681C60.5768 179.897 60.6533 180.064 60.8063 180.181C60.9623 180.298 61.1753 180.356 61.4453 180.356C61.6763 180.356 61.8833 180.314 62.0663 180.23C62.2493 180.146 62.3933 180.028 62.4983 179.875C62.6063 179.722 62.6603 179.542 62.6603 179.335V178.151C62.6603 177.953 62.6183 177.782 62.5343 177.638C62.4503 177.491 62.3228 177.377 62.1518 177.296C61.9808 177.215 61.7678 177.175 61.5128 177.175C61.2788 177.175 61.0478 177.211 60.8198 177.283C60.5918 177.352 60.3743 177.461 60.1673 177.611L59.8883 176.882C60.1673 176.693 60.4583 176.56 60.7613 176.482C61.0643 176.404 61.3553 176.365 61.6343 176.365C62.0483 176.365 62.4023 176.431 62.6963 176.563C62.9933 176.692 63.2213 176.888 63.3803 177.152C63.5393 177.413 63.6188 177.743 63.6188 178.142V181H62.7278V180.473C62.5778 180.686 62.3693 180.85 62.1023 180.964C61.8353 181.078 61.5368 181.135 61.2068 181.135ZM64.9351 181V176.545H65.9251L65.9206 178.264H67.4281V179.083H65.9206L65.9251 181H64.9351ZM69.2956 181.135C68.8276 181.135 68.4121 181.029 68.0491 180.815C67.6861 180.599 67.3996 180.313 67.1896 179.956C66.9826 179.596 66.8791 179.201 66.8791 178.772C66.8791 178.454 66.9391 178.154 67.0591 177.872C67.1791 177.587 67.3471 177.335 67.5631 177.116C67.7791 176.897 68.0341 176.725 68.3281 176.599C68.6221 176.473 68.9446 176.41 69.2956 176.41C69.7636 176.41 70.1791 176.518 70.5421 176.734C70.9051 176.947 71.1901 177.233 71.3971 177.593C71.6071 177.95 71.7121 178.343 71.7121 178.772C71.7121 179.087 71.6521 179.387 71.5321 179.672C71.4121 179.957 71.2441 180.209 71.0281 180.428C70.8121 180.647 70.5571 180.82 70.2631 180.946C69.9691 181.072 69.6466 181.135 69.2956 181.135ZM69.2956 180.257C69.5716 180.257 69.8161 180.197 70.0291 180.077C70.2421 179.954 70.4101 179.782 70.5331 179.56C70.6561 179.338 70.7176 179.075 70.7176 178.772C70.7176 178.469 70.6561 178.207 70.5331 177.985C70.4101 177.76 70.2421 177.587 70.0291 177.467C69.8161 177.347 69.5716 177.287 69.2956 177.287C69.0196 177.287 68.7736 177.347 68.5576 177.467C68.3446 177.587 68.1766 177.76 68.0536 177.985C67.9336 178.207 67.8736 178.469 67.8736 178.772C67.8736 179.075 67.9336 179.338 68.0536 179.56C68.1766 179.782 68.3446 179.954 68.5576 180.077C68.7736 180.197 69.0196 180.257 69.2956 180.257ZM73.6991 181V177.364H72.2366V176.545H76.1561V177.364H74.6891V181H73.6991ZM79.27 181V176.545H81.394C81.898 176.545 82.3015 176.641 82.6045 176.833C82.9075 177.025 83.059 177.313 83.059 177.697C83.059 177.877 83.0155 178.037 82.9285 178.178C82.8415 178.316 82.7215 178.432 82.5685 178.525C82.4155 178.618 82.237 178.685 82.033 178.728L82.015 178.507C82.408 178.561 82.7125 178.691 82.9285 178.898C83.1445 179.105 83.2525 179.368 83.2525 179.686C83.2525 179.956 83.182 180.19 83.041 180.388C82.9 180.583 82.6975 180.734 82.4335 180.842C82.1695 180.947 81.853 181 81.484 181H79.27ZM80.2285 180.266H81.349C81.646 180.266 81.874 180.217 82.033 180.118C82.195 180.019 82.276 179.87 82.276 179.672C82.276 179.477 82.1965 179.332 82.0375 179.236C81.8785 179.137 81.649 179.087 81.349 179.087H80.098V178.381H81.2455C81.5245 178.381 81.7405 178.339 81.8935 178.255C82.0465 178.168 82.123 178.027 82.123 177.832C82.123 177.637 82.0465 177.496 81.8935 177.409C81.7405 177.319 81.5245 177.274 81.2455 177.274H80.2285V180.266ZM86.5738 181V176.545H88.6978C89.2018 176.545 89.6053 176.641 89.9083 176.833C90.2113 177.025 90.3628 177.313 90.3628 177.697C90.3628 177.877 90.3193 178.037 90.2323 178.178C90.1453 178.316 90.0253 178.432 89.8723 178.525C89.7193 178.618 89.5408 178.685 89.3368 178.728L89.3188 178.507C89.7118 178.561 90.0163 178.691 90.2323 178.898C90.4483 179.105 90.5563 179.368 90.5563 179.686C90.5563 179.956 90.4858 180.19 90.3448 180.388C90.2038 180.583 90.0013 180.734 89.7373 180.842C89.4733 180.947 89.1568 181 88.7878 181H86.5738ZM87.5323 180.266H88.6528C88.9498 180.266 89.1778 180.217 89.3368 180.118C89.4988 180.019 89.5798 179.87 89.5798 179.672C89.5798 179.477 89.5003 179.332 89.3413 179.236C89.1823 179.137 88.9528 179.087 88.6528 179.087H87.4018V178.381H88.5493C88.8283 178.381 89.0443 178.339 89.1973 178.255C89.3503 178.168 89.4268 178.027 89.4268 177.832C89.4268 177.637 89.3503 177.496 89.1973 177.409C89.0443 177.319 88.8283 177.274 88.5493 177.274H87.5323V180.266ZM93.7009 181.135C93.2359 181.135 92.8204 181.029 92.4544 180.815C92.0914 180.599 91.8064 180.313 91.5994 179.956C91.3924 179.596 91.2889 179.201 91.2889 178.772C91.2889 178.454 91.3474 178.154 91.4644 177.872C91.5844 177.587 91.7524 177.335 91.9684 177.116C92.1874 176.897 92.4439 176.725 92.7379 176.599C93.0319 176.473 93.3544 176.41 93.7054 176.41C94.1704 176.41 94.5844 176.518 94.9474 176.734C95.3134 176.947 95.5999 177.233 95.8069 177.593C96.0139 177.95 96.1174 178.343 96.1174 178.772C96.1174 179.087 96.0574 179.387 95.9374 179.672C95.8204 179.957 95.6539 180.209 95.4379 180.428C95.2219 180.647 94.9669 180.82 94.6729 180.946C94.3789 181.072 94.0549 181.135 93.7009 181.135ZM93.7009 180.257C93.9769 180.257 94.2214 180.197 94.4344 180.077C94.6504 179.954 94.8199 179.782 94.9429 179.56C95.0659 179.338 95.1274 179.075 95.1274 178.772C95.1274 178.469 95.0659 178.207 94.9429 177.985C94.8199 177.76 94.6504 177.587 94.4344 177.467C94.2214 177.347 93.9769 177.287 93.7009 177.287C93.4249 177.287 93.1789 177.347 92.9629 177.467C92.7499 177.587 92.5819 177.76 92.4589 177.985C92.3389 178.207 92.2789 178.469 92.2789 178.772C92.2789 179.075 92.3404 179.338 92.4634 179.56C92.5864 179.782 92.7544 179.954 92.9674 180.077C93.1834 180.197 93.4279 180.257 93.7009 180.257ZM100.347 181V177.364H98.5473V177.953C98.5473 178.358 98.5233 178.724 98.4753 179.051C98.4273 179.378 98.3418 179.666 98.2188 179.915C98.0958 180.161 97.9233 180.365 97.7013 180.527C97.4823 180.689 97.2018 180.808 96.8598 180.883L96.6168 180.212C96.9018 180.143 97.1163 180.014 97.2603 179.825C97.4043 179.636 97.5003 179.387 97.5483 179.078C97.5993 178.766 97.6248 178.391 97.6248 177.953V176.545H101.337V181H100.347ZM96.6168 182.35V180.212L97.2288 180.275L97.3818 180.181H102.233V182.35H101.328V181H97.5213V182.35H96.6168ZM103.664 183.016C103.502 183.016 103.343 182.998 103.187 182.962C103.031 182.926 102.878 182.865 102.728 182.778L102.953 181.932C103.046 181.992 103.148 182.037 103.259 182.067C103.37 182.097 103.469 182.112 103.556 182.112C103.766 182.112 103.931 182.062 104.051 181.963C104.171 181.864 104.266 181.711 104.335 181.504L104.483 181.072L102.728 176.545H103.813L105.046 180.001L106.247 176.545H107.296L105.37 181.644C105.232 182.001 105.077 182.278 104.906 182.476C104.735 182.677 104.546 182.817 104.339 182.895C104.132 182.976 103.907 183.016 103.664 183.016Z" fill="white"/>
<rect x="1" y="1" width="148" height="198" rx="15" stroke="black" stroke-width="2"/>
</g>
<defs>
<filter id="filter0_b_1_762" x="-4" y="114" width="158" height="90" filterUnits="userSpaceOnUse" color-interpolation-filters="sRGB">
<feFlood flood-opacity="0" result="BackgroundImageFix"/>
<feGaussianBlur in="BackgroundImageFix" stdDeviation="2"/>
<feComposite in2="SourceAlpha" operator="in" result="effect1_backgroundBlur_1_762"/>
<feBlend mode="normal" in="SourceGraphic" in2="effect1_backgroundBlur_1_762" result="shape"/>
</filter>
<clipPath id="clip0_1_762">
<rect width="150" height="200" rx="16" fill="white"/>
</clipPath>
</defs>
</svg>
