<svg width="150" height="200" viewBox="0 0 150 200" fill="none" xmlns="http://www.w3.org/2000/svg">
<g clip-path="url(#clip0_1_287)">
<rect width="150" height="200" fill="#4895FA"/>
<path d="M42.8833 76.7306L35.9189 82.5899L30 139.125L33.3685 190.474L36.6928 205.587L47.281 221.586L53.0804 96.6322L42.8833 76.7306Z" fill="#90958F"/>
<path d="M45.6796 163.185L42.7244 209.582L47.281 221.586L95.5403 219.516L131.786 222L171.968 219.102L182.688 215.432L180.346 194.125L176.905 165.82L150.842 153.53L72.3427 150.011L45.6796 163.185Z" fill="#5A6A59"/>
<path d="M45.6796 163.186L111.585 159.966L176.905 165.82L194.929 156.432L199.624 125.205L207 63.9325L162.158 52.5813L123.898 59.6119L87.8591 64.6182L42.8832 76.7307L41.8716 133.058L45.6796 163.186Z" fill="#B9C1A6"/>
<path d="M41.8452 127.567L85.5387 127.795L112.537 128.934L124.003 136.064L135.162 140.821L150.842 153.53L163.873 159.675L176.905 165.82L153.179 168.161L111.585 159.966L45.6796 163.185L41.8717 133.058L41.8452 127.567Z" fill="#6DC466"/>
<path d="M41.8451 127.567L35.3036 125.842L30.2684 133.829L30.1327 141.149L31.6842 164.799L33.3684 190.474L36.6927 205.587L47.2809 221.586L42.7243 209.582L45.6796 163.186L41.8716 133.058L41.8451 127.567Z" fill="#699D65"/>
<path d="M111.585 159.966L153.179 168.161L176.905 165.82L194.929 156.432L199.624 125.205L200.236 56.5406L166.332 41L114.618 52.304L85.3728 111.505L111.585 159.966Z" fill="#B3BEB3"/>
<path d="M117.449 116.065L185.228 122.947L194.929 156.432L176.905 165.82L153.179 168.161L111.585 159.966L117.449 116.065Z" fill="#A3ADA3"/>
<path d="M114.618 52.304L117.449 116.065L59.0111 156.598L47.4601 111.253L114.618 52.304Z" fill="#C2CEC2"/>
<path d="M111.585 159.966L119.525 170.842L156.227 176.607L177.769 173.237L176.905 165.82L153.179 168.161L111.585 159.966Z" fill="#5B635B"/>
<path d="M59.0112 156.598L111.585 159.966L117.449 116.065L59.0112 156.598Z" fill="#AAB6AA"/>
<path opacity="0.314159" d="M32.1981 125.951L38.833 177.304L44.202 186.384L99.2547 196.682L160.478 194.44L179.796 190.626L193.869 176.671L199.555 142.792L206.103 77.8456L204.757 109.781L200.319 163.507L192.81 196.91L182.376 215.461L171.968 219.103L131.786 222L95.5403 219.516L47.281 221.586L36.6928 205.587L33.3685 190.474L30 139.125L32.1981 125.951Z" fill="#3238B1"/>
<path d="M66 90.7436L66.3835 85.7749L97.5336 72.9866L128.4 46.5939L128.017 51.5624L124.484 56.8345L124.291 61.8593L123.908 66.8278L121.982 72.6796L113.508 77.5136L110.041 80.3122L111.068 87.5632L106.189 90.4891L107.216 96.2137L102.337 99.1396L101.695 105.5L66 90.7436Z" fill="#943535"/>
<path d="M107.599 91.245L107.216 96.2137L102.337 99.1396L102.72 94.1709L107.599 91.245Z" fill="#702A2A"/>
<path d="M111.451 82.5946L111.068 87.5632L106.189 90.4891L106.572 85.5205L111.451 82.5946Z" fill="#702A2A"/>
<path d="M85.0012 43.0318L82.3049 34.7632L86.0284 34L91.4212 40.4878L102.463 38.1979L110.809 40.4878L119.284 49.0109L126.346 43.2863L128.4 46.5939L124.676 51.8095L124.291 61.8593L122.365 67.7109L113.891 72.545L110.424 75.3436L111.451 82.5946L106.572 85.5205L107.599 91.245L102.72 94.1708L102.078 100.531L85.0012 93.7892L66.3834 85.7748L71.5193 82.7218L69.5934 78.5238L74.7293 75.3436L72.5465 69.6191L80.3789 65.5483L77.8109 61.096L74.4725 55.6258L77.4257 50.6647L83.0752 45.9579L85.0012 43.0318Z" fill="#E74242"/>
<path d="M122.365 67.7109L121.982 72.6796L123.908 66.8278L124.291 61.8593L122.365 67.7109Z" fill="#702A2A"/>
<path d="M128.4 46.5939L128.016 51.5624L124.484 56.8345L124.676 51.8095L128.4 46.5939Z" fill="#672D2D"/>
<path d="M93.1204 47.5597L88.1304 52.3538L91.0035 57.2974L97.0519 55.2001L97.9592 50.2563L93.1204 47.5597Z" fill="#761E1E"/>
<path d="M108.586 53.7502L103.596 58.5443L106.469 63.488L112.518 61.3907L113.425 56.4469L108.586 53.7502Z" fill="#761E1E"/>
<path d="M27.7288 20L22 82.322L42.7119 64.642L105.85 129.2L59.4576 46.52L85.0169 28.84L27.7288 20Z" fill="black" stroke="#4895FA" stroke-width="2"/>
<g filter="url(#filter0_b_1_287)">
<rect y="118" width="150" height="82" fill="black" fill-opacity="0.5"/>
</g>
<rect x="1" y="1" width="148" height="198" rx="15" stroke="black" stroke-width="2"/>
<path d="M49.1173 138V130.3H55.6403V138H54.0123V131.785H50.7453V138H49.1173ZM57.5176 138V130.3H60.5041C61.0688 130.3 61.5693 130.399 62.0056 130.597C62.442 130.791 62.7848 131.075 63.0341 131.449C63.2835 131.82 63.4081 132.265 63.4081 132.786C63.4081 133.318 63.2926 133.769 63.0616 134.139C62.8306 134.506 62.4951 134.786 62.0551 134.98C61.6188 135.171 61.089 135.266 60.4656 135.266H59.1456V138H57.5176ZM59.1456 133.897H60.4381C60.8598 133.897 61.188 133.811 61.4226 133.638C61.661 133.466 61.7801 133.193 61.7801 132.819C61.7801 132.441 61.6591 132.161 61.4171 131.977C61.1751 131.794 60.8525 131.702 60.4491 131.702H59.1456V133.897ZM64.6612 138V130.3H66.2892V133.028H67.5927C68.1537 133.028 68.6524 133.127 69.0887 133.325C69.525 133.523 69.8679 133.807 70.1172 134.177C70.3702 134.548 70.4967 134.995 70.4967 135.519C70.4967 135.915 70.4307 136.267 70.2987 136.575C70.1704 136.883 69.9797 137.144 69.7267 137.356C69.4737 137.569 69.1657 137.73 68.8027 137.84C68.4397 137.947 68.0235 138 67.5542 138H64.6612ZM66.2892 136.63H67.5267C67.9484 136.63 68.2765 136.544 68.5112 136.372C68.7495 136.2 68.8687 135.925 68.8687 135.547C68.8687 135.169 68.7477 134.891 68.5057 134.711C68.2637 134.528 67.941 134.436 67.5377 134.436H66.2892V136.63ZM71.5362 138V130.3H73.1642V138H71.5362ZM83.3267 138L80.5162 133.968L83.0352 130.3H84.8887L82.3312 133.963L85.2352 138H83.3267ZM74.2132 138L77.1007 134.056L74.5872 130.3H76.4957L78.9157 133.985L76.0557 138H74.2132ZM78.9102 138V134.634H77.6122V133.27H78.9102V130.3H80.5382V133.27H81.8417V134.634H80.5382V138H78.9102ZM89.3561 138.165C88.7695 138.165 88.2268 138.064 87.7281 137.862C87.2295 137.657 86.7968 137.373 86.4301 137.01C86.0635 136.647 85.7775 136.222 85.5721 135.734C85.3705 135.246 85.2696 134.718 85.2696 134.15C85.2696 133.578 85.3705 133.048 85.5721 132.56C85.7775 132.073 86.0635 131.647 86.4301 131.284C86.7968 130.921 87.2295 130.639 87.7281 130.437C88.2268 130.236 88.7695 130.135 89.3561 130.135C89.9428 130.135 90.4836 130.238 90.9786 130.443C91.4773 130.648 91.91 130.934 92.2766 131.301C92.647 131.668 92.9348 132.095 93.1401 132.582C93.3455 133.066 93.4481 133.589 93.4481 134.15C93.4481 134.718 93.3455 135.246 93.1401 135.734C92.9348 136.222 92.647 136.647 92.2766 137.01C91.91 137.373 91.4773 137.657 90.9786 137.862C90.4836 138.064 89.9428 138.165 89.3561 138.165ZM89.3561 136.636C89.6971 136.636 90.0125 136.577 90.3021 136.46C90.5918 136.343 90.8448 136.176 91.0611 135.959C91.2775 135.739 91.4443 135.477 91.5616 135.173C91.6826 134.869 91.7431 134.528 91.7431 134.15C91.7431 133.648 91.6386 133.211 91.4296 132.841C91.2206 132.467 90.9365 132.177 90.5771 131.972C90.2178 131.767 89.8108 131.664 89.3561 131.664C89.0188 131.664 88.7035 131.723 88.4101 131.84C88.1205 131.957 87.8675 132.124 87.6511 132.34C87.4385 132.557 87.2716 132.819 87.1506 133.127C87.0333 133.431 86.9746 133.772 86.9746 134.15C86.9746 134.652 87.0791 135.09 87.2881 135.464C87.4971 135.835 87.7813 136.123 88.1406 136.328C88.5 136.533 88.9051 136.636 89.3561 136.636ZM99.5933 138L96.4748 133.99L99.2743 130.3H101.298L98.4603 133.985L101.689 138H99.5933ZM94.8468 138V130.3H96.4748V133.22H97.9158V134.711H96.4748V138H94.8468Z" fill="white"/>
<path d="M11.6764 159V152.7H16.7434V159H15.7354V153.622H12.6844V159H11.6764ZM20.286 159.135C19.806 159.135 19.3845 159.038 19.0215 158.842C18.6585 158.644 18.375 158.368 18.171 158.014C17.97 157.66 17.8695 157.249 17.8695 156.781C17.8695 156.439 17.928 156.124 18.045 155.836C18.162 155.545 18.327 155.293 18.54 155.08C18.753 154.867 19.002 154.702 19.287 154.585C19.575 154.468 19.8885 154.41 20.2275 154.41C20.5965 154.41 20.925 154.476 21.213 154.608C21.501 154.737 21.7395 154.918 21.9285 155.152C22.1205 155.386 22.2555 155.661 22.3335 155.976C22.4145 156.288 22.428 156.627 22.374 156.993H18.819C18.813 157.26 18.8715 157.494 18.9945 157.695C19.1175 157.893 19.293 158.047 19.521 158.158C19.752 158.269 20.0235 158.325 20.3355 158.325C20.5875 158.325 20.8305 158.287 21.0645 158.212C21.3015 158.134 21.516 158.02 21.708 157.87L22.0905 158.581C21.9465 158.698 21.7725 158.799 21.5685 158.883C21.3645 158.964 21.1515 159.026 20.9295 159.068C20.7075 159.113 20.493 159.135 20.286 159.135ZM18.8775 156.264H21.402C21.393 155.928 21.285 155.664 21.078 155.472C20.874 155.28 20.583 155.184 20.205 155.184C19.839 155.184 19.5345 155.28 19.2915 155.472C19.0515 155.664 18.9135 155.928 18.8775 156.264ZM23.4024 160.89V154.545H24.2934V155.17C24.4704 154.945 24.6969 154.762 24.9729 154.621C25.2489 154.48 25.5894 154.41 25.9944 154.41C26.4294 154.41 26.8149 154.513 27.1509 154.72C27.4899 154.924 27.7539 155.205 27.9429 155.562C28.1319 155.916 28.2264 156.319 28.2264 156.772C28.2264 157.099 28.1724 157.407 28.0644 157.695C27.9564 157.98 27.8019 158.23 27.6009 158.446C27.4029 158.662 27.1659 158.832 26.8899 158.955C26.6169 159.075 26.3139 159.135 25.9809 159.135C25.6329 159.135 25.3269 159.072 25.0629 158.946C24.7989 158.82 24.5739 158.65 24.3879 158.438V160.89H23.4024ZM25.8144 158.257C26.0904 158.257 26.3349 158.197 26.5479 158.077C26.7639 157.954 26.9319 157.782 27.0519 157.56C27.1749 157.338 27.2364 157.075 27.2364 156.772C27.2364 156.469 27.1749 156.207 27.0519 155.985C26.9289 155.76 26.7594 155.587 26.5434 155.467C26.3304 155.347 26.0874 155.287 25.8144 155.287C25.5384 155.287 25.2924 155.347 25.0764 155.467C24.8634 155.587 24.6954 155.76 24.5724 155.985C24.4494 156.207 24.3879 156.469 24.3879 156.772C24.3879 157.075 24.4494 157.338 24.5724 157.56C24.6954 157.782 24.8634 157.954 25.0764 158.077C25.2924 158.197 25.5384 158.257 25.8144 158.257ZM31.2987 159.135C30.8187 159.135 30.3972 159.038 30.0342 158.842C29.6712 158.644 29.3877 158.368 29.1837 158.014C28.9827 157.66 28.8822 157.249 28.8822 156.781C28.8822 156.439 28.9407 156.124 29.0577 155.836C29.1747 155.545 29.3397 155.293 29.5527 155.08C29.7657 154.867 30.0147 154.702 30.2997 154.585C30.5877 154.468 30.9012 154.41 31.2402 154.41C31.6092 154.41 31.9377 154.476 32.2257 154.608C32.5137 154.737 32.7522 154.918 32.9412 155.152C33.1332 155.386 33.2682 155.661 33.3462 155.976C33.4272 156.288 33.4407 156.627 33.3867 156.993H29.8317C29.8257 157.26 29.8842 157.494 30.0072 157.695C30.1302 157.893 30.3057 158.047 30.5337 158.158C30.7647 158.269 31.0362 158.325 31.3482 158.325C31.6002 158.325 31.8432 158.287 32.0772 158.212C32.3142 158.134 32.5287 158.02 32.7207 157.87L33.1032 158.581C32.9592 158.698 32.7852 158.799 32.5812 158.883C32.3772 158.964 32.1642 159.026 31.9422 159.068C31.7202 159.113 31.5057 159.135 31.2987 159.135ZM29.8902 156.264H32.4147C32.4057 155.928 32.2977 155.664 32.0907 155.472C31.8867 155.28 31.5957 155.184 31.2177 155.184C30.8517 155.184 30.5472 155.28 30.3042 155.472C30.0642 155.664 29.9262 155.928 29.8902 156.264ZM34.4151 159V154.545H35.2746H35.3016L37.2996 157.434L36.8721 157.443L38.7711 154.545H39.6486V159H38.7486L38.7621 155.706L38.9466 155.787L37.3536 158.113H36.7146L35.0496 155.782L35.2341 155.701L35.2476 159H34.4151ZM43.0584 159.135C42.5784 159.135 42.1569 159.038 41.7939 158.842C41.4309 158.644 41.1474 158.368 40.9434 158.014C40.7424 157.66 40.6419 157.249 40.6419 156.781C40.6419 156.439 40.7004 156.124 40.8174 155.836C40.9344 155.545 41.0994 155.293 41.3124 155.08C41.5254 154.867 41.7744 154.702 42.0594 154.585C42.3474 154.468 42.6609 154.41 42.9999 154.41C43.3689 154.41 43.6974 154.476 43.9854 154.608C44.2734 154.737 44.5119 154.918 44.7009 155.152C44.8929 155.386 45.0279 155.661 45.1059 155.976C45.1869 156.288 45.2004 156.627 45.1464 156.993H41.5914C41.5854 157.26 41.6439 157.494 41.7669 157.695C41.8899 157.893 42.0654 158.047 42.2934 158.158C42.5244 158.269 42.7959 158.325 43.1079 158.325C43.3599 158.325 43.6029 158.287 43.8369 158.212C44.0739 158.134 44.2884 158.02 44.4804 157.87L44.8629 158.581C44.7189 158.698 44.5449 158.799 44.3409 158.883C44.1369 158.964 43.9239 159.026 43.7019 159.068C43.4799 159.113 43.2654 159.135 43.0584 159.135ZM41.6499 156.264H44.1744C44.1654 155.928 44.0574 155.664 43.8504 155.472C43.6464 155.28 43.3554 155.184 42.9774 155.184C42.6114 155.184 42.3069 155.28 42.0639 155.472C41.8239 155.664 41.6859 155.928 41.6499 156.264ZM48.2618 159.135C47.7938 159.135 47.3768 159.033 47.0108 158.829C46.6448 158.622 46.3568 158.341 46.1468 157.987C45.9398 157.63 45.8363 157.225 45.8363 156.772C45.8363 156.43 45.8978 156.117 46.0208 155.832C46.1438 155.544 46.3178 155.293 46.5428 155.08C46.7678 154.867 47.0318 154.702 47.3348 154.585C47.6408 154.468 47.9723 154.41 48.3293 154.41C48.6293 154.41 48.9068 154.45 49.1618 154.531C49.4198 154.609 49.6568 154.731 49.8728 154.896L49.3958 155.652C49.2578 155.529 49.0988 155.437 48.9188 155.377C48.7418 155.317 48.5528 155.287 48.3518 155.287C48.0398 155.287 47.7713 155.346 47.5463 155.463C47.3213 155.58 47.1458 155.749 47.0198 155.971C46.8968 156.19 46.8353 156.456 46.8353 156.768C46.8353 157.233 46.9703 157.597 47.2403 157.861C47.5133 158.125 47.8838 158.257 48.3518 158.257C48.5738 158.257 48.7838 158.217 48.9818 158.136C49.1798 158.052 49.3448 157.942 49.4768 157.807L49.9493 158.559C49.7123 158.739 49.4483 158.88 49.1573 158.982C48.8663 159.084 48.5678 159.135 48.2618 159.135ZM51.8539 159V155.364H50.3914V154.545H54.3109V155.364H52.8439V159H51.8539ZM55.2188 159V154.545H56.1773V157.551L58.5938 154.545H59.4578V159H58.5038V155.958L56.0648 159H55.2188ZM61.8295 159V155.364H60.367V154.545H64.2865V155.364H62.8195V159H61.8295ZM65.1944 159V154.545H66.1844V158.248H67.0349C67.3589 158.248 67.6034 158.185 67.7684 158.059C67.9334 157.933 68.0159 157.746 68.0159 157.497C68.0159 157.251 67.9394 157.062 67.7864 156.93C67.6334 156.798 67.4084 156.732 67.1114 156.732H66.0494V155.989H67.1879C67.7639 155.989 68.2169 156.118 68.5469 156.376C68.8769 156.634 69.0419 157.008 69.0419 157.497C69.0419 157.812 68.9624 158.082 68.8034 158.307C68.6444 158.529 68.4209 158.7 68.1329 158.82C67.8479 158.94 67.5134 159 67.1294 159H65.1944ZM74.3166 159.135C73.8516 159.135 73.4361 159.029 73.0701 158.815C72.7071 158.599 72.4221 158.313 72.2151 157.956C72.0081 157.596 71.9046 157.201 71.9046 156.772C71.9046 156.454 71.9631 156.154 72.0801 155.872C72.2001 155.587 72.3681 155.335 72.5841 155.116C72.8031 154.897 73.0596 154.725 73.3536 154.599C73.6476 154.473 73.9701 154.41 74.3211 154.41C74.7861 154.41 75.2001 154.518 75.5631 154.734C75.9291 154.947 76.2156 155.233 76.4226 155.593C76.6296 155.95 76.7331 156.343 76.7331 156.772C76.7331 157.087 76.6731 157.387 76.5531 157.672C76.4361 157.957 76.2696 158.209 76.0536 158.428C75.8376 158.647 75.5826 158.82 75.2886 158.946C74.9946 159.072 74.6706 159.135 74.3166 159.135ZM74.3166 158.257C74.5926 158.257 74.8371 158.197 75.0501 158.077C75.2661 157.954 75.4356 157.782 75.5586 157.56C75.6816 157.338 75.7431 157.075 75.7431 156.772C75.7431 156.469 75.6816 156.207 75.5586 155.985C75.4356 155.76 75.2661 155.587 75.0501 155.467C74.8371 155.347 74.5926 155.287 74.3166 155.287C74.0406 155.287 73.7946 155.347 73.5786 155.467C73.3656 155.587 73.1976 155.76 73.0746 155.985C72.9546 156.207 72.8946 156.469 72.8946 156.772C72.8946 157.075 72.9561 157.338 73.0791 157.56C73.2021 157.782 73.3701 157.954 73.5831 158.077C73.7991 158.197 74.0436 158.257 74.3166 158.257ZM80.9631 159V155.364H79.1631V155.953C79.1631 156.358 79.1391 156.724 79.0911 157.051C79.0431 157.378 78.9576 157.666 78.8346 157.915C78.7116 158.161 78.5391 158.365 78.3171 158.527C78.0981 158.689 77.8176 158.808 77.4756 158.883L77.2326 158.212C77.5176 158.143 77.7321 158.014 77.8761 157.825C78.0201 157.636 78.1161 157.387 78.1641 157.078C78.2151 156.766 78.2406 156.391 78.2406 155.953V154.545H81.9531V159H80.9631ZM77.2326 160.35V158.212L77.8446 158.275L77.9976 158.181H82.8486V160.35H81.9441V159H78.1371V160.35H77.2326ZM83.7217 159V154.545H84.7117V156.264H86.9437V154.545H87.9337V159H86.9437V157.083H84.7117V159H83.7217ZM91.341 159.135C90.876 159.135 90.4605 159.029 90.0945 158.815C89.7315 158.599 89.4465 158.313 89.2395 157.956C89.0325 157.596 88.929 157.201 88.929 156.772C88.929 156.454 88.9875 156.154 89.1045 155.872C89.2245 155.587 89.3925 155.335 89.6085 155.116C89.8275 154.897 90.084 154.725 90.378 154.599C90.672 154.473 90.9945 154.41 91.3455 154.41C91.8105 154.41 92.2245 154.518 92.5875 154.734C92.9535 154.947 93.24 155.233 93.447 155.593C93.654 155.95 93.7575 156.343 93.7575 156.772C93.7575 157.087 93.6975 157.387 93.5775 157.672C93.4605 157.957 93.294 158.209 93.078 158.428C92.862 158.647 92.607 158.82 92.313 158.946C92.019 159.072 91.695 159.135 91.341 159.135ZM91.341 158.257C91.617 158.257 91.8615 158.197 92.0745 158.077C92.2905 157.954 92.46 157.782 92.583 157.56C92.706 157.338 92.7675 157.075 92.7675 156.772C92.7675 156.469 92.706 156.207 92.583 155.985C92.46 155.76 92.2905 155.587 92.0745 155.467C91.8615 155.347 91.617 155.287 91.341 155.287C91.065 155.287 90.819 155.347 90.603 155.467C90.39 155.587 90.222 155.76 90.099 155.985C89.979 156.207 89.919 156.469 89.919 156.772C89.919 157.075 89.9805 157.338 90.1035 157.56C90.2265 157.782 90.3945 157.954 90.6075 158.077C90.8235 158.197 91.068 158.257 91.341 158.257ZM94.752 159V154.545H97.686V155.364H95.742V159H94.752ZM100.631 159.135C100.166 159.135 99.7506 159.029 99.3846 158.815C99.0216 158.599 98.7366 158.313 98.5296 157.956C98.3226 157.596 98.2191 157.201 98.2191 156.772C98.2191 156.454 98.2776 156.154 98.3946 155.872C98.5146 155.587 98.6826 155.335 98.8986 155.116C99.1176 154.897 99.3741 154.725 99.6681 154.599C99.9621 154.473 100.285 154.41 100.636 154.41C101.101 154.41 101.515 154.518 101.878 154.734C102.244 154.947 102.53 155.233 102.737 155.593C102.944 155.95 103.048 156.343 103.048 156.772C103.048 157.087 102.988 157.387 102.868 157.672C102.751 157.957 102.584 158.209 102.368 158.428C102.152 158.647 101.897 158.82 101.603 158.946C101.309 159.072 100.985 159.135 100.631 159.135ZM100.631 158.257C100.907 158.257 101.152 158.197 101.365 158.077C101.581 157.954 101.75 157.782 101.873 157.56C101.996 157.338 102.058 157.075 102.058 156.772C102.058 156.469 101.996 156.207 101.873 155.985C101.75 155.76 101.581 155.587 101.365 155.467C101.152 155.347 100.907 155.287 100.631 155.287C100.355 155.287 100.109 155.347 99.8931 155.467C99.6801 155.587 99.5121 155.76 99.3891 155.985C99.2691 156.207 99.2091 156.469 99.2091 156.772C99.2091 157.075 99.2706 157.338 99.3936 157.56C99.5166 157.782 99.6846 157.954 99.8976 158.077C100.114 158.197 100.358 158.257 100.631 158.257ZM106.086 159.077L105.74 158.185C106.046 158.107 106.269 157.984 106.41 157.816C106.554 157.648 106.644 157.414 106.68 157.114C106.719 156.814 106.739 156.427 106.739 155.953V154.545H110.361V159H109.371V155.364H107.661V155.953C107.661 156.43 107.639 156.846 107.594 157.2C107.552 157.554 107.474 157.855 107.36 158.104C107.246 158.353 107.085 158.557 106.878 158.716C106.674 158.872 106.41 158.992 106.086 159.077ZM111.741 159V154.545H112.731L112.727 156.264H114.234V157.083H112.727L112.731 159H111.741ZM116.102 159.135C115.634 159.135 115.218 159.029 114.855 158.815C114.492 158.599 114.206 158.313 113.996 157.956C113.789 157.596 113.685 157.201 113.685 156.772C113.685 156.454 113.745 156.154 113.865 155.872C113.985 155.587 114.153 155.335 114.369 155.116C114.585 154.897 114.84 154.725 115.134 154.599C115.428 154.473 115.751 154.41 116.102 154.41C116.57 154.41 116.985 154.518 117.348 154.734C117.711 154.947 117.996 155.233 118.203 155.593C118.413 155.95 118.518 156.343 118.518 156.772C118.518 157.087 118.458 157.387 118.338 157.672C118.218 157.957 118.05 158.209 117.834 158.428C117.618 158.647 117.363 158.82 117.069 158.946C116.775 159.072 116.453 159.135 116.102 159.135ZM116.102 158.257C116.378 158.257 116.622 158.197 116.835 158.077C117.048 157.954 117.216 157.782 117.339 157.56C117.462 157.338 117.524 157.075 117.524 156.772C117.524 156.469 117.462 156.207 117.339 155.985C117.216 155.76 117.048 155.587 116.835 155.467C116.622 155.347 116.378 155.287 116.102 155.287C115.826 155.287 115.58 155.347 115.364 155.467C115.151 155.587 114.983 155.76 114.86 155.985C114.74 156.207 114.68 156.469 114.68 156.772C114.68 157.075 114.74 157.338 114.86 157.56C114.983 157.782 115.151 157.954 115.364 158.077C115.58 158.197 115.826 158.257 116.102 158.257ZM121.689 159.135C121.314 159.135 120.975 159.071 120.672 158.941C120.369 158.812 120.111 158.626 119.898 158.383C119.685 158.137 119.521 157.839 119.407 157.488C119.296 157.134 119.241 156.732 119.241 156.282C119.241 155.787 119.278 155.343 119.353 154.95C119.431 154.557 119.553 154.216 119.718 153.928C119.886 153.64 120.106 153.403 120.379 153.217C120.655 153.031 120.99 152.898 121.383 152.817L123.516 152.385L123.678 153.244L121.603 153.645C121.255 153.717 120.982 153.832 120.784 153.991C120.586 154.15 120.441 154.353 120.348 154.599C120.255 154.845 120.193 155.134 120.163 155.467C120.352 155.212 120.588 155.008 120.87 154.855C121.152 154.702 121.48 154.626 121.855 154.626C122.278 154.626 122.652 154.726 122.976 154.927C123.303 155.125 123.558 155.391 123.741 155.724C123.924 156.057 124.015 156.426 124.015 156.831C124.015 157.146 123.96 157.443 123.849 157.722C123.741 158.001 123.583 158.247 123.376 158.46C123.169 158.67 122.923 158.835 122.638 158.955C122.353 159.075 122.037 159.135 121.689 159.135ZM121.666 158.257C121.927 158.257 122.16 158.2 122.364 158.086C122.571 157.969 122.733 157.806 122.85 157.596C122.967 157.383 123.025 157.131 123.025 156.84C123.025 156.549 122.967 156.298 122.85 156.088C122.733 155.875 122.571 155.712 122.364 155.598C122.16 155.481 121.927 155.422 121.666 155.422C121.405 155.422 121.171 155.481 120.964 155.598C120.76 155.712 120.6 155.875 120.483 156.088C120.366 156.298 120.307 156.549 120.307 156.84C120.307 157.131 120.366 157.383 120.483 157.596C120.6 157.806 120.76 157.969 120.964 158.086C121.171 158.2 121.405 158.257 121.666 158.257ZM127.13 159.135C126.665 159.135 126.25 159.029 125.884 158.815C125.521 158.599 125.236 158.313 125.029 157.956C124.822 157.596 124.718 157.201 124.718 156.772C124.718 156.454 124.777 156.154 124.894 155.872C125.014 155.587 125.182 155.335 125.398 155.116C125.617 154.897 125.873 154.725 126.167 154.599C126.461 154.473 126.784 154.41 127.135 154.41C127.6 154.41 128.014 154.518 128.377 154.734C128.743 154.947 129.029 155.233 129.236 155.593C129.443 155.95 129.547 156.343 129.547 156.772C129.547 157.087 129.487 157.387 129.367 157.672C129.25 157.957 129.083 158.209 128.867 158.428C128.651 158.647 128.396 158.82 128.102 158.946C127.808 159.072 127.484 159.135 127.13 159.135ZM127.13 158.257C127.406 158.257 127.651 158.197 127.864 158.077C128.08 157.954 128.249 157.782 128.372 157.56C128.495 157.338 128.557 157.075 128.557 156.772C128.557 156.469 128.495 156.207 128.372 155.985C128.249 155.76 128.08 155.587 127.864 155.467C127.651 155.347 127.406 155.287 127.13 155.287C126.854 155.287 126.608 155.347 126.392 155.467C126.179 155.587 126.011 155.76 125.888 155.985C125.768 156.207 125.708 156.469 125.708 156.772C125.708 157.075 125.77 157.338 125.893 157.56C126.016 157.782 126.184 157.954 126.397 158.077C126.613 158.197 126.857 158.257 127.13 158.257ZM130.541 159V154.545H133.475V155.364H131.531V159H130.541ZM136.42 159.135C135.955 159.135 135.54 159.029 135.174 158.815C134.811 158.599 134.526 158.313 134.319 157.956C134.112 157.596 134.008 157.201 134.008 156.772C134.008 156.454 134.067 156.154 134.184 155.872C134.304 155.587 134.472 155.335 134.688 155.116C134.907 154.897 135.163 154.725 135.457 154.599C135.751 154.473 136.074 154.41 136.425 154.41C136.89 154.41 137.304 154.518 137.667 154.734C138.033 154.947 138.319 155.233 138.526 155.593C138.733 155.95 138.837 156.343 138.837 156.772C138.837 157.087 138.777 157.387 138.657 157.672C138.54 157.957 138.373 158.209 138.157 158.428C137.941 158.647 137.686 158.82 137.392 158.946C137.098 159.072 136.774 159.135 136.42 159.135ZM136.42 158.257C136.696 158.257 136.941 158.197 137.154 158.077C137.37 157.954 137.539 157.782 137.662 157.56C137.785 157.338 137.847 157.075 137.847 156.772C137.847 156.469 137.785 156.207 137.662 155.985C137.539 155.76 137.37 155.587 137.154 155.467C136.941 155.347 136.696 155.287 136.42 155.287C136.144 155.287 135.898 155.347 135.682 155.467C135.469 155.587 135.301 155.76 135.178 155.985C135.058 156.207 134.998 156.469 134.998 156.772C134.998 157.075 135.06 157.338 135.183 157.56C135.306 157.782 135.474 157.954 135.687 158.077C135.903 158.197 136.147 158.257 136.42 158.257ZM18.6964 170.077L18.3499 169.185C18.6559 169.107 18.8794 168.984 19.0204 168.816C19.1644 168.648 19.2544 168.414 19.2904 168.114C19.3294 167.814 19.3489 167.427 19.3489 166.953V165.545H22.9714V170H21.9814V166.364H20.2714V166.953C20.2714 167.43 20.2489 167.846 20.2039 168.2C20.1619 168.554 20.0839 168.855 19.9699 169.104C19.8559 169.353 19.6954 169.557 19.4884 169.716C19.2844 169.872 19.0204 169.992 18.6964 170.077ZM26.3856 170.135C25.9056 170.135 25.4841 170.038 25.1211 169.842C24.7581 169.644 24.4746 169.368 24.2706 169.014C24.0696 168.66 23.9691 168.249 23.9691 167.781C23.9691 167.439 24.0276 167.124 24.1446 166.836C24.2616 166.545 24.4266 166.293 24.6396 166.08C24.8526 165.867 25.1016 165.702 25.3866 165.585C25.6746 165.468 25.9881 165.41 26.3271 165.41C26.6961 165.41 27.0246 165.476 27.3126 165.608C27.6006 165.737 27.8391 165.918 28.0281 166.152C28.2201 166.386 28.3551 166.661 28.4331 166.976C28.5141 167.288 28.5276 167.627 28.4736 167.993H24.9186C24.9126 168.26 24.9711 168.494 25.0941 168.695C25.2171 168.893 25.3926 169.047 25.6206 169.158C25.8516 169.269 26.1231 169.325 26.4351 169.325C26.6871 169.325 26.9301 169.287 27.1641 169.212C27.4011 169.134 27.6156 169.02 27.8076 168.87L28.1901 169.581C28.0461 169.698 27.8721 169.799 27.6681 169.883C27.4641 169.964 27.2511 170.026 27.0291 170.068C26.8071 170.113 26.5926 170.135 26.3856 170.135ZM24.9771 167.264H27.5016C27.4926 166.928 27.3846 166.664 27.1776 166.472C26.9736 166.28 26.6826 166.184 26.3046 166.184C25.9386 166.184 25.6341 166.28 25.3911 166.472C25.1511 166.664 25.0131 166.928 24.9771 167.264ZM29.502 170V165.545H30.3615H30.3885L32.3865 168.434L31.959 168.443L33.858 165.545H34.7355V170H33.8355L33.849 166.706L34.0335 166.787L32.4405 169.113H31.8015L30.1365 166.782L30.321 166.701L30.3345 170H29.502ZM36.1114 170V165.545H36.9709H36.9979L38.9959 168.434L38.5684 168.443L40.4674 165.545H41.3449V170H40.4449L40.4584 166.706L40.6429 166.787L39.0499 169.113H38.4109L36.7459 166.782L36.9304 166.701L36.9439 170H36.1114ZM42.7207 170V165.545H43.6792V168.551L46.0957 165.545H46.9597V170H46.0057V166.958L43.5667 170H42.7207ZM48.3369 170V165.545H49.3269V167.264H51.5589V165.545H52.5489V170H51.5589V168.083H49.3269V170H48.3369ZM53.9268 170V165.545H56.8608V166.364H54.9168V170H53.9268ZM59.0139 170.135C58.7049 170.135 58.4334 170.078 58.1994 169.964C57.9654 169.847 57.7824 169.683 57.6504 169.473C57.5214 169.26 57.4569 169.01 57.4569 168.722C57.4569 168.479 57.5184 168.26 57.6414 168.065C57.7644 167.867 57.9549 167.703 58.2129 167.574C58.4739 167.445 58.8084 167.36 59.2164 167.318C59.6244 167.273 60.1149 167.279 60.6879 167.336L60.7059 168.02C60.2979 167.963 59.9469 167.939 59.6529 167.948C59.3589 167.957 59.1174 167.994 58.9284 168.06C58.7424 168.123 58.6044 168.209 58.5144 168.317C58.4274 168.422 58.3839 168.543 58.3839 168.681C58.3839 168.897 58.4604 169.064 58.6134 169.181C58.7694 169.298 58.9824 169.356 59.2524 169.356C59.4834 169.356 59.6904 169.314 59.8734 169.23C60.0564 169.146 60.2004 169.028 60.3054 168.875C60.4134 168.722 60.4674 168.542 60.4674 168.335V167.151C60.4674 166.953 60.4254 166.782 60.3414 166.638C60.2574 166.491 60.1299 166.377 59.9589 166.296C59.7879 166.215 59.5749 166.175 59.3199 166.175C59.0859 166.175 58.8549 166.211 58.6269 166.283C58.3989 166.352 58.1814 166.461 57.9744 166.611L57.6954 165.882C57.9744 165.693 58.2654 165.56 58.5684 165.482C58.8714 165.404 59.1624 165.365 59.4414 165.365C59.8554 165.365 60.2094 165.431 60.5034 165.563C60.8004 165.692 61.0284 165.888 61.1874 166.152C61.3464 166.413 61.4259 166.743 61.4259 167.142V170H60.5349V169.473C60.3849 169.686 60.1764 169.85 59.9094 169.964C59.6424 170.078 59.3439 170.135 59.0139 170.135ZM64.9483 170V165.545H67.0723C67.5763 165.545 67.9798 165.641 68.2828 165.833C68.5858 166.025 68.7373 166.313 68.7373 166.697C68.7373 166.877 68.6938 167.037 68.6068 167.178C68.5198 167.316 68.3998 167.432 68.2468 167.525C68.0938 167.618 67.9153 167.685 67.7113 167.728L67.6933 167.507C68.0863 167.561 68.3908 167.691 68.6068 167.898C68.8228 168.105 68.9308 168.368 68.9308 168.686C68.9308 168.956 68.8603 169.19 68.7193 169.388C68.5783 169.583 68.3758 169.734 68.1118 169.842C67.8478 169.947 67.5313 170 67.1623 170H64.9483ZM65.9068 169.266H67.0273C67.3243 169.266 67.5523 169.217 67.7113 169.118C67.8733 169.019 67.9543 168.87 67.9543 168.672C67.9543 168.477 67.8748 168.332 67.7158 168.236C67.5568 168.137 67.3273 168.087 67.0273 168.087H65.7763V167.381H66.9238C67.2028 167.381 67.4188 167.339 67.5718 167.255C67.7248 167.168 67.8013 167.027 67.8013 166.832C67.8013 166.637 67.7248 166.496 67.5718 166.409C67.4188 166.319 67.2028 166.274 66.9238 166.274H65.9068V169.266ZM72.09 170.077L71.7435 169.185C72.0495 169.107 72.273 168.984 72.414 168.816C72.558 168.648 72.648 168.414 72.684 168.114C72.723 167.814 72.7425 167.427 72.7425 166.953V165.545H76.365V170H75.375V166.364H73.665V166.953C73.665 167.43 73.6425 167.846 73.5975 168.2C73.5555 168.554 73.4775 168.855 73.3635 169.104C73.2495 169.353 73.089 169.557 72.882 169.716C72.678 169.872 72.414 169.992 72.09 170.077ZM77.7451 170V165.545H78.7351L78.7306 167.264H80.2381V168.083H78.7306L78.7351 170H77.7451ZM82.1056 170.135C81.6376 170.135 81.2221 170.029 80.8591 169.815C80.4961 169.599 80.2096 169.313 79.9996 168.956C79.7926 168.596 79.6891 168.201 79.6891 167.772C79.6891 167.454 79.7491 167.154 79.8691 166.872C79.9891 166.587 80.1571 166.335 80.3731 166.116C80.5891 165.897 80.8441 165.725 81.1381 165.599C81.4321 165.473 81.7546 165.41 82.1056 165.41C82.5736 165.41 82.9891 165.518 83.3521 165.734C83.7151 165.947 84.0001 166.233 84.2071 166.593C84.4171 166.95 84.5221 167.343 84.5221 167.772C84.5221 168.087 84.4621 168.387 84.3421 168.672C84.2221 168.957 84.0541 169.209 83.8381 169.428C83.6221 169.647 83.3671 169.82 83.0731 169.946C82.7791 170.072 82.4566 170.135 82.1056 170.135ZM82.1056 169.257C82.3816 169.257 82.6261 169.197 82.8391 169.077C83.0521 168.954 83.2201 168.782 83.3431 168.56C83.4661 168.338 83.5276 168.075 83.5276 167.772C83.5276 167.469 83.4661 167.207 83.3431 166.985C83.2201 166.76 83.0521 166.587 82.8391 166.467C82.6261 166.347 82.3816 166.287 82.1056 166.287C81.8296 166.287 81.5836 166.347 81.3676 166.467C81.1546 166.587 80.9866 166.76 80.8636 166.985C80.7436 167.207 80.6836 167.469 80.6836 167.772C80.6836 168.075 80.7436 168.338 80.8636 168.56C80.9866 168.782 81.1546 168.954 81.3676 169.077C81.5836 169.197 81.8296 169.257 82.1056 169.257ZM87.6927 170.135C87.3177 170.135 86.9787 170.071 86.6757 169.941C86.3727 169.812 86.1147 169.626 85.9017 169.383C85.6887 169.137 85.5252 168.839 85.4112 168.488C85.3002 168.134 85.2447 167.732 85.2447 167.282C85.2447 166.787 85.2822 166.343 85.3572 165.95C85.4352 165.557 85.5567 165.216 85.7217 164.928C85.8897 164.64 86.1102 164.403 86.3832 164.217C86.6592 164.031 86.9937 163.898 87.3867 163.817L89.5197 163.385L89.6817 164.244L87.6072 164.645C87.2592 164.717 86.9862 164.832 86.7882 164.991C86.5902 165.15 86.4447 165.353 86.3517 165.599C86.2587 165.845 86.1972 166.134 86.1672 166.467C86.3562 166.212 86.5917 166.008 86.8737 165.855C87.1557 165.702 87.4842 165.626 87.8592 165.626C88.2822 165.626 88.6557 165.726 88.9797 165.927C89.3067 166.125 89.5617 166.391 89.7447 166.724C89.9277 167.057 90.0192 167.426 90.0192 167.831C90.0192 168.146 89.9637 168.443 89.8527 168.722C89.7447 169.001 89.5872 169.247 89.3802 169.46C89.1732 169.67 88.9272 169.835 88.6422 169.955C88.3572 170.075 88.0407 170.135 87.6927 170.135ZM87.6702 169.257C87.9312 169.257 88.1637 169.2 88.3677 169.086C88.5747 168.969 88.7367 168.806 88.8537 168.596C88.9707 168.383 89.0292 168.131 89.0292 167.84C89.0292 167.549 88.9707 167.298 88.8537 167.088C88.7367 166.875 88.5747 166.712 88.3677 166.598C88.1637 166.481 87.9312 166.422 87.6702 166.422C87.4092 166.422 87.1752 166.481 86.9682 166.598C86.7642 166.712 86.6037 166.875 86.4867 167.088C86.3697 167.298 86.3112 167.549 86.3112 167.84C86.3112 168.131 86.3697 168.383 86.4867 168.596C86.6037 168.806 86.7642 168.969 86.9682 169.086C87.1752 169.2 87.4092 169.257 87.6702 169.257ZM93.134 170.135C92.669 170.135 92.2535 170.029 91.8875 169.815C91.5245 169.599 91.2395 169.313 91.0325 168.956C90.8255 168.596 90.722 168.201 90.722 167.772C90.722 167.454 90.7805 167.154 90.8975 166.872C91.0175 166.587 91.1855 166.335 91.4015 166.116C91.6205 165.897 91.877 165.725 92.171 165.599C92.465 165.473 92.7875 165.41 93.1385 165.41C93.6035 165.41 94.0175 165.518 94.3805 165.734C94.7465 165.947 95.033 166.233 95.24 166.593C95.447 166.95 95.5505 167.343 95.5505 167.772C95.5505 168.087 95.4905 168.387 95.3705 168.672C95.2535 168.957 95.087 169.209 94.871 169.428C94.655 169.647 94.4 169.82 94.106 169.946C93.812 170.072 93.488 170.135 93.134 170.135ZM93.134 169.257C93.41 169.257 93.6545 169.197 93.8675 169.077C94.0835 168.954 94.253 168.782 94.376 168.56C94.499 168.338 94.5605 168.075 94.5605 167.772C94.5605 167.469 94.499 167.207 94.376 166.985C94.253 166.76 94.0835 166.587 93.8675 166.467C93.6545 166.347 93.41 166.287 93.134 166.287C92.858 166.287 92.612 166.347 92.396 166.467C92.183 166.587 92.015 166.76 91.892 166.985C91.772 167.207 91.712 167.469 91.712 167.772C91.712 168.075 91.7735 168.338 91.8965 168.56C92.0195 168.782 92.1875 168.954 92.4005 169.077C92.6165 169.197 92.861 169.257 93.134 169.257ZM98.6229 170.135C98.1429 170.135 97.7214 170.038 97.3584 169.842C96.9954 169.644 96.7119 169.368 96.5079 169.014C96.3069 168.66 96.2064 168.249 96.2064 167.781C96.2064 167.439 96.2649 167.124 96.3819 166.836C96.4989 166.545 96.6639 166.293 96.8769 166.08C97.0899 165.867 97.3389 165.702 97.6239 165.585C97.9119 165.468 98.2254 165.41 98.5644 165.41C98.9334 165.41 99.2619 165.476 99.5499 165.608C99.8379 165.737 100.076 165.918 100.265 166.152C100.457 166.386 100.592 166.661 100.67 166.976C100.751 167.288 100.765 167.627 100.711 167.993H97.1559C97.1499 168.26 97.2084 168.494 97.3314 168.695C97.4544 168.893 97.6299 169.047 97.8579 169.158C98.0889 169.269 98.3604 169.325 98.6724 169.325C98.9244 169.325 99.1674 169.287 99.4014 169.212C99.6384 169.134 99.8529 169.02 100.045 168.87L100.427 169.581C100.283 169.698 100.109 169.799 99.9054 169.883C99.7014 169.964 99.4884 170.026 99.2664 170.068C99.0444 170.113 98.8299 170.135 98.6229 170.135ZM97.2144 167.264H99.7389C99.7299 166.928 99.6219 166.664 99.4149 166.472C99.2109 166.28 98.9199 166.184 98.5419 166.184C98.1759 166.184 97.8714 166.28 97.6284 166.472C97.3884 166.664 97.2504 166.928 97.2144 167.264ZM103.945 170V165.545H104.805H104.832L106.83 168.434L106.402 168.443L108.301 165.545H109.179V170H108.279L108.292 166.706L108.477 166.787L106.884 169.113H106.245L104.58 166.782L104.764 166.701L104.778 170H103.945ZM112.589 170.135C112.109 170.135 111.687 170.038 111.324 169.842C110.961 169.644 110.678 169.368 110.474 169.014C110.273 168.66 110.172 168.249 110.172 167.781C110.172 167.439 110.231 167.124 110.348 166.836C110.465 166.545 110.63 166.293 110.843 166.08C111.056 165.867 111.305 165.702 111.59 165.585C111.878 165.468 112.191 165.41 112.53 165.41C112.899 165.41 113.228 165.476 113.516 165.608C113.804 165.737 114.042 165.918 114.231 166.152C114.423 166.386 114.558 166.661 114.636 166.976C114.717 167.288 114.731 167.627 114.677 167.993H111.122C111.116 168.26 111.174 168.494 111.297 168.695C111.42 168.893 111.596 169.047 111.824 169.158C112.055 169.269 112.326 169.325 112.638 169.325C112.89 169.325 113.133 169.287 113.367 169.212C113.604 169.134 113.819 169.02 114.011 168.87L114.393 169.581C114.249 169.698 114.075 169.799 113.871 169.883C113.667 169.964 113.454 170.026 113.232 170.068C113.01 170.113 112.796 170.135 112.589 170.135ZM111.18 167.264H113.705C113.696 166.928 113.588 166.664 113.381 166.472C113.177 166.28 112.886 166.184 112.508 166.184C112.142 166.184 111.837 166.28 111.594 166.472C111.354 166.664 111.216 166.928 111.18 167.264ZM117.792 170.135C117.324 170.135 116.907 170.033 116.541 169.829C116.175 169.622 115.887 169.341 115.677 168.987C115.47 168.63 115.367 168.225 115.367 167.772C115.367 167.43 115.428 167.117 115.551 166.832C115.674 166.544 115.848 166.293 116.073 166.08C116.298 165.867 116.562 165.702 116.865 165.585C117.171 165.468 117.503 165.41 117.86 165.41C118.16 165.41 118.437 165.45 118.692 165.531C118.95 165.609 119.187 165.731 119.403 165.896L118.926 166.652C118.788 166.529 118.629 166.437 118.449 166.377C118.272 166.317 118.083 166.287 117.882 166.287C117.57 166.287 117.302 166.346 117.077 166.463C116.852 166.58 116.676 166.749 116.55 166.971C116.427 167.19 116.366 167.456 116.366 167.768C116.366 168.233 116.501 168.597 116.771 168.861C117.044 169.125 117.414 169.257 117.882 169.257C118.104 169.257 118.314 169.217 118.512 169.136C118.71 169.052 118.875 168.942 119.007 168.807L119.48 169.559C119.243 169.739 118.979 169.88 118.688 169.982C118.397 170.084 118.098 170.135 117.792 170.135ZM121.384 170V166.364H119.922V165.545H123.841V166.364H122.374V170H121.384ZM126.779 170.135C126.314 170.135 125.898 170.029 125.532 169.815C125.169 169.599 124.884 169.313 124.677 168.956C124.47 168.596 124.367 168.201 124.367 167.772C124.367 167.454 124.425 167.154 124.542 166.872C124.662 166.587 124.83 166.335 125.046 166.116C125.265 165.897 125.522 165.725 125.816 165.599C126.11 165.473 126.432 165.41 126.783 165.41C127.248 165.41 127.662 165.518 128.025 165.734C128.391 165.947 128.678 166.233 128.885 166.593C129.092 166.95 129.195 167.343 129.195 167.772C129.195 168.087 129.135 168.387 129.015 168.672C128.898 168.957 128.732 169.209 128.516 169.428C128.3 169.647 128.045 169.82 127.751 169.946C127.457 170.072 127.133 170.135 126.779 170.135ZM126.779 169.257C127.055 169.257 127.299 169.197 127.512 169.077C127.728 168.954 127.898 168.782 128.021 168.56C128.144 168.338 128.205 168.075 128.205 167.772C128.205 167.469 128.144 167.207 128.021 166.985C127.898 166.76 127.728 166.587 127.512 166.467C127.299 166.347 127.055 166.287 126.779 166.287C126.503 166.287 126.257 166.347 126.041 166.467C125.828 166.587 125.66 166.76 125.537 166.985C125.417 167.207 125.357 167.469 125.357 167.772C125.357 168.075 125.418 168.338 125.541 168.56C125.664 168.782 125.832 168.954 126.045 169.077C126.261 169.197 126.506 169.257 126.779 169.257ZM130.061 171.359L129.715 170.9C129.94 170.792 130.138 170.662 130.309 170.509C130.483 170.359 130.601 170.21 130.664 170.063C130.526 170.072 130.402 170.051 130.291 170C130.18 169.952 130.091 169.881 130.025 169.788C129.959 169.692 129.926 169.58 129.926 169.451C129.926 169.259 129.989 169.103 130.115 168.983C130.244 168.86 130.406 168.798 130.601 168.798C130.826 168.798 131.006 168.873 131.141 169.023C131.279 169.17 131.348 169.373 131.348 169.631C131.348 169.829 131.3 170.029 131.204 170.23C131.108 170.434 130.964 170.63 130.772 170.819C130.583 171.011 130.346 171.191 130.061 171.359ZM34.9195 181L33.4435 178.633L34.816 176.545H35.8735L34.51 178.588L36.103 181H34.9195ZM31.9585 181V176.545H32.9485V178.264H34.2895V179.083H32.9485V181H31.9585ZM36.9771 182.89V176.545H37.8681V177.17C38.0451 176.945 38.2716 176.762 38.5476 176.621C38.8236 176.48 39.1641 176.41 39.5691 176.41C40.0041 176.41 40.3896 176.513 40.7256 176.72C41.0646 176.924 41.3286 177.205 41.5176 177.562C41.7066 177.916 41.8011 178.319 41.8011 178.772C41.8011 179.099 41.7471 179.407 41.6391 179.695C41.5311 179.98 41.3766 180.23 41.1756 180.446C40.9776 180.662 40.7406 180.832 40.4646 180.955C40.1916 181.075 39.8886 181.135 39.5556 181.135C39.2076 181.135 38.9016 181.072 38.6376 180.946C38.3736 180.82 38.1486 180.65 37.9626 180.438V182.89H36.9771ZM39.3891 180.257C39.6651 180.257 39.9096 180.197 40.1226 180.077C40.3386 179.954 40.5066 179.782 40.6266 179.56C40.7496 179.338 40.8111 179.075 40.8111 178.772C40.8111 178.469 40.7496 178.207 40.6266 177.985C40.5036 177.76 40.3341 177.587 40.1181 177.467C39.9051 177.347 39.6621 177.287 39.3891 177.287C39.1131 177.287 38.8671 177.347 38.6511 177.467C38.4381 177.587 38.2701 177.76 38.1471 177.985C38.0241 178.207 37.9626 178.469 37.9626 178.772C37.9626 179.075 38.0241 179.338 38.1471 179.56C38.2701 179.782 38.4381 179.954 38.6511 180.077C38.8671 180.197 39.1131 180.257 39.3891 180.257ZM44.8689 181.135C44.4039 181.135 43.9884 181.029 43.6224 180.815C43.2594 180.599 42.9744 180.313 42.7674 179.956C42.5604 179.596 42.4569 179.201 42.4569 178.772C42.4569 178.454 42.5154 178.154 42.6324 177.872C42.7524 177.587 42.9204 177.335 43.1364 177.116C43.3554 176.897 43.6119 176.725 43.9059 176.599C44.1999 176.473 44.5224 176.41 44.8734 176.41C45.3384 176.41 45.7524 176.518 46.1154 176.734C46.4814 176.947 46.7679 177.233 46.9749 177.593C47.1819 177.95 47.2854 178.343 47.2854 178.772C47.2854 179.087 47.2254 179.387 47.1054 179.672C46.9884 179.957 46.8219 180.209 46.6059 180.428C46.3899 180.647 46.1349 180.82 45.8409 180.946C45.5469 181.072 45.2229 181.135 44.8689 181.135ZM44.8689 180.257C45.1449 180.257 45.3894 180.197 45.6024 180.077C45.8184 179.954 45.9879 179.782 46.1109 179.56C46.2339 179.338 46.2954 179.075 46.2954 178.772C46.2954 178.469 46.2339 178.207 46.1109 177.985C45.9879 177.76 45.8184 177.587 45.6024 177.467C45.3894 177.347 45.1449 177.287 44.8689 177.287C44.5929 177.287 44.3469 177.347 44.1309 177.467C43.9179 177.587 43.7499 177.76 43.6269 177.985C43.5069 178.207 43.4469 178.469 43.4469 178.772C43.4469 179.075 43.5084 179.338 43.6314 179.56C43.7544 179.782 43.9224 179.954 44.1354 180.077C44.3514 180.197 44.5959 180.257 44.8689 180.257ZM48.2798 181V176.545H49.1393H49.1663L51.1643 179.434L50.7368 179.443L52.6358 176.545H53.5133V181H52.6133L52.6268 177.706L52.8113 177.787L51.2183 180.113H50.5793L48.9143 177.782L49.0988 177.701L49.1123 181H48.2798ZM56.9232 181.135C56.4432 181.135 56.0217 181.038 55.6587 180.842C55.2957 180.644 55.0122 180.368 54.8082 180.014C54.6072 179.66 54.5067 179.249 54.5067 178.781C54.5067 178.439 54.5652 178.124 54.6822 177.836C54.7992 177.545 54.9642 177.293 55.1772 177.08C55.3902 176.867 55.6392 176.702 55.9242 176.585C56.2122 176.468 56.5257 176.41 56.8647 176.41C57.2337 176.41 57.5622 176.476 57.8502 176.608C58.1382 176.737 58.3767 176.918 58.5657 177.152C58.7577 177.386 58.8927 177.661 58.9707 177.976C59.0517 178.288 59.0652 178.627 59.0112 178.993H55.4562C55.4502 179.26 55.5087 179.494 55.6317 179.695C55.7547 179.893 55.9302 180.047 56.1582 180.158C56.3892 180.269 56.6607 180.325 56.9727 180.325C57.2247 180.325 57.4677 180.287 57.7017 180.212C57.9387 180.134 58.1532 180.02 58.3452 179.87L58.7277 180.581C58.5837 180.698 58.4097 180.799 58.2057 180.883C58.0017 180.964 57.7887 181.026 57.5667 181.068C57.3447 181.113 57.1302 181.135 56.9232 181.135ZM55.5147 178.264H58.0392C58.0302 177.928 57.9222 177.664 57.7152 177.472C57.5112 177.28 57.2202 177.184 56.8422 177.184C56.4762 177.184 56.1717 177.28 55.9287 177.472C55.6887 177.664 55.5507 177.928 55.5147 178.264ZM62.2456 181V176.545H64.3696C64.8736 176.545 65.2771 176.641 65.5801 176.833C65.8831 177.025 66.0346 177.313 66.0346 177.697C66.0346 177.877 65.9911 178.037 65.9041 178.178C65.8171 178.316 65.6971 178.432 65.5441 178.525C65.3911 178.618 65.2126 178.685 65.0086 178.728L64.9906 178.507C65.3836 178.561 65.6881 178.691 65.9041 178.898C66.1201 179.105 66.2281 179.368 66.2281 179.686C66.2281 179.956 66.1576 180.19 66.0166 180.388C65.8756 180.583 65.6731 180.734 65.4091 180.842C65.1451 180.947 64.8286 181 64.4596 181H62.2456ZM63.2041 180.266H64.3246C64.6216 180.266 64.8496 180.217 65.0086 180.118C65.1706 180.019 65.2516 179.87 65.2516 179.672C65.2516 179.477 65.1721 179.332 65.0131 179.236C64.8541 179.137 64.6246 179.087 64.3246 179.087H63.0736V178.381H64.2211C64.5001 178.381 64.7161 178.339 64.8691 178.255C65.0221 178.168 65.0986 178.027 65.0986 177.832C65.0986 177.637 65.0221 177.496 64.8691 177.409C64.7161 177.319 64.5001 177.274 64.2211 177.274H63.2041V180.266ZM69.3728 181.135C68.9078 181.135 68.4923 181.029 68.1263 180.815C67.7633 180.599 67.4783 180.313 67.2713 179.956C67.0643 179.596 66.9608 179.201 66.9608 178.772C66.9608 178.454 67.0193 178.154 67.1363 177.872C67.2563 177.587 67.4243 177.335 67.6403 177.116C67.8593 176.897 68.1158 176.725 68.4098 176.599C68.7038 176.473 69.0263 176.41 69.3773 176.41C69.8423 176.41 70.2563 176.518 70.6193 176.734C70.9853 176.947 71.2718 177.233 71.4788 177.593C71.6858 177.95 71.7893 178.343 71.7893 178.772C71.7893 179.087 71.7293 179.387 71.6093 179.672C71.4923 179.957 71.3258 180.209 71.1098 180.428C70.8938 180.647 70.6388 180.82 70.3448 180.946C70.0508 181.072 69.7268 181.135 69.3728 181.135ZM69.3728 180.257C69.6488 180.257 69.8933 180.197 70.1063 180.077C70.3223 179.954 70.4918 179.782 70.6148 179.56C70.7378 179.338 70.7993 179.075 70.7993 178.772C70.7993 178.469 70.7378 178.207 70.6148 177.985C70.4918 177.76 70.3223 177.587 70.1063 177.467C69.8933 177.347 69.6488 177.287 69.3728 177.287C69.0968 177.287 68.8508 177.347 68.6348 177.467C68.4218 177.587 68.2538 177.76 68.1308 177.985C68.0108 178.207 67.9508 178.469 67.9508 178.772C67.9508 179.075 68.0123 179.338 68.1353 179.56C68.2583 179.782 68.4263 179.954 68.6393 180.077C68.8553 180.197 69.0998 180.257 69.3728 180.257ZM76.0192 181V177.364H74.2192V177.953C74.2192 178.358 74.1952 178.724 74.1472 179.051C74.0992 179.378 74.0137 179.666 73.8907 179.915C73.7677 180.161 73.5952 180.365 73.3732 180.527C73.1542 180.689 72.8737 180.808 72.5317 180.883L72.2887 180.212C72.5737 180.143 72.7882 180.014 72.9322 179.825C73.0762 179.636 73.1722 179.387 73.2202 179.078C73.2712 178.766 73.2967 178.391 73.2967 177.953V176.545H77.0092V181H76.0192ZM72.2887 182.35V180.212L72.9007 180.275L73.0537 180.181H77.9047V182.35H77.0002V181H73.1932V182.35H72.2887ZM78.7779 181V176.545H79.7679V180.248H80.5734C80.8974 180.248 81.1419 180.185 81.3069 180.059C81.4719 179.933 81.5544 179.746 81.5544 179.497C81.5544 179.251 81.4779 179.062 81.3249 178.93C81.1719 178.798 80.9469 178.732 80.6499 178.732H79.6329V177.989H80.7264C81.3024 177.989 81.7554 178.118 82.0854 178.376C82.4154 178.634 82.5804 179.008 82.5804 179.497C82.5804 179.812 82.5009 180.082 82.3419 180.307C82.1829 180.529 81.9594 180.7 81.6714 180.82C81.3864 180.94 81.0519 181 80.6679 181H78.7779ZM83.2959 181V176.545H84.2859V181H83.2959ZM87.8657 181V176.545H88.8242V179.551L91.2407 176.545H92.1047V181H91.1507V177.958L88.7117 181H87.8657ZM95.688 181V176.545H96.678V178.264H98.91V176.545H99.9V181H98.91V179.083H96.678V181H95.688ZM103.307 181.135C102.842 181.135 102.427 181.029 102.061 180.815C101.698 180.599 101.413 180.313 101.206 179.956C100.999 179.596 100.895 179.201 100.895 178.772C100.895 178.454 100.954 178.154 101.071 177.872C101.191 177.587 101.359 177.335 101.575 177.116C101.794 176.897 102.05 176.725 102.344 176.599C102.638 176.473 102.961 176.41 103.312 176.41C103.777 176.41 104.191 176.518 104.554 176.734C104.92 176.947 105.206 177.233 105.413 177.593C105.62 177.95 105.724 178.343 105.724 178.772C105.724 179.087 105.664 179.387 105.544 179.672C105.427 179.957 105.26 180.209 105.044 180.428C104.828 180.647 104.573 180.82 104.279 180.946C103.985 181.072 103.661 181.135 103.307 181.135ZM103.307 180.257C103.583 180.257 103.828 180.197 104.041 180.077C104.257 179.954 104.426 179.782 104.549 179.56C104.672 179.338 104.734 179.075 104.734 178.772C104.734 178.469 104.672 178.207 104.549 177.985C104.426 177.76 104.257 177.587 104.041 177.467C103.828 177.347 103.583 177.287 103.307 177.287C103.031 177.287 102.785 177.347 102.569 177.467C102.356 177.587 102.188 177.76 102.065 177.985C101.945 178.207 101.885 178.469 101.885 178.772C101.885 179.075 101.947 179.338 102.07 179.56C102.193 179.782 102.361 179.954 102.574 180.077C102.79 180.197 103.034 180.257 103.307 180.257ZM106.718 182.89V176.545H107.609V177.17C107.786 176.945 108.013 176.762 108.289 176.621C108.565 176.48 108.905 176.41 109.31 176.41C109.745 176.41 110.131 176.513 110.467 176.72C110.806 176.924 111.07 177.205 111.259 177.562C111.448 177.916 111.542 178.319 111.542 178.772C111.542 179.099 111.488 179.407 111.38 179.695C111.272 179.98 111.118 180.23 110.917 180.446C110.719 180.662 110.482 180.832 110.206 180.955C109.933 181.075 109.63 181.135 109.297 181.135C108.949 181.135 108.643 181.072 108.379 180.946C108.115 180.82 107.89 180.65 107.704 180.438V182.89H106.718ZM109.13 180.257C109.406 180.257 109.651 180.197 109.864 180.077C110.08 179.954 110.248 179.782 110.368 179.56C110.491 179.338 110.552 179.075 110.552 178.772C110.552 178.469 110.491 178.207 110.368 177.985C110.245 177.76 110.075 177.587 109.859 177.467C109.646 177.347 109.403 177.287 109.13 177.287C108.854 177.287 108.608 177.347 108.392 177.467C108.179 177.587 108.011 177.76 107.888 177.985C107.765 178.207 107.704 178.469 107.704 178.772C107.704 179.075 107.765 179.338 107.888 179.56C108.011 179.782 108.179 179.954 108.392 180.077C108.608 180.197 108.854 180.257 109.13 180.257ZM112.537 181V176.545H113.527V180.248H114.332C114.656 180.248 114.901 180.185 115.066 180.059C115.231 179.933 115.313 179.746 115.313 179.497C115.313 179.251 115.237 179.062 115.084 178.93C114.931 178.798 114.706 178.732 114.409 178.732H113.392V177.989H114.485C115.061 177.989 115.514 178.118 115.844 178.376C116.174 178.634 116.339 179.008 116.339 179.497C116.339 179.812 116.26 180.082 116.101 180.307C115.942 180.529 115.718 180.7 115.43 180.82C115.145 180.94 114.811 181 114.427 181H112.537ZM117.055 181V176.545H118.045V181H117.055Z" fill="white"/>
</g>
<defs>
<filter id="filter0_b_1_287" x="-4" y="114" width="158" height="90" filterUnits="userSpaceOnUse" color-interpolation-filters="sRGB">
<feFlood flood-opacity="0" result="BackgroundImageFix"/>
<feGaussianBlur in="BackgroundImageFix" stdDeviation="2"/>
<feComposite in2="SourceAlpha" operator="in" result="effect1_backgroundBlur_1_287"/>
<feBlend mode="normal" in="SourceGraphic" in2="effect1_backgroundBlur_1_287" result="shape"/>
</filter>
<clipPath id="clip0_1_287">
<rect width="150" height="200" rx="16" fill="white"/>
</clipPath>
</defs>
</svg>
