<svg width="150" height="200" viewBox="0 0 150 200" fill="none" xmlns="http://www.w3.org/2000/svg">
<g clip-path="url(#clip0_1_671)">
<rect width="150" height="200" fill="url(#paint0_angular_1_671)"/>
<g filter="url(#filter0_b_1_671)">
<rect y="118" width="150" height="82" fill="black" fill-opacity="0.5"/>
</g>
<path d="M8.65144 138V130.3H11.5169C12.2869 130.3 12.9029 130.465 13.3649 130.795C13.8306 131.121 14.0634 131.605 14.0634 132.247C14.0634 132.485 14.0121 132.707 13.9094 132.912C13.8068 133.118 13.6711 133.299 13.5024 133.457C13.3338 133.611 13.1486 133.732 12.9469 133.82C13.3649 133.959 13.7041 134.199 13.9644 134.54C14.2284 134.881 14.3604 135.292 14.3604 135.772C14.3604 136.22 14.2486 136.61 14.0249 136.944C13.8013 137.278 13.4841 137.538 13.0734 137.725C12.6628 137.908 12.1733 138 11.6049 138H8.65144ZM10.2794 136.779H11.3629C11.8029 136.779 12.1311 136.691 12.3474 136.515C12.5638 136.339 12.6719 136.073 12.6719 135.717C12.6719 135.373 12.5656 135.109 12.3529 134.925C12.1403 134.738 11.8213 134.645 11.3959 134.645H10.2794V136.779ZM10.2794 133.501H11.2914C11.5371 133.501 11.7479 133.461 11.9239 133.38C12.1036 133.299 12.2411 133.184 12.3364 133.033C12.4354 132.879 12.4849 132.694 12.4849 132.478C12.4849 132.17 12.3786 131.933 12.1659 131.768C11.9569 131.603 11.6563 131.521 11.2639 131.521H10.2794V133.501ZM19.4137 138.165C18.8271 138.165 18.2844 138.064 17.7857 137.862C17.2871 137.657 16.8544 137.373 16.4877 137.01C16.1211 136.647 15.8351 136.222 15.6297 135.734C15.4281 135.246 15.3272 134.718 15.3272 134.15C15.3272 133.578 15.4281 133.048 15.6297 132.56C15.8351 132.073 16.1211 131.647 16.4877 131.284C16.8544 130.921 17.2871 130.639 17.7857 130.437C18.2844 130.236 18.8271 130.135 19.4137 130.135C20.0004 130.135 20.5412 130.238 21.0362 130.443C21.5349 130.648 21.9676 130.934 22.3342 131.301C22.7046 131.668 22.9924 132.095 23.1977 132.582C23.4031 133.066 23.5057 133.589 23.5057 134.15C23.5057 134.718 23.4031 135.246 23.1977 135.734C22.9924 136.222 22.7046 136.647 22.3342 137.01C21.9676 137.373 21.5349 137.657 21.0362 137.862C20.5412 138.064 20.0004 138.165 19.4137 138.165ZM19.4137 136.636C19.7547 136.636 20.0701 136.577 20.3597 136.46C20.6494 136.343 20.9024 136.176 21.1187 135.959C21.3351 135.739 21.5019 135.477 21.6192 135.173C21.7402 134.869 21.8007 134.528 21.8007 134.15C21.8007 133.648 21.6962 133.211 21.4872 132.841C21.2782 132.467 20.9941 132.177 20.6347 131.972C20.2754 131.767 19.8684 131.664 19.4137 131.664C19.0764 131.664 18.7611 131.723 18.4677 131.84C18.1781 131.957 17.9251 132.124 17.7087 132.34C17.4961 132.557 17.3292 132.819 17.2082 133.127C17.0909 133.431 17.0322 133.772 17.0322 134.15C17.0322 134.652 17.1367 135.09 17.3457 135.464C17.5547 135.835 17.8389 136.123 18.1982 136.328C18.5576 136.533 18.9627 136.636 19.4137 136.636ZM24.5782 138.143L24.0227 136.652C24.2721 136.575 24.4829 136.487 24.6552 136.388C24.8312 136.286 24.9761 136.148 25.0897 135.976C25.2071 135.804 25.2987 135.576 25.3647 135.294C25.4307 135.012 25.4766 134.652 25.5022 134.216C25.5279 133.78 25.5407 133.244 25.5407 132.61V130.3H31.2002V138H29.5722V131.785H27.0862V132.538C27.0862 133.33 27.0606 134.018 27.0092 134.601C26.9616 135.18 26.8809 135.675 26.7672 136.086C26.6536 136.493 26.4996 136.832 26.3052 137.103C26.1146 137.371 25.8762 137.587 25.5902 137.752C25.3079 137.917 24.9706 138.048 24.5782 138.143ZM33.0792 138V130.3H34.7072V136.509H37.4352V130.3H39.0632V136.509H41.7912V130.3H43.4192V138H33.0792ZM45.3038 138V130.3H50.5673V131.719H46.9318V133.369H50.0118V134.683H46.9318V136.564H50.6113V138H45.3038ZM52.211 138V130.3H57.315V131.719H53.839V133.385H55.0875C55.9492 133.385 56.6367 133.582 57.15 133.974C57.6633 134.363 57.92 134.936 57.92 135.695C57.92 136.183 57.8063 136.599 57.579 136.944C57.3553 137.285 57.0308 137.547 56.6055 137.73C56.1838 137.91 55.676 138 55.082 138H52.211ZM53.839 136.779H54.928C55.3497 136.779 55.6723 136.687 55.896 136.504C56.1197 136.317 56.2315 136.049 56.2315 135.701C56.2315 135.364 56.1233 135.098 55.907 134.903C55.6907 134.705 55.3882 134.606 54.9995 134.606H53.839V136.779ZM59.3653 138V130.3H60.9933V133.22H64.2603V130.3H65.8883V138H64.2603V134.711H60.9933V138H59.3653ZM66.8912 138L69.8062 130.3H71.6597L74.6187 138H72.7872L72.1877 136.35H69.2562L68.6732 138H66.8912ZM69.6412 134.975H71.7917L70.7027 132.082L69.6412 134.975ZM75.002 138L77.1635 134.832C76.6135 134.682 76.1826 134.425 75.871 134.062C75.563 133.695 75.409 133.237 75.409 132.687C75.409 132.177 75.5263 131.745 75.761 131.389C75.9956 131.033 76.3293 130.764 76.762 130.58C77.1946 130.393 77.7006 130.3 78.28 130.3H81.2225V138H79.5945V135.074H78.7805L76.872 138H75.002ZM78.335 133.759H79.5945V131.647H78.379C77.9646 131.647 77.6383 131.734 77.4 131.906C77.1653 132.075 77.048 132.335 77.048 132.687C77.048 133.043 77.158 133.31 77.378 133.49C77.598 133.67 77.917 133.759 78.335 133.759ZM90.6609 138V131.785H88.0869V132.538C88.0869 133.437 88.0411 134.207 87.9494 134.848C87.8577 135.486 87.7111 136.016 87.5094 136.438C87.3114 136.86 87.0474 137.193 86.7174 137.439C86.3874 137.685 85.9859 137.864 85.5129 137.978L84.9464 136.619C85.2691 136.546 85.5331 136.434 85.7384 136.284C85.9474 136.134 86.1106 135.912 86.2279 135.618C86.3452 135.321 86.4259 134.925 86.4699 134.43C86.5176 133.932 86.5414 133.301 86.5414 132.538V130.3H92.2889V138H90.6609ZM84.9464 139.947V136.619L85.9199 136.663L86.4534 136.509H93.5264V139.947H91.9809V138H86.4919V139.947H84.9464ZM95.0088 138.143L94.4148 136.658C94.8842 136.566 95.2967 136.423 95.6523 136.229C96.0117 136.031 96.3307 135.765 96.6093 135.431C96.8917 135.098 97.1538 134.678 97.3958 134.172L99.2493 130.3H101.136L98.8533 134.832C98.582 135.378 98.3052 135.848 98.0228 136.24C97.7405 136.629 97.4453 136.953 97.1373 137.213C96.8293 137.474 96.4993 137.677 96.1473 137.824C95.799 137.971 95.4195 138.077 95.0088 138.143ZM97.1153 135.767L94.1618 130.3H96.1363L98.2153 134.381L97.1153 135.767ZM106.538 138V131.785H103.964V132.538C103.964 133.437 103.918 134.207 103.826 134.848C103.735 135.486 103.588 136.016 103.386 136.438C103.188 136.86 102.924 137.193 102.594 137.439C102.264 137.685 101.863 137.864 101.39 137.978L100.823 136.619C101.146 136.546 101.41 136.434 101.615 136.284C101.824 136.134 101.988 135.912 102.105 135.618C102.222 135.321 102.303 134.925 102.347 134.43C102.395 133.932 102.418 133.301 102.418 132.538V130.3H108.166V138H106.538ZM100.823 139.947V136.619L101.797 136.663L102.33 136.509H109.403V139.947H107.858V138H102.369V139.947H100.823ZM114.117 138.165C113.53 138.165 112.988 138.064 112.489 137.862C111.99 137.657 111.558 137.373 111.191 137.01C110.824 136.647 110.538 136.222 110.333 135.734C110.131 135.246 110.03 134.718 110.03 134.15C110.03 133.578 110.131 133.048 110.333 132.56C110.538 132.073 110.824 131.647 111.191 131.284C111.558 130.921 111.99 130.639 112.489 130.437C112.988 130.236 113.53 130.135 114.117 130.135C114.704 130.135 115.244 130.238 115.739 130.443C116.238 130.648 116.671 130.934 117.037 131.301C117.408 131.668 117.696 132.095 117.901 132.582C118.106 133.066 118.209 133.589 118.209 134.15C118.209 134.718 118.106 135.246 117.901 135.734C117.696 136.222 117.408 136.647 117.037 137.01C116.671 137.373 116.238 137.657 115.739 137.862C115.244 138.064 114.704 138.165 114.117 138.165ZM114.117 136.636C114.458 136.636 114.773 136.577 115.063 136.46C115.353 136.343 115.606 136.176 115.822 135.959C116.038 135.739 116.205 135.477 116.322 135.173C116.443 134.869 116.504 134.528 116.504 134.15C116.504 133.648 116.399 133.211 116.19 132.841C115.981 132.467 115.697 132.177 115.338 131.972C114.979 131.767 114.572 131.664 114.117 131.664C113.78 131.664 113.464 131.723 113.171 131.84C112.881 131.957 112.628 132.124 112.412 132.34C112.199 132.557 112.032 132.819 111.911 133.127C111.794 133.431 111.735 133.772 111.735 134.15C111.735 134.652 111.84 135.09 112.049 135.464C112.258 135.835 112.542 136.123 112.901 136.328C113.261 136.533 113.666 136.636 114.117 136.636ZM123.875 138V134.997C123.564 135.085 123.261 135.155 122.968 135.206C122.675 135.254 122.363 135.277 122.033 135.277C121.443 135.277 120.933 135.178 120.504 134.98C120.075 134.782 119.745 134.473 119.514 134.051C119.283 133.626 119.167 133.07 119.167 132.384V130.3H120.795V132.159C120.795 132.768 120.926 133.197 121.186 133.446C121.45 133.695 121.829 133.82 122.324 133.82C122.636 133.82 122.913 133.803 123.155 133.77C123.401 133.737 123.641 133.693 123.875 133.638V130.3H125.503V138H123.875ZM132.131 138L129.013 133.99L131.812 130.3H133.836L130.998 133.985L134.227 138H132.131ZM127.385 138V130.3H129.013V133.22H130.454V134.711H129.013V138H127.385ZM134.492 138L137.407 130.3H139.26L142.219 138H140.388L139.788 136.35H136.857L136.274 138H134.492ZM137.242 134.975H139.392L138.303 132.082L137.242 134.975Z" fill="white"/>
<path d="M11.7379 159V152.7H13.9024C14.5054 152.7 14.9929 152.835 15.3649 153.105C15.7369 153.372 15.9229 153.766 15.9229 154.288C15.9229 154.489 15.8749 154.68 15.7789 154.86C15.6859 155.037 15.5644 155.193 15.4144 155.328C15.2644 155.463 15.1084 155.562 14.9464 155.625C15.2884 155.73 15.5734 155.922 15.8014 156.201C16.0324 156.48 16.1479 156.823 16.1479 157.231C16.1479 157.576 16.0609 157.882 15.8869 158.149C15.7129 158.413 15.4654 158.622 15.1444 158.775C14.8234 158.925 14.4424 159 14.0014 159H11.7379ZM12.7459 158.208H13.8304C14.2624 158.208 14.5834 158.124 14.7934 157.956C15.0034 157.785 15.1084 157.528 15.1084 157.186C15.1084 156.847 15.0019 156.589 14.7889 156.412C14.5789 156.235 14.2534 156.147 13.8124 156.147H12.7459V158.208ZM12.7459 155.391H13.7449C13.9879 155.391 14.1979 155.352 14.3749 155.274C14.5519 155.196 14.6899 155.083 14.7889 154.936C14.8879 154.789 14.9374 154.612 14.9374 154.405C14.9374 154.111 14.8324 153.886 14.6224 153.73C14.4154 153.571 14.1184 153.492 13.7314 153.492H12.7459V155.391ZM19.3545 159.135C18.8865 159.135 18.4695 159.033 18.1035 158.829C17.7375 158.622 17.4495 158.341 17.2395 157.987C17.0325 157.63 16.929 157.225 16.929 156.772C16.929 156.43 16.9905 156.117 17.1135 155.832C17.2365 155.544 17.4105 155.293 17.6355 155.08C17.8605 154.867 18.1245 154.702 18.4275 154.585C18.7335 154.468 19.065 154.41 19.422 154.41C19.722 154.41 19.9995 154.45 20.2545 154.531C20.5125 154.609 20.7495 154.731 20.9655 154.896L20.4885 155.652C20.3505 155.529 20.1915 155.437 20.0115 155.377C19.8345 155.317 19.6455 155.287 19.4445 155.287C19.1325 155.287 18.864 155.346 18.639 155.463C18.414 155.58 18.2385 155.749 18.1125 155.971C17.9895 156.19 17.928 156.456 17.928 156.768C17.928 157.233 18.063 157.597 18.333 157.861C18.606 158.125 18.9765 158.257 19.4445 158.257C19.6665 158.257 19.8765 158.217 20.0745 158.136C20.2725 158.052 20.4375 157.942 20.5695 157.807L21.042 158.559C20.805 158.739 20.541 158.88 20.25 158.982C19.959 159.084 19.6605 159.135 19.3545 159.135ZM23.8983 159.135C23.4183 159.135 22.9968 159.038 22.6338 158.842C22.2708 158.644 21.9873 158.368 21.7833 158.014C21.5823 157.66 21.4818 157.249 21.4818 156.781C21.4818 156.439 21.5403 156.124 21.6573 155.836C21.7743 155.545 21.9393 155.293 22.1523 155.08C22.3653 154.867 22.6143 154.702 22.8993 154.585C23.1873 154.468 23.5008 154.41 23.8398 154.41C24.2088 154.41 24.5373 154.476 24.8253 154.608C25.1133 154.737 25.3518 154.918 25.5408 155.152C25.7328 155.386 25.8678 155.661 25.9458 155.976C26.0268 156.288 26.0403 156.627 25.9863 156.993H22.4313C22.4253 157.26 22.4838 157.494 22.6068 157.695C22.7298 157.893 22.9053 158.047 23.1333 158.158C23.3643 158.269 23.6358 158.325 23.9478 158.325C24.1998 158.325 24.4428 158.287 24.6768 158.212C24.9138 158.134 25.1283 158.02 25.3203 157.87L25.7028 158.581C25.5588 158.698 25.3848 158.799 25.1808 158.883C24.9768 158.964 24.7638 159.026 24.5418 159.068C24.3198 159.113 24.1053 159.135 23.8983 159.135ZM22.4898 156.264H25.0143C25.0053 155.928 24.8973 155.664 24.6903 155.472C24.4863 155.28 24.1953 155.184 23.8173 155.184C23.4513 155.184 23.1468 155.28 22.9038 155.472C22.6638 155.664 22.5258 155.928 22.4898 156.264ZM29.0587 159.077L28.7122 158.185C29.0182 158.107 29.2417 157.984 29.3827 157.816C29.5267 157.648 29.6167 157.414 29.6527 157.114C29.6917 156.814 29.7112 156.427 29.7112 155.953V154.545H33.3337V159H32.3437V155.364H30.6337V155.953C30.6337 156.43 30.6112 156.846 30.5662 157.2C30.5242 157.554 30.4462 157.855 30.3322 158.104C30.2182 158.353 30.0577 158.557 29.8507 158.716C29.6467 158.872 29.3827 158.992 29.0587 159.077ZM36.7479 159.135C36.2679 159.135 35.8464 159.038 35.4834 158.842C35.1204 158.644 34.8369 158.368 34.6329 158.014C34.4319 157.66 34.3314 157.249 34.3314 156.781C34.3314 156.439 34.3899 156.124 34.5069 155.836C34.6239 155.545 34.7889 155.293 35.0019 155.08C35.2149 154.867 35.4639 154.702 35.7489 154.585C36.0369 154.468 36.3504 154.41 36.6894 154.41C37.0584 154.41 37.3869 154.476 37.6749 154.608C37.9629 154.737 38.2014 154.918 38.3904 155.152C38.5824 155.386 38.7174 155.661 38.7954 155.976C38.8764 156.288 38.8899 156.627 38.8359 156.993H35.2809C35.2749 157.26 35.3334 157.494 35.4564 157.695C35.5794 157.893 35.7549 158.047 35.9829 158.158C36.2139 158.269 36.4854 158.325 36.7974 158.325C37.0494 158.325 37.2924 158.287 37.5264 158.212C37.7634 158.134 37.9779 158.02 38.1699 157.87L38.5524 158.581C38.4084 158.698 38.2344 158.799 38.0304 158.883C37.8264 158.964 37.6134 159.026 37.3914 159.068C37.1694 159.113 36.9549 159.135 36.7479 159.135ZM35.3394 156.264H37.8639C37.8549 155.928 37.7469 155.664 37.5399 155.472C37.3359 155.28 37.0449 155.184 36.6669 155.184C36.3009 155.184 35.9964 155.28 35.7534 155.472C35.5134 155.664 35.3754 155.928 35.3394 156.264ZM39.8643 159V154.545H40.7238H40.7508L42.7488 157.434L42.3213 157.443L44.2203 154.545H45.0978V159H44.1978L44.2113 155.706L44.3958 155.787L42.8028 158.113H42.1638L40.4988 155.782L40.6833 155.701L40.6968 159H39.8643ZM46.4737 159V154.545H47.3332H47.3602L49.3582 157.434L48.9307 157.443L50.8297 154.545H51.7072V159H50.8072L50.8207 155.706L51.0052 155.787L49.4122 158.113H48.7732L47.1082 155.782L47.2927 155.701L47.3062 159H46.4737ZM53.083 159V154.545H54.0415V157.551L56.458 154.545H57.322V159H56.368V155.958L53.929 159H53.083ZM58.6992 159V154.545H59.6892V156.264H61.9212V154.545H62.9112V159H61.9212V157.083H59.6892V159H58.6992ZM64.2891 159V154.545H67.2231V155.364H65.2791V159H64.2891ZM68.1387 159V154.545H69.0972V157.551L71.5137 154.545H72.3777V159H71.4237V155.958L68.9847 159H68.1387ZM75.961 159V154.545H76.9195V157.551L79.336 154.545H80.2V159H79.246V155.958L76.807 159H75.961ZM84.8127 159V155.364H83.0127V155.953C83.0127 156.358 82.9887 156.724 82.9407 157.051C82.8927 157.378 82.8072 157.666 82.6842 157.915C82.5612 158.161 82.3887 158.365 82.1667 158.527C81.9477 158.689 81.6672 158.808 81.3252 158.883L81.0822 158.212C81.3672 158.143 81.5817 158.014 81.7257 157.825C81.8697 157.636 81.9657 157.387 82.0137 157.078C82.0647 156.766 82.0902 156.391 82.0902 155.953V154.545H85.8027V159H84.8127ZM81.0822 160.35V158.212L81.6942 158.275L81.8472 158.181H86.6982V160.35H85.7937V159H81.9867V160.35H81.0822ZM88.1296 161.016C87.9676 161.016 87.8086 160.998 87.6526 160.962C87.4966 160.926 87.3436 160.865 87.1936 160.778L87.4186 159.932C87.5116 159.992 87.6136 160.037 87.7246 160.067C87.8356 160.097 87.9346 160.112 88.0216 160.112C88.2316 160.112 88.3966 160.062 88.5166 159.963C88.6366 159.864 88.7311 159.711 88.8001 159.504L88.9486 159.072L87.1936 154.545H88.2781L89.5111 158.001L90.7126 154.545H91.7611L89.8351 159.644C89.6971 160.001 89.5426 160.278 89.3716 160.476C89.2006 160.677 89.0116 160.817 88.8046 160.895C88.5976 160.976 88.3726 161.016 88.1296 161.016ZM93.6635 159V155.364H92.201V154.545H96.1205V155.364H94.6535V159H93.6635ZM99.2344 159V154.545H100.224V156.264H102.456V154.545H103.446V159H102.456V157.083H100.224V159H99.2344ZM106.062 159.135C105.753 159.135 105.481 159.078 105.247 158.964C105.013 158.847 104.83 158.683 104.698 158.473C104.569 158.26 104.505 158.01 104.505 157.722C104.505 157.479 104.566 157.26 104.689 157.065C104.812 156.867 105.003 156.703 105.261 156.574C105.522 156.445 105.856 156.36 106.264 156.318C106.672 156.273 107.163 156.279 107.736 156.336L107.754 157.02C107.346 156.963 106.995 156.939 106.701 156.948C106.407 156.957 106.165 156.994 105.976 157.06C105.79 157.123 105.652 157.209 105.562 157.317C105.475 157.422 105.432 157.543 105.432 157.681C105.432 157.897 105.508 158.064 105.661 158.181C105.817 158.298 106.03 158.356 106.3 158.356C106.531 158.356 106.738 158.314 106.921 158.23C107.104 158.146 107.248 158.028 107.353 157.875C107.461 157.722 107.515 157.542 107.515 157.335V156.151C107.515 155.953 107.473 155.782 107.389 155.638C107.305 155.491 107.178 155.377 107.007 155.296C106.836 155.215 106.623 155.175 106.368 155.175C106.134 155.175 105.903 155.211 105.675 155.283C105.447 155.352 105.229 155.461 105.022 155.611L104.743 154.882C105.022 154.693 105.313 154.56 105.616 154.482C105.919 154.404 106.21 154.365 106.489 154.365C106.903 154.365 107.257 154.431 107.551 154.563C107.848 154.692 108.076 154.888 108.235 155.152C108.394 155.413 108.474 155.743 108.474 156.142V159H107.583V158.473C107.433 158.686 107.224 158.85 106.957 158.964C106.69 159.078 106.392 159.135 106.062 159.135ZM113.274 159V153.762L111.641 154.36L111.38 153.577L114.138 152.565H114.21V159H113.274ZM118.105 159V154.545H122.312V159H121.322V155.364H119.095V159H118.105ZM125.715 159.135C125.25 159.135 124.835 159.029 124.469 158.815C124.106 158.599 123.821 158.313 123.614 157.956C123.407 157.596 123.303 157.201 123.303 156.772C123.303 156.454 123.362 156.154 123.479 155.872C123.599 155.587 123.767 155.335 123.983 155.116C124.202 154.897 124.458 154.725 124.752 154.599C125.046 154.473 125.369 154.41 125.72 154.41C126.185 154.41 126.599 154.518 126.962 154.734C127.328 154.947 127.614 155.233 127.821 155.593C128.028 155.95 128.132 156.343 128.132 156.772C128.132 157.087 128.072 157.387 127.952 157.672C127.835 157.957 127.668 158.209 127.452 158.428C127.236 158.647 126.981 158.82 126.687 158.946C126.393 159.072 126.069 159.135 125.715 159.135ZM125.715 158.257C125.991 158.257 126.236 158.197 126.449 158.077C126.665 157.954 126.834 157.782 126.957 157.56C127.08 157.338 127.142 157.075 127.142 156.772C127.142 156.469 127.08 156.207 126.957 155.985C126.834 155.76 126.665 155.587 126.449 155.467C126.236 155.347 125.991 155.287 125.715 155.287C125.439 155.287 125.193 155.347 124.977 155.467C124.764 155.587 124.596 155.76 124.473 155.985C124.353 156.207 124.293 156.469 124.293 156.772C124.293 157.075 124.355 157.338 124.478 157.56C124.601 157.782 124.769 157.954 124.982 158.077C125.198 158.197 125.442 158.257 125.715 158.257ZM128.964 159.077L128.618 158.185C128.924 158.107 129.147 157.984 129.288 157.816C129.432 157.648 129.522 157.414 129.558 157.114C129.597 156.814 129.617 156.427 129.617 155.953V154.545H133.239V159H132.249V155.364H130.539V155.953C130.539 156.43 130.517 156.846 130.472 157.2C130.43 157.554 130.352 157.855 130.238 158.104C130.124 158.353 129.963 158.557 129.756 158.716C129.552 158.872 129.288 158.992 128.964 159.077ZM136.653 159.135C136.173 159.135 135.752 159.038 135.389 158.842C135.026 158.644 134.742 158.368 134.538 158.014C134.337 157.66 134.237 157.249 134.237 156.781C134.237 156.439 134.295 156.124 134.412 155.836C134.529 155.545 134.694 155.293 134.907 155.08C135.12 154.867 135.369 154.702 135.654 154.585C135.942 154.468 136.256 154.41 136.595 154.41C136.964 154.41 137.292 154.476 137.58 154.608C137.868 154.737 138.107 154.918 138.296 155.152C138.488 155.386 138.623 155.661 138.701 155.976C138.782 156.288 138.795 156.627 138.741 156.993H135.186C135.18 157.26 135.239 157.494 135.362 157.695C135.485 157.893 135.66 158.047 135.888 158.158C136.119 158.269 136.391 158.325 136.703 158.325C136.955 158.325 137.198 158.287 137.432 158.212C137.669 158.134 137.883 158.02 138.075 157.87L138.458 158.581C138.314 158.698 138.14 158.799 137.936 158.883C137.732 158.964 137.519 159.026 137.297 159.068C137.075 159.113 136.86 159.135 136.653 159.135ZM135.245 156.264H137.769C137.76 155.928 137.652 155.664 137.445 155.472C137.241 155.28 136.95 155.184 136.572 155.184C136.206 155.184 135.902 155.28 135.659 155.472C135.419 155.664 135.281 155.928 135.245 156.264ZM36.8277 170V165.545H38.9517C39.4557 165.545 39.8592 165.641 40.1622 165.833C40.4652 166.025 40.6167 166.313 40.6167 166.697C40.6167 166.877 40.5732 167.037 40.4862 167.178C40.3992 167.316 40.2792 167.432 40.1262 167.525C39.9732 167.618 39.7947 167.685 39.5907 167.728L39.5727 167.507C39.9657 167.561 40.2702 167.691 40.4862 167.898C40.7022 168.105 40.8102 168.368 40.8102 168.686C40.8102 168.956 40.7397 169.19 40.5987 169.388C40.4577 169.583 40.2552 169.734 39.9912 169.842C39.7272 169.947 39.4107 170 39.0417 170H36.8277ZM37.7862 169.266H38.9067C39.2037 169.266 39.4317 169.217 39.5907 169.118C39.7527 169.019 39.8337 168.87 39.8337 168.672C39.8337 168.477 39.7542 168.332 39.5952 168.236C39.4362 168.137 39.2067 168.087 38.9067 168.087H37.6557V167.381H38.8032C39.0822 167.381 39.2982 167.339 39.4512 167.255C39.6042 167.168 39.6807 167.027 39.6807 166.832C39.6807 166.637 39.6042 166.496 39.4512 166.409C39.2982 166.319 39.0822 166.274 38.8032 166.274H37.7862V169.266ZM41.9253 170V165.545H46.1328V170H45.1428V166.364H42.9153V170H41.9253ZM47.5064 171.89V165.545H48.3974V166.17C48.5744 165.945 48.8009 165.762 49.0769 165.621C49.3529 165.48 49.6934 165.41 50.0984 165.41C50.5334 165.41 50.9189 165.513 51.2549 165.72C51.5939 165.924 51.8579 166.205 52.0469 166.562C52.2359 166.916 52.3304 167.319 52.3304 167.772C52.3304 168.099 52.2764 168.407 52.1684 168.695C52.0604 168.98 51.9059 169.23 51.7049 169.446C51.5069 169.662 51.2699 169.832 50.9939 169.955C50.7209 170.075 50.4179 170.135 50.0849 170.135C49.7369 170.135 49.4309 170.072 49.1669 169.946C48.9029 169.82 48.6779 169.65 48.4919 169.438V171.89H47.5064ZM49.9184 169.257C50.1944 169.257 50.4389 169.197 50.6519 169.077C50.8679 168.954 51.0359 168.782 51.1559 168.56C51.2789 168.338 51.3404 168.075 51.3404 167.772C51.3404 167.469 51.2789 167.207 51.1559 166.985C51.0329 166.76 50.8634 166.587 50.6474 166.467C50.4344 166.347 50.1914 166.287 49.9184 166.287C49.6424 166.287 49.3964 166.347 49.1804 166.467C48.9674 166.587 48.7994 166.76 48.6764 166.985C48.5534 167.207 48.4919 167.469 48.4919 167.772C48.4919 168.075 48.5534 168.338 48.6764 168.56C48.7994 168.782 48.9674 168.954 49.1804 169.077C49.3964 169.197 49.6424 169.257 49.9184 169.257ZM54.5622 170.135C54.2532 170.135 53.9817 170.078 53.7477 169.964C53.5137 169.847 53.3307 169.683 53.1987 169.473C53.0697 169.26 53.0052 169.01 53.0052 168.722C53.0052 168.479 53.0667 168.26 53.1897 168.065C53.3127 167.867 53.5032 167.703 53.7612 167.574C54.0222 167.445 54.3567 167.36 54.7647 167.318C55.1727 167.273 55.6632 167.279 56.2362 167.336L56.2542 168.02C55.8462 167.963 55.4952 167.939 55.2012 167.948C54.9072 167.957 54.6657 167.994 54.4767 168.06C54.2907 168.123 54.1527 168.209 54.0627 168.317C53.9757 168.422 53.9322 168.543 53.9322 168.681C53.9322 168.897 54.0087 169.064 54.1617 169.181C54.3177 169.298 54.5307 169.356 54.8007 169.356C55.0317 169.356 55.2387 169.314 55.4217 169.23C55.6047 169.146 55.7487 169.028 55.8537 168.875C55.9617 168.722 56.0157 168.542 56.0157 168.335V167.151C56.0157 166.953 55.9737 166.782 55.8897 166.638C55.8057 166.491 55.6782 166.377 55.5072 166.296C55.3362 166.215 55.1232 166.175 54.8682 166.175C54.6342 166.175 54.4032 166.211 54.1752 166.283C53.9472 166.352 53.7297 166.461 53.5227 166.611L53.2437 165.882C53.5227 165.693 53.8137 165.56 54.1167 165.482C54.4197 165.404 54.7107 165.365 54.9897 165.365C55.4037 165.365 55.7577 165.431 56.0517 165.563C56.3487 165.692 56.5767 165.888 56.7357 166.152C56.8947 166.413 56.9742 166.743 56.9742 167.142V170H56.0832V169.473C55.9332 169.686 55.7247 169.85 55.4577 169.964C55.1907 170.078 54.8922 170.135 54.5622 170.135ZM58.2906 170V165.545H60.4146C60.9186 165.545 61.3221 165.641 61.6251 165.833C61.9281 166.025 62.0796 166.313 62.0796 166.697C62.0796 166.877 62.0361 167.037 61.9491 167.178C61.8621 167.316 61.7421 167.432 61.5891 167.525C61.4361 167.618 61.2576 167.685 61.0536 167.728L61.0356 167.507C61.4286 167.561 61.7331 167.691 61.9491 167.898C62.1651 168.105 62.2731 168.368 62.2731 168.686C62.2731 168.956 62.2026 169.19 62.0616 169.388C61.9206 169.583 61.7181 169.734 61.4541 169.842C61.1901 169.947 60.8736 170 60.5046 170H58.2906ZM59.2491 169.266H60.3696C60.6666 169.266 60.8946 169.217 61.0536 169.118C61.2156 169.019 61.2966 168.87 61.2966 168.672C61.2966 168.477 61.2171 168.332 61.0581 168.236C60.8991 168.137 60.6696 168.087 60.3696 168.087H59.1186V167.381H60.2661C60.5451 167.381 60.7611 167.339 60.9141 167.255C61.0671 167.168 61.1436 167.027 61.1436 166.832C61.1436 166.637 61.0671 166.496 60.9141 166.409C60.7611 166.319 60.5451 166.274 60.2661 166.274H59.2491V169.266ZM65.4177 170.135C64.9527 170.135 64.5372 170.029 64.1712 169.815C63.8082 169.599 63.5232 169.313 63.3162 168.956C63.1092 168.596 63.0057 168.201 63.0057 167.772C63.0057 167.454 63.0642 167.154 63.1812 166.872C63.3012 166.587 63.4692 166.335 63.6852 166.116C63.9042 165.897 64.1607 165.725 64.4547 165.599C64.7487 165.473 65.0712 165.41 65.4222 165.41C65.8872 165.41 66.3012 165.518 66.6642 165.734C67.0302 165.947 67.3167 166.233 67.5237 166.593C67.7307 166.95 67.8342 167.343 67.8342 167.772C67.8342 168.087 67.7742 168.387 67.6542 168.672C67.5372 168.957 67.3707 169.209 67.1547 169.428C66.9387 169.647 66.6837 169.82 66.3897 169.946C66.0957 170.072 65.7717 170.135 65.4177 170.135ZM65.4177 169.257C65.6937 169.257 65.9382 169.197 66.1512 169.077C66.3672 168.954 66.5367 168.782 66.6597 168.56C66.7827 168.338 66.8442 168.075 66.8442 167.772C66.8442 167.469 66.7827 167.207 66.6597 166.985C66.5367 166.76 66.3672 166.587 66.1512 166.467C65.9382 166.347 65.6937 166.287 65.4177 166.287C65.1417 166.287 64.8957 166.347 64.6797 166.467C64.4667 166.587 64.2987 166.76 64.1757 166.985C64.0557 167.207 63.9957 167.469 63.9957 167.772C63.9957 168.075 64.0572 168.338 64.1802 168.56C64.3032 168.782 64.4712 168.954 64.6842 169.077C64.9002 169.197 65.1447 169.257 65.4177 169.257ZM68.7002 171.359L68.3537 170.9C68.5787 170.792 68.7767 170.662 68.9477 170.509C69.1217 170.359 69.2402 170.21 69.3032 170.063C69.1652 170.072 69.0407 170.051 68.9297 170C68.8187 169.952 68.7302 169.881 68.6642 169.788C68.5982 169.692 68.5652 169.58 68.5652 169.451C68.5652 169.259 68.6282 169.103 68.7542 168.983C68.8832 168.86 69.0452 168.798 69.2402 168.798C69.4652 168.798 69.6452 168.873 69.7802 169.023C69.9182 169.17 69.9872 169.373 69.9872 169.631C69.9872 169.829 69.9392 170.029 69.8432 170.23C69.7472 170.434 69.6032 170.63 69.4112 170.819C69.2222 171.011 68.9852 171.191 68.7002 171.359ZM75.4068 170.135C74.9388 170.135 74.5218 170.033 74.1558 169.829C73.7898 169.622 73.5018 169.341 73.2918 168.987C73.0848 168.63 72.9813 168.225 72.9813 167.772C72.9813 167.43 73.0428 167.117 73.1658 166.832C73.2888 166.544 73.4628 166.293 73.6878 166.08C73.9128 165.867 74.1768 165.702 74.4798 165.585C74.7858 165.468 75.1173 165.41 75.4743 165.41C75.7743 165.41 76.0518 165.45 76.3068 165.531C76.5648 165.609 76.8018 165.731 77.0178 165.896L76.5408 166.652C76.4028 166.529 76.2438 166.437 76.0638 166.377C75.8868 166.317 75.6978 166.287 75.4968 166.287C75.1848 166.287 74.9163 166.346 74.6913 166.463C74.4663 166.58 74.2908 166.749 74.1648 166.971C74.0418 167.19 73.9803 167.456 73.9803 167.768C73.9803 168.233 74.1153 168.597 74.3853 168.861C74.6583 169.125 75.0288 169.257 75.4968 169.257C75.7188 169.257 75.9288 169.217 76.1268 169.136C76.3248 169.052 76.4898 168.942 76.6218 168.807L77.0943 169.559C76.8573 169.739 76.5933 169.88 76.3023 169.982C76.0113 170.084 75.7128 170.135 75.4068 170.135ZM79.946 170.135C79.481 170.135 79.0655 170.029 78.6995 169.815C78.3365 169.599 78.0515 169.313 77.8445 168.956C77.6375 168.596 77.534 168.201 77.534 167.772C77.534 167.454 77.5925 167.154 77.7095 166.872C77.8295 166.587 77.9975 166.335 78.2135 166.116C78.4325 165.897 78.689 165.725 78.983 165.599C79.277 165.473 79.5995 165.41 79.9505 165.41C80.4155 165.41 80.8295 165.518 81.1925 165.734C81.5585 165.947 81.845 166.233 82.052 166.593C82.259 166.95 82.3625 167.343 82.3625 167.772C82.3625 168.087 82.3025 168.387 82.1825 168.672C82.0655 168.957 81.899 169.209 81.683 169.428C81.467 169.647 81.212 169.82 80.918 169.946C80.624 170.072 80.3 170.135 79.946 170.135ZM79.946 169.257C80.222 169.257 80.4665 169.197 80.6795 169.077C80.8955 168.954 81.065 168.782 81.188 168.56C81.311 168.338 81.3725 168.075 81.3725 167.772C81.3725 167.469 81.311 167.207 81.188 166.985C81.065 166.76 80.8955 166.587 80.6795 166.467C80.4665 166.347 80.222 166.287 79.946 166.287C79.67 166.287 79.424 166.347 79.208 166.467C78.995 166.587 78.827 166.76 78.704 166.985C78.584 167.207 78.524 167.469 78.524 167.772C78.524 168.075 78.5855 168.338 78.7085 168.56C78.8315 168.782 78.9995 168.954 79.2125 169.077C79.4285 169.197 79.673 169.257 79.946 169.257ZM82.7419 170.005L84.3529 167.763L82.8364 165.545H84.0829L85.0324 167.052L85.9504 165.545H87.1654L85.6939 167.736L87.2914 170H86.0224L84.9964 168.434L83.9569 169.991L82.7419 170.005ZM88.1206 171.89V165.545H89.0116V166.17C89.1886 165.945 89.4151 165.762 89.6911 165.621C89.9671 165.48 90.3076 165.41 90.7126 165.41C91.1476 165.41 91.5331 165.513 91.8691 165.72C92.2081 165.924 92.4721 166.205 92.6611 166.562C92.8501 166.916 92.9446 167.319 92.9446 167.772C92.9446 168.099 92.8906 168.407 92.7826 168.695C92.6746 168.98 92.5201 169.23 92.3191 169.446C92.1211 169.662 91.8841 169.832 91.6081 169.955C91.3351 170.075 91.0321 170.135 90.6991 170.135C90.3511 170.135 90.0451 170.072 89.7811 169.946C89.5171 169.82 89.2921 169.65 89.1061 169.438V171.89H88.1206ZM90.5326 169.257C90.8086 169.257 91.0531 169.197 91.2661 169.077C91.4821 168.954 91.6501 168.782 91.7701 168.56C91.8931 168.338 91.9546 168.075 91.9546 167.772C91.9546 167.469 91.8931 167.207 91.7701 166.985C91.6471 166.76 91.4776 166.587 91.2616 166.467C91.0486 166.347 90.8056 166.287 90.5326 166.287C90.2566 166.287 90.0106 166.347 89.7946 166.467C89.5816 166.587 89.4136 166.76 89.2906 166.985C89.1676 167.207 89.1061 167.469 89.1061 167.772C89.1061 168.075 89.1676 168.338 89.2906 168.56C89.4136 168.782 89.5816 168.954 89.7946 169.077C90.0106 169.197 90.2566 169.257 90.5326 169.257ZM95.1765 170.135C94.8675 170.135 94.596 170.078 94.362 169.964C94.128 169.847 93.945 169.683 93.813 169.473C93.684 169.26 93.6195 169.01 93.6195 168.722C93.6195 168.479 93.681 168.26 93.804 168.065C93.927 167.867 94.1175 167.703 94.3755 167.574C94.6365 167.445 94.971 167.36 95.379 167.318C95.787 167.273 96.2775 167.279 96.8505 167.336L96.8685 168.02C96.4605 167.963 96.1095 167.939 95.8155 167.948C95.5215 167.957 95.28 167.994 95.091 168.06C94.905 168.123 94.767 168.209 94.677 168.317C94.59 168.422 94.5465 168.543 94.5465 168.681C94.5465 168.897 94.623 169.064 94.776 169.181C94.932 169.298 95.145 169.356 95.415 169.356C95.646 169.356 95.853 169.314 96.036 169.23C96.219 169.146 96.363 169.028 96.468 168.875C96.576 168.722 96.63 168.542 96.63 168.335V167.151C96.63 166.953 96.588 166.782 96.504 166.638C96.42 166.491 96.2925 166.377 96.1215 166.296C95.9505 166.215 95.7375 166.175 95.4825 166.175C95.2485 166.175 95.0175 166.211 94.7895 166.283C94.5615 166.352 94.344 166.461 94.137 166.611L93.858 165.882C94.137 165.693 94.428 165.56 94.731 165.482C95.034 165.404 95.325 165.365 95.604 165.365C96.018 165.365 96.372 165.431 96.666 165.563C96.963 165.692 97.191 165.888 97.35 166.152C97.509 166.413 97.5885 166.743 97.5885 167.142V170H96.6975V169.473C96.5475 169.686 96.339 169.85 96.072 169.964C95.805 170.078 95.5065 170.135 95.1765 170.135ZM98.9048 170V165.545H99.8948V167.264H102.127V165.545H103.117V170H102.127V168.083H99.8948V170H98.9048ZM104.184 170L105.894 167.718L106.11 168.357C105.741 168.36 105.426 168.306 105.165 168.195C104.904 168.081 104.705 167.922 104.567 167.718C104.432 167.511 104.364 167.267 104.364 166.985C104.364 166.682 104.441 166.424 104.594 166.211C104.747 165.995 104.963 165.83 105.242 165.716C105.521 165.602 105.848 165.545 106.223 165.545H108.144V170H107.19V166.296H106.322C106.004 166.296 105.762 166.352 105.597 166.463C105.435 166.574 105.354 166.74 105.354 166.962C105.354 167.178 105.429 167.346 105.579 167.466C105.732 167.583 105.953 167.642 106.241 167.642H107.316V168.362H106.533L105.314 170H104.184ZM109.211 170L110.921 167.718L111.137 168.357C110.768 168.36 110.453 168.306 110.192 168.195C109.931 168.081 109.732 167.922 109.594 167.718C109.459 167.511 109.391 167.267 109.391 166.985C109.391 166.682 109.468 166.424 109.621 166.211C109.774 165.995 109.99 165.83 110.269 165.716C110.548 165.602 110.875 165.545 111.25 165.545H113.171V170H112.217V166.296H111.349C111.031 166.296 110.789 166.352 110.624 166.463C110.462 166.574 110.381 166.74 110.381 166.962C110.381 167.178 110.456 167.346 110.606 167.466C110.759 167.583 110.98 167.642 111.268 167.642H112.343V168.362H111.56L110.341 170H109.211ZM18.8936 181V176.545H23.1011V181H22.1111V177.364H19.8836V181H18.8936ZM26.5041 181.135C26.0391 181.135 25.6236 181.029 25.2576 180.815C24.8946 180.599 24.6096 180.313 24.4026 179.956C24.1956 179.596 24.0921 179.201 24.0921 178.772C24.0921 178.454 24.1506 178.154 24.2676 177.872C24.3876 177.587 24.5556 177.335 24.7716 177.116C24.9906 176.897 25.2471 176.725 25.5411 176.599C25.8351 176.473 26.1576 176.41 26.5086 176.41C26.9736 176.41 27.3876 176.518 27.7506 176.734C28.1166 176.947 28.4031 177.233 28.6101 177.593C28.8171 177.95 28.9206 178.343 28.9206 178.772C28.9206 179.087 28.8606 179.387 28.7406 179.672C28.6236 179.957 28.4571 180.209 28.2411 180.428C28.0251 180.647 27.7701 180.82 27.4761 180.946C27.1821 181.072 26.8581 181.135 26.5041 181.135ZM26.5041 180.257C26.7801 180.257 27.0246 180.197 27.2376 180.077C27.4536 179.954 27.6231 179.782 27.7461 179.56C27.8691 179.338 27.9306 179.075 27.9306 178.772C27.9306 178.469 27.8691 178.207 27.7461 177.985C27.6231 177.76 27.4536 177.587 27.2376 177.467C27.0246 177.347 26.7801 177.287 26.5041 177.287C26.2281 177.287 25.9821 177.347 25.7661 177.467C25.5531 177.587 25.3851 177.76 25.2621 177.985C25.1421 178.207 25.0821 178.469 25.0821 178.772C25.0821 179.075 25.1436 179.338 25.2666 179.56C25.3896 179.782 25.5576 179.954 25.7706 180.077C25.9866 180.197 26.2311 180.257 26.5041 180.257ZM29.7531 181.077L29.4066 180.185C29.7126 180.107 29.9361 179.984 30.0771 179.816C30.2211 179.648 30.3111 179.414 30.3471 179.114C30.3861 178.814 30.4056 178.427 30.4056 177.953V176.545H34.0281V181H33.0381V177.364H31.3281V177.953C31.3281 178.43 31.3056 178.846 31.2606 179.2C31.2186 179.554 31.1406 179.855 31.0266 180.104C30.9126 180.353 30.7521 180.557 30.5451 180.716C30.3411 180.872 30.0771 180.992 29.7531 181.077ZM37.4377 181.135C36.9727 181.135 36.5572 181.029 36.1912 180.815C35.8282 180.599 35.5432 180.313 35.3362 179.956C35.1292 179.596 35.0257 179.201 35.0257 178.772C35.0257 178.454 35.0842 178.154 35.2012 177.872C35.3212 177.587 35.4892 177.335 35.7052 177.116C35.9242 176.897 36.1807 176.725 36.4747 176.599C36.7687 176.473 37.0912 176.41 37.4422 176.41C37.9072 176.41 38.3212 176.518 38.6842 176.734C39.0502 176.947 39.3367 177.233 39.5437 177.593C39.7507 177.95 39.8542 178.343 39.8542 178.772C39.8542 179.087 39.7942 179.387 39.6742 179.672C39.5572 179.957 39.3907 180.209 39.1747 180.428C38.9587 180.647 38.7037 180.82 38.4097 180.946C38.1157 181.072 37.7917 181.135 37.4377 181.135ZM37.4377 180.257C37.7137 180.257 37.9582 180.197 38.1712 180.077C38.3872 179.954 38.5567 179.782 38.6797 179.56C38.8027 179.338 38.8642 179.075 38.8642 178.772C38.8642 178.469 38.8027 178.207 38.6797 177.985C38.5567 177.76 38.3872 177.587 38.1712 177.467C37.9582 177.347 37.7137 177.287 37.4377 177.287C37.1617 177.287 36.9157 177.347 36.6997 177.467C36.4867 177.587 36.3187 177.76 36.1957 177.985C36.0757 178.207 36.0157 178.469 36.0157 178.772C36.0157 179.075 36.0772 179.338 36.2002 179.56C36.3232 179.782 36.4912 179.954 36.7042 180.077C36.9202 180.197 37.1647 180.257 37.4377 180.257ZM43.1548 181V179.083H41.9353V178.264H43.1548V176.545H44.1448V178.264H45.3598V179.083H44.1448V181H43.1548ZM40.2703 181L41.6788 178.637L40.4323 176.545H41.5168L42.7453 178.633L41.3998 181H40.2703ZM45.8728 181L44.5498 178.633L45.8143 176.545H46.8628L45.6163 178.588L47.0473 181H45.8728ZM49.87 181.135C49.39 181.135 48.9685 181.038 48.6055 180.842C48.2425 180.644 47.959 180.368 47.755 180.014C47.554 179.66 47.4535 179.249 47.4535 178.781C47.4535 178.439 47.512 178.124 47.629 177.836C47.746 177.545 47.911 177.293 48.124 177.08C48.337 176.867 48.586 176.702 48.871 176.585C49.159 176.468 49.4725 176.41 49.8115 176.41C50.1805 176.41 50.509 176.476 50.797 176.608C51.085 176.737 51.3235 176.918 51.5125 177.152C51.7045 177.386 51.8395 177.661 51.9175 177.976C51.9985 178.288 52.012 178.627 51.958 178.993H48.403C48.397 179.26 48.4555 179.494 48.5785 179.695C48.7015 179.893 48.877 180.047 49.105 180.158C49.336 180.269 49.6075 180.325 49.9195 180.325C50.1715 180.325 50.4145 180.287 50.6485 180.212C50.8855 180.134 51.1 180.02 51.292 179.87L51.6745 180.581C51.5305 180.698 51.3565 180.799 51.1525 180.883C50.9485 180.964 50.7355 181.026 50.5135 181.068C50.2915 181.113 50.077 181.135 49.87 181.135ZM48.4615 178.264H50.986C50.977 177.928 50.869 177.664 50.662 177.472C50.458 177.28 50.167 177.184 49.789 177.184C49.423 177.184 49.1185 177.28 48.8755 177.472C48.6355 177.664 48.4975 177.928 48.4615 178.264ZM52.9864 181V176.545H53.9764V178.264H56.2084V176.545H57.1984V181H56.2084V179.083H53.9764V181H52.9864ZM58.5762 181V176.545H59.5347V179.551L61.9512 176.545H62.8152V181H61.8612V177.958L59.4222 181H58.5762ZM66.2264 181.135C65.7464 181.135 65.3249 181.038 64.9619 180.842C64.5989 180.644 64.3154 180.368 64.1114 180.014C63.9104 179.66 63.8099 179.249 63.8099 178.781C63.8099 178.439 63.8684 178.124 63.9854 177.836C64.1024 177.545 64.2674 177.293 64.4804 177.08C64.6934 176.867 64.9424 176.702 65.2274 176.585C65.5154 176.468 65.8289 176.41 66.1679 176.41C66.5369 176.41 66.8654 176.476 67.1534 176.608C67.4414 176.737 67.6799 176.918 67.8689 177.152C68.0609 177.386 68.1959 177.661 68.2739 177.976C68.3549 178.288 68.3684 178.627 68.3144 178.993H64.7594C64.7534 179.26 64.8119 179.494 64.9349 179.695C65.0579 179.893 65.2334 180.047 65.4614 180.158C65.6924 180.269 65.9639 180.325 66.2759 180.325C66.5279 180.325 66.7709 180.287 67.0049 180.212C67.2419 180.134 67.4564 180.02 67.6484 179.87L68.0309 180.581C67.8869 180.698 67.7129 180.799 67.5089 180.883C67.3049 180.964 67.0919 181.026 66.8699 181.068C66.6479 181.113 66.4334 181.135 66.2264 181.135ZM64.8179 178.264H67.3424C67.3334 177.928 67.2254 177.664 67.0184 177.472C66.8144 177.28 66.5234 177.184 66.1454 177.184C65.7794 177.184 65.4749 177.28 65.2319 177.472C64.9919 177.664 64.8539 177.928 64.8179 178.264ZM74.7844 181V177.364H72.9844V177.953C72.9844 178.358 72.9604 178.724 72.9124 179.051C72.8644 179.378 72.7789 179.666 72.6559 179.915C72.5329 180.161 72.3604 180.365 72.1384 180.527C71.9194 180.689 71.6389 180.808 71.2969 180.883L71.0539 180.212C71.3389 180.143 71.5534 180.014 71.6974 179.825C71.8414 179.636 71.9374 179.387 71.9854 179.078C72.0364 178.766 72.0619 178.391 72.0619 177.953V176.545H75.7744V181H74.7844ZM71.0539 182.35V180.212L71.6659 180.275L71.8189 180.181H76.6699V182.35H75.7654V181H71.9584V182.35H71.0539ZM77.543 182.89V176.545H78.434V177.17C78.611 176.945 78.8375 176.762 79.1135 176.621C79.3895 176.48 79.73 176.41 80.135 176.41C80.57 176.41 80.9555 176.513 81.2915 176.72C81.6305 176.924 81.8945 177.205 82.0835 177.562C82.2725 177.916 82.367 178.319 82.367 178.772C82.367 179.099 82.313 179.407 82.205 179.695C82.097 179.98 81.9425 180.23 81.7415 180.446C81.5435 180.662 81.3065 180.832 81.0305 180.955C80.7575 181.075 80.4545 181.135 80.1215 181.135C79.7735 181.135 79.4675 181.072 79.2035 180.946C78.9395 180.82 78.7145 180.65 78.5285 180.438V182.89H77.543ZM79.955 180.257C80.231 180.257 80.4755 180.197 80.6885 180.077C80.9045 179.954 81.0725 179.782 81.1925 179.56C81.3155 179.338 81.377 179.075 81.377 178.772C81.377 178.469 81.3155 178.207 81.1925 177.985C81.0695 177.76 80.9 177.587 80.684 177.467C80.471 177.347 80.228 177.287 79.955 177.287C79.679 177.287 79.433 177.347 79.217 177.467C79.004 177.587 78.836 177.76 78.713 177.985C78.59 178.207 78.5285 178.469 78.5285 178.772C78.5285 179.075 78.59 179.338 78.713 179.56C78.836 179.782 79.004 179.954 79.217 180.077C79.433 180.197 79.679 180.257 79.955 180.257ZM83.6999 183.016C83.5379 183.016 83.3789 182.998 83.2229 182.962C83.0669 182.926 82.9139 182.865 82.7639 182.778L82.9889 181.932C83.0819 181.992 83.1839 182.037 83.2949 182.067C83.4059 182.097 83.5049 182.112 83.5919 182.112C83.8019 182.112 83.9669 182.062 84.0869 181.963C84.2069 181.864 84.3014 181.711 84.3704 181.504L84.5189 181.072L82.7639 176.545H83.8484L85.0814 180.001L86.2829 176.545H87.3314L85.4054 181.644C85.2674 182.001 85.1129 182.278 84.9419 182.476C84.7709 182.677 84.5819 182.817 84.3749 182.895C84.1679 182.976 83.9429 183.016 83.6999 183.016ZM88.1074 181V176.545H91.0414V177.364H89.0974V181H88.1074ZM94.1631 181V176.545H95.1531V178.264H97.3851V176.545H98.3751V181H97.3851V179.083H95.1531V181H94.1631ZM100.99 181.135C100.681 181.135 100.41 181.078 100.176 180.964C99.942 180.847 99.759 180.683 99.627 180.473C99.498 180.26 99.4335 180.01 99.4335 179.722C99.4335 179.479 99.495 179.26 99.618 179.065C99.741 178.867 99.9315 178.703 100.189 178.574C100.45 178.445 100.785 178.36 101.193 178.318C101.601 178.273 102.091 178.279 102.664 178.336L102.682 179.02C102.274 178.963 101.923 178.939 101.629 178.948C101.335 178.957 101.094 178.994 100.905 179.06C100.719 179.123 100.581 179.209 100.491 179.317C100.404 179.422 100.36 179.543 100.36 179.681C100.36 179.897 100.437 180.064 100.59 180.181C100.746 180.298 100.959 180.356 101.229 180.356C101.46 180.356 101.667 180.314 101.85 180.23C102.033 180.146 102.177 180.028 102.282 179.875C102.39 179.722 102.444 179.542 102.444 179.335V178.151C102.444 177.953 102.402 177.782 102.318 177.638C102.234 177.491 102.106 177.377 101.935 177.296C101.764 177.215 101.551 177.175 101.296 177.175C101.062 177.175 100.831 177.211 100.603 177.283C100.375 177.352 100.158 177.461 99.951 177.611L99.672 176.882C99.951 176.693 100.242 176.56 100.545 176.482C100.848 176.404 101.139 176.365 101.418 176.365C101.832 176.365 102.186 176.431 102.48 176.563C102.777 176.692 103.005 176.888 103.164 177.152C103.323 177.413 103.402 177.743 103.402 178.142V181H102.511V180.473C102.361 180.686 102.153 180.85 101.886 180.964C101.619 181.078 101.32 181.135 100.99 181.135ZM110.16 181V177.364H108.36V177.953C108.36 178.358 108.336 178.724 108.288 179.051C108.24 179.378 108.155 179.666 108.032 179.915C107.909 180.161 107.736 180.365 107.514 180.527C107.295 180.689 107.015 180.808 106.673 180.883L106.43 180.212C106.715 180.143 106.929 180.014 107.073 179.825C107.217 179.636 107.313 179.387 107.361 179.078C107.412 178.766 107.438 178.391 107.438 177.953V176.545H111.15V181H110.16ZM106.43 182.35V180.212L107.042 180.275L107.195 180.181H112.046V182.35H111.141V181H107.334V182.35H106.43ZM112.919 182.89V176.545H113.81V177.17C113.987 176.945 114.213 176.762 114.489 176.621C114.765 176.48 115.106 176.41 115.511 176.41C115.946 176.41 116.331 176.513 116.667 176.72C117.006 176.924 117.27 177.205 117.459 177.562C117.648 177.916 117.743 178.319 117.743 178.772C117.743 179.099 117.689 179.407 117.581 179.695C117.473 179.98 117.318 180.23 117.117 180.446C116.919 180.662 116.682 180.832 116.406 180.955C116.133 181.075 115.83 181.135 115.497 181.135C115.149 181.135 114.843 181.072 114.579 180.946C114.315 180.82 114.09 180.65 113.904 180.438V182.89H112.919ZM115.331 180.257C115.607 180.257 115.851 180.197 116.064 180.077C116.28 179.954 116.448 179.782 116.568 179.56C116.691 179.338 116.753 179.075 116.753 178.772C116.753 178.469 116.691 178.207 116.568 177.985C116.445 177.76 116.276 177.587 116.06 177.467C115.847 177.347 115.604 177.287 115.331 177.287C115.055 177.287 114.809 177.347 114.593 177.467C114.38 177.587 114.212 177.76 114.089 177.985C113.966 178.207 113.904 178.469 113.904 178.772C113.904 179.075 113.966 179.338 114.089 179.56C114.212 179.782 114.38 179.954 114.593 180.077C114.809 180.197 115.055 180.257 115.331 180.257ZM119.076 183.016C118.914 183.016 118.755 182.998 118.599 182.962C118.443 182.926 118.29 182.865 118.14 182.778L118.365 181.932C118.458 181.992 118.56 182.037 118.671 182.067C118.782 182.097 118.881 182.112 118.968 182.112C119.178 182.112 119.343 182.062 119.463 181.963C119.583 181.864 119.677 181.711 119.746 181.504L119.895 181.072L118.14 176.545H119.224L120.457 180.001L121.659 176.545H122.707L120.781 181.644C120.643 182.001 120.489 182.278 120.318 182.476C120.147 182.677 119.958 182.817 119.751 182.895C119.544 182.976 119.319 183.016 119.076 183.016ZM123.483 181V176.545H126.417V177.364H124.473V181H123.483ZM129.367 181.135C128.887 181.135 128.466 181.038 128.103 180.842C127.74 180.644 127.456 180.368 127.252 180.014C127.051 179.66 126.951 179.249 126.951 178.781C126.951 178.439 127.009 178.124 127.126 177.836C127.243 177.545 127.408 177.293 127.621 177.08C127.834 176.867 128.083 176.702 128.368 176.585C128.656 176.468 128.97 176.41 129.309 176.41C129.678 176.41 130.006 176.476 130.294 176.608C130.582 176.737 130.821 176.918 131.01 177.152C131.202 177.386 131.337 177.661 131.415 177.976C131.496 178.288 131.509 178.627 131.455 178.993H127.9C127.894 179.26 127.953 179.494 128.076 179.695C128.199 179.893 128.374 180.047 128.602 180.158C128.833 180.269 129.105 180.325 129.417 180.325C129.669 180.325 129.912 180.287 130.146 180.212C130.383 180.134 130.597 180.02 130.789 179.87L131.172 180.581C131.028 180.698 130.854 180.799 130.65 180.883C130.446 180.964 130.233 181.026 130.011 181.068C129.789 181.113 129.574 181.135 129.367 181.135ZM127.959 178.264H130.483C130.474 177.928 130.366 177.664 130.159 177.472C129.955 177.28 129.664 177.184 129.286 177.184C128.92 177.184 128.616 177.28 128.373 177.472C128.133 177.664 127.995 177.928 127.959 178.264Z" fill="white"/>
<rect x="1" y="1" width="148" height="198" rx="15" stroke="black" stroke-width="2"/>
<path d="M20 78.2999L20.2458 75.0338L40.2139 66.6275L60 49.2784L59.7542 52.5445L57.4896 56.01L57.3663 59.313L57.1205 62.5791L55.8859 66.4257L50.4537 69.6033L48.2314 71.4429L48.8898 76.2093L45.7622 78.1326L46.4206 81.8957L43.2929 83.819L42.8815 88L20 78.2999Z" fill="#273390"/>
<path d="M46.6663 78.6295L46.4205 81.8957L43.2928 83.819L43.5386 80.5528L46.6663 78.6295Z" fill="#1F2974"/>
<path d="M49.1355 72.9434L48.8897 76.2094L45.762 78.1327L46.0078 74.8667L49.1355 72.9434Z" fill="#1F2974"/>
<path d="M32.1803 46.937L30.4519 41.5017L32.8388 41L36.2957 45.2647L43.3741 43.7594L48.724 45.2647L54.1562 50.8673L58.6831 47.1043L60 49.2785L57.6131 52.7069L57.3662 59.3131L56.1316 63.1596L50.6993 66.3373L48.4771 68.1769L49.1355 72.9433L46.0078 74.8666L46.6663 78.6296L43.5387 80.5529L43.1271 84.7339L32.1803 80.302L20.2458 75.0338L23.5381 73.0269L22.3035 70.2674L25.5958 68.1769L24.1966 64.414L29.2173 61.738L27.5712 58.8113L25.4312 55.2156L27.3242 51.9544L30.9457 48.8604L32.1803 46.937Z" fill="#3E51E5"/>
<path d="M56.1315 63.1596L55.8857 66.4258L57.1203 62.5792L57.3661 59.3131L56.1315 63.1596Z" fill="#1F2974"/>
<path d="M60 49.2784L59.7541 52.5445L57.4896 56.01L57.6131 52.7069L60 49.2784Z" fill="#1F2974"/>
<path d="M37.3849 49.9133L34.1862 53.0647L36.0279 56.3143L39.905 54.9357L40.4866 51.6859L37.3849 49.9133Z" fill="#202A77"/>
<path d="M47.299 53.9827L44.1003 57.134L45.9419 60.3837L49.8192 59.005L50.4008 55.7553L47.299 53.9827Z" fill="#202A77"/>
<path d="M69 57.2999L69.2581 54.0338L90.2246 45.6275L111 28.2784L110.742 31.5445L108.364 35.01L108.235 38.313L107.977 41.5791L106.68 45.4257L100.976 48.6033L98.6429 50.4429L99.3343 55.2093L96.0503 57.1326L96.7417 60.8957L93.4575 62.819L93.0255 67L69 57.2999Z" fill="#8F8E1B"/>
<path d="M96.9996 57.6295L96.7415 60.8957L93.4575 62.819L93.7155 59.5528L96.9996 57.6295Z" fill="#7A7221"/>
<path d="M99.5923 51.9432L99.3342 55.2093L96.0502 57.1326L96.3082 53.8665L99.5923 51.9432Z" fill="#7A7221"/>
<path d="M81.7893 25.937L79.9745 20.5017L82.4807 20L86.1104 24.2647L93.5427 22.7594L99.1601 24.2647L104.864 29.8673L109.617 26.1043L111 28.2785L108.494 31.7069L108.234 38.3131L106.938 42.1596L101.234 45.3373L98.9009 47.1769L99.5922 51.9433L96.3082 53.8666L96.9996 57.6296L93.7156 59.5529L93.2834 63.7339L81.7893 59.302L69.2581 54.0338L72.715 52.0269L71.4187 49.2674L74.8755 47.1769L73.4064 43.414L78.6781 40.738L76.9497 37.8113L74.7027 34.2156L76.6904 30.9544L80.493 27.8604L81.7893 25.937Z" fill="#EADD32"/>
<path d="M106.938 42.1596L106.68 45.4258L107.976 41.5792L108.235 38.3131L106.938 42.1596Z" fill="#7A7221"/>
<path d="M111 28.2784L110.742 31.5445L108.364 35.01L108.494 31.7069L111 28.2784Z" fill="#7A7221"/>
<path d="M87.2542 28.9133L83.8955 32.0647L85.8293 35.3143L89.9003 33.9357L90.511 30.6859L87.2542 28.9133Z" fill="#7B7815"/>
<path d="M97.664 32.9827L94.3053 36.134L96.239 39.3837L100.31 38.005L100.921 34.7553L97.664 32.9827Z" fill="#7B7815"/>
<path d="M24 65.5063L24.2458 62.3096L44.2139 54.0822L64 37.1023L63.7542 40.2989L61.4896 43.6906L61.3663 46.9234L61.1205 50.12L59.8859 53.8847L54.4536 56.9947L52.2314 58.7952L52.8898 63.4602L49.7622 65.3426L50.4206 69.0255L47.2929 70.9079L46.8815 75L24 65.5063Z" fill="#681183"/>
<path d="M50.6663 65.829L50.4205 69.0256L47.2928 70.908L47.5386 67.7114L50.6663 65.829Z" fill="#580E70"/>
<path d="M53.1355 60.2637L52.8897 63.4602L49.762 65.3426L50.0078 62.1461L53.1355 60.2637Z" fill="#580E70"/>
<path d="M36.1803 34.8107L34.4519 29.491L36.8388 29L40.2957 33.1739L47.3741 31.7007L52.724 33.1739L58.1562 38.6574L62.6831 34.9744L64 37.1023L61.6131 40.4579L61.3662 46.9234L60.1316 50.6881L54.6993 53.7982L52.4771 55.5987L53.1355 60.2637L50.0078 62.1461L50.6663 65.8289L47.5387 67.7113L47.1271 71.8034L36.1803 67.4658L24.2458 62.3097L27.5381 60.3455L26.3035 57.6447L29.5958 55.5987L28.1966 51.9158L33.2173 49.2968L31.5712 46.4324L29.4312 42.9131L31.3242 39.7213L34.9457 36.6932L36.1803 34.8107Z" fill="#C21FF7"/>
<path d="M60.1316 50.6881L59.8858 53.8848L61.1204 50.12L61.3662 46.9235L60.1316 50.6881Z" fill="#580E70"/>
<path d="M64 37.1023L63.7541 40.2989L61.4896 43.6906L61.6131 40.4578L64 37.1023Z" fill="#580E70"/>
<path d="M41.3849 37.7238L38.1862 40.8081L40.0279 43.9886L43.9051 42.6393L44.4867 39.4586L41.3849 37.7238Z" fill="#6D128B"/>
<path d="M51.299 41.7064L48.1003 44.7907L49.9419 47.9712L53.8192 46.6219L54.4008 43.4413L51.299 41.7064Z" fill="#6D128B"/>
<path d="M130.511 64.5614L85.922 43.0227L93.2927 63.2116L28 91.849L102.088 80.5978L108.118 104.362L130.511 64.5614Z" fill="black" stroke="#FFA71B" stroke-width="2"/>
</g>
<defs>
<filter id="filter0_b_1_671" x="-4" y="114" width="158" height="90" filterUnits="userSpaceOnUse" color-interpolation-filters="sRGB">
<feFlood flood-opacity="0" result="BackgroundImageFix"/>
<feGaussianBlur in="BackgroundImageFix" stdDeviation="2"/>
<feComposite in2="SourceAlpha" operator="in" result="effect1_backgroundBlur_1_671"/>
<feBlend mode="normal" in="SourceGraphic" in2="effect1_backgroundBlur_1_671" result="shape"/>
</filter>
<radialGradient id="paint0_angular_1_671" cx="0" cy="0" r="1" gradientUnits="userSpaceOnUse" gradientTransform="translate(75 100) rotate(122.074) scale(88.5099 66.3824)">
<stop offset="0.084849" stop-color="#FF6404"/>
<stop offset="0.285328" stop-color="#792116"/>
<stop offset="0.455" stop-color="#FC990E"/>
<stop offset="0.690022" stop-color="#D26900"/>
</radialGradient>
<clipPath id="clip0_1_671">
<rect width="150" height="200" rx="16" fill="white"/>
</clipPath>
</defs>
</svg>
