<svg width="150" height="200" viewBox="0 0 150 200" fill="none" xmlns="http://www.w3.org/2000/svg">
<g clip-path="url(#clip0_2_882)">
<rect width="150" height="200" fill="#6B5600"/>
<g filter="url(#filter0_b_2_882)">
<rect y="118" width="150" height="82" fill="black" fill-opacity="0.5"/>
</g>
<path d="M27.9722 138L25.1617 133.968L27.6807 130.3H29.5342L26.9767 133.963L29.8807 138H27.9722ZM18.8587 138L21.7462 134.056L19.2327 130.3H21.1412L23.5612 133.985L20.7012 138H18.8587ZM23.5557 138V134.634H22.2577V133.27H23.5557V130.3H25.1837V133.27H26.4872V134.634H25.1837V138H23.5557ZM30.9415 138V130.3H36.205V131.719H32.5695V133.369H35.6495V134.683H32.5695V136.564H36.249V138H30.9415ZM32.179 129.535C31.9296 129.535 31.7078 129.453 31.5135 129.288C31.3191 129.123 31.222 128.905 31.222 128.633C31.222 128.45 31.266 128.292 31.354 128.16C31.4456 128.025 31.563 127.92 31.706 127.847C31.8526 127.77 32.0103 127.731 32.179 127.731C32.4246 127.731 32.6428 127.814 32.8335 127.979C33.0278 128.14 33.125 128.358 33.125 128.633C33.125 128.817 33.0791 128.976 32.9875 129.112C32.8995 129.248 32.7821 129.352 32.6355 129.425C32.4925 129.499 32.3403 129.535 32.179 129.535ZM34.9015 129.535C34.6521 129.535 34.4303 129.453 34.236 129.288C34.0416 129.123 33.9445 128.905 33.9445 128.633C33.9445 128.454 33.9885 128.296 34.0765 128.16C34.1681 128.025 34.2855 127.92 34.4285 127.847C34.5751 127.77 34.7328 127.731 34.9015 127.731C35.1471 127.731 35.3653 127.814 35.556 127.979C35.7503 128.14 35.8475 128.358 35.8475 128.633C35.8475 128.817 35.8016 128.976 35.71 129.112C35.622 129.248 35.5046 129.352 35.358 129.425C35.215 129.499 35.0628 129.535 34.9015 129.535ZM37.6837 138.143L37.1282 136.652C37.3775 136.575 37.5884 136.487 37.7607 136.388C37.9367 136.286 38.0815 136.148 38.1952 135.976C38.3125 135.804 38.4042 135.576 38.4702 135.294C38.5362 135.012 38.582 134.652 38.6077 134.216C38.6334 133.78 38.6462 133.244 38.6462 132.61V130.3H44.3057V138H42.6777V131.785H40.1917V132.538C40.1917 133.33 40.166 134.018 40.1147 134.601C40.067 135.18 39.9864 135.675 39.8727 136.086C39.759 136.493 39.605 136.832 39.4107 137.103C39.22 137.371 38.9817 137.587 38.6957 137.752C38.4134 137.917 38.076 138.048 37.6837 138.143ZM47.5706 138V131.785H45.4806V130.3H51.2996V131.785H49.2096V138H47.5706ZM52.4796 138V130.3H54.1076V133.028H55.4111C55.9721 133.028 56.4707 133.127 56.9071 133.325C57.3434 133.523 57.6862 133.807 57.9356 134.177C58.1886 134.548 58.3151 134.995 58.3151 135.519C58.3151 135.915 58.2491 136.267 58.1171 136.575C57.9887 136.883 57.7981 137.144 57.5451 137.356C57.2921 137.569 56.9841 137.73 56.6211 137.84C56.2581 137.947 55.8419 138 55.3726 138H52.4796ZM54.1076 136.63H55.3451C55.7667 136.63 56.0949 136.544 56.3296 136.372C56.5679 136.2 56.6871 135.925 56.6871 135.547C56.6871 135.169 56.5661 134.891 56.3241 134.711C56.0821 134.528 55.7594 134.436 55.3561 134.436H54.1076V136.63ZM59.3546 138V130.3H60.9826V138H59.3546ZM62.8565 138V130.3H64.468V135.404L67.834 130.3H69.44V138H67.823V132.846L64.4515 138H62.8565ZM66.1455 129.475C65.7055 129.475 65.3205 129.389 64.9905 129.216C64.6605 129.044 64.4038 128.806 64.2205 128.501C64.0408 128.197 63.9565 127.845 63.9675 127.445H65.2765C65.2655 127.739 65.3388 127.975 65.4965 128.155C65.6542 128.331 65.8705 128.419 66.1455 128.419C66.4205 128.419 66.635 128.331 66.789 128.155C66.9467 127.975 67.0182 127.739 67.0035 127.445H68.318C68.329 127.838 68.2428 128.188 68.0595 128.496C67.8762 128.8 67.6195 129.04 67.2895 129.216C66.9595 129.389 66.5782 129.475 66.1455 129.475ZM73.7345 138.143L73.179 136.652C73.4283 136.575 73.6392 136.487 73.8115 136.388C73.9875 136.286 74.1323 136.148 74.246 135.976C74.3633 135.804 74.455 135.576 74.521 135.294C74.587 135.012 74.6328 134.652 74.6585 134.216C74.6842 133.78 74.697 133.244 74.697 132.61V130.3H80.3565V138H78.7285V131.785H76.2425V132.538C76.2425 133.33 76.2168 134.018 76.1655 134.601C76.1178 135.18 76.0372 135.675 75.9235 136.086C75.8098 136.493 75.6558 136.832 75.4615 137.103C75.2708 137.371 75.0325 137.587 74.7465 137.752C74.4642 137.917 74.1268 138.048 73.7345 138.143ZM82.2354 138V130.3H87.4989V131.719H83.8634V133.369H86.9434V134.683H83.8634V136.564H87.5429V138H82.2354ZM89.1426 138V130.3H90.7101L93.7076 135.239L93.0641 135.25L95.9241 130.3H97.4806V138H95.9021L95.9296 132.401L96.2211 132.505L93.8671 136.482H92.7561L90.3306 132.505L90.6056 132.401L90.6331 138H89.1426ZM99.3585 138V130.3H100.926L103.923 135.239L103.28 135.25L106.14 130.3H107.696V138H106.118L106.145 132.401L106.437 132.505L104.083 136.482H102.972L100.546 132.505L100.821 132.401L100.849 138H99.3585ZM109.574 138V130.3H111.186V135.404L114.552 130.3H116.158V138H114.541V132.846L111.169 138H109.574ZM118.028 138V130.3H119.656V133.22H122.923V130.3H124.551V138H122.923V134.711H119.656V138H118.028ZM126.429 138V130.3H131.021V131.785H128.057V138H126.429Z" fill="white"/>
<path d="M22.8338 159L20.5163 155.665L22.5773 152.7H23.7338L21.6593 155.656L24.0443 159H22.8338ZM15.4763 159L17.8478 155.71L15.8003 152.7H16.9928L18.9908 155.67L16.6418 159H15.4763ZM19.2563 159V156.093H18.2033V155.229H19.2563V152.7H20.2643V155.229H21.3128V156.093H20.2643V159H19.2563ZM26.6932 159.135C26.2132 159.135 25.7917 159.038 25.4287 158.842C25.0657 158.644 24.7822 158.368 24.5782 158.014C24.3772 157.66 24.2767 157.249 24.2767 156.781C24.2767 156.439 24.3352 156.124 24.4522 155.836C24.5692 155.545 24.7342 155.293 24.9472 155.08C25.1602 154.867 25.4092 154.702 25.6942 154.585C25.9822 154.468 26.2957 154.41 26.6347 154.41C27.0037 154.41 27.3322 154.476 27.6202 154.608C27.9082 154.737 28.1467 154.918 28.3357 155.152C28.5277 155.386 28.6627 155.661 28.7407 155.976C28.8217 156.288 28.8352 156.627 28.7812 156.993H25.2262C25.2202 157.26 25.2787 157.494 25.4017 157.695C25.5247 157.893 25.7002 158.047 25.9282 158.158C26.1592 158.269 26.4307 158.325 26.7427 158.325C26.9947 158.325 27.2377 158.287 27.4717 158.212C27.7087 158.134 27.9232 158.02 28.1152 157.87L28.4977 158.581C28.3537 158.698 28.1797 158.799 27.9757 158.883C27.7717 158.964 27.5587 159.026 27.3367 159.068C27.1147 159.113 26.9002 159.135 26.6932 159.135ZM25.2847 156.264H27.8092C27.8002 155.928 27.6922 155.664 27.4852 155.472C27.2812 155.28 26.9902 155.184 26.6122 155.184C26.2462 155.184 25.9417 155.28 25.6987 155.472C25.4587 155.664 25.3207 155.928 25.2847 156.264ZM25.6357 153.757C25.4737 153.757 25.3297 153.7 25.2037 153.586C25.0807 153.472 25.0192 153.327 25.0192 153.15C25.0192 153.03 25.0477 152.923 25.1047 152.83C25.1617 152.737 25.2367 152.665 25.3297 152.614C25.4257 152.563 25.5277 152.538 25.6357 152.538C25.8007 152.538 25.9447 152.595 26.0677 152.709C26.1937 152.823 26.2567 152.97 26.2567 153.15C26.2567 153.27 26.2282 153.376 26.1712 153.469C26.1142 153.559 26.0377 153.63 25.9417 153.681C25.8487 153.732 25.7467 153.757 25.6357 153.757ZM27.5842 153.757C27.4222 153.757 27.2782 153.7 27.1522 153.586C27.0292 153.472 26.9677 153.327 26.9677 153.15C26.9677 153.03 26.9962 152.923 27.0532 152.83C27.1102 152.737 27.1852 152.665 27.2782 152.614C27.3742 152.563 27.4762 152.538 27.5842 152.538C27.7492 152.538 27.8932 152.595 28.0162 152.709C28.1422 152.823 28.2052 152.97 28.2052 153.15C28.2052 153.27 28.1767 153.376 28.1197 153.469C28.0627 153.559 27.9862 153.63 27.8902 153.681C27.7972 153.732 27.6952 153.757 27.5842 153.757ZM29.6476 159.077L29.3011 158.185C29.6071 158.107 29.8306 157.984 29.9716 157.816C30.1156 157.648 30.2056 157.414 30.2416 157.114C30.2806 156.814 30.3001 156.427 30.3001 155.953V154.545H33.9226V159H32.9326V155.364H31.2226V155.953C31.2226 156.43 31.2001 156.846 31.1551 157.2C31.1131 157.554 31.0351 157.855 30.9211 158.104C30.8071 158.353 30.6466 158.557 30.4396 158.716C30.2356 158.872 29.9716 158.992 29.6476 159.077ZM36.2973 159V155.364H34.8348V154.545H38.7543V155.364H37.2873V159H36.2973ZM39.6621 159V154.545H40.6521V158.248H41.4576C41.7816 158.248 42.0261 158.185 42.1911 158.059C42.3561 157.933 42.4386 157.746 42.4386 157.497C42.4386 157.251 42.3621 157.062 42.2091 156.93C42.0561 156.798 41.8311 156.732 41.5341 156.732H40.5171V155.989H41.6106C42.1866 155.989 42.6396 156.118 42.9696 156.376C43.2996 156.634 43.4646 157.008 43.4646 157.497C43.4646 157.812 43.3851 158.082 43.2261 158.307C43.0671 158.529 42.8436 158.7 42.5556 158.82C42.2706 158.94 41.9361 159 41.5521 159H39.6621ZM44.1801 159V154.545H45.1701V159H44.1801ZM46.544 159V154.545H47.5025V157.551L49.919 154.545H50.783V159H49.829V155.958L47.39 159H46.544ZM48.6635 153.78C48.3305 153.78 48.038 153.711 47.786 153.573C47.534 153.435 47.339 153.244 47.201 153.001C47.063 152.758 46.9985 152.479 47.0075 152.164H47.8355C47.8235 152.44 47.8925 152.664 48.0425 152.835C48.1955 153.003 48.4025 153.087 48.6635 153.087C48.9245 153.087 49.13 153.003 49.28 152.835C49.43 152.664 49.4975 152.44 49.4825 152.164H50.315C50.321 152.476 50.2535 152.754 50.1125 152.997C49.9745 153.24 49.7795 153.432 49.5275 153.573C49.2785 153.711 48.9905 153.78 48.6635 153.78ZM54.2042 159.077L53.8577 158.185C54.1637 158.107 54.3872 157.984 54.5282 157.816C54.6722 157.648 54.7622 157.414 54.7982 157.114C54.8372 156.814 54.8567 156.427 54.8567 155.953V154.545H58.4792V159H57.4892V155.364H55.7792V155.953C55.7792 156.43 55.7567 156.846 55.7117 157.2C55.6697 157.554 55.5917 157.855 55.4777 158.104C55.3637 158.353 55.2032 158.557 54.9962 158.716C54.7922 158.872 54.5282 158.992 54.2042 159.077ZM61.8934 159.135C61.4134 159.135 60.9919 159.038 60.6289 158.842C60.2659 158.644 59.9824 158.368 59.7784 158.014C59.5774 157.66 59.4769 157.249 59.4769 156.781C59.4769 156.439 59.5354 156.124 59.6524 155.836C59.7694 155.545 59.9344 155.293 60.1474 155.08C60.3604 154.867 60.6094 154.702 60.8944 154.585C61.1824 154.468 61.4959 154.41 61.8349 154.41C62.2039 154.41 62.5324 154.476 62.8204 154.608C63.1084 154.737 63.3469 154.918 63.5359 155.152C63.7279 155.386 63.8629 155.661 63.9409 155.976C64.0219 156.288 64.0354 156.627 63.9814 156.993H60.4264C60.4204 157.26 60.4789 157.494 60.6019 157.695C60.7249 157.893 60.9004 158.047 61.1284 158.158C61.3594 158.269 61.6309 158.325 61.9429 158.325C62.1949 158.325 62.4379 158.287 62.6719 158.212C62.9089 158.134 63.1234 158.02 63.3154 157.87L63.6979 158.581C63.5539 158.698 63.3799 158.799 63.1759 158.883C62.9719 158.964 62.7589 159.026 62.5369 159.068C62.3149 159.113 62.1004 159.135 61.8934 159.135ZM60.4849 156.264H63.0094C63.0004 155.928 62.8924 155.664 62.6854 155.472C62.4814 155.28 62.1904 155.184 61.8124 155.184C61.4464 155.184 61.1419 155.28 60.8989 155.472C60.6589 155.664 60.5209 155.928 60.4849 156.264ZM65.0098 159V154.545H65.8693H65.8963L67.8943 157.434L67.4668 157.443L69.3658 154.545H70.2433V159H69.3433L69.3568 155.706L69.5413 155.787L67.9483 158.113H67.3093L65.6443 155.782L65.8288 155.701L65.8423 159H65.0098ZM71.6192 159V154.545H72.4787H72.5057L74.5037 157.434L74.0762 157.443L75.9752 154.545H76.8527V159H75.9527L75.9662 155.706L76.1507 155.787L74.5577 158.113H73.9187L72.2537 155.782L72.4382 155.701L72.4517 159H71.6192ZM78.2285 159V154.545H79.187V157.551L81.6035 154.545H82.4675V159H81.5135V155.958L79.0745 159H78.2285ZM83.8448 159V154.545H84.8348V156.264H87.0668V154.545H88.0568V159H87.0668V157.083H84.8348V159H83.8448ZM89.4346 159V154.545H92.3686V155.364H90.4246V159H89.4346ZM95.4903 159V154.545H96.4488V157.551L98.8653 154.545H99.7293V159H98.7753V155.958L96.3363 159H95.4903ZM104.342 159V155.364H102.542V155.953C102.542 156.358 102.518 156.724 102.47 157.051C102.422 157.378 102.336 157.666 102.213 157.915C102.09 158.161 101.918 158.365 101.696 158.527C101.477 158.689 101.196 158.808 100.854 158.883L100.611 158.212C100.896 158.143 101.111 158.014 101.255 157.825C101.399 157.636 101.495 157.387 101.543 157.078C101.594 156.766 101.619 156.391 101.619 155.953V154.545H105.332V159H104.342ZM100.611 160.35V158.212L101.223 158.275L101.376 158.181H106.227V160.35H105.323V159H101.516V160.35H100.611ZM109.064 159.135C108.584 159.135 108.163 159.038 107.8 158.842C107.437 158.644 107.153 158.368 106.949 158.014C106.748 157.66 106.648 157.249 106.648 156.781C106.648 156.439 106.706 156.124 106.823 155.836C106.94 155.545 107.105 155.293 107.318 155.08C107.531 154.867 107.78 154.702 108.065 154.585C108.353 154.468 108.667 154.41 109.006 154.41C109.375 154.41 109.703 154.476 109.991 154.608C110.279 154.737 110.518 154.918 110.707 155.152C110.899 155.386 111.034 155.661 111.112 155.976C111.193 156.288 111.206 156.627 111.152 156.993H107.597C107.591 157.26 107.65 157.494 107.773 157.695C107.896 157.893 108.071 158.047 108.299 158.158C108.53 158.269 108.802 158.325 109.114 158.325C109.366 158.325 109.609 158.287 109.843 158.212C110.08 158.134 110.294 158.02 110.486 157.87L110.869 158.581C110.725 158.698 110.551 158.799 110.347 158.883C110.143 158.964 109.93 159.026 109.708 159.068C109.486 159.113 109.271 159.135 109.064 159.135ZM107.656 156.264H110.18C110.171 155.928 110.063 155.664 109.856 155.472C109.652 155.28 109.361 155.184 108.983 155.184C108.617 155.184 108.313 155.28 108.07 155.472C107.83 155.664 107.692 155.928 107.656 156.264ZM108.007 153.757C107.845 153.757 107.701 153.7 107.575 153.586C107.452 153.472 107.39 153.327 107.39 153.15C107.39 153.03 107.419 152.923 107.476 152.83C107.533 152.737 107.608 152.665 107.701 152.614C107.797 152.563 107.899 152.538 108.007 152.538C108.172 152.538 108.316 152.595 108.439 152.709C108.565 152.823 108.628 152.97 108.628 153.15C108.628 153.27 108.599 153.376 108.542 153.469C108.485 153.559 108.409 153.63 108.313 153.681C108.22 153.732 108.118 153.757 108.007 153.757ZM109.955 153.757C109.793 153.757 109.649 153.7 109.523 153.586C109.4 153.472 109.339 153.327 109.339 153.15C109.339 153.03 109.367 152.923 109.424 152.83C109.481 152.737 109.556 152.665 109.649 152.614C109.745 152.563 109.847 152.538 109.955 152.538C110.12 152.538 110.264 152.595 110.387 152.709C110.513 152.823 110.576 152.97 110.576 153.15C110.576 153.27 110.548 153.376 110.491 153.469C110.434 153.559 110.357 153.63 110.261 153.681C110.168 153.732 110.066 153.757 109.955 153.757ZM113.175 159V155.364H111.713V154.545H115.632V155.364H114.165V159H113.175ZM118.746 159V154.545H119.736V156.264H121.968V154.545H122.958V159H121.968V157.083H119.736V159H118.746ZM125.573 159.135C125.264 159.135 124.993 159.078 124.759 158.964C124.525 158.847 124.342 158.683 124.21 158.473C124.081 158.26 124.016 158.01 124.016 157.722C124.016 157.479 124.078 157.26 124.201 157.065C124.324 156.867 124.514 156.703 124.772 156.574C125.033 156.445 125.368 156.36 125.776 156.318C126.184 156.273 126.674 156.279 127.247 156.336L127.265 157.02C126.857 156.963 126.506 156.939 126.212 156.948C125.918 156.957 125.677 156.994 125.488 157.06C125.302 157.123 125.164 157.209 125.074 157.317C124.987 157.422 124.943 157.543 124.943 157.681C124.943 157.897 125.02 158.064 125.173 158.181C125.329 158.298 125.542 158.356 125.812 158.356C126.043 158.356 126.25 158.314 126.433 158.23C126.616 158.146 126.76 158.028 126.865 157.875C126.973 157.722 127.027 157.542 127.027 157.335V156.151C127.027 155.953 126.985 155.782 126.901 155.638C126.817 155.491 126.689 155.377 126.518 155.296C126.347 155.215 126.134 155.175 125.879 155.175C125.645 155.175 125.414 155.211 125.186 155.283C124.958 155.352 124.741 155.461 124.534 155.611L124.255 154.882C124.534 154.693 124.825 154.56 125.128 154.482C125.431 154.404 125.722 154.365 126.001 154.365C126.415 154.365 126.769 154.431 127.063 154.563C127.36 154.692 127.588 154.888 127.747 155.152C127.906 155.413 127.985 155.743 127.985 156.142V159H127.094V158.473C126.944 158.686 126.736 158.85 126.469 158.964C126.202 159.078 125.903 159.135 125.573 159.135ZM132.786 159V153.762L131.152 154.36L130.891 153.577L133.65 152.565H133.722V159H132.786ZM24.044 170V165.545H28.2515V170H27.2615V166.364H25.034V170H24.044ZM31.6545 170.135C31.1895 170.135 30.774 170.029 30.408 169.815C30.045 169.599 29.76 169.313 29.553 168.956C29.346 168.596 29.2425 168.201 29.2425 167.772C29.2425 167.454 29.301 167.154 29.418 166.872C29.538 166.587 29.706 166.335 29.922 166.116C30.141 165.897 30.3975 165.725 30.6915 165.599C30.9855 165.473 31.308 165.41 31.659 165.41C32.124 165.41 32.538 165.518 32.901 165.734C33.267 165.947 33.5535 166.233 33.7605 166.593C33.9675 166.95 34.071 167.343 34.071 167.772C34.071 168.087 34.011 168.387 33.891 168.672C33.774 168.957 33.6075 169.209 33.3915 169.428C33.1755 169.647 32.9205 169.82 32.6265 169.946C32.3325 170.072 32.0085 170.135 31.6545 170.135ZM31.6545 169.257C31.9305 169.257 32.175 169.197 32.388 169.077C32.604 168.954 32.7735 168.782 32.8965 168.56C33.0195 168.338 33.081 168.075 33.081 167.772C33.081 167.469 33.0195 167.207 32.8965 166.985C32.7735 166.76 32.604 166.587 32.388 166.467C32.175 166.347 31.9305 166.287 31.6545 166.287C31.3785 166.287 31.1325 166.347 30.9165 166.467C30.7035 166.587 30.5355 166.76 30.4125 166.985C30.2925 167.207 30.2325 167.469 30.2325 167.772C30.2325 168.075 30.294 168.338 30.417 168.56C30.54 168.782 30.708 168.954 30.921 169.077C31.137 169.197 31.3815 169.257 31.6545 169.257ZM34.9035 170.077L34.557 169.185C34.863 169.107 35.0865 168.984 35.2275 168.816C35.3715 168.648 35.4615 168.414 35.4975 168.114C35.5365 167.814 35.556 167.427 35.556 166.953V165.545H39.1785V170H38.1885V166.364H36.4785V166.953C36.4785 167.43 36.456 167.846 36.411 168.2C36.369 168.554 36.291 168.855 36.177 169.104C36.063 169.353 35.9025 169.557 35.6955 169.716C35.4915 169.872 35.2275 169.992 34.9035 170.077ZM42.5926 170.135C42.1126 170.135 41.6911 170.038 41.3281 169.842C40.9651 169.644 40.6816 169.368 40.4776 169.014C40.2766 168.66 40.1761 168.249 40.1761 167.781C40.1761 167.439 40.2346 167.124 40.3516 166.836C40.4686 166.545 40.6336 166.293 40.8466 166.08C41.0596 165.867 41.3086 165.702 41.5936 165.585C41.8816 165.468 42.1951 165.41 42.5341 165.41C42.9031 165.41 43.2316 165.476 43.5196 165.608C43.8076 165.737 44.0461 165.918 44.2351 166.152C44.4271 166.386 44.5621 166.661 44.6401 166.976C44.7211 167.288 44.7346 167.627 44.6806 167.993H41.1256C41.1196 168.26 41.1781 168.494 41.3011 168.695C41.4241 168.893 41.5996 169.047 41.8276 169.158C42.0586 169.269 42.3301 169.325 42.6421 169.325C42.8941 169.325 43.1371 169.287 43.3711 169.212C43.6081 169.134 43.8226 169.02 44.0146 168.87L44.3971 169.581C44.2531 169.698 44.0791 169.799 43.8751 169.883C43.6711 169.964 43.4581 170.026 43.2361 170.068C43.0141 170.113 42.7996 170.135 42.5926 170.135ZM41.1841 167.264H43.7086C43.6996 166.928 43.5916 166.664 43.3846 166.472C43.1806 166.28 42.8896 166.184 42.5116 166.184C42.1456 166.184 41.8411 166.28 41.5981 166.472C41.3581 166.664 41.2201 166.928 41.1841 167.264ZM47.9151 170V165.545H50.0391C50.5431 165.545 50.9466 165.641 51.2496 165.833C51.5526 166.025 51.7041 166.313 51.7041 166.697C51.7041 166.877 51.6606 167.037 51.5736 167.178C51.4866 167.316 51.3666 167.432 51.2136 167.525C51.0606 167.618 50.8821 167.685 50.6781 167.728L50.6601 167.507C51.0531 167.561 51.3576 167.691 51.5736 167.898C51.7896 168.105 51.8976 168.368 51.8976 168.686C51.8976 168.956 51.8271 169.19 51.6861 169.388C51.5451 169.583 51.3426 169.734 51.0786 169.842C50.8146 169.947 50.4981 170 50.1291 170H47.9151ZM48.8736 169.266H49.9941C50.2911 169.266 50.5191 169.217 50.6781 169.118C50.8401 169.019 50.9211 168.87 50.9211 168.672C50.9211 168.477 50.8416 168.332 50.6826 168.236C50.5236 168.137 50.2941 168.087 49.9941 168.087H48.7431V167.381H49.8906C50.1696 167.381 50.3856 167.339 50.5386 167.255C50.6916 167.168 50.7681 167.027 50.7681 166.832C50.7681 166.637 50.6916 166.496 50.5386 166.409C50.3856 166.319 50.1696 166.274 49.8906 166.274H48.8736V169.266ZM53.0127 170V165.545H57.2202V170H56.2302V166.364H54.0027V170H53.0127ZM58.5938 171.89V165.545H59.4848V166.17C59.6618 165.945 59.8883 165.762 60.1643 165.621C60.4403 165.48 60.7808 165.41 61.1858 165.41C61.6208 165.41 62.0063 165.513 62.3423 165.72C62.6813 165.924 62.9453 166.205 63.1343 166.562C63.3233 166.916 63.4178 167.319 63.4178 167.772C63.4178 168.099 63.3638 168.407 63.2558 168.695C63.1478 168.98 62.9933 169.23 62.7923 169.446C62.5943 169.662 62.3573 169.832 62.0813 169.955C61.8083 170.075 61.5053 170.135 61.1723 170.135C60.8243 170.135 60.5183 170.072 60.2543 169.946C59.9903 169.82 59.7653 169.65 59.5793 169.438V171.89H58.5938ZM61.0058 169.257C61.2818 169.257 61.5263 169.197 61.7393 169.077C61.9553 168.954 62.1233 168.782 62.2433 168.56C62.3663 168.338 62.4278 168.075 62.4278 167.772C62.4278 167.469 62.3663 167.207 62.2433 166.985C62.1203 166.76 61.9508 166.587 61.7348 166.467C61.5218 166.347 61.2788 166.287 61.0058 166.287C60.7298 166.287 60.4838 166.347 60.2678 166.467C60.0548 166.587 59.8868 166.76 59.7638 166.985C59.6408 167.207 59.5793 167.469 59.5793 167.772C59.5793 168.075 59.6408 168.338 59.7638 168.56C59.8868 168.782 60.0548 168.954 60.2678 169.077C60.4838 169.197 60.7298 169.257 61.0058 169.257ZM65.6496 170.135C65.3406 170.135 65.0691 170.078 64.8351 169.964C64.6011 169.847 64.4181 169.683 64.2861 169.473C64.1571 169.26 64.0926 169.01 64.0926 168.722C64.0926 168.479 64.1541 168.26 64.2771 168.065C64.4001 167.867 64.5906 167.703 64.8486 167.574C65.1096 167.445 65.4441 167.36 65.8521 167.318C66.2601 167.273 66.7506 167.279 67.3236 167.336L67.3416 168.02C66.9336 167.963 66.5826 167.939 66.2886 167.948C65.9946 167.957 65.7531 167.994 65.5641 168.06C65.3781 168.123 65.2401 168.209 65.1501 168.317C65.0631 168.422 65.0196 168.543 65.0196 168.681C65.0196 168.897 65.0961 169.064 65.2491 169.181C65.4051 169.298 65.6181 169.356 65.8881 169.356C66.1191 169.356 66.3261 169.314 66.5091 169.23C66.6921 169.146 66.8361 169.028 66.9411 168.875C67.0491 168.722 67.1031 168.542 67.1031 168.335V167.151C67.1031 166.953 67.0611 166.782 66.9771 166.638C66.8931 166.491 66.7656 166.377 66.5946 166.296C66.4236 166.215 66.2106 166.175 65.9556 166.175C65.7216 166.175 65.4906 166.211 65.2626 166.283C65.0346 166.352 64.8171 166.461 64.6101 166.611L64.3311 165.882C64.6101 165.693 64.9011 165.56 65.2041 165.482C65.5071 165.404 65.7981 165.365 66.0771 165.365C66.4911 165.365 66.8451 165.431 67.1391 165.563C67.4361 165.692 67.6641 165.888 67.8231 166.152C67.9821 166.413 68.0616 166.743 68.0616 167.142V170H67.1706V169.473C67.0206 169.686 66.8121 169.85 66.5451 169.964C66.2781 170.078 65.9796 170.135 65.6496 170.135ZM69.378 170V165.545H71.502C72.006 165.545 72.4095 165.641 72.7125 165.833C73.0155 166.025 73.167 166.313 73.167 166.697C73.167 166.877 73.1235 167.037 73.0365 167.178C72.9495 167.316 72.8295 167.432 72.6765 167.525C72.5235 167.618 72.345 167.685 72.141 167.728L72.123 167.507C72.516 167.561 72.8205 167.691 73.0365 167.898C73.2525 168.105 73.3605 168.368 73.3605 168.686C73.3605 168.956 73.29 169.19 73.149 169.388C73.008 169.583 72.8055 169.734 72.5415 169.842C72.2775 169.947 71.961 170 71.592 170H69.378ZM70.3365 169.266H71.457C71.754 169.266 71.982 169.217 72.141 169.118C72.303 169.019 72.384 168.87 72.384 168.672C72.384 168.477 72.3045 168.332 72.1455 168.236C71.9865 168.137 71.757 168.087 71.457 168.087H70.206V167.381H71.3535C71.6325 167.381 71.8485 167.339 72.0015 167.255C72.1545 167.168 72.231 167.027 72.231 166.832C72.231 166.637 72.1545 166.496 72.0015 166.409C71.8485 166.319 71.6325 166.274 71.3535 166.274H70.3365V169.266ZM76.5051 170.135C76.0401 170.135 75.6246 170.029 75.2586 169.815C74.8956 169.599 74.6106 169.313 74.4036 168.956C74.1966 168.596 74.0931 168.201 74.0931 167.772C74.0931 167.454 74.1516 167.154 74.2686 166.872C74.3886 166.587 74.5566 166.335 74.7726 166.116C74.9916 165.897 75.2481 165.725 75.5421 165.599C75.8361 165.473 76.1586 165.41 76.5096 165.41C76.9746 165.41 77.3886 165.518 77.7516 165.734C78.1176 165.947 78.4041 166.233 78.6111 166.593C78.8181 166.95 78.9216 167.343 78.9216 167.772C78.9216 168.087 78.8616 168.387 78.7416 168.672C78.6246 168.957 78.4581 169.209 78.2421 169.428C78.0261 169.647 77.7711 169.82 77.4771 169.946C77.1831 170.072 76.8591 170.135 76.5051 170.135ZM76.5051 169.257C76.7811 169.257 77.0256 169.197 77.2386 169.077C77.4546 168.954 77.6241 168.782 77.7471 168.56C77.8701 168.338 77.9316 168.075 77.9316 167.772C77.9316 167.469 77.8701 167.207 77.7471 166.985C77.6241 166.76 77.4546 166.587 77.2386 166.467C77.0256 166.347 76.7811 166.287 76.5051 166.287C76.2291 166.287 75.9831 166.347 75.7671 166.467C75.5541 166.587 75.3861 166.76 75.2631 166.985C75.1431 167.207 75.0831 167.469 75.0831 167.772C75.0831 168.075 75.1446 168.338 75.2676 168.56C75.3906 168.782 75.5586 168.954 75.7716 169.077C75.9876 169.197 76.2321 169.257 76.5051 169.257ZM82.1221 170V165.545H83.0806V168.551L85.4971 165.545H86.3611V170H85.4071V166.958L82.9681 170H82.1221ZM87.5763 170.077L87.2298 169.185C87.5358 169.107 87.7593 168.984 87.9003 168.816C88.0443 168.648 88.1343 168.414 88.1703 168.114C88.2093 167.814 88.2288 167.427 88.2288 166.953V165.545H91.8513V170H90.8613V166.364H89.1513V166.953C89.1513 167.43 89.1288 167.846 89.0838 168.2C89.0418 168.554 88.9638 168.855 88.8498 169.104C88.7358 169.353 88.5753 169.557 88.3683 169.716C88.1643 169.872 87.9003 169.992 87.5763 170.077ZM93.2315 170V165.545H94.19V168.551L96.6065 165.545H97.4705V170H96.5165V166.958L94.0775 170H93.2315ZM101.054 170V165.545H103.178C103.682 165.545 104.085 165.641 104.388 165.833C104.691 166.025 104.843 166.313 104.843 166.697C104.843 166.877 104.799 167.037 104.712 167.178C104.625 167.316 104.505 167.432 104.352 167.525C104.199 167.618 104.021 167.685 103.817 167.728L103.799 167.507C104.192 167.561 104.496 167.691 104.712 167.898C104.928 168.105 105.036 168.368 105.036 168.686C105.036 168.956 104.966 169.19 104.825 169.388C104.684 169.583 104.481 169.734 104.217 169.842C103.953 169.947 103.637 170 103.268 170H101.054ZM102.012 169.266H103.133C103.43 169.266 103.658 169.217 103.817 169.118C103.979 169.019 104.06 168.87 104.06 168.672C104.06 168.477 103.98 168.332 103.821 168.236C103.662 168.137 103.433 168.087 103.133 168.087H101.882V167.381H103.029C103.308 167.381 103.524 167.339 103.677 167.255C103.83 167.168 103.907 167.027 103.907 166.832C103.907 166.637 103.83 166.496 103.677 166.409C103.524 166.319 103.308 166.274 103.029 166.274H102.012V169.266ZM105.989 170.077L105.643 169.185C105.949 169.107 106.172 168.984 106.313 168.816C106.457 168.648 106.547 168.414 106.583 168.114C106.622 167.814 106.642 167.427 106.642 166.953V165.545H110.264V170H109.274V166.364H107.564V166.953C107.564 167.43 107.542 167.846 107.497 168.2C107.455 168.554 107.377 168.855 107.263 169.104C107.149 169.353 106.988 169.557 106.781 169.716C106.577 169.872 106.313 169.992 105.989 170.077ZM113.679 170.135C113.199 170.135 112.777 170.038 112.414 169.842C112.051 169.644 111.768 169.368 111.564 169.014C111.363 168.66 111.262 168.249 111.262 167.781C111.262 167.439 111.321 167.124 111.438 166.836C111.555 166.545 111.72 166.293 111.933 166.08C112.146 165.867 112.395 165.702 112.68 165.585C112.968 165.468 113.281 165.41 113.62 165.41C113.989 165.41 114.318 165.476 114.606 165.608C114.894 165.737 115.132 165.918 115.321 166.152C115.513 166.386 115.648 166.661 115.726 166.976C115.807 167.288 115.821 167.627 115.767 167.993H112.212C112.206 168.26 112.264 168.494 112.387 168.695C112.51 168.893 112.686 169.047 112.914 169.158C113.145 169.269 113.416 169.325 113.728 169.325C113.98 169.325 114.223 169.287 114.457 169.212C114.694 169.134 114.909 169.02 115.101 168.87L115.483 169.581C115.339 169.698 115.165 169.799 114.961 169.883C114.757 169.964 114.544 170.026 114.322 170.068C114.1 170.113 113.886 170.135 113.679 170.135ZM112.27 167.264H114.795C114.786 166.928 114.678 166.664 114.471 166.472C114.267 166.28 113.976 166.184 113.598 166.184C113.232 166.184 112.927 166.28 112.684 166.472C112.444 166.664 112.306 166.928 112.27 167.264ZM116.795 170V165.545H118.919C119.423 165.545 119.826 165.641 120.129 165.833C120.432 166.025 120.584 166.313 120.584 166.697C120.584 166.877 120.54 167.037 120.453 167.178C120.366 167.316 120.246 167.432 120.093 167.525C119.94 167.618 119.762 167.685 119.558 167.728L119.54 167.507C119.933 167.561 120.237 167.691 120.453 167.898C120.669 168.105 120.777 168.368 120.777 168.686C120.777 168.956 120.707 169.19 120.566 169.388C120.425 169.583 120.222 169.734 119.958 169.842C119.694 169.947 119.378 170 119.009 170H116.795ZM117.753 169.266H118.874C119.171 169.266 119.399 169.217 119.558 169.118C119.72 169.019 119.801 168.87 119.801 168.672C119.801 168.477 119.721 168.332 119.562 168.236C119.403 168.137 119.174 168.087 118.874 168.087H117.623V167.381H118.77C119.049 167.381 119.265 167.339 119.418 167.255C119.571 167.168 119.648 167.027 119.648 166.832C119.648 166.637 119.571 166.496 119.418 166.409C119.265 166.319 119.049 166.274 118.77 166.274H117.753V169.266ZM123.922 170.135C123.457 170.135 123.042 170.029 122.676 169.815C122.313 169.599 122.028 169.313 121.821 168.956C121.614 168.596 121.51 168.201 121.51 167.772C121.51 167.454 121.569 167.154 121.686 166.872C121.806 166.587 121.974 166.335 122.19 166.116C122.409 165.897 122.665 165.725 122.959 165.599C123.253 165.473 123.576 165.41 123.927 165.41C124.392 165.41 124.806 165.518 125.169 165.734C125.535 165.947 125.821 166.233 126.028 166.593C126.235 166.95 126.339 167.343 126.339 167.772C126.339 168.087 126.279 168.387 126.159 168.672C126.042 168.957 125.875 169.209 125.659 169.428C125.443 169.647 125.188 169.82 124.894 169.946C124.6 170.072 124.276 170.135 123.922 170.135ZM123.922 169.257C124.198 169.257 124.443 169.197 124.656 169.077C124.872 168.954 125.041 168.782 125.164 168.56C125.287 168.338 125.349 168.075 125.349 167.772C125.349 167.469 125.287 167.207 125.164 166.985C125.041 166.76 124.872 166.587 124.656 166.467C124.443 166.347 124.198 166.287 123.922 166.287C123.646 166.287 123.4 166.347 123.184 166.467C122.971 166.587 122.803 166.76 122.68 166.985C122.56 167.207 122.5 167.469 122.5 167.772C122.5 168.075 122.562 168.338 122.685 168.56C122.808 168.782 122.976 168.954 123.189 169.077C123.405 169.197 123.649 169.257 123.922 169.257ZM11.4229 181V176.545H13.5469C14.0509 176.545 14.4544 176.641 14.7574 176.833C15.0604 177.025 15.2119 177.313 15.2119 177.697C15.2119 177.877 15.1684 178.037 15.0814 178.178C14.9944 178.316 14.8744 178.432 14.7214 178.525C14.5684 178.618 14.3899 178.685 14.1859 178.728L14.1679 178.507C14.5609 178.561 14.8654 178.691 15.0814 178.898C15.2974 179.105 15.4054 179.368 15.4054 179.686C15.4054 179.956 15.3349 180.19 15.1939 180.388C15.0529 180.583 14.8504 180.734 14.5864 180.842C14.3224 180.947 14.0059 181 13.6369 181H11.4229ZM12.3814 180.266H13.5019C13.7989 180.266 14.0269 180.217 14.1859 180.118C14.3479 180.019 14.4289 179.87 14.4289 179.672C14.4289 179.477 14.3494 179.332 14.1904 179.236C14.0314 179.137 13.8019 179.087 13.5019 179.087H12.2509V178.381H13.3984C13.6774 178.381 13.8934 178.339 14.0464 178.255C14.1994 178.168 14.2759 178.027 14.2759 177.832C14.2759 177.637 14.1994 177.496 14.0464 177.409C13.8934 177.319 13.6774 177.274 13.3984 177.274H12.3814V180.266ZM16.5205 181V176.545H17.38H17.407L19.405 179.434L18.9775 179.443L20.8765 176.545H21.754V181H20.854L20.8675 177.706L21.052 177.787L19.459 180.113H18.82L17.155 177.782L17.3395 177.701L17.353 181H16.5205ZM25.1639 181.135C24.6839 181.135 24.2624 181.038 23.8994 180.842C23.5364 180.644 23.2529 180.368 23.0489 180.014C22.8479 179.66 22.7474 179.249 22.7474 178.781C22.7474 178.439 22.8059 178.124 22.9229 177.836C23.0399 177.545 23.2049 177.293 23.4179 177.08C23.6309 176.867 23.8799 176.702 24.1649 176.585C24.4529 176.468 24.7664 176.41 25.1054 176.41C25.4744 176.41 25.8029 176.476 26.0909 176.608C26.3789 176.737 26.6174 176.918 26.8064 177.152C26.9984 177.386 27.1334 177.661 27.2114 177.976C27.2924 178.288 27.3059 178.627 27.2519 178.993H23.6969C23.6909 179.26 23.7494 179.494 23.8724 179.695C23.9954 179.893 24.1709 180.047 24.3989 180.158C24.6299 180.269 24.9014 180.325 25.2134 180.325C25.4654 180.325 25.7084 180.287 25.9424 180.212C26.1794 180.134 26.3939 180.02 26.5859 179.87L26.9684 180.581C26.8244 180.698 26.6504 180.799 26.4464 180.883C26.2424 180.964 26.0294 181.026 25.8074 181.068C25.5854 181.113 25.3709 181.135 25.1639 181.135ZM23.7554 178.264H26.2799C26.2709 177.928 26.1629 177.664 25.9559 177.472C25.7519 177.28 25.4609 177.184 25.0829 177.184C24.7169 177.184 24.4124 177.28 24.1694 177.472C23.9294 177.664 23.7914 177.928 23.7554 178.264ZM30.3672 181.135C29.8992 181.135 29.4822 181.033 29.1162 180.829C28.7502 180.622 28.4622 180.341 28.2522 179.987C28.0452 179.63 27.9417 179.225 27.9417 178.772C27.9417 178.43 28.0032 178.117 28.1262 177.832C28.2492 177.544 28.4232 177.293 28.6482 177.08C28.8732 176.867 29.1372 176.702 29.4402 176.585C29.7462 176.468 30.0777 176.41 30.4347 176.41C30.7347 176.41 31.0122 176.45 31.2672 176.531C31.5252 176.609 31.7622 176.731 31.9782 176.896L31.5012 177.652C31.3632 177.529 31.2042 177.437 31.0242 177.377C30.8472 177.317 30.6582 177.287 30.4572 177.287C30.1452 177.287 29.8767 177.346 29.6517 177.463C29.4267 177.58 29.2512 177.749 29.1252 177.971C29.0022 178.19 28.9407 178.456 28.9407 178.768C28.9407 179.233 29.0757 179.597 29.3457 179.861C29.6187 180.125 29.9892 180.257 30.4572 180.257C30.6792 180.257 30.8892 180.217 31.0872 180.136C31.2852 180.052 31.4502 179.942 31.5822 179.807L32.0547 180.559C31.8177 180.739 31.5537 180.88 31.2627 180.982C30.9717 181.084 30.6732 181.135 30.3672 181.135ZM33.9594 181V177.364H32.4969V176.545H36.4164V177.364H34.9494V181H33.9594ZM39.3582 181.135C38.8782 181.135 38.4567 181.038 38.0937 180.842C37.7307 180.644 37.4472 180.368 37.2432 180.014C37.0422 179.66 36.9417 179.249 36.9417 178.781C36.9417 178.439 37.0002 178.124 37.1172 177.836C37.2342 177.545 37.3992 177.293 37.6122 177.08C37.8252 176.867 38.0742 176.702 38.3592 176.585C38.6472 176.468 38.9607 176.41 39.2997 176.41C39.6687 176.41 39.9972 176.476 40.2852 176.608C40.5732 176.737 40.8117 176.918 41.0007 177.152C41.1927 177.386 41.3277 177.661 41.4057 177.976C41.4867 178.288 41.5002 178.627 41.4462 178.993H37.8912C37.8852 179.26 37.9437 179.494 38.0667 179.695C38.1897 179.893 38.3652 180.047 38.5932 180.158C38.8242 180.269 39.0957 180.325 39.4077 180.325C39.6597 180.325 39.9027 180.287 40.1367 180.212C40.3737 180.134 40.5882 180.02 40.7802 179.87L41.1627 180.581C41.0187 180.698 40.8447 180.799 40.6407 180.883C40.4367 180.964 40.2237 181.026 40.0017 181.068C39.7797 181.113 39.5652 181.135 39.3582 181.135ZM37.9497 178.264H40.4742C40.4652 177.928 40.3572 177.664 40.1502 177.472C39.9462 177.28 39.6552 177.184 39.2772 177.184C38.9112 177.184 38.6067 177.28 38.3637 177.472C38.1237 177.664 37.9857 177.928 37.9497 178.264ZM46.7237 181.135C46.2557 181.135 45.8387 181.033 45.4727 180.829C45.1067 180.622 44.8187 180.341 44.6087 179.987C44.4017 179.63 44.2982 179.225 44.2982 178.772C44.2982 178.43 44.3597 178.117 44.4827 177.832C44.6057 177.544 44.7797 177.293 45.0047 177.08C45.2297 176.867 45.4937 176.702 45.7967 176.585C46.1027 176.468 46.4342 176.41 46.7912 176.41C47.0912 176.41 47.3687 176.45 47.6237 176.531C47.8817 176.609 48.1187 176.731 48.3347 176.896L47.8577 177.652C47.7197 177.529 47.5607 177.437 47.3807 177.377C47.2037 177.317 47.0147 177.287 46.8137 177.287C46.5017 177.287 46.2332 177.346 46.0082 177.463C45.7832 177.58 45.6077 177.749 45.4817 177.971C45.3587 178.19 45.2972 178.456 45.2972 178.768C45.2972 179.233 45.4322 179.597 45.7022 179.861C45.9752 180.125 46.3457 180.257 46.8137 180.257C47.0357 180.257 47.2457 180.217 47.4437 180.136C47.6417 180.052 47.8067 179.942 47.9387 179.807L48.4112 180.559C48.1742 180.739 47.9102 180.88 47.6192 180.982C47.3282 181.084 47.0297 181.135 46.7237 181.135ZM51.3654 181.077L51.0189 180.185C51.3249 180.107 51.5484 179.984 51.6894 179.816C51.8334 179.648 51.9234 179.414 51.9594 179.114C51.9984 178.814 52.0179 178.427 52.0179 177.953V176.545H55.6404V181H54.6504V177.364H52.9404V177.953C52.9404 178.43 52.9179 178.846 52.8729 179.2C52.8309 179.554 52.7529 179.855 52.6389 180.104C52.5249 180.353 52.3644 180.557 52.1574 180.716C51.9534 180.872 51.6894 180.992 51.3654 181.077ZM59.0545 181.135C58.5745 181.135 58.153 181.038 57.79 180.842C57.427 180.644 57.1435 180.368 56.9395 180.014C56.7385 179.66 56.638 179.249 56.638 178.781C56.638 178.439 56.6965 178.124 56.8135 177.836C56.9305 177.545 57.0955 177.293 57.3085 177.08C57.5215 176.867 57.7705 176.702 58.0555 176.585C58.3435 176.468 58.657 176.41 58.996 176.41C59.365 176.41 59.6935 176.476 59.9815 176.608C60.2695 176.737 60.508 176.918 60.697 177.152C60.889 177.386 61.024 177.661 61.102 177.976C61.183 178.288 61.1965 178.627 61.1425 178.993H57.5875C57.5815 179.26 57.64 179.494 57.763 179.695C57.886 179.893 58.0615 180.047 58.2895 180.158C58.5205 180.269 58.792 180.325 59.104 180.325C59.356 180.325 59.599 180.287 59.833 180.212C60.07 180.134 60.2845 180.02 60.4765 179.87L60.859 180.581C60.715 180.698 60.541 180.799 60.337 180.883C60.133 180.964 59.92 181.026 59.698 181.068C59.476 181.113 59.2615 181.135 59.0545 181.135ZM57.646 178.264H60.1705C60.1615 177.928 60.0535 177.664 59.8465 177.472C59.6425 177.28 59.3515 177.184 58.9735 177.184C58.6075 177.184 58.303 177.28 58.06 177.472C57.82 177.664 57.682 177.928 57.646 178.264ZM62.1709 181V176.545H63.0304H63.0574L65.0554 179.434L64.6279 179.443L66.5269 176.545H67.4044V181H66.5044L66.5179 177.706L66.7024 177.787L65.1094 180.113H64.4704L62.8054 177.782L62.9899 177.701L63.0034 181H62.1709ZM68.7803 181V176.545H69.6398H69.6668L71.6648 179.434L71.2373 179.443L73.1363 176.545H74.0138V181H73.1138L73.1273 177.706L73.3118 177.787L71.7188 180.113H71.0798L69.4148 177.782L69.5993 177.701L69.6128 181H68.7803ZM75.3897 181V176.545H76.3482V179.551L78.7647 176.545H79.6287V181H78.6747V177.958L76.2357 181H75.3897ZM81.0059 181V176.545H81.9959V178.264H84.2279V176.545H85.2179V181H84.2279V179.083H81.9959V181H81.0059ZM86.5957 181V176.545H89.5297V177.364H87.5857V181H86.5957ZM91.6828 181.135C91.3738 181.135 91.1023 181.078 90.8683 180.964C90.6343 180.847 90.4513 180.683 90.3193 180.473C90.1903 180.26 90.1258 180.01 90.1258 179.722C90.1258 179.479 90.1873 179.26 90.3103 179.065C90.4333 178.867 90.6238 178.703 90.8818 178.574C91.1428 178.445 91.4773 178.36 91.8853 178.318C92.2933 178.273 92.7838 178.279 93.3568 178.336L93.3748 179.02C92.9668 178.963 92.6158 178.939 92.3218 178.948C92.0278 178.957 91.7863 178.994 91.5973 179.06C91.4113 179.123 91.2733 179.209 91.1833 179.317C91.0963 179.422 91.0528 179.543 91.0528 179.681C91.0528 179.897 91.1293 180.064 91.2823 180.181C91.4383 180.298 91.6513 180.356 91.9213 180.356C92.1523 180.356 92.3593 180.314 92.5423 180.23C92.7253 180.146 92.8693 180.028 92.9743 179.875C93.0823 179.722 93.1363 179.542 93.1363 179.335V178.151C93.1363 177.953 93.0943 177.782 93.0103 177.638C92.9263 177.491 92.7988 177.377 92.6278 177.296C92.4568 177.215 92.2438 177.175 91.9888 177.175C91.7548 177.175 91.5238 177.211 91.2958 177.283C91.0678 177.352 90.8503 177.461 90.6433 177.611L90.3643 176.882C90.6433 176.693 90.9343 176.56 91.2373 176.482C91.5403 176.404 91.8313 176.365 92.1103 176.365C92.5243 176.365 92.8783 176.431 93.1723 176.563C93.4693 176.692 93.6973 176.888 93.8563 177.152C94.0153 177.413 94.0948 177.743 94.0948 178.142V181H93.2038V180.473C93.0538 180.686 92.8453 180.85 92.5783 180.964C92.3113 181.078 92.0128 181.135 91.6828 181.135ZM95.4112 181V176.545H96.2707H96.2977L98.2957 179.434L97.8682 179.443L99.7672 176.545H100.645V181H99.7447L99.7582 177.706L99.9427 177.787L98.3497 180.113H97.7107L96.0457 177.782L96.2302 177.701L96.2437 181H95.4112ZM102.021 181V176.545H102.979V179.551L105.396 176.545H106.26V181H105.306V177.958L102.867 181H102.021ZM109.843 181V176.545H110.833V178.264H113.065V176.545H114.055V181H113.065V179.083H110.833V181H109.843ZM116.67 181.135C116.361 181.135 116.09 181.078 115.856 180.964C115.622 180.847 115.439 180.683 115.307 180.473C115.178 180.26 115.113 180.01 115.113 179.722C115.113 179.479 115.175 179.26 115.298 179.065C115.421 178.867 115.611 178.703 115.869 178.574C116.13 178.445 116.465 178.36 116.873 178.318C117.281 178.273 117.771 178.279 118.344 178.336L118.362 179.02C117.954 178.963 117.603 178.939 117.309 178.948C117.015 178.957 116.774 178.994 116.585 179.06C116.399 179.123 116.261 179.209 116.171 179.317C116.084 179.422 116.04 179.543 116.04 179.681C116.04 179.897 116.117 180.064 116.27 180.181C116.426 180.298 116.639 180.356 116.909 180.356C117.14 180.356 117.347 180.314 117.53 180.23C117.713 180.146 117.857 180.028 117.962 179.875C118.07 179.722 118.124 179.542 118.124 179.335V178.151C118.124 177.953 118.082 177.782 117.998 177.638C117.914 177.491 117.786 177.377 117.615 177.296C117.444 177.215 117.231 177.175 116.976 177.175C116.742 177.175 116.511 177.211 116.283 177.283C116.055 177.352 115.838 177.461 115.631 177.611L115.352 176.882C115.631 176.693 115.922 176.56 116.225 176.482C116.528 176.404 116.819 176.365 117.098 176.365C117.512 176.365 117.866 176.431 118.16 176.563C118.457 176.692 118.685 176.888 118.844 177.152C119.003 177.413 119.082 177.743 119.082 178.142V181H118.191V180.473C118.041 180.686 117.833 180.85 117.566 180.964C117.299 181.078 117 181.135 116.67 181.135ZM122.605 181V176.545H123.595V178.264H125.827V176.545H126.817V181H125.827V179.083H123.595V181H122.605ZM130.228 181.135C129.748 181.135 129.327 181.038 128.964 180.842C128.601 180.644 128.317 180.368 128.113 180.014C127.912 179.66 127.812 179.249 127.812 178.781C127.812 178.439 127.87 178.124 127.987 177.836C128.104 177.545 128.269 177.293 128.482 177.08C128.695 176.867 128.944 176.702 129.229 176.585C129.517 176.468 129.831 176.41 130.17 176.41C130.539 176.41 130.867 176.476 131.155 176.608C131.443 176.737 131.682 176.918 131.871 177.152C132.063 177.386 132.198 177.661 132.276 177.976C132.357 178.288 132.37 178.627 132.316 178.993H128.761C128.755 179.26 128.814 179.494 128.937 179.695C129.06 179.893 129.235 180.047 129.463 180.158C129.694 180.269 129.966 180.325 130.278 180.325C130.53 180.325 130.773 180.287 131.007 180.212C131.244 180.134 131.458 180.02 131.65 179.87L132.033 180.581C131.889 180.698 131.715 180.799 131.511 180.883C131.307 180.964 131.094 181.026 130.872 181.068C130.65 181.113 130.435 181.135 130.228 181.135ZM128.82 178.264H131.344C131.335 177.928 131.227 177.664 131.02 177.472C130.816 177.28 130.525 177.184 130.147 177.184C129.781 177.184 129.477 177.28 129.234 177.472C128.994 177.664 128.856 177.928 128.82 178.264ZM129.171 175.757C129.009 175.757 128.865 175.7 128.739 175.586C128.616 175.472 128.554 175.327 128.554 175.15C128.554 175.03 128.583 174.923 128.64 174.83C128.697 174.737 128.772 174.665 128.865 174.614C128.961 174.563 129.063 174.538 129.171 174.538C129.336 174.538 129.48 174.595 129.603 174.709C129.729 174.823 129.792 174.97 129.792 175.15C129.792 175.27 129.763 175.376 129.706 175.469C129.649 175.559 129.573 175.63 129.477 175.681C129.384 175.732 129.282 175.757 129.171 175.757ZM131.119 175.757C130.957 175.757 130.813 175.7 130.687 175.586C130.564 175.472 130.503 175.327 130.503 175.15C130.503 175.03 130.531 174.923 130.588 174.83C130.645 174.737 130.72 174.665 130.813 174.614C130.909 174.563 131.011 174.538 131.119 174.538C131.284 174.538 131.428 174.595 131.551 174.709C131.677 174.823 131.74 174.97 131.74 175.15C131.74 175.27 131.712 175.376 131.655 175.469C131.598 175.559 131.521 175.63 131.425 175.681C131.332 175.732 131.23 175.757 131.119 175.757ZM133.345 181V176.545H134.204H134.231L136.229 179.434L135.802 179.443L137.701 176.545H138.578V181H137.678L137.692 177.706L137.876 177.787L136.283 180.113H135.644L133.979 177.782L134.164 177.701L134.177 181H133.345Z" fill="white"/>
<rect x="1" y="1" width="148" height="198" rx="15" stroke="black" stroke-width="2"/>
<path d="M40 78.283L40.4363 72.6541L75.8796 58.1667L111 28.2672L110.564 33.8959L106.544 39.8684L106.325 45.5609L105.889 51.1896L103.698 57.8189L94.0552 63.2952L90.1107 66.4656L91.2795 74.68L85.7278 77.9947L86.8966 84.4799L81.3449 87.7945L80.6146 95.0001L40 78.283Z" fill="#8F8E1B"/>
<path d="M87.3327 78.8508L86.8963 84.4797L81.3447 87.7944L81.781 82.1655L87.3327 78.8508Z" fill="#7A7221"/>
<path d="M91.7155 69.051L91.2793 74.6798L85.7277 77.9944L86.1639 72.3657L91.7155 69.051Z" fill="#7A7221"/>
<path d="M61.6201 24.2319L58.5521 14.8645L62.7888 14L68.9249 21.3498L81.489 18.7556L90.985 21.3498L100.627 31.0054L108.662 24.5202L111 28.2672L106.763 34.1758L106.325 45.5608L104.134 52.1899L94.4913 57.6664L90.5468 60.8368L91.7155 69.0513L86.1639 72.3659L87.3328 78.8509L81.7811 82.1656L81.0506 89.3713L61.6201 81.7332L40.4364 72.654L46.2802 69.1953L44.0888 64.4395L49.9325 60.8368L47.4489 54.3517L56.3607 49.74L53.4388 44.6961L49.6403 38.4992L53.0005 32.8789L59.4287 27.5467L61.6201 24.2319Z" fill="#EADD32"/>
<path d="M104.134 52.1899L103.697 57.8188L105.889 51.1895L106.325 45.5608L104.134 52.1899Z" fill="#7A7221"/>
<path d="M111 28.2672L110.564 33.8959L106.544 39.8684L106.763 34.1758L111 28.2672Z" fill="#7A7221"/>
<path d="M70.8583 29.3613L65.1805 34.7924L68.4496 40.3929L75.3315 38.0169L76.3639 32.4162L70.8583 29.3613Z" fill="#7B7815"/>
<path d="M88.4558 36.3744L82.7781 41.8054L86.047 47.4059L92.9291 45.03L93.9614 39.4293L88.4558 36.3744Z" fill="#7B7815"/>
<path d="M14 84L40.5 54.5V75.5L96 70.5L92.5 52L126.5 77L103 107.5L100.5 86.5L44.5 92L47 110L14 84Z" fill="black" stroke="#FAF448" stroke-width="2"/>
</g>
<defs>
<filter id="filter0_b_2_882" x="-4" y="114" width="158" height="90" filterUnits="userSpaceOnUse" color-interpolation-filters="sRGB">
<feFlood flood-opacity="0" result="BackgroundImageFix"/>
<feGaussianBlur in="BackgroundImageFix" stdDeviation="2"/>
<feComposite in2="SourceAlpha" operator="in" result="effect1_backgroundBlur_2_882"/>
<feBlend mode="normal" in="SourceGraphic" in2="effect1_backgroundBlur_2_882" result="shape"/>
</filter>
<clipPath id="clip0_2_882">
<rect width="150" height="200" rx="16" fill="white"/>
</clipPath>
</defs>
</svg>
