<svg width="150" height="200" viewBox="0 0 150 200" fill="none" xmlns="http://www.w3.org/2000/svg">
<g clip-path="url(#clip0_2_1008)">
<rect width="150" height="200" fill="#50006B"/>
<g filter="url(#filter0_b_2_1008)">
<rect y="118" width="150" height="82" fill="black" fill-opacity="0.5"/>
</g>
<path d="M6.89771 138.363V137.406C6.19004 137.38 5.56304 137.234 5.01671 136.966C4.47038 136.695 4.04321 136.315 3.73521 135.827C3.42721 135.34 3.27321 134.762 3.27321 134.095C3.27321 133.428 3.42721 132.85 3.73521 132.362C4.04321 131.875 4.47038 131.495 5.01671 131.224C5.56304 130.953 6.19004 130.804 6.89771 130.778V129.854H8.49821V130.778C9.20588 130.804 9.83288 130.953 10.3792 131.224C10.9255 131.495 11.3527 131.875 11.6607 132.362C11.9687 132.85 12.1227 133.428 12.1227 134.095C12.1227 134.762 11.9687 135.34 11.6607 135.827C11.3527 136.315 10.9255 136.695 10.3792 136.966C9.83288 137.234 9.20588 137.38 8.49821 137.406V138.363H6.89771ZM6.89771 136.047V132.137C6.48704 132.155 6.13321 132.245 5.83621 132.406C5.53921 132.568 5.31004 132.791 5.14871 133.077C4.98738 133.363 4.90671 133.703 4.90671 134.095C4.90671 134.491 4.98738 134.832 5.14871 135.118C5.31004 135.4 5.53921 135.622 5.83621 135.783C6.13321 135.941 6.48704 136.029 6.89771 136.047ZM8.49821 136.047C8.90888 136.029 9.26271 135.941 9.55971 135.783C9.86038 135.622 10.0895 135.4 10.2472 135.118C10.4049 134.832 10.4837 134.491 10.4837 134.095C10.4837 133.703 10.4049 133.363 10.2472 133.077C10.0895 132.791 9.86038 132.568 9.55971 132.406C9.26271 132.245 8.90888 132.155 8.49821 132.137V136.047ZM13.4747 138V130.3H15.0862V135.404L18.4522 130.3H20.0582V138H18.4412V132.846L15.0697 138H13.4747ZM25.5368 138.165C24.9501 138.165 24.4074 138.064 23.9088 137.862C23.4101 137.657 22.9774 137.373 22.6108 137.01C22.2441 136.647 21.9581 136.222 21.7528 135.734C21.5511 135.246 21.4503 134.718 21.4503 134.15C21.4503 133.578 21.5511 133.048 21.7528 132.56C21.9581 132.073 22.2441 131.647 22.6108 131.284C22.9774 130.921 23.4101 130.639 23.9088 130.437C24.4074 130.236 24.9501 130.135 25.5368 130.135C26.1234 130.135 26.6643 130.238 27.1593 130.443C27.6579 130.648 28.0906 130.934 28.4573 131.301C28.8276 131.668 29.1154 132.095 29.3208 132.582C29.5261 133.066 29.6288 133.589 29.6288 134.15C29.6288 134.718 29.5261 135.246 29.3208 135.734C29.1154 136.222 28.8276 136.647 28.4573 137.01C28.0906 137.373 27.6579 137.657 27.1593 137.862C26.6643 138.064 26.1234 138.165 25.5368 138.165ZM25.5368 136.636C25.8778 136.636 26.1931 136.577 26.4828 136.46C26.7724 136.343 27.0254 136.176 27.2418 135.959C27.4581 135.739 27.6249 135.477 27.7423 135.173C27.8633 134.869 27.9238 134.528 27.9238 134.15C27.9238 133.648 27.8193 133.211 27.6103 132.841C27.4013 132.467 27.1171 132.177 26.7578 131.972C26.3984 131.767 25.9914 131.664 25.5368 131.664C25.1994 131.664 24.8841 131.723 24.5908 131.84C24.3011 131.957 24.0481 132.124 23.8318 132.34C23.6191 132.557 23.4523 132.819 23.3313 133.127C23.2139 133.431 23.1553 133.772 23.1553 134.15C23.1553 134.652 23.2598 135.09 23.4688 135.464C23.6778 135.835 23.9619 136.123 24.3213 136.328C24.6806 136.533 25.0858 136.636 25.5368 136.636ZM30.7013 138.143L30.1458 136.652C30.3951 136.575 30.6059 136.487 30.7783 136.388C30.9543 136.286 31.0991 136.148 31.2128 135.976C31.3301 135.804 31.4218 135.576 31.4878 135.294C31.5538 135.012 31.5996 134.652 31.6253 134.216C31.6509 133.78 31.6638 133.244 31.6638 132.61V130.3H37.3233V138H35.6953V131.785H33.2093V132.538C33.2093 133.33 33.1836 134.018 33.1323 134.601C33.0846 135.18 33.0039 135.675 32.8903 136.086C32.7766 136.493 32.6226 136.832 32.4283 137.103C32.2376 137.371 31.9993 137.587 31.7133 137.752C31.4309 137.917 31.0936 138.048 30.7013 138.143ZM39.2022 138V130.3H44.4657V131.719H40.8302V133.369H43.9102V134.683H40.8302V136.564H44.5097V138H39.2022ZM47.4954 138V131.785H45.4054V130.3H51.2244V131.785H49.1344V138H47.4954ZM55.7116 138.165C55.1249 138.165 54.5823 138.064 54.0836 137.862C53.5849 137.657 53.1523 137.373 52.7856 137.01C52.4189 136.647 52.1329 136.222 51.9276 135.734C51.7259 135.246 51.6251 134.718 51.6251 134.15C51.6251 133.578 51.7259 133.048 51.9276 132.56C52.1329 132.073 52.4189 131.647 52.7856 131.284C53.1523 130.921 53.5849 130.639 54.0836 130.437C54.5823 130.236 55.1249 130.135 55.7116 130.135C56.2983 130.135 56.8391 130.238 57.3341 130.443C57.8328 130.648 58.2654 130.934 58.6321 131.301C59.0024 131.668 59.2903 132.095 59.4956 132.582C59.7009 133.066 59.8036 133.589 59.8036 134.15C59.8036 134.718 59.7009 135.246 59.4956 135.734C59.2903 136.222 59.0024 136.647 58.6321 137.01C58.2654 137.373 57.8328 137.657 57.3341 137.862C56.8391 138.064 56.2983 138.165 55.7116 138.165ZM55.7116 136.636C56.0526 136.636 56.3679 136.577 56.6576 136.46C56.9473 136.343 57.2003 136.176 57.4166 135.959C57.6329 135.739 57.7998 135.477 57.9171 135.173C58.0381 134.869 58.0986 134.528 58.0986 134.15C58.0986 133.648 57.9941 133.211 57.7851 132.841C57.5761 132.467 57.2919 132.177 56.9326 131.972C56.5733 131.767 56.1663 131.664 55.7116 131.664C55.3743 131.664 55.0589 131.723 54.7656 131.84C54.4759 131.957 54.2229 132.124 54.0066 132.34C53.7939 132.557 53.6271 132.819 53.5061 133.127C53.3888 133.431 53.3301 133.772 53.3301 134.15C53.3301 134.652 53.4346 135.09 53.6436 135.464C53.8526 135.835 54.1368 136.123 54.4961 136.328C54.8554 136.533 55.2606 136.636 55.7116 136.636ZM61.2022 138V130.3H64.0677C64.8377 130.3 65.4537 130.465 65.9157 130.795C66.3814 131.121 66.6142 131.605 66.6142 132.247C66.6142 132.485 66.5629 132.707 66.4602 132.912C66.3576 133.118 66.2219 133.299 66.0532 133.457C65.8846 133.611 65.6994 133.732 65.4977 133.82C65.9157 133.959 66.2549 134.199 66.5152 134.54C66.7792 134.881 66.9112 135.292 66.9112 135.772C66.9112 136.22 66.7994 136.61 66.5757 136.944C66.3521 137.278 66.0349 137.538 65.6242 137.725C65.2136 137.908 64.7241 138 64.1557 138H61.2022ZM62.8302 136.779H63.9137C64.3537 136.779 64.6819 136.691 64.8982 136.515C65.1146 136.339 65.2227 136.073 65.2227 135.717C65.2227 135.373 65.1164 135.109 64.9037 134.925C64.6911 134.738 64.3721 134.645 63.9467 134.645H62.8302V136.779ZM62.8302 133.501H63.8422C64.0879 133.501 64.2987 133.461 64.4747 133.38C64.6544 133.299 64.7919 133.184 64.8872 133.033C64.9862 132.879 65.0357 132.694 65.0357 132.478C65.0357 132.17 64.9294 131.933 64.7167 131.768C64.5077 131.603 64.2071 131.521 63.8147 131.521H62.8302V133.501ZM68.3565 138V130.3H69.9845V133.028H71.288C71.849 133.028 72.3477 133.127 72.784 133.325C73.2203 133.523 73.5632 133.807 73.8125 134.177C74.0655 134.548 74.192 134.995 74.192 135.519C74.192 135.915 74.126 136.267 73.994 136.575C73.8657 136.883 73.675 137.144 73.422 137.356C73.169 137.569 72.861 137.73 72.498 137.84C72.135 137.947 71.7188 138 71.2495 138H68.3565ZM69.9845 136.63H71.222C71.6437 136.63 71.9718 136.544 72.2065 136.372C72.4448 136.2 72.564 135.925 72.564 135.547C72.564 135.169 72.443 134.891 72.201 134.711C71.959 134.528 71.6363 134.436 71.233 134.436H69.9845V136.63ZM75.2315 138V130.3H76.8595V138H75.2315ZM78.7335 138V130.3H80.345V135.404L83.711 130.3H85.317V138H83.7V132.846L80.3285 138H78.7335ZM82.0225 129.475C81.5825 129.475 81.1975 129.389 80.8675 129.216C80.5375 129.044 80.2808 128.806 80.0975 128.501C79.9178 128.197 79.8335 127.845 79.8445 127.445H81.1535C81.1425 127.739 81.2158 127.975 81.3735 128.155C81.5311 128.331 81.7475 128.419 82.0225 128.419C82.2975 128.419 82.512 128.331 82.666 128.155C82.8236 127.975 82.8951 127.739 82.8805 127.445H84.195C84.206 127.838 84.1198 128.188 83.9365 128.496C83.7531 128.8 83.4965 129.04 83.1665 129.216C82.8365 129.389 82.4551 129.475 82.0225 129.475ZM89.6114 138.143L89.0559 136.652C89.3053 136.575 89.5161 136.487 89.6884 136.388C89.8644 136.286 90.0093 136.148 90.1229 135.976C90.2403 135.804 90.3319 135.576 90.3979 135.294C90.4639 135.012 90.5098 134.652 90.5354 134.216C90.5611 133.78 90.5739 133.244 90.5739 132.61V130.3H96.2334V138H94.6054V131.785H92.1194V132.538C92.1194 133.33 92.0938 134.018 92.0424 134.601C91.9948 135.18 91.9141 135.675 91.8004 136.086C91.6868 136.493 91.5328 136.832 91.3384 137.103C91.1478 137.371 90.9094 137.587 90.6234 137.752C90.3411 137.917 90.0038 138.048 89.6114 138.143ZM98.1124 138V130.3H103.376V131.719H99.7404V133.369H102.82V134.683H99.7404V136.564H103.42V138H98.1124ZM105.02 138V130.3H106.587L109.585 135.239L108.941 135.25L111.801 130.3H113.358V138H111.779L111.807 132.401L112.098 132.505L109.744 136.482H108.633L106.208 132.505L106.483 132.401L106.51 138H105.02ZM115.235 138V130.3H116.803L119.8 135.239L119.157 135.25L122.017 130.3H123.573V138H121.995L122.022 132.401L122.314 132.505L119.96 136.482H118.849L116.423 132.505L116.698 132.401L116.726 138H115.235ZM125.451 138V130.3H127.063V135.404L130.429 130.3H132.035V138H130.418V132.846L127.046 138H125.451ZM133.905 138V130.3H135.533V133.22H138.8V130.3H140.428V138H138.8V134.711H135.533V138H133.905ZM142.306 138V130.3H146.898V131.785H143.934V138H142.306Z" fill="white"/>
<path d="M17.7738 159.279V158.487C17.1948 158.469 16.6818 158.352 16.2348 158.136C15.7878 157.917 15.4383 157.611 15.1863 157.218C14.9343 156.825 14.8083 156.357 14.8083 155.814C14.8083 155.271 14.9343 154.801 15.1863 154.405C15.4383 154.009 15.7878 153.703 16.2348 153.487C16.6818 153.268 17.1948 153.15 17.7738 153.132V152.353H18.7503V153.132C19.3323 153.15 19.8453 153.268 20.2893 153.487C20.7363 153.703 21.0858 154.009 21.3378 154.405C21.5898 154.801 21.7158 155.271 21.7158 155.814C21.7158 156.357 21.5898 156.825 21.3378 157.218C21.0858 157.611 20.7363 157.917 20.2893 158.136C19.8453 158.352 19.3323 158.469 18.7503 158.487V159.279H17.7738ZM17.7738 157.623V153.996C17.3718 154.008 17.0253 154.089 16.7343 154.239C16.4463 154.386 16.2228 154.593 16.0638 154.86C15.9078 155.127 15.8298 155.445 15.8298 155.814C15.8298 156.18 15.9078 156.496 16.0638 156.763C16.2228 157.03 16.4463 157.239 16.7343 157.389C17.0253 157.536 17.3718 157.614 17.7738 157.623ZM18.7503 157.623C19.1523 157.614 19.4988 157.536 19.7898 157.389C20.0808 157.239 20.3043 157.03 20.4603 156.763C20.6193 156.496 20.6988 156.18 20.6988 155.814C20.6988 155.445 20.6193 155.127 20.4603 154.86C20.3043 154.593 20.0808 154.386 19.7898 154.239C19.4988 154.089 19.1523 154.008 18.7503 153.996V157.623ZM22.7871 159V154.545H23.7456V157.551L26.1621 154.545H27.0261V159H26.0721V155.958L23.6331 159H22.7871ZM30.4328 159.135C29.9678 159.135 29.5523 159.029 29.1863 158.815C28.8233 158.599 28.5383 158.313 28.3313 157.956C28.1243 157.596 28.0208 157.201 28.0208 156.772C28.0208 156.454 28.0793 156.154 28.1963 155.872C28.3163 155.587 28.4843 155.335 28.7003 155.116C28.9193 154.897 29.1758 154.725 29.4698 154.599C29.7638 154.473 30.0863 154.41 30.4373 154.41C30.9023 154.41 31.3163 154.518 31.6793 154.734C32.0453 154.947 32.3318 155.233 32.5388 155.593C32.7458 155.95 32.8493 156.343 32.8493 156.772C32.8493 157.087 32.7893 157.387 32.6693 157.672C32.5523 157.957 32.3858 158.209 32.1698 158.428C31.9538 158.647 31.6988 158.82 31.4048 158.946C31.1108 159.072 30.7868 159.135 30.4328 159.135ZM30.4328 158.257C30.7088 158.257 30.9533 158.197 31.1663 158.077C31.3823 157.954 31.5518 157.782 31.6748 157.56C31.7978 157.338 31.8593 157.075 31.8593 156.772C31.8593 156.469 31.7978 156.207 31.6748 155.985C31.5518 155.76 31.3823 155.587 31.1663 155.467C30.9533 155.347 30.7088 155.287 30.4328 155.287C30.1568 155.287 29.9108 155.347 29.6948 155.467C29.4818 155.587 29.3138 155.76 29.1908 155.985C29.0708 156.207 29.0108 156.469 29.0108 156.772C29.0108 157.075 29.0723 157.338 29.1953 157.56C29.3183 157.782 29.4863 157.954 29.6993 158.077C29.9153 158.197 30.1598 158.257 30.4328 158.257ZM33.6818 159.077L33.3353 158.185C33.6413 158.107 33.8648 157.984 34.0058 157.816C34.1498 157.648 34.2398 157.414 34.2758 157.114C34.3148 156.814 34.3343 156.427 34.3343 155.953V154.545H37.9568V159H36.9668V155.364H35.2568V155.953C35.2568 156.43 35.2343 156.846 35.1893 157.2C35.1473 157.554 35.0693 157.855 34.9553 158.104C34.8413 158.353 34.6808 158.557 34.4738 158.716C34.2698 158.872 34.0058 158.992 33.6818 159.077ZM41.3709 159.135C40.8909 159.135 40.4694 159.038 40.1064 158.842C39.7434 158.644 39.4599 158.368 39.2559 158.014C39.0549 157.66 38.9544 157.249 38.9544 156.781C38.9544 156.439 39.0129 156.124 39.1299 155.836C39.2469 155.545 39.4119 155.293 39.6249 155.08C39.8379 154.867 40.0869 154.702 40.3719 154.585C40.6599 154.468 40.9734 154.41 41.3124 154.41C41.6814 154.41 42.0099 154.476 42.2979 154.608C42.5859 154.737 42.8244 154.918 43.0134 155.152C43.2054 155.386 43.3404 155.661 43.4184 155.976C43.4994 156.288 43.5129 156.627 43.4589 156.993H39.9039C39.8979 157.26 39.9564 157.494 40.0794 157.695C40.2024 157.893 40.3779 158.047 40.6059 158.158C40.8369 158.269 41.1084 158.325 41.4204 158.325C41.6724 158.325 41.9154 158.287 42.1494 158.212C42.3864 158.134 42.6009 158.02 42.7929 157.87L43.1754 158.581C43.0314 158.698 42.8574 158.799 42.6534 158.883C42.4494 158.964 42.2364 159.026 42.0144 159.068C41.7924 159.113 41.5779 159.135 41.3709 159.135ZM39.9624 156.264H42.4869C42.4779 155.928 42.3699 155.664 42.1629 155.472C41.9589 155.28 41.6679 155.184 41.2899 155.184C40.9239 155.184 40.6194 155.28 40.3764 155.472C40.1364 155.664 39.9984 155.928 39.9624 156.264ZM45.4818 159V155.364H44.0193V154.545H47.9388V155.364H46.4718V159H45.4818ZM50.8762 159.135C50.4112 159.135 49.9957 159.029 49.6297 158.815C49.2667 158.599 48.9817 158.313 48.7747 157.956C48.5677 157.596 48.4642 157.201 48.4642 156.772C48.4642 156.454 48.5227 156.154 48.6397 155.872C48.7597 155.587 48.9277 155.335 49.1437 155.116C49.3627 154.897 49.6192 154.725 49.9132 154.599C50.2072 154.473 50.5297 154.41 50.8807 154.41C51.3457 154.41 51.7597 154.518 52.1227 154.734C52.4887 154.947 52.7752 155.233 52.9822 155.593C53.1892 155.95 53.2927 156.343 53.2927 156.772C53.2927 157.087 53.2327 157.387 53.1127 157.672C52.9957 157.957 52.8292 158.209 52.6132 158.428C52.3972 158.647 52.1422 158.82 51.8482 158.946C51.5542 159.072 51.2302 159.135 50.8762 159.135ZM50.8762 158.257C51.1522 158.257 51.3967 158.197 51.6097 158.077C51.8257 157.954 51.9952 157.782 52.1182 157.56C52.2412 157.338 52.3027 157.075 52.3027 156.772C52.3027 156.469 52.2412 156.207 52.1182 155.985C51.9952 155.76 51.8257 155.587 51.6097 155.467C51.3967 155.347 51.1522 155.287 50.8762 155.287C50.6002 155.287 50.3542 155.347 50.1382 155.467C49.9252 155.587 49.7572 155.76 49.6342 155.985C49.5142 156.207 49.4542 156.469 49.4542 156.772C49.4542 157.075 49.5157 157.338 49.6387 157.56C49.7617 157.782 49.9297 157.954 50.1427 158.077C50.3587 158.197 50.6032 158.257 50.8762 158.257ZM54.2871 159V154.545H56.4111C56.9151 154.545 57.3186 154.641 57.6216 154.833C57.9246 155.025 58.0761 155.313 58.0761 155.697C58.0761 155.877 58.0326 156.037 57.9456 156.178C57.8586 156.316 57.7386 156.432 57.5856 156.525C57.4326 156.618 57.2541 156.685 57.0501 156.728L57.0321 156.507C57.4251 156.561 57.7296 156.691 57.9456 156.898C58.1616 157.105 58.2696 157.368 58.2696 157.686C58.2696 157.956 58.1991 158.19 58.0581 158.388C57.9171 158.583 57.7146 158.734 57.4506 158.842C57.1866 158.947 56.8701 159 56.5011 159H54.2871ZM55.2456 158.266H56.3661C56.6631 158.266 56.8911 158.217 57.0501 158.118C57.2121 158.019 57.2931 157.87 57.2931 157.672C57.2931 157.477 57.2136 157.332 57.0546 157.236C56.8956 157.137 56.6661 157.087 56.3661 157.087H55.1151V156.381H56.2626C56.5416 156.381 56.7576 156.339 56.9106 156.255C57.0636 156.168 57.1401 156.027 57.1401 155.832C57.1401 155.637 57.0636 155.496 56.9106 155.409C56.7576 155.319 56.5416 155.274 56.2626 155.274H55.2456V158.266ZM59.3848 159V154.545H60.3748V158.248H61.1803C61.5043 158.248 61.7488 158.185 61.9138 158.059C62.0788 157.933 62.1613 157.746 62.1613 157.497C62.1613 157.251 62.0848 157.062 61.9318 156.93C61.7788 156.798 61.5538 156.732 61.2568 156.732H60.2398V155.989H61.3333C61.9093 155.989 62.3623 156.118 62.6923 156.376C63.0223 156.634 63.1873 157.008 63.1873 157.497C63.1873 157.812 63.1078 158.082 62.9488 158.307C62.7898 158.529 62.5663 158.7 62.2783 158.82C61.9933 158.94 61.6588 159 61.2748 159H59.3848ZM63.9028 159V154.545H64.8928V159H63.9028ZM66.2666 159V154.545H67.2251V157.551L69.6416 154.545H70.5056V159H69.5516V155.958L67.1126 159H66.2666ZM68.3861 153.78C68.0531 153.78 67.7606 153.711 67.5086 153.573C67.2566 153.435 67.0616 153.244 66.9236 153.001C66.7856 152.758 66.7211 152.479 66.7301 152.164H67.5581C67.5461 152.44 67.6151 152.664 67.7651 152.835C67.9181 153.003 68.1251 153.087 68.3861 153.087C68.6471 153.087 68.8526 153.003 69.0026 152.835C69.1526 152.664 69.2201 152.44 69.2051 152.164H70.0376C70.0436 152.476 69.9761 152.754 69.8351 152.997C69.6971 153.24 69.5021 153.432 69.2501 153.573C69.0011 153.711 68.7131 153.78 68.3861 153.78ZM73.9269 159.077L73.5804 158.185C73.8864 158.107 74.1099 157.984 74.2509 157.816C74.3949 157.648 74.4849 157.414 74.5209 157.114C74.5599 156.814 74.5794 156.427 74.5794 155.953V154.545H78.2019V159H77.2119V155.364H75.5019V155.953C75.5019 156.43 75.4794 156.846 75.4344 157.2C75.3924 157.554 75.3144 157.855 75.2004 158.104C75.0864 158.353 74.9259 158.557 74.7189 158.716C74.5149 158.872 74.2509 158.992 73.9269 159.077ZM81.6161 159.135C81.1361 159.135 80.7146 159.038 80.3516 158.842C79.9886 158.644 79.7051 158.368 79.5011 158.014C79.3001 157.66 79.1996 157.249 79.1996 156.781C79.1996 156.439 79.2581 156.124 79.3751 155.836C79.4921 155.545 79.6571 155.293 79.8701 155.08C80.0831 154.867 80.3321 154.702 80.6171 154.585C80.9051 154.468 81.2186 154.41 81.5576 154.41C81.9266 154.41 82.2551 154.476 82.5431 154.608C82.8311 154.737 83.0696 154.918 83.2586 155.152C83.4506 155.386 83.5856 155.661 83.6636 155.976C83.7446 156.288 83.7581 156.627 83.7041 156.993H80.1491C80.1431 157.26 80.2016 157.494 80.3246 157.695C80.4476 157.893 80.6231 158.047 80.8511 158.158C81.0821 158.269 81.3536 158.325 81.6656 158.325C81.9176 158.325 82.1606 158.287 82.3946 158.212C82.6316 158.134 82.8461 158.02 83.0381 157.87L83.4206 158.581C83.2766 158.698 83.1026 158.799 82.8986 158.883C82.6946 158.964 82.4816 159.026 82.2596 159.068C82.0376 159.113 81.8231 159.135 81.6161 159.135ZM80.2076 156.264H82.7321C82.7231 155.928 82.6151 155.664 82.4081 155.472C82.2041 155.28 81.9131 155.184 81.5351 155.184C81.1691 155.184 80.8646 155.28 80.6216 155.472C80.3816 155.664 80.2436 155.928 80.2076 156.264ZM84.7324 159V154.545H85.5919H85.6189L87.6169 157.434L87.1894 157.443L89.0884 154.545H89.9659V159H89.0659L89.0794 155.706L89.2639 155.787L87.6709 158.113H87.0319L85.3669 155.782L85.5514 155.701L85.5649 159H84.7324ZM91.3418 159V154.545H92.2013H92.2283L94.2263 157.434L93.7988 157.443L95.6978 154.545H96.5753V159H95.6753L95.6888 155.706L95.8733 155.787L94.2803 158.113H93.6413L91.9763 155.782L92.1608 155.701L92.1743 159H91.3418ZM97.9512 159V154.545H98.9097V157.551L101.326 154.545H102.19V159H101.236V155.958L98.7972 159H97.9512ZM103.567 159V154.545H104.557V156.264H106.789V154.545H107.779V159H106.789V157.083H104.557V159H103.567ZM109.157 159V154.545H112.091V155.364H110.147V159H109.157ZM115.213 159V154.545H116.171V157.551L118.588 154.545H119.452V159H118.498V155.958L116.059 159H115.213ZM124.065 159V155.364H122.265V155.953C122.265 156.358 122.241 156.724 122.193 157.051C122.145 157.378 122.059 157.666 121.936 157.915C121.813 158.161 121.641 158.365 121.419 158.527C121.2 158.689 120.919 158.808 120.577 158.883L120.334 158.212C120.619 158.143 120.834 158.014 120.978 157.825C121.122 157.636 121.218 157.387 121.266 157.078C121.317 156.766 121.342 156.391 121.342 155.953V154.545H125.055V159H124.065ZM120.334 160.35V158.212L120.946 158.275L121.099 158.181H125.95V160.35H125.046V159H121.239V160.35H120.334ZM128.787 159.135C128.307 159.135 127.885 159.038 127.522 158.842C127.159 158.644 126.876 158.368 126.672 158.014C126.471 157.66 126.37 157.249 126.37 156.781C126.37 156.439 126.429 156.124 126.546 155.836C126.663 155.545 126.828 155.293 127.041 155.08C127.254 154.867 127.503 154.702 127.788 154.585C128.076 154.468 128.389 154.41 128.728 154.41C129.097 154.41 129.426 154.476 129.714 154.608C130.002 154.737 130.24 154.918 130.429 155.152C130.621 155.386 130.756 155.661 130.834 155.976C130.915 156.288 130.929 156.627 130.875 156.993H127.32C127.314 157.26 127.372 157.494 127.495 157.695C127.618 157.893 127.794 158.047 128.022 158.158C128.253 158.269 128.524 158.325 128.836 158.325C129.088 158.325 129.331 158.287 129.565 158.212C129.802 158.134 130.017 158.02 130.209 157.87L130.591 158.581C130.447 158.698 130.273 158.799 130.069 158.883C129.865 158.964 129.652 159.026 129.43 159.068C129.208 159.113 128.994 159.135 128.787 159.135ZM127.378 156.264H129.903C129.894 155.928 129.786 155.664 129.579 155.472C129.375 155.28 129.084 155.184 128.706 155.184C128.34 155.184 128.035 155.28 127.792 155.472C127.552 155.664 127.414 155.928 127.378 156.264ZM127.729 153.757C127.567 153.757 127.423 153.7 127.297 153.586C127.174 153.472 127.113 153.327 127.113 153.15C127.113 153.03 127.141 152.923 127.198 152.83C127.255 152.737 127.33 152.665 127.423 152.614C127.519 152.563 127.621 152.538 127.729 152.538C127.894 152.538 128.038 152.595 128.161 152.709C128.287 152.823 128.35 152.97 128.35 153.15C128.35 153.27 128.322 153.376 128.265 153.469C128.208 153.559 128.131 153.63 128.035 153.681C127.942 153.732 127.84 153.757 127.729 153.757ZM129.678 153.757C129.516 153.757 129.372 153.7 129.246 153.586C129.123 153.472 129.061 153.327 129.061 153.15C129.061 153.03 129.09 152.923 129.147 152.83C129.204 152.737 129.279 152.665 129.372 152.614C129.468 152.563 129.57 152.538 129.678 152.538C129.843 152.538 129.987 152.595 130.11 152.709C130.236 152.823 130.299 152.97 130.299 153.15C130.299 153.27 130.27 153.376 130.213 153.469C130.156 153.559 130.08 153.63 129.984 153.681C129.891 153.732 129.789 153.757 129.678 153.757ZM132.898 159V155.364H131.435V154.545H135.355V155.364H133.888V159H132.898ZM14.6089 170V165.545H15.5989V167.264H17.8309V165.545H18.8209V170H17.8309V168.083H15.5989V170H14.6089ZM21.4363 170.135C21.1273 170.135 20.8558 170.078 20.6218 169.964C20.3878 169.847 20.2048 169.683 20.0728 169.473C19.9438 169.26 19.8793 169.01 19.8793 168.722C19.8793 168.479 19.9408 168.26 20.0638 168.065C20.1868 167.867 20.3773 167.703 20.6353 167.574C20.8963 167.445 21.2308 167.36 21.6388 167.318C22.0468 167.273 22.5373 167.279 23.1103 167.336L23.1283 168.02C22.7203 167.963 22.3693 167.939 22.0753 167.948C21.7813 167.957 21.5398 167.994 21.3508 168.06C21.1648 168.123 21.0268 168.209 20.9368 168.317C20.8498 168.422 20.8063 168.543 20.8063 168.681C20.8063 168.897 20.8828 169.064 21.0358 169.181C21.1918 169.298 21.4048 169.356 21.6748 169.356C21.9058 169.356 22.1128 169.314 22.2958 169.23C22.4788 169.146 22.6228 169.028 22.7278 168.875C22.8358 168.722 22.8898 168.542 22.8898 168.335V167.151C22.8898 166.953 22.8478 166.782 22.7638 166.638C22.6798 166.491 22.5523 166.377 22.3813 166.296C22.2103 166.215 21.9973 166.175 21.7423 166.175C21.5083 166.175 21.2773 166.211 21.0493 166.283C20.8213 166.352 20.6038 166.461 20.3968 166.611L20.1178 165.882C20.3968 165.693 20.6878 165.56 20.9908 165.482C21.2938 165.404 21.5848 165.365 21.8638 165.365C22.2778 165.365 22.6318 165.431 22.9258 165.563C23.2228 165.692 23.4508 165.888 23.6098 166.152C23.7688 166.413 23.8483 166.743 23.8483 167.142V170H22.9573V169.473C22.8073 169.686 22.5988 169.85 22.3318 169.964C22.0648 170.078 21.7663 170.135 21.4363 170.135ZM28.6486 170V164.762L27.0151 165.36L26.7541 164.577L29.5126 163.565H29.5846V170H28.6486ZM33.479 170V165.545H37.6865V170H36.6965V166.364H34.469V170H33.479ZM41.0896 170.135C40.6246 170.135 40.2091 170.029 39.8431 169.815C39.4801 169.599 39.1951 169.313 38.9881 168.956C38.7811 168.596 38.6776 168.201 38.6776 167.772C38.6776 167.454 38.7361 167.154 38.8531 166.872C38.9731 166.587 39.1411 166.335 39.3571 166.116C39.5761 165.897 39.8326 165.725 40.1266 165.599C40.4206 165.473 40.7431 165.41 41.0941 165.41C41.5591 165.41 41.9731 165.518 42.3361 165.734C42.7021 165.947 42.9886 166.233 43.1956 166.593C43.4026 166.95 43.5061 167.343 43.5061 167.772C43.5061 168.087 43.4461 168.387 43.3261 168.672C43.2091 168.957 43.0426 169.209 42.8266 169.428C42.6106 169.647 42.3556 169.82 42.0616 169.946C41.7676 170.072 41.4436 170.135 41.0896 170.135ZM41.0896 169.257C41.3656 169.257 41.6101 169.197 41.8231 169.077C42.0391 168.954 42.2086 168.782 42.3316 168.56C42.4546 168.338 42.5161 168.075 42.5161 167.772C42.5161 167.469 42.4546 167.207 42.3316 166.985C42.2086 166.76 42.0391 166.587 41.8231 166.467C41.6101 166.347 41.3656 166.287 41.0896 166.287C40.8136 166.287 40.5676 166.347 40.3516 166.467C40.1386 166.587 39.9706 166.76 39.8476 166.985C39.7276 167.207 39.6676 167.469 39.6676 167.772C39.6676 168.075 39.7291 168.338 39.8521 168.56C39.9751 168.782 40.1431 168.954 40.3561 169.077C40.5721 169.197 40.8166 169.257 41.0896 169.257ZM44.3385 170.077L43.992 169.185C44.298 169.107 44.5215 168.984 44.6625 168.816C44.8065 168.648 44.8965 168.414 44.9325 168.114C44.9715 167.814 44.991 167.427 44.991 166.953V165.545H48.6135V170H47.6235V166.364H45.9135V166.953C45.9135 167.43 45.891 167.846 45.846 168.2C45.804 168.554 45.726 168.855 45.612 169.104C45.498 169.353 45.3375 169.557 45.1305 169.716C44.9265 169.872 44.6625 169.992 44.3385 170.077ZM52.0277 170.135C51.5477 170.135 51.1262 170.038 50.7632 169.842C50.4002 169.644 50.1167 169.368 49.9127 169.014C49.7117 168.66 49.6112 168.249 49.6112 167.781C49.6112 167.439 49.6697 167.124 49.7867 166.836C49.9037 166.545 50.0687 166.293 50.2817 166.08C50.4947 165.867 50.7437 165.702 51.0287 165.585C51.3167 165.468 51.6302 165.41 51.9692 165.41C52.3382 165.41 52.6667 165.476 52.9547 165.608C53.2427 165.737 53.4812 165.918 53.6702 166.152C53.8622 166.386 53.9972 166.661 54.0752 166.976C54.1562 167.288 54.1697 167.627 54.1157 167.993H50.5607C50.5547 168.26 50.6132 168.494 50.7362 168.695C50.8592 168.893 51.0347 169.047 51.2627 169.158C51.4937 169.269 51.7652 169.325 52.0772 169.325C52.3292 169.325 52.5722 169.287 52.8062 169.212C53.0432 169.134 53.2577 169.02 53.4497 168.87L53.8322 169.581C53.6882 169.698 53.5142 169.799 53.3102 169.883C53.1062 169.964 52.8932 170.026 52.6712 170.068C52.4492 170.113 52.2347 170.135 52.0277 170.135ZM50.6192 167.264H53.1437C53.1347 166.928 53.0267 166.664 52.8197 166.472C52.6157 166.28 52.3247 166.184 51.9467 166.184C51.5807 166.184 51.2762 166.28 51.0332 166.472C50.7932 166.664 50.6552 166.928 50.6192 167.264ZM57.3501 170V165.545H59.4741C59.9781 165.545 60.3816 165.641 60.6846 165.833C60.9876 166.025 61.1391 166.313 61.1391 166.697C61.1391 166.877 61.0956 167.037 61.0086 167.178C60.9216 167.316 60.8016 167.432 60.6486 167.525C60.4956 167.618 60.3171 167.685 60.1131 167.728L60.0951 167.507C60.4881 167.561 60.7926 167.691 61.0086 167.898C61.2246 168.105 61.3326 168.368 61.3326 168.686C61.3326 168.956 61.2621 169.19 61.1211 169.388C60.9801 169.583 60.7776 169.734 60.5136 169.842C60.2496 169.947 59.9331 170 59.5641 170H57.3501ZM58.3086 169.266H59.4291C59.7261 169.266 59.9541 169.217 60.1131 169.118C60.2751 169.019 60.3561 168.87 60.3561 168.672C60.3561 168.477 60.2766 168.332 60.1176 168.236C59.9586 168.137 59.7291 168.087 59.4291 168.087H58.1781V167.381H59.3256C59.6046 167.381 59.8206 167.339 59.9736 167.255C60.1266 167.168 60.2031 167.027 60.2031 166.832C60.2031 166.637 60.1266 166.496 59.9736 166.409C59.8206 166.319 59.6046 166.274 59.3256 166.274H58.3086V169.266ZM62.4478 170V165.545H66.6553V170H65.6653V166.364H63.4378V170H62.4478ZM68.0288 171.89V165.545H68.9198V166.17C69.0968 165.945 69.3233 165.762 69.5993 165.621C69.8753 165.48 70.2158 165.41 70.6208 165.41C71.0558 165.41 71.4413 165.513 71.7773 165.72C72.1163 165.924 72.3803 166.205 72.5693 166.562C72.7583 166.916 72.8528 167.319 72.8528 167.772C72.8528 168.099 72.7988 168.407 72.6908 168.695C72.5828 168.98 72.4283 169.23 72.2273 169.446C72.0293 169.662 71.7923 169.832 71.5163 169.955C71.2433 170.075 70.9403 170.135 70.6073 170.135C70.2593 170.135 69.9533 170.072 69.6893 169.946C69.4253 169.82 69.2003 169.65 69.0143 169.438V171.89H68.0288ZM70.4408 169.257C70.7168 169.257 70.9613 169.197 71.1743 169.077C71.3903 168.954 71.5583 168.782 71.6783 168.56C71.8013 168.338 71.8628 168.075 71.8628 167.772C71.8628 167.469 71.8013 167.207 71.6783 166.985C71.5553 166.76 71.3858 166.587 71.1698 166.467C70.9568 166.347 70.7138 166.287 70.4408 166.287C70.1648 166.287 69.9188 166.347 69.7028 166.467C69.4898 166.587 69.3218 166.76 69.1988 166.985C69.0758 167.207 69.0143 167.469 69.0143 167.772C69.0143 168.075 69.0758 168.338 69.1988 168.56C69.3218 168.782 69.4898 168.954 69.7028 169.077C69.9188 169.197 70.1648 169.257 70.4408 169.257ZM75.0847 170.135C74.7757 170.135 74.5042 170.078 74.2702 169.964C74.0362 169.847 73.8532 169.683 73.7212 169.473C73.5922 169.26 73.5277 169.01 73.5277 168.722C73.5277 168.479 73.5892 168.26 73.7122 168.065C73.8352 167.867 74.0257 167.703 74.2837 167.574C74.5447 167.445 74.8792 167.36 75.2872 167.318C75.6952 167.273 76.1857 167.279 76.7587 167.336L76.7767 168.02C76.3687 167.963 76.0177 167.939 75.7237 167.948C75.4297 167.957 75.1882 167.994 74.9992 168.06C74.8132 168.123 74.6752 168.209 74.5852 168.317C74.4982 168.422 74.4547 168.543 74.4547 168.681C74.4547 168.897 74.5312 169.064 74.6842 169.181C74.8402 169.298 75.0532 169.356 75.3232 169.356C75.5542 169.356 75.7612 169.314 75.9442 169.23C76.1272 169.146 76.2712 169.028 76.3762 168.875C76.4842 168.722 76.5382 168.542 76.5382 168.335V167.151C76.5382 166.953 76.4962 166.782 76.4122 166.638C76.3282 166.491 76.2007 166.377 76.0297 166.296C75.8587 166.215 75.6457 166.175 75.3907 166.175C75.1567 166.175 74.9257 166.211 74.6977 166.283C74.4697 166.352 74.2522 166.461 74.0452 166.611L73.7662 165.882C74.0452 165.693 74.3362 165.56 74.6392 165.482C74.9422 165.404 75.2332 165.365 75.5122 165.365C75.9262 165.365 76.2802 165.431 76.5742 165.563C76.8712 165.692 77.0992 165.888 77.2582 166.152C77.4172 166.413 77.4967 166.743 77.4967 167.142V170H76.6057V169.473C76.4557 169.686 76.2472 169.85 75.9802 169.964C75.7132 170.078 75.4147 170.135 75.0847 170.135ZM78.813 170V165.545H80.937C81.441 165.545 81.8445 165.641 82.1475 165.833C82.4505 166.025 82.602 166.313 82.602 166.697C82.602 166.877 82.5585 167.037 82.4715 167.178C82.3845 167.316 82.2645 167.432 82.1115 167.525C81.9585 167.618 81.78 167.685 81.576 167.728L81.558 167.507C81.951 167.561 82.2555 167.691 82.4715 167.898C82.6875 168.105 82.7955 168.368 82.7955 168.686C82.7955 168.956 82.725 169.19 82.584 169.388C82.443 169.583 82.2405 169.734 81.9765 169.842C81.7125 169.947 81.396 170 81.027 170H78.813ZM79.7715 169.266H80.892C81.189 169.266 81.417 169.217 81.576 169.118C81.738 169.019 81.819 168.87 81.819 168.672C81.819 168.477 81.7395 168.332 81.5805 168.236C81.4215 168.137 81.192 168.087 80.892 168.087H79.641V167.381H80.7885C81.0675 167.381 81.2835 167.339 81.4365 167.255C81.5895 167.168 81.666 167.027 81.666 166.832C81.666 166.637 81.5895 166.496 81.4365 166.409C81.2835 166.319 81.0675 166.274 80.7885 166.274H79.7715V169.266ZM85.9402 170.135C85.4752 170.135 85.0597 170.029 84.6937 169.815C84.3307 169.599 84.0457 169.313 83.8387 168.956C83.6317 168.596 83.5282 168.201 83.5282 167.772C83.5282 167.454 83.5867 167.154 83.7037 166.872C83.8237 166.587 83.9917 166.335 84.2077 166.116C84.4267 165.897 84.6832 165.725 84.9772 165.599C85.2712 165.473 85.5937 165.41 85.9447 165.41C86.4097 165.41 86.8237 165.518 87.1867 165.734C87.5527 165.947 87.8392 166.233 88.0462 166.593C88.2532 166.95 88.3567 167.343 88.3567 167.772C88.3567 168.087 88.2967 168.387 88.1767 168.672C88.0597 168.957 87.8932 169.209 87.6772 169.428C87.4612 169.647 87.2062 169.82 86.9122 169.946C86.6182 170.072 86.2942 170.135 85.9402 170.135ZM85.9402 169.257C86.2162 169.257 86.4607 169.197 86.6737 169.077C86.8897 168.954 87.0592 168.782 87.1822 168.56C87.3052 168.338 87.3667 168.075 87.3667 167.772C87.3667 167.469 87.3052 167.207 87.1822 166.985C87.0592 166.76 86.8897 166.587 86.6737 166.467C86.4607 166.347 86.2162 166.287 85.9402 166.287C85.6642 166.287 85.4182 166.347 85.2022 166.467C84.9892 166.587 84.8212 166.76 84.6982 166.985C84.5782 167.207 84.5182 167.469 84.5182 167.772C84.5182 168.075 84.5797 168.338 84.7027 168.56C84.8257 168.782 84.9937 168.954 85.2067 169.077C85.4227 169.197 85.6672 169.257 85.9402 169.257ZM91.5572 170V165.545H92.5157V168.551L94.9322 165.545H95.7962V170H94.8422V166.958L92.4032 170H91.5572ZM97.0114 170.077L96.6649 169.185C96.9709 169.107 97.1944 168.984 97.3354 168.816C97.4794 168.648 97.5694 168.414 97.6054 168.114C97.6444 167.814 97.6639 167.427 97.6639 166.953V165.545H101.286V170H100.296V166.364H98.5864V166.953C98.5864 167.43 98.5639 167.846 98.5189 168.2C98.4769 168.554 98.3989 168.855 98.2849 169.104C98.1709 169.353 98.0104 169.557 97.8034 169.716C97.5994 169.872 97.3354 169.992 97.0114 170.077ZM102.667 170V165.545H103.625V168.551L106.042 165.545H106.906V170H105.952V166.958L103.513 170H102.667ZM110.489 170V165.545H112.613C113.117 165.545 113.52 165.641 113.823 165.833C114.126 166.025 114.278 166.313 114.278 166.697C114.278 166.877 114.234 167.037 114.147 167.178C114.06 167.316 113.94 167.432 113.787 167.525C113.634 167.618 113.456 167.685 113.252 167.728L113.234 167.507C113.627 167.561 113.931 167.691 114.147 167.898C114.363 168.105 114.471 168.368 114.471 168.686C114.471 168.956 114.401 169.19 114.26 169.388C114.119 169.583 113.916 169.734 113.652 169.842C113.388 169.947 113.072 170 112.703 170H110.489ZM111.447 169.266H112.568C112.865 169.266 113.093 169.217 113.252 169.118C113.414 169.019 113.495 168.87 113.495 168.672C113.495 168.477 113.415 168.332 113.256 168.236C113.097 168.137 112.868 168.087 112.568 168.087H111.317V167.381H112.464C112.743 167.381 112.959 167.339 113.112 167.255C113.265 167.168 113.342 167.027 113.342 166.832C113.342 166.637 113.265 166.496 113.112 166.409C112.959 166.319 112.743 166.274 112.464 166.274H111.447V169.266ZM115.424 170.077L115.078 169.185C115.384 169.107 115.607 168.984 115.748 168.816C115.892 168.648 115.982 168.414 116.018 168.114C116.057 167.814 116.077 167.427 116.077 166.953V165.545H119.699V170H118.709V166.364H116.999V166.953C116.999 167.43 116.977 167.846 116.932 168.2C116.89 168.554 116.812 168.855 116.698 169.104C116.584 169.353 116.423 169.557 116.216 169.716C116.012 169.872 115.748 169.992 115.424 170.077ZM123.114 170.135C122.634 170.135 122.212 170.038 121.849 169.842C121.486 169.644 121.203 169.368 120.999 169.014C120.798 168.66 120.697 168.249 120.697 167.781C120.697 167.439 120.756 167.124 120.873 166.836C120.99 166.545 121.155 166.293 121.368 166.08C121.581 165.867 121.83 165.702 122.115 165.585C122.403 165.468 122.716 165.41 123.055 165.41C123.424 165.41 123.753 165.476 124.041 165.608C124.329 165.737 124.567 165.918 124.756 166.152C124.948 166.386 125.083 166.661 125.161 166.976C125.242 167.288 125.256 167.627 125.202 167.993H121.647C121.641 168.26 121.699 168.494 121.822 168.695C121.945 168.893 122.121 169.047 122.349 169.158C122.58 169.269 122.851 169.325 123.163 169.325C123.415 169.325 123.658 169.287 123.892 169.212C124.129 169.134 124.344 169.02 124.536 168.87L124.918 169.581C124.774 169.698 124.6 169.799 124.396 169.883C124.192 169.964 123.979 170.026 123.757 170.068C123.535 170.113 123.321 170.135 123.114 170.135ZM121.705 167.264H124.23C124.221 166.928 124.113 166.664 123.906 166.472C123.702 166.28 123.411 166.184 123.033 166.184C122.667 166.184 122.362 166.28 122.119 166.472C121.879 166.664 121.741 166.928 121.705 167.264ZM126.23 170V165.545H128.354C128.858 165.545 129.262 165.641 129.565 165.833C129.868 166.025 130.019 166.313 130.019 166.697C130.019 166.877 129.976 167.037 129.889 167.178C129.802 167.316 129.682 167.432 129.529 167.525C129.376 167.618 129.197 167.685 128.993 167.728L128.975 167.507C129.368 167.561 129.673 167.691 129.889 167.898C130.105 168.105 130.213 168.368 130.213 168.686C130.213 168.956 130.142 169.19 130.001 169.388C129.86 169.583 129.658 169.734 129.394 169.842C129.13 169.947 128.813 170 128.444 170H126.23ZM127.189 169.266H128.309C128.606 169.266 128.834 169.217 128.993 169.118C129.155 169.019 129.236 168.87 129.236 168.672C129.236 168.477 129.157 168.332 128.998 168.236C128.839 168.137 128.609 168.087 128.309 168.087H127.058V167.381H128.206C128.485 167.381 128.701 167.339 128.854 167.255C129.007 167.168 129.083 167.027 129.083 166.832C129.083 166.637 129.007 166.496 128.854 166.409C128.701 166.319 128.485 166.274 128.206 166.274H127.189V169.266ZM133.357 170.135C132.892 170.135 132.477 170.029 132.111 169.815C131.748 169.599 131.463 169.313 131.256 168.956C131.049 168.596 130.945 168.201 130.945 167.772C130.945 167.454 131.004 167.154 131.121 166.872C131.241 166.587 131.409 166.335 131.625 166.116C131.844 165.897 132.1 165.725 132.394 165.599C132.688 165.473 133.011 165.41 133.362 165.41C133.827 165.41 134.241 165.518 134.604 165.734C134.97 165.947 135.256 166.233 135.463 166.593C135.67 166.95 135.774 167.343 135.774 167.772C135.774 168.087 135.714 168.387 135.594 168.672C135.477 168.957 135.31 169.209 135.094 169.428C134.878 169.647 134.623 169.82 134.329 169.946C134.035 170.072 133.711 170.135 133.357 170.135ZM133.357 169.257C133.633 169.257 133.878 169.197 134.091 169.077C134.307 168.954 134.476 168.782 134.599 168.56C134.722 168.338 134.784 168.075 134.784 167.772C134.784 167.469 134.722 167.207 134.599 166.985C134.476 166.76 134.307 166.587 134.091 166.467C133.878 166.347 133.633 166.287 133.357 166.287C133.081 166.287 132.835 166.347 132.619 166.467C132.406 166.587 132.238 166.76 132.115 166.985C131.995 167.207 131.935 167.469 131.935 167.772C131.935 168.075 131.997 168.338 132.12 168.56C132.243 168.782 132.411 168.954 132.624 169.077C132.84 169.197 133.084 169.257 133.357 169.257ZM11.4229 181V176.545H13.5469C14.0509 176.545 14.4544 176.641 14.7574 176.833C15.0604 177.025 15.2119 177.313 15.2119 177.697C15.2119 177.877 15.1684 178.037 15.0814 178.178C14.9944 178.316 14.8744 178.432 14.7214 178.525C14.5684 178.618 14.3899 178.685 14.1859 178.728L14.1679 178.507C14.5609 178.561 14.8654 178.691 15.0814 178.898C15.2974 179.105 15.4054 179.368 15.4054 179.686C15.4054 179.956 15.3349 180.19 15.1939 180.388C15.0529 180.583 14.8504 180.734 14.5864 180.842C14.3224 180.947 14.0059 181 13.6369 181H11.4229ZM12.3814 180.266H13.5019C13.7989 180.266 14.0269 180.217 14.1859 180.118C14.3479 180.019 14.4289 179.87 14.4289 179.672C14.4289 179.477 14.3494 179.332 14.1904 179.236C14.0314 179.137 13.8019 179.087 13.5019 179.087H12.2509V178.381H13.3984C13.6774 178.381 13.8934 178.339 14.0464 178.255C14.1994 178.168 14.2759 178.027 14.2759 177.832C14.2759 177.637 14.1994 177.496 14.0464 177.409C13.8934 177.319 13.6774 177.274 13.3984 177.274H12.3814V180.266ZM16.5205 181V176.545H17.38H17.407L19.405 179.434L18.9775 179.443L20.8765 176.545H21.754V181H20.854L20.8675 177.706L21.052 177.787L19.459 180.113H18.82L17.155 177.782L17.3395 177.701L17.353 181H16.5205ZM25.1639 181.135C24.6839 181.135 24.2624 181.038 23.8994 180.842C23.5364 180.644 23.2529 180.368 23.0489 180.014C22.8479 179.66 22.7474 179.249 22.7474 178.781C22.7474 178.439 22.8059 178.124 22.9229 177.836C23.0399 177.545 23.2049 177.293 23.4179 177.08C23.6309 176.867 23.8799 176.702 24.1649 176.585C24.4529 176.468 24.7664 176.41 25.1054 176.41C25.4744 176.41 25.8029 176.476 26.0909 176.608C26.3789 176.737 26.6174 176.918 26.8064 177.152C26.9984 177.386 27.1334 177.661 27.2114 177.976C27.2924 178.288 27.3059 178.627 27.2519 178.993H23.6969C23.6909 179.26 23.7494 179.494 23.8724 179.695C23.9954 179.893 24.1709 180.047 24.3989 180.158C24.6299 180.269 24.9014 180.325 25.2134 180.325C25.4654 180.325 25.7084 180.287 25.9424 180.212C26.1794 180.134 26.3939 180.02 26.5859 179.87L26.9684 180.581C26.8244 180.698 26.6504 180.799 26.4464 180.883C26.2424 180.964 26.0294 181.026 25.8074 181.068C25.5854 181.113 25.3709 181.135 25.1639 181.135ZM23.7554 178.264H26.2799C26.2709 177.928 26.1629 177.664 25.9559 177.472C25.7519 177.28 25.4609 177.184 25.0829 177.184C24.7169 177.184 24.4124 177.28 24.1694 177.472C23.9294 177.664 23.7914 177.928 23.7554 178.264ZM30.3672 181.135C29.8992 181.135 29.4822 181.033 29.1162 180.829C28.7502 180.622 28.4622 180.341 28.2522 179.987C28.0452 179.63 27.9417 179.225 27.9417 178.772C27.9417 178.43 28.0032 178.117 28.1262 177.832C28.2492 177.544 28.4232 177.293 28.6482 177.08C28.8732 176.867 29.1372 176.702 29.4402 176.585C29.7462 176.468 30.0777 176.41 30.4347 176.41C30.7347 176.41 31.0122 176.45 31.2672 176.531C31.5252 176.609 31.7622 176.731 31.9782 176.896L31.5012 177.652C31.3632 177.529 31.2042 177.437 31.0242 177.377C30.8472 177.317 30.6582 177.287 30.4572 177.287C30.1452 177.287 29.8767 177.346 29.6517 177.463C29.4267 177.58 29.2512 177.749 29.1252 177.971C29.0022 178.19 28.9407 178.456 28.9407 178.768C28.9407 179.233 29.0757 179.597 29.3457 179.861C29.6187 180.125 29.9892 180.257 30.4572 180.257C30.6792 180.257 30.8892 180.217 31.0872 180.136C31.2852 180.052 31.4502 179.942 31.5822 179.807L32.0547 180.559C31.8177 180.739 31.5537 180.88 31.2627 180.982C30.9717 181.084 30.6732 181.135 30.3672 181.135ZM33.9594 181V177.364H32.4969V176.545H36.4164V177.364H34.9494V181H33.9594ZM39.3582 181.135C38.8782 181.135 38.4567 181.038 38.0937 180.842C37.7307 180.644 37.4472 180.368 37.2432 180.014C37.0422 179.66 36.9417 179.249 36.9417 178.781C36.9417 178.439 37.0002 178.124 37.1172 177.836C37.2342 177.545 37.3992 177.293 37.6122 177.08C37.8252 176.867 38.0742 176.702 38.3592 176.585C38.6472 176.468 38.9607 176.41 39.2997 176.41C39.6687 176.41 39.9972 176.476 40.2852 176.608C40.5732 176.737 40.8117 176.918 41.0007 177.152C41.1927 177.386 41.3277 177.661 41.4057 177.976C41.4867 178.288 41.5002 178.627 41.4462 178.993H37.8912C37.8852 179.26 37.9437 179.494 38.0667 179.695C38.1897 179.893 38.3652 180.047 38.5932 180.158C38.8242 180.269 39.0957 180.325 39.4077 180.325C39.6597 180.325 39.9027 180.287 40.1367 180.212C40.3737 180.134 40.5882 180.02 40.7802 179.87L41.1627 180.581C41.0187 180.698 40.8447 180.799 40.6407 180.883C40.4367 180.964 40.2237 181.026 40.0017 181.068C39.7797 181.113 39.5652 181.135 39.3582 181.135ZM37.9497 178.264H40.4742C40.4652 177.928 40.3572 177.664 40.1502 177.472C39.9462 177.28 39.6552 177.184 39.2772 177.184C38.9112 177.184 38.6067 177.28 38.3637 177.472C38.1237 177.664 37.9857 177.928 37.9497 178.264ZM46.7237 181.135C46.2557 181.135 45.8387 181.033 45.4727 180.829C45.1067 180.622 44.8187 180.341 44.6087 179.987C44.4017 179.63 44.2982 179.225 44.2982 178.772C44.2982 178.43 44.3597 178.117 44.4827 177.832C44.6057 177.544 44.7797 177.293 45.0047 177.08C45.2297 176.867 45.4937 176.702 45.7967 176.585C46.1027 176.468 46.4342 176.41 46.7912 176.41C47.0912 176.41 47.3687 176.45 47.6237 176.531C47.8817 176.609 48.1187 176.731 48.3347 176.896L47.8577 177.652C47.7197 177.529 47.5607 177.437 47.3807 177.377C47.2037 177.317 47.0147 177.287 46.8137 177.287C46.5017 177.287 46.2332 177.346 46.0082 177.463C45.7832 177.58 45.6077 177.749 45.4817 177.971C45.3587 178.19 45.2972 178.456 45.2972 178.768C45.2972 179.233 45.4322 179.597 45.7022 179.861C45.9752 180.125 46.3457 180.257 46.8137 180.257C47.0357 180.257 47.2457 180.217 47.4437 180.136C47.6417 180.052 47.8067 179.942 47.9387 179.807L48.4112 180.559C48.1742 180.739 47.9102 180.88 47.6192 180.982C47.3282 181.084 47.0297 181.135 46.7237 181.135ZM51.3654 181.077L51.0189 180.185C51.3249 180.107 51.5484 179.984 51.6894 179.816C51.8334 179.648 51.9234 179.414 51.9594 179.114C51.9984 178.814 52.0179 178.427 52.0179 177.953V176.545H55.6404V181H54.6504V177.364H52.9404V177.953C52.9404 178.43 52.9179 178.846 52.8729 179.2C52.8309 179.554 52.7529 179.855 52.6389 180.104C52.5249 180.353 52.3644 180.557 52.1574 180.716C51.9534 180.872 51.6894 180.992 51.3654 181.077ZM59.0545 181.135C58.5745 181.135 58.153 181.038 57.79 180.842C57.427 180.644 57.1435 180.368 56.9395 180.014C56.7385 179.66 56.638 179.249 56.638 178.781C56.638 178.439 56.6965 178.124 56.8135 177.836C56.9305 177.545 57.0955 177.293 57.3085 177.08C57.5215 176.867 57.7705 176.702 58.0555 176.585C58.3435 176.468 58.657 176.41 58.996 176.41C59.365 176.41 59.6935 176.476 59.9815 176.608C60.2695 176.737 60.508 176.918 60.697 177.152C60.889 177.386 61.024 177.661 61.102 177.976C61.183 178.288 61.1965 178.627 61.1425 178.993H57.5875C57.5815 179.26 57.64 179.494 57.763 179.695C57.886 179.893 58.0615 180.047 58.2895 180.158C58.5205 180.269 58.792 180.325 59.104 180.325C59.356 180.325 59.599 180.287 59.833 180.212C60.07 180.134 60.2845 180.02 60.4765 179.87L60.859 180.581C60.715 180.698 60.541 180.799 60.337 180.883C60.133 180.964 59.92 181.026 59.698 181.068C59.476 181.113 59.2615 181.135 59.0545 181.135ZM57.646 178.264H60.1705C60.1615 177.928 60.0535 177.664 59.8465 177.472C59.6425 177.28 59.3515 177.184 58.9735 177.184C58.6075 177.184 58.303 177.28 58.06 177.472C57.82 177.664 57.682 177.928 57.646 178.264ZM62.1709 181V176.545H63.0304H63.0574L65.0554 179.434L64.6279 179.443L66.5269 176.545H67.4044V181H66.5044L66.5179 177.706L66.7024 177.787L65.1094 180.113H64.4704L62.8054 177.782L62.9899 177.701L63.0034 181H62.1709ZM68.7803 181V176.545H69.6398H69.6668L71.6648 179.434L71.2373 179.443L73.1363 176.545H74.0138V181H73.1138L73.1273 177.706L73.3118 177.787L71.7188 180.113H71.0798L69.4148 177.782L69.5993 177.701L69.6128 181H68.7803ZM75.3897 181V176.545H76.3482V179.551L78.7647 176.545H79.6287V181H78.6747V177.958L76.2357 181H75.3897ZM81.0059 181V176.545H81.9959V178.264H84.2279V176.545H85.2179V181H84.2279V179.083H81.9959V181H81.0059ZM86.5957 181V176.545H89.5297V177.364H87.5857V181H86.5957ZM91.6828 181.135C91.3738 181.135 91.1023 181.078 90.8683 180.964C90.6343 180.847 90.4513 180.683 90.3193 180.473C90.1903 180.26 90.1258 180.01 90.1258 179.722C90.1258 179.479 90.1873 179.26 90.3103 179.065C90.4333 178.867 90.6238 178.703 90.8818 178.574C91.1428 178.445 91.4773 178.36 91.8853 178.318C92.2933 178.273 92.7838 178.279 93.3568 178.336L93.3748 179.02C92.9668 178.963 92.6158 178.939 92.3218 178.948C92.0278 178.957 91.7863 178.994 91.5973 179.06C91.4113 179.123 91.2733 179.209 91.1833 179.317C91.0963 179.422 91.0528 179.543 91.0528 179.681C91.0528 179.897 91.1293 180.064 91.2823 180.181C91.4383 180.298 91.6513 180.356 91.9213 180.356C92.1523 180.356 92.3593 180.314 92.5423 180.23C92.7253 180.146 92.8693 180.028 92.9743 179.875C93.0823 179.722 93.1363 179.542 93.1363 179.335V178.151C93.1363 177.953 93.0943 177.782 93.0103 177.638C92.9263 177.491 92.7988 177.377 92.6278 177.296C92.4568 177.215 92.2438 177.175 91.9888 177.175C91.7548 177.175 91.5238 177.211 91.2958 177.283C91.0678 177.352 90.8503 177.461 90.6433 177.611L90.3643 176.882C90.6433 176.693 90.9343 176.56 91.2373 176.482C91.5403 176.404 91.8313 176.365 92.1103 176.365C92.5243 176.365 92.8783 176.431 93.1723 176.563C93.4693 176.692 93.6973 176.888 93.8563 177.152C94.0153 177.413 94.0948 177.743 94.0948 178.142V181H93.2038V180.473C93.0538 180.686 92.8453 180.85 92.5783 180.964C92.3113 181.078 92.0128 181.135 91.6828 181.135ZM95.4112 181V176.545H96.2707H96.2977L98.2957 179.434L97.8682 179.443L99.7672 176.545H100.645V181H99.7447L99.7582 177.706L99.9427 177.787L98.3497 180.113H97.7107L96.0457 177.782L96.2302 177.701L96.2437 181H95.4112ZM102.021 181V176.545H102.979V179.551L105.396 176.545H106.26V181H105.306V177.958L102.867 181H102.021ZM109.843 181V176.545H110.833V178.264H113.065V176.545H114.055V181H113.065V179.083H110.833V181H109.843ZM116.67 181.135C116.361 181.135 116.09 181.078 115.856 180.964C115.622 180.847 115.439 180.683 115.307 180.473C115.178 180.26 115.113 180.01 115.113 179.722C115.113 179.479 115.175 179.26 115.298 179.065C115.421 178.867 115.611 178.703 115.869 178.574C116.13 178.445 116.465 178.36 116.873 178.318C117.281 178.273 117.771 178.279 118.344 178.336L118.362 179.02C117.954 178.963 117.603 178.939 117.309 178.948C117.015 178.957 116.774 178.994 116.585 179.06C116.399 179.123 116.261 179.209 116.171 179.317C116.084 179.422 116.04 179.543 116.04 179.681C116.04 179.897 116.117 180.064 116.27 180.181C116.426 180.298 116.639 180.356 116.909 180.356C117.14 180.356 117.347 180.314 117.53 180.23C117.713 180.146 117.857 180.028 117.962 179.875C118.07 179.722 118.124 179.542 118.124 179.335V178.151C118.124 177.953 118.082 177.782 117.998 177.638C117.914 177.491 117.786 177.377 117.615 177.296C117.444 177.215 117.231 177.175 116.976 177.175C116.742 177.175 116.511 177.211 116.283 177.283C116.055 177.352 115.838 177.461 115.631 177.611L115.352 176.882C115.631 176.693 115.922 176.56 116.225 176.482C116.528 176.404 116.819 176.365 117.098 176.365C117.512 176.365 117.866 176.431 118.16 176.563C118.457 176.692 118.685 176.888 118.844 177.152C119.003 177.413 119.082 177.743 119.082 178.142V181H118.191V180.473C118.041 180.686 117.833 180.85 117.566 180.964C117.299 181.078 117 181.135 116.67 181.135ZM122.605 181V176.545H123.595V178.264H125.827V176.545H126.817V181H125.827V179.083H123.595V181H122.605ZM130.228 181.135C129.748 181.135 129.327 181.038 128.964 180.842C128.601 180.644 128.317 180.368 128.113 180.014C127.912 179.66 127.812 179.249 127.812 178.781C127.812 178.439 127.87 178.124 127.987 177.836C128.104 177.545 128.269 177.293 128.482 177.08C128.695 176.867 128.944 176.702 129.229 176.585C129.517 176.468 129.831 176.41 130.17 176.41C130.539 176.41 130.867 176.476 131.155 176.608C131.443 176.737 131.682 176.918 131.871 177.152C132.063 177.386 132.198 177.661 132.276 177.976C132.357 178.288 132.37 178.627 132.316 178.993H128.761C128.755 179.26 128.814 179.494 128.937 179.695C129.06 179.893 129.235 180.047 129.463 180.158C129.694 180.269 129.966 180.325 130.278 180.325C130.53 180.325 130.773 180.287 131.007 180.212C131.244 180.134 131.458 180.02 131.65 179.87L132.033 180.581C131.889 180.698 131.715 180.799 131.511 180.883C131.307 180.964 131.094 181.026 130.872 181.068C130.65 181.113 130.435 181.135 130.228 181.135ZM128.82 178.264H131.344C131.335 177.928 131.227 177.664 131.02 177.472C130.816 177.28 130.525 177.184 130.147 177.184C129.781 177.184 129.477 177.28 129.234 177.472C128.994 177.664 128.856 177.928 128.82 178.264ZM129.171 175.757C129.009 175.757 128.865 175.7 128.739 175.586C128.616 175.472 128.554 175.327 128.554 175.15C128.554 175.03 128.583 174.923 128.64 174.83C128.697 174.737 128.772 174.665 128.865 174.614C128.961 174.563 129.063 174.538 129.171 174.538C129.336 174.538 129.48 174.595 129.603 174.709C129.729 174.823 129.792 174.97 129.792 175.15C129.792 175.27 129.763 175.376 129.706 175.469C129.649 175.559 129.573 175.63 129.477 175.681C129.384 175.732 129.282 175.757 129.171 175.757ZM131.119 175.757C130.957 175.757 130.813 175.7 130.687 175.586C130.564 175.472 130.503 175.327 130.503 175.15C130.503 175.03 130.531 174.923 130.588 174.83C130.645 174.737 130.72 174.665 130.813 174.614C130.909 174.563 131.011 174.538 131.119 174.538C131.284 174.538 131.428 174.595 131.551 174.709C131.677 174.823 131.74 174.97 131.74 175.15C131.74 175.27 131.712 175.376 131.655 175.469C131.598 175.559 131.521 175.63 131.425 175.681C131.332 175.732 131.23 175.757 131.119 175.757ZM133.345 181V176.545H134.204H134.231L136.229 179.434L135.802 179.443L137.701 176.545H138.578V181H137.678L137.692 177.706L137.876 177.787L136.283 180.113H135.644L133.979 177.782L134.164 177.701L134.177 181H133.345Z" fill="white"/>
<rect x="1" y="1" width="148" height="198" rx="15" stroke="black" stroke-width="2"/>
<path d="M40 78.283L40.4302 72.6541L75.3742 58.1667L110 28.2672L109.57 33.8959L105.607 39.8684L105.391 45.5609L104.961 51.1896L102.8 57.8189L93.2939 63.2952L89.4049 66.4656L90.5572 74.68L85.0838 77.9947L86.2361 84.4799L80.7626 87.7945L80.0426 95.0001L40 78.283Z" fill="#681183"/>
<path d="M86.6661 78.8511L86.2359 84.48L80.7625 87.7946L81.1926 82.1657L86.6661 78.8511Z" fill="#580E70"/>
<path d="M90.987 69.0514L90.5569 74.6801L85.0835 77.9948L85.5136 72.366L90.987 69.0514Z" fill="#580E70"/>
<path d="M61.3155 24.2319L58.2908 14.8645L62.4678 14L68.5174 21.3498L80.9045 18.7556L90.2669 21.3498L99.7734 31.0054L107.695 24.5202L110 28.2672L105.823 34.1758L105.391 45.5608L103.23 52.1899L93.7237 57.6664L89.8348 60.8368L90.987 69.0513L85.5136 72.3659L86.666 78.8509L81.1926 82.1656L80.4723 89.3713L61.3155 81.7332L40.4302 72.654L46.1916 69.1953L44.0311 64.4395L49.7926 60.8368L47.3439 54.3517L56.1302 49.74L53.2495 44.6961L49.5045 38.4992L52.8173 32.8789L59.155 27.5467L61.3155 24.2319Z" fill="#C21FF7"/>
<path d="M103.23 52.19L102.8 57.8189L104.961 51.1896L105.391 45.5609L103.23 52.19Z" fill="#580E70"/>
<path d="M110 28.2672L109.57 33.8959L105.607 39.8684L105.823 34.1758L110 28.2672Z" fill="#580E70"/>
<path d="M70.4236 29.3613L64.8258 34.7924L68.0488 40.3929L74.8338 38.0169L75.8516 32.4162L70.4236 29.3613Z" fill="#6D128B"/>
<path d="M87.7733 36.3744L82.1755 41.8054L85.3984 47.4059L92.1836 45.03L93.2014 39.4293L87.7733 36.3744Z" fill="#6D128B"/>
<path d="M14 84L40.5 54.5V75.5L96 70.5L92.5 52L126.5 77L103 107.5L100.5 86.5L44.5 92L47 110L14 84Z" fill="black" stroke="#AD48FA" stroke-width="2"/>
</g>
<defs>
<filter id="filter0_b_2_1008" x="-4" y="114" width="158" height="90" filterUnits="userSpaceOnUse" color-interpolation-filters="sRGB">
<feFlood flood-opacity="0" result="BackgroundImageFix"/>
<feGaussianBlur in="BackgroundImageFix" stdDeviation="2"/>
<feComposite in2="SourceAlpha" operator="in" result="effect1_backgroundBlur_2_1008"/>
<feBlend mode="normal" in="SourceGraphic" in2="effect1_backgroundBlur_2_1008" result="shape"/>
</filter>
<clipPath id="clip0_2_1008">
<rect width="150" height="200" rx="16" fill="white"/>
</clipPath>
</defs>
</svg>
