<svg width="150" height="200" viewBox="0 0 150 200" fill="none" xmlns="http://www.w3.org/2000/svg">
<g clip-path="url(#clip0_2_917)">
<rect width="150" height="200" fill="#00196B"/>
<g filter="url(#filter0_b_2_917)">
<rect y="118" width="150" height="82" fill="black" fill-opacity="0.5"/>
</g>
<path d="M28.3175 138.165C27.5218 138.165 26.8215 138.002 26.2165 137.675C25.6115 137.345 25.1403 136.882 24.803 136.284C24.4656 135.683 24.297 134.977 24.297 134.166C24.297 133.576 24.396 133.035 24.594 132.544C24.792 132.053 25.0725 131.627 25.4355 131.268C25.7985 130.905 26.2256 130.626 26.717 130.432C27.212 130.234 27.7528 130.135 28.3395 130.135C28.9628 130.135 29.4908 130.214 29.9235 130.371C30.3561 130.529 30.7448 130.751 31.0895 131.037L30.2645 132.373C30.0408 132.153 29.775 131.988 29.467 131.878C29.1626 131.768 28.8235 131.713 28.4495 131.713C28.0681 131.713 27.7253 131.77 27.421 131.884C27.1203 131.998 26.8636 132.161 26.651 132.373C26.442 132.582 26.2806 132.837 26.167 133.138C26.057 133.435 26.002 133.77 26.002 134.144C26.002 134.658 26.101 135.096 26.299 135.459C26.5006 135.818 26.7866 136.095 27.157 136.289C27.531 136.484 27.9765 136.581 28.4935 136.581C28.8528 136.581 29.2048 136.526 29.5495 136.416C29.8978 136.306 30.226 136.13 30.534 135.888L31.282 137.257C30.919 137.536 30.4936 137.758 30.006 137.923C29.5183 138.084 28.9555 138.165 28.3175 138.165ZM32.4561 138V130.3H34.0676V135.404L37.4336 130.3H39.0396V138H37.4226V132.846L34.0511 138H32.4561ZM40.9102 138V130.3H42.5382V133.22H45.8052V130.3H47.4332V138H45.8052V134.711H42.5382V138H40.9102ZM49.3106 138V130.3H50.9221V135.404L54.2881 130.3H55.8941V138H54.2771V132.846L50.9056 138H49.3106ZM57.7647 138V130.3H59.3762V135.404L62.7422 130.3H64.3482V138H62.7312V132.846L59.3597 138H57.7647ZM61.0537 129.475C60.6137 129.475 60.2287 129.389 59.8987 129.216C59.5687 129.044 59.3121 128.806 59.1287 128.501C58.9491 128.197 58.8647 127.845 58.8757 127.445H60.1847C60.1737 127.739 60.2471 127.975 60.4047 128.155C60.5624 128.331 60.7787 128.419 61.0537 128.419C61.3287 128.419 61.5432 128.331 61.6972 128.155C61.8549 127.975 61.9264 127.739 61.9117 127.445H63.2262C63.2372 127.838 63.1511 128.188 62.9677 128.496C62.7844 128.8 62.5277 129.04 62.1977 129.216C61.8677 129.389 61.4864 129.475 61.0537 129.475ZM68.6427 138.143L68.0872 136.652C68.3365 136.575 68.5474 136.487 68.7197 136.388C68.8957 136.286 69.0405 136.148 69.1542 135.976C69.2715 135.804 69.3632 135.576 69.4292 135.294C69.4952 135.012 69.541 134.652 69.5667 134.216C69.5924 133.78 69.6052 133.244 69.6052 132.61V130.3H75.2647V138H73.6367V131.785H71.1507V132.538C71.1507 133.33 71.125 134.018 71.0737 134.601C71.026 135.18 70.9454 135.675 70.8317 136.086C70.718 136.493 70.564 136.832 70.3697 137.103C70.179 137.371 69.9407 137.587 69.6547 137.752C69.3724 137.917 69.035 138.048 68.6427 138.143ZM77.1436 138V130.3H82.4071V131.719H78.7716V133.369H81.8516V134.683H78.7716V136.564H82.4511V138H77.1436ZM84.0509 138V130.3H85.6184L88.6159 135.239L87.9724 135.25L90.8324 130.3H92.3889V138H90.8104L90.8379 132.401L91.1294 132.505L88.7754 136.482H87.6644L85.2389 132.505L85.5139 132.401L85.5414 138H84.0509ZM94.2667 138V130.3H95.8342L98.8317 135.239L98.1882 135.25L101.048 130.3H102.605V138H101.026L101.054 132.401L101.345 132.505L98.9912 136.482H97.8802L95.4547 132.505L95.7297 132.401L95.7572 138H94.2667ZM104.482 138V130.3H106.094V135.404L109.46 130.3H111.066V138H109.449V132.846L106.077 138H104.482ZM112.937 138V130.3H114.565V133.22H117.832V130.3H119.46V138H117.832V134.711H114.565V138H112.937ZM121.337 138V130.3H125.929V131.785H122.965V138H121.337Z" fill="white"/>
<path d="M22.7081 159.135C22.0541 159.135 21.4826 159 20.9936 158.73C20.5046 158.46 20.1236 158.079 19.8506 157.587C19.5806 157.092 19.4456 156.514 19.4456 155.854C19.4456 155.374 19.5251 154.935 19.6841 154.536C19.8461 154.134 20.0726 153.786 20.3636 153.492C20.6576 153.198 21.0041 152.97 21.4031 152.808C21.8021 152.646 22.2401 152.565 22.7171 152.565C23.1971 152.565 23.6111 152.625 23.9591 152.745C24.3101 152.865 24.6161 153.036 24.8771 153.258L24.3551 154.081C24.1571 153.898 23.9261 153.762 23.6621 153.672C23.3981 153.582 23.1071 153.537 22.7891 153.537C22.4381 153.537 22.1216 153.591 21.8396 153.699C21.5576 153.807 21.3161 153.961 21.1151 154.162C20.9171 154.36 20.7641 154.602 20.6561 154.887C20.5511 155.169 20.4986 155.488 20.4986 155.845C20.4986 156.331 20.5931 156.747 20.7821 157.092C20.9741 157.437 21.2441 157.701 21.5921 157.884C21.9431 158.064 22.3571 158.154 22.8341 158.154C23.1521 158.154 23.4581 158.107 23.7521 158.014C24.0491 157.918 24.3266 157.764 24.5846 157.551L25.0526 158.401C24.7496 158.638 24.4031 158.82 24.0131 158.946C23.6261 159.072 23.1911 159.135 22.7081 159.135ZM25.982 159V154.545H26.9405V157.551L29.357 154.545H30.221V159H29.267V155.958L26.828 159H25.982ZM31.5982 159V154.545H32.5882V156.264H34.8202V154.545H35.8102V159H34.8202V157.083H32.5882V159H31.5982ZM37.188 159V154.545H38.1465V157.551L40.563 154.545H41.427V159H40.473V155.958L38.034 159H37.188ZM42.8042 159V154.545H43.7627V157.551L46.1792 154.545H47.0432V159H46.0892V155.958L43.6502 159H42.8042ZM44.9237 153.78C44.5907 153.78 44.2982 153.711 44.0462 153.573C43.7942 153.435 43.5992 153.244 43.4612 153.001C43.3232 152.758 43.2587 152.479 43.2677 152.164H44.0957C44.0837 152.44 44.1527 152.664 44.3027 152.835C44.4557 153.003 44.6627 153.087 44.9237 153.087C45.1847 153.087 45.3902 153.003 45.5402 152.835C45.6902 152.664 45.7577 152.44 45.7427 152.164H46.5752C46.5812 152.476 46.5137 152.754 46.3727 152.997C46.2347 153.24 46.0397 153.432 45.7877 153.573C45.5387 153.711 45.2507 153.78 44.9237 153.78ZM50.4645 159.077L50.118 158.185C50.424 158.107 50.6475 157.984 50.7885 157.816C50.9325 157.648 51.0225 157.414 51.0585 157.114C51.0975 156.814 51.117 156.427 51.117 155.953V154.545H54.7395V159H53.7495V155.364H52.0395V155.953C52.0395 156.43 52.017 156.846 51.972 157.2C51.93 157.554 51.852 157.855 51.738 158.104C51.624 158.353 51.4635 158.557 51.2565 158.716C51.0525 158.872 50.7885 158.992 50.4645 159.077ZM58.1537 159.135C57.6737 159.135 57.2522 159.038 56.8892 158.842C56.5262 158.644 56.2427 158.368 56.0387 158.014C55.8377 157.66 55.7372 157.249 55.7372 156.781C55.7372 156.439 55.7957 156.124 55.9127 155.836C56.0297 155.545 56.1947 155.293 56.4077 155.08C56.6207 154.867 56.8697 154.702 57.1547 154.585C57.4427 154.468 57.7562 154.41 58.0952 154.41C58.4642 154.41 58.7927 154.476 59.0807 154.608C59.3687 154.737 59.6072 154.918 59.7962 155.152C59.9882 155.386 60.1232 155.661 60.2012 155.976C60.2822 156.288 60.2957 156.627 60.2417 156.993H56.6867C56.6807 157.26 56.7392 157.494 56.8622 157.695C56.9852 157.893 57.1607 158.047 57.3887 158.158C57.6197 158.269 57.8912 158.325 58.2032 158.325C58.4552 158.325 58.6982 158.287 58.9322 158.212C59.1692 158.134 59.3837 158.02 59.5757 157.87L59.9582 158.581C59.8142 158.698 59.6402 158.799 59.4362 158.883C59.2322 158.964 59.0192 159.026 58.7972 159.068C58.5752 159.113 58.3607 159.135 58.1537 159.135ZM56.7452 156.264H59.2697C59.2607 155.928 59.1527 155.664 58.9457 155.472C58.7417 155.28 58.4507 155.184 58.0727 155.184C57.7067 155.184 57.4022 155.28 57.1592 155.472C56.9192 155.664 56.7812 155.928 56.7452 156.264ZM61.27 159V154.545H62.1295H62.1565L64.1545 157.434L63.727 157.443L65.626 154.545H66.5035V159H65.6035L65.617 155.706L65.8015 155.787L64.2085 158.113H63.5695L61.9045 155.782L62.089 155.701L62.1025 159H61.27ZM67.8794 159V154.545H68.7389H68.7659L70.7639 157.434L70.3364 157.443L72.2354 154.545H73.1129V159H72.2129L72.2264 155.706L72.4109 155.787L70.8179 158.113H70.1789L68.5139 155.782L68.6984 155.701L68.7119 159H67.8794ZM74.4888 159V154.545H75.4473V157.551L77.8638 154.545H78.7278V159H77.7738V155.958L75.3348 159H74.4888ZM80.105 159V154.545H81.095V156.264H83.327V154.545H84.317V159H83.327V157.083H81.095V159H80.105ZM85.6948 159V154.545H88.6288V155.364H86.6848V159H85.6948ZM91.7505 159V154.545H92.709V157.551L95.1255 154.545H95.9895V159H95.0355V155.958L92.5965 159H91.7505ZM100.602 159V155.364H98.8022V155.953C98.8022 156.358 98.7782 156.724 98.7302 157.051C98.6822 157.378 98.5967 157.666 98.4737 157.915C98.3507 158.161 98.1782 158.365 97.9562 158.527C97.7372 158.689 97.4567 158.808 97.1147 158.883L96.8717 158.212C97.1567 158.143 97.3712 158.014 97.5152 157.825C97.6592 157.636 97.7552 157.387 97.8032 157.078C97.8542 156.766 97.8797 156.391 97.8797 155.953V154.545H101.592V159H100.602ZM96.8717 160.35V158.212L97.4837 158.275L97.6367 158.181H102.488V160.35H101.583V159H97.7762V160.35H96.8717ZM105.325 159.135C104.845 159.135 104.423 159.038 104.06 158.842C103.697 158.644 103.414 158.368 103.21 158.014C103.009 157.66 102.908 157.249 102.908 156.781C102.908 156.439 102.967 156.124 103.084 155.836C103.201 155.545 103.366 155.293 103.579 155.08C103.792 154.867 104.041 154.702 104.326 154.585C104.614 154.468 104.927 154.41 105.266 154.41C105.635 154.41 105.964 154.476 106.252 154.608C106.54 154.737 106.778 154.918 106.967 155.152C107.159 155.386 107.294 155.661 107.372 155.976C107.453 156.288 107.467 156.627 107.413 156.993H103.858C103.852 157.26 103.91 157.494 104.033 157.695C104.156 157.893 104.332 158.047 104.56 158.158C104.791 158.269 105.062 158.325 105.374 158.325C105.626 158.325 105.869 158.287 106.103 158.212C106.34 158.134 106.555 158.02 106.747 157.87L107.129 158.581C106.985 158.698 106.811 158.799 106.607 158.883C106.403 158.964 106.19 159.026 105.968 159.068C105.746 159.113 105.532 159.135 105.325 159.135ZM103.916 156.264H106.441C106.432 155.928 106.324 155.664 106.117 155.472C105.913 155.28 105.622 155.184 105.244 155.184C104.878 155.184 104.573 155.28 104.33 155.472C104.09 155.664 103.952 155.928 103.916 156.264ZM104.267 153.757C104.105 153.757 103.961 153.7 103.835 153.586C103.712 153.472 103.651 153.327 103.651 153.15C103.651 153.03 103.679 152.923 103.736 152.83C103.793 152.737 103.868 152.665 103.961 152.614C104.057 152.563 104.159 152.538 104.267 152.538C104.432 152.538 104.576 152.595 104.699 152.709C104.825 152.823 104.888 152.97 104.888 153.15C104.888 153.27 104.86 153.376 104.803 153.469C104.746 153.559 104.669 153.63 104.573 153.681C104.48 153.732 104.378 153.757 104.267 153.757ZM106.216 153.757C106.054 153.757 105.91 153.7 105.784 153.586C105.661 153.472 105.599 153.327 105.599 153.15C105.599 153.03 105.628 152.923 105.685 152.83C105.742 152.737 105.817 152.665 105.91 152.614C106.006 152.563 106.108 152.538 106.216 152.538C106.381 152.538 106.525 152.595 106.648 152.709C106.774 152.823 106.837 152.97 106.837 153.15C106.837 153.27 106.808 153.376 106.751 153.469C106.694 153.559 106.618 153.63 106.522 153.681C106.429 153.732 106.327 153.757 106.216 153.757ZM109.435 159V155.364H107.973V154.545H111.892V155.364H110.425V159H109.435ZM115.006 159V154.545H115.996V156.264H118.228V154.545H119.218V159H118.228V157.083H115.996V159H115.006ZM121.834 159.135C121.525 159.135 121.253 159.078 121.019 158.964C120.785 158.847 120.602 158.683 120.47 158.473C120.341 158.26 120.277 158.01 120.277 157.722C120.277 157.479 120.338 157.26 120.461 157.065C120.584 156.867 120.775 156.703 121.033 156.574C121.294 156.445 121.628 156.36 122.036 156.318C122.444 156.273 122.935 156.279 123.508 156.336L123.526 157.02C123.118 156.963 122.767 156.939 122.473 156.948C122.179 156.957 121.937 156.994 121.748 157.06C121.562 157.123 121.424 157.209 121.334 157.317C121.247 157.422 121.204 157.543 121.204 157.681C121.204 157.897 121.28 158.064 121.433 158.181C121.589 158.298 121.802 158.356 122.072 158.356C122.303 158.356 122.51 158.314 122.693 158.23C122.876 158.146 123.02 158.028 123.125 157.875C123.233 157.722 123.287 157.542 123.287 157.335V156.151C123.287 155.953 123.245 155.782 123.161 155.638C123.077 155.491 122.95 155.377 122.779 155.296C122.608 155.215 122.395 155.175 122.14 155.175C121.906 155.175 121.675 155.211 121.447 155.283C121.219 155.352 121.001 155.461 120.794 155.611L120.515 154.882C120.794 154.693 121.085 154.56 121.388 154.482C121.691 154.404 121.982 154.365 122.261 154.365C122.675 154.365 123.029 154.431 123.323 154.563C123.62 154.692 123.848 154.888 124.007 155.152C124.166 155.413 124.246 155.743 124.246 156.142V159H123.355V158.473C123.205 158.686 122.996 158.85 122.729 158.964C122.462 159.078 122.164 159.135 121.834 159.135ZM129.046 159V153.762L127.413 154.36L127.152 153.577L129.91 152.565H129.982V159H129.046ZM24.044 170V165.545H28.2515V170H27.2615V166.364H25.034V170H24.044ZM31.6545 170.135C31.1895 170.135 30.774 170.029 30.408 169.815C30.045 169.599 29.76 169.313 29.553 168.956C29.346 168.596 29.2425 168.201 29.2425 167.772C29.2425 167.454 29.301 167.154 29.418 166.872C29.538 166.587 29.706 166.335 29.922 166.116C30.141 165.897 30.3975 165.725 30.6915 165.599C30.9855 165.473 31.308 165.41 31.659 165.41C32.124 165.41 32.538 165.518 32.901 165.734C33.267 165.947 33.5535 166.233 33.7605 166.593C33.9675 166.95 34.071 167.343 34.071 167.772C34.071 168.087 34.011 168.387 33.891 168.672C33.774 168.957 33.6075 169.209 33.3915 169.428C33.1755 169.647 32.9205 169.82 32.6265 169.946C32.3325 170.072 32.0085 170.135 31.6545 170.135ZM31.6545 169.257C31.9305 169.257 32.175 169.197 32.388 169.077C32.604 168.954 32.7735 168.782 32.8965 168.56C33.0195 168.338 33.081 168.075 33.081 167.772C33.081 167.469 33.0195 167.207 32.8965 166.985C32.7735 166.76 32.604 166.587 32.388 166.467C32.175 166.347 31.9305 166.287 31.6545 166.287C31.3785 166.287 31.1325 166.347 30.9165 166.467C30.7035 166.587 30.5355 166.76 30.4125 166.985C30.2925 167.207 30.2325 167.469 30.2325 167.772C30.2325 168.075 30.294 168.338 30.417 168.56C30.54 168.782 30.708 168.954 30.921 169.077C31.137 169.197 31.3815 169.257 31.6545 169.257ZM34.9035 170.077L34.557 169.185C34.863 169.107 35.0865 168.984 35.2275 168.816C35.3715 168.648 35.4615 168.414 35.4975 168.114C35.5365 167.814 35.556 167.427 35.556 166.953V165.545H39.1785V170H38.1885V166.364H36.4785V166.953C36.4785 167.43 36.456 167.846 36.411 168.2C36.369 168.554 36.291 168.855 36.177 169.104C36.063 169.353 35.9025 169.557 35.6955 169.716C35.4915 169.872 35.2275 169.992 34.9035 170.077ZM42.5926 170.135C42.1126 170.135 41.6911 170.038 41.3281 169.842C40.9651 169.644 40.6816 169.368 40.4776 169.014C40.2766 168.66 40.1761 168.249 40.1761 167.781C40.1761 167.439 40.2346 167.124 40.3516 166.836C40.4686 166.545 40.6336 166.293 40.8466 166.08C41.0596 165.867 41.3086 165.702 41.5936 165.585C41.8816 165.468 42.1951 165.41 42.5341 165.41C42.9031 165.41 43.2316 165.476 43.5196 165.608C43.8076 165.737 44.0461 165.918 44.2351 166.152C44.4271 166.386 44.5621 166.661 44.6401 166.976C44.7211 167.288 44.7346 167.627 44.6806 167.993H41.1256C41.1196 168.26 41.1781 168.494 41.3011 168.695C41.4241 168.893 41.5996 169.047 41.8276 169.158C42.0586 169.269 42.3301 169.325 42.6421 169.325C42.8941 169.325 43.1371 169.287 43.3711 169.212C43.6081 169.134 43.8226 169.02 44.0146 168.87L44.3971 169.581C44.2531 169.698 44.0791 169.799 43.8751 169.883C43.6711 169.964 43.4581 170.026 43.2361 170.068C43.0141 170.113 42.7996 170.135 42.5926 170.135ZM41.1841 167.264H43.7086C43.6996 166.928 43.5916 166.664 43.3846 166.472C43.1806 166.28 42.8896 166.184 42.5116 166.184C42.1456 166.184 41.8411 166.28 41.5981 166.472C41.3581 166.664 41.2201 166.928 41.1841 167.264ZM47.9151 170V165.545H50.0391C50.5431 165.545 50.9466 165.641 51.2496 165.833C51.5526 166.025 51.7041 166.313 51.7041 166.697C51.7041 166.877 51.6606 167.037 51.5736 167.178C51.4866 167.316 51.3666 167.432 51.2136 167.525C51.0606 167.618 50.8821 167.685 50.6781 167.728L50.6601 167.507C51.0531 167.561 51.3576 167.691 51.5736 167.898C51.7896 168.105 51.8976 168.368 51.8976 168.686C51.8976 168.956 51.8271 169.19 51.6861 169.388C51.5451 169.583 51.3426 169.734 51.0786 169.842C50.8146 169.947 50.4981 170 50.1291 170H47.9151ZM48.8736 169.266H49.9941C50.2911 169.266 50.5191 169.217 50.6781 169.118C50.8401 169.019 50.9211 168.87 50.9211 168.672C50.9211 168.477 50.8416 168.332 50.6826 168.236C50.5236 168.137 50.2941 168.087 49.9941 168.087H48.7431V167.381H49.8906C50.1696 167.381 50.3856 167.339 50.5386 167.255C50.6916 167.168 50.7681 167.027 50.7681 166.832C50.7681 166.637 50.6916 166.496 50.5386 166.409C50.3856 166.319 50.1696 166.274 49.8906 166.274H48.8736V169.266ZM53.0127 170V165.545H57.2202V170H56.2302V166.364H54.0027V170H53.0127ZM58.5938 171.89V165.545H59.4848V166.17C59.6618 165.945 59.8883 165.762 60.1643 165.621C60.4403 165.48 60.7808 165.41 61.1858 165.41C61.6208 165.41 62.0063 165.513 62.3423 165.72C62.6813 165.924 62.9453 166.205 63.1343 166.562C63.3233 166.916 63.4178 167.319 63.4178 167.772C63.4178 168.099 63.3638 168.407 63.2558 168.695C63.1478 168.98 62.9933 169.23 62.7923 169.446C62.5943 169.662 62.3573 169.832 62.0813 169.955C61.8083 170.075 61.5053 170.135 61.1723 170.135C60.8243 170.135 60.5183 170.072 60.2543 169.946C59.9903 169.82 59.7653 169.65 59.5793 169.438V171.89H58.5938ZM61.0058 169.257C61.2818 169.257 61.5263 169.197 61.7393 169.077C61.9553 168.954 62.1233 168.782 62.2433 168.56C62.3663 168.338 62.4278 168.075 62.4278 167.772C62.4278 167.469 62.3663 167.207 62.2433 166.985C62.1203 166.76 61.9508 166.587 61.7348 166.467C61.5218 166.347 61.2788 166.287 61.0058 166.287C60.7298 166.287 60.4838 166.347 60.2678 166.467C60.0548 166.587 59.8868 166.76 59.7638 166.985C59.6408 167.207 59.5793 167.469 59.5793 167.772C59.5793 168.075 59.6408 168.338 59.7638 168.56C59.8868 168.782 60.0548 168.954 60.2678 169.077C60.4838 169.197 60.7298 169.257 61.0058 169.257ZM65.6496 170.135C65.3406 170.135 65.0691 170.078 64.8351 169.964C64.6011 169.847 64.4181 169.683 64.2861 169.473C64.1571 169.26 64.0926 169.01 64.0926 168.722C64.0926 168.479 64.1541 168.26 64.2771 168.065C64.4001 167.867 64.5906 167.703 64.8486 167.574C65.1096 167.445 65.4441 167.36 65.8521 167.318C66.2601 167.273 66.7506 167.279 67.3236 167.336L67.3416 168.02C66.9336 167.963 66.5826 167.939 66.2886 167.948C65.9946 167.957 65.7531 167.994 65.5641 168.06C65.3781 168.123 65.2401 168.209 65.1501 168.317C65.0631 168.422 65.0196 168.543 65.0196 168.681C65.0196 168.897 65.0961 169.064 65.2491 169.181C65.4051 169.298 65.6181 169.356 65.8881 169.356C66.1191 169.356 66.3261 169.314 66.5091 169.23C66.6921 169.146 66.8361 169.028 66.9411 168.875C67.0491 168.722 67.1031 168.542 67.1031 168.335V167.151C67.1031 166.953 67.0611 166.782 66.9771 166.638C66.8931 166.491 66.7656 166.377 66.5946 166.296C66.4236 166.215 66.2106 166.175 65.9556 166.175C65.7216 166.175 65.4906 166.211 65.2626 166.283C65.0346 166.352 64.8171 166.461 64.6101 166.611L64.3311 165.882C64.6101 165.693 64.9011 165.56 65.2041 165.482C65.5071 165.404 65.7981 165.365 66.0771 165.365C66.4911 165.365 66.8451 165.431 67.1391 165.563C67.4361 165.692 67.6641 165.888 67.8231 166.152C67.9821 166.413 68.0616 166.743 68.0616 167.142V170H67.1706V169.473C67.0206 169.686 66.8121 169.85 66.5451 169.964C66.2781 170.078 65.9796 170.135 65.6496 170.135ZM69.378 170V165.545H71.502C72.006 165.545 72.4095 165.641 72.7125 165.833C73.0155 166.025 73.167 166.313 73.167 166.697C73.167 166.877 73.1235 167.037 73.0365 167.178C72.9495 167.316 72.8295 167.432 72.6765 167.525C72.5235 167.618 72.345 167.685 72.141 167.728L72.123 167.507C72.516 167.561 72.8205 167.691 73.0365 167.898C73.2525 168.105 73.3605 168.368 73.3605 168.686C73.3605 168.956 73.29 169.19 73.149 169.388C73.008 169.583 72.8055 169.734 72.5415 169.842C72.2775 169.947 71.961 170 71.592 170H69.378ZM70.3365 169.266H71.457C71.754 169.266 71.982 169.217 72.141 169.118C72.303 169.019 72.384 168.87 72.384 168.672C72.384 168.477 72.3045 168.332 72.1455 168.236C71.9865 168.137 71.757 168.087 71.457 168.087H70.206V167.381H71.3535C71.6325 167.381 71.8485 167.339 72.0015 167.255C72.1545 167.168 72.231 167.027 72.231 166.832C72.231 166.637 72.1545 166.496 72.0015 166.409C71.8485 166.319 71.6325 166.274 71.3535 166.274H70.3365V169.266ZM76.5051 170.135C76.0401 170.135 75.6246 170.029 75.2586 169.815C74.8956 169.599 74.6106 169.313 74.4036 168.956C74.1966 168.596 74.0931 168.201 74.0931 167.772C74.0931 167.454 74.1516 167.154 74.2686 166.872C74.3886 166.587 74.5566 166.335 74.7726 166.116C74.9916 165.897 75.2481 165.725 75.5421 165.599C75.8361 165.473 76.1586 165.41 76.5096 165.41C76.9746 165.41 77.3886 165.518 77.7516 165.734C78.1176 165.947 78.4041 166.233 78.6111 166.593C78.8181 166.95 78.9216 167.343 78.9216 167.772C78.9216 168.087 78.8616 168.387 78.7416 168.672C78.6246 168.957 78.4581 169.209 78.2421 169.428C78.0261 169.647 77.7711 169.82 77.4771 169.946C77.1831 170.072 76.8591 170.135 76.5051 170.135ZM76.5051 169.257C76.7811 169.257 77.0256 169.197 77.2386 169.077C77.4546 168.954 77.6241 168.782 77.7471 168.56C77.8701 168.338 77.9316 168.075 77.9316 167.772C77.9316 167.469 77.8701 167.207 77.7471 166.985C77.6241 166.76 77.4546 166.587 77.2386 166.467C77.0256 166.347 76.7811 166.287 76.5051 166.287C76.2291 166.287 75.9831 166.347 75.7671 166.467C75.5541 166.587 75.3861 166.76 75.2631 166.985C75.1431 167.207 75.0831 167.469 75.0831 167.772C75.0831 168.075 75.1446 168.338 75.2676 168.56C75.3906 168.782 75.5586 168.954 75.7716 169.077C75.9876 169.197 76.2321 169.257 76.5051 169.257ZM82.1221 170V165.545H83.0806V168.551L85.4971 165.545H86.3611V170H85.4071V166.958L82.9681 170H82.1221ZM87.5763 170.077L87.2298 169.185C87.5358 169.107 87.7593 168.984 87.9003 168.816C88.0443 168.648 88.1343 168.414 88.1703 168.114C88.2093 167.814 88.2288 167.427 88.2288 166.953V165.545H91.8513V170H90.8613V166.364H89.1513V166.953C89.1513 167.43 89.1288 167.846 89.0838 168.2C89.0418 168.554 88.9638 168.855 88.8498 169.104C88.7358 169.353 88.5753 169.557 88.3683 169.716C88.1643 169.872 87.9003 169.992 87.5763 170.077ZM93.2315 170V165.545H94.19V168.551L96.6065 165.545H97.4705V170H96.5165V166.958L94.0775 170H93.2315ZM101.054 170V165.545H103.178C103.682 165.545 104.085 165.641 104.388 165.833C104.691 166.025 104.843 166.313 104.843 166.697C104.843 166.877 104.799 167.037 104.712 167.178C104.625 167.316 104.505 167.432 104.352 167.525C104.199 167.618 104.021 167.685 103.817 167.728L103.799 167.507C104.192 167.561 104.496 167.691 104.712 167.898C104.928 168.105 105.036 168.368 105.036 168.686C105.036 168.956 104.966 169.19 104.825 169.388C104.684 169.583 104.481 169.734 104.217 169.842C103.953 169.947 103.637 170 103.268 170H101.054ZM102.012 169.266H103.133C103.43 169.266 103.658 169.217 103.817 169.118C103.979 169.019 104.06 168.87 104.06 168.672C104.06 168.477 103.98 168.332 103.821 168.236C103.662 168.137 103.433 168.087 103.133 168.087H101.882V167.381H103.029C103.308 167.381 103.524 167.339 103.677 167.255C103.83 167.168 103.907 167.027 103.907 166.832C103.907 166.637 103.83 166.496 103.677 166.409C103.524 166.319 103.308 166.274 103.029 166.274H102.012V169.266ZM105.989 170.077L105.643 169.185C105.949 169.107 106.172 168.984 106.313 168.816C106.457 168.648 106.547 168.414 106.583 168.114C106.622 167.814 106.642 167.427 106.642 166.953V165.545H110.264V170H109.274V166.364H107.564V166.953C107.564 167.43 107.542 167.846 107.497 168.2C107.455 168.554 107.377 168.855 107.263 169.104C107.149 169.353 106.988 169.557 106.781 169.716C106.577 169.872 106.313 169.992 105.989 170.077ZM113.679 170.135C113.199 170.135 112.777 170.038 112.414 169.842C112.051 169.644 111.768 169.368 111.564 169.014C111.363 168.66 111.262 168.249 111.262 167.781C111.262 167.439 111.321 167.124 111.438 166.836C111.555 166.545 111.72 166.293 111.933 166.08C112.146 165.867 112.395 165.702 112.68 165.585C112.968 165.468 113.281 165.41 113.62 165.41C113.989 165.41 114.318 165.476 114.606 165.608C114.894 165.737 115.132 165.918 115.321 166.152C115.513 166.386 115.648 166.661 115.726 166.976C115.807 167.288 115.821 167.627 115.767 167.993H112.212C112.206 168.26 112.264 168.494 112.387 168.695C112.51 168.893 112.686 169.047 112.914 169.158C113.145 169.269 113.416 169.325 113.728 169.325C113.98 169.325 114.223 169.287 114.457 169.212C114.694 169.134 114.909 169.02 115.101 168.87L115.483 169.581C115.339 169.698 115.165 169.799 114.961 169.883C114.757 169.964 114.544 170.026 114.322 170.068C114.1 170.113 113.886 170.135 113.679 170.135ZM112.27 167.264H114.795C114.786 166.928 114.678 166.664 114.471 166.472C114.267 166.28 113.976 166.184 113.598 166.184C113.232 166.184 112.927 166.28 112.684 166.472C112.444 166.664 112.306 166.928 112.27 167.264ZM116.795 170V165.545H118.919C119.423 165.545 119.826 165.641 120.129 165.833C120.432 166.025 120.584 166.313 120.584 166.697C120.584 166.877 120.54 167.037 120.453 167.178C120.366 167.316 120.246 167.432 120.093 167.525C119.94 167.618 119.762 167.685 119.558 167.728L119.54 167.507C119.933 167.561 120.237 167.691 120.453 167.898C120.669 168.105 120.777 168.368 120.777 168.686C120.777 168.956 120.707 169.19 120.566 169.388C120.425 169.583 120.222 169.734 119.958 169.842C119.694 169.947 119.378 170 119.009 170H116.795ZM117.753 169.266H118.874C119.171 169.266 119.399 169.217 119.558 169.118C119.72 169.019 119.801 168.87 119.801 168.672C119.801 168.477 119.721 168.332 119.562 168.236C119.403 168.137 119.174 168.087 118.874 168.087H117.623V167.381H118.77C119.049 167.381 119.265 167.339 119.418 167.255C119.571 167.168 119.648 167.027 119.648 166.832C119.648 166.637 119.571 166.496 119.418 166.409C119.265 166.319 119.049 166.274 118.77 166.274H117.753V169.266ZM123.922 170.135C123.457 170.135 123.042 170.029 122.676 169.815C122.313 169.599 122.028 169.313 121.821 168.956C121.614 168.596 121.51 168.201 121.51 167.772C121.51 167.454 121.569 167.154 121.686 166.872C121.806 166.587 121.974 166.335 122.19 166.116C122.409 165.897 122.665 165.725 122.959 165.599C123.253 165.473 123.576 165.41 123.927 165.41C124.392 165.41 124.806 165.518 125.169 165.734C125.535 165.947 125.821 166.233 126.028 166.593C126.235 166.95 126.339 167.343 126.339 167.772C126.339 168.087 126.279 168.387 126.159 168.672C126.042 168.957 125.875 169.209 125.659 169.428C125.443 169.647 125.188 169.82 124.894 169.946C124.6 170.072 124.276 170.135 123.922 170.135ZM123.922 169.257C124.198 169.257 124.443 169.197 124.656 169.077C124.872 168.954 125.041 168.782 125.164 168.56C125.287 168.338 125.349 168.075 125.349 167.772C125.349 167.469 125.287 167.207 125.164 166.985C125.041 166.76 124.872 166.587 124.656 166.467C124.443 166.347 124.198 166.287 123.922 166.287C123.646 166.287 123.4 166.347 123.184 166.467C122.971 166.587 122.803 166.76 122.68 166.985C122.56 167.207 122.5 167.469 122.5 167.772C122.5 168.075 122.562 168.338 122.685 168.56C122.808 168.782 122.976 168.954 123.189 169.077C123.405 169.197 123.649 169.257 123.922 169.257ZM11.4229 181V176.545H13.5469C14.0509 176.545 14.4544 176.641 14.7574 176.833C15.0604 177.025 15.2119 177.313 15.2119 177.697C15.2119 177.877 15.1684 178.037 15.0814 178.178C14.9944 178.316 14.8744 178.432 14.7214 178.525C14.5684 178.618 14.3899 178.685 14.1859 178.728L14.1679 178.507C14.5609 178.561 14.8654 178.691 15.0814 178.898C15.2974 179.105 15.4054 179.368 15.4054 179.686C15.4054 179.956 15.3349 180.19 15.1939 180.388C15.0529 180.583 14.8504 180.734 14.5864 180.842C14.3224 180.947 14.0059 181 13.6369 181H11.4229ZM12.3814 180.266H13.5019C13.7989 180.266 14.0269 180.217 14.1859 180.118C14.3479 180.019 14.4289 179.87 14.4289 179.672C14.4289 179.477 14.3494 179.332 14.1904 179.236C14.0314 179.137 13.8019 179.087 13.5019 179.087H12.2509V178.381H13.3984C13.6774 178.381 13.8934 178.339 14.0464 178.255C14.1994 178.168 14.2759 178.027 14.2759 177.832C14.2759 177.637 14.1994 177.496 14.0464 177.409C13.8934 177.319 13.6774 177.274 13.3984 177.274H12.3814V180.266ZM16.5205 181V176.545H17.38H17.407L19.405 179.434L18.9775 179.443L20.8765 176.545H21.754V181H20.854L20.8675 177.706L21.052 177.787L19.459 180.113H18.82L17.155 177.782L17.3395 177.701L17.353 181H16.5205ZM25.1639 181.135C24.6839 181.135 24.2624 181.038 23.8994 180.842C23.5364 180.644 23.2529 180.368 23.0489 180.014C22.8479 179.66 22.7474 179.249 22.7474 178.781C22.7474 178.439 22.8059 178.124 22.9229 177.836C23.0399 177.545 23.2049 177.293 23.4179 177.08C23.6309 176.867 23.8799 176.702 24.1649 176.585C24.4529 176.468 24.7664 176.41 25.1054 176.41C25.4744 176.41 25.8029 176.476 26.0909 176.608C26.3789 176.737 26.6174 176.918 26.8064 177.152C26.9984 177.386 27.1334 177.661 27.2114 177.976C27.2924 178.288 27.3059 178.627 27.2519 178.993H23.6969C23.6909 179.26 23.7494 179.494 23.8724 179.695C23.9954 179.893 24.1709 180.047 24.3989 180.158C24.6299 180.269 24.9014 180.325 25.2134 180.325C25.4654 180.325 25.7084 180.287 25.9424 180.212C26.1794 180.134 26.3939 180.02 26.5859 179.87L26.9684 180.581C26.8244 180.698 26.6504 180.799 26.4464 180.883C26.2424 180.964 26.0294 181.026 25.8074 181.068C25.5854 181.113 25.3709 181.135 25.1639 181.135ZM23.7554 178.264H26.2799C26.2709 177.928 26.1629 177.664 25.9559 177.472C25.7519 177.28 25.4609 177.184 25.0829 177.184C24.7169 177.184 24.4124 177.28 24.1694 177.472C23.9294 177.664 23.7914 177.928 23.7554 178.264ZM30.3672 181.135C29.8992 181.135 29.4822 181.033 29.1162 180.829C28.7502 180.622 28.4622 180.341 28.2522 179.987C28.0452 179.63 27.9417 179.225 27.9417 178.772C27.9417 178.43 28.0032 178.117 28.1262 177.832C28.2492 177.544 28.4232 177.293 28.6482 177.08C28.8732 176.867 29.1372 176.702 29.4402 176.585C29.7462 176.468 30.0777 176.41 30.4347 176.41C30.7347 176.41 31.0122 176.45 31.2672 176.531C31.5252 176.609 31.7622 176.731 31.9782 176.896L31.5012 177.652C31.3632 177.529 31.2042 177.437 31.0242 177.377C30.8472 177.317 30.6582 177.287 30.4572 177.287C30.1452 177.287 29.8767 177.346 29.6517 177.463C29.4267 177.58 29.2512 177.749 29.1252 177.971C29.0022 178.19 28.9407 178.456 28.9407 178.768C28.9407 179.233 29.0757 179.597 29.3457 179.861C29.6187 180.125 29.9892 180.257 30.4572 180.257C30.6792 180.257 30.8892 180.217 31.0872 180.136C31.2852 180.052 31.4502 179.942 31.5822 179.807L32.0547 180.559C31.8177 180.739 31.5537 180.88 31.2627 180.982C30.9717 181.084 30.6732 181.135 30.3672 181.135ZM33.9594 181V177.364H32.4969V176.545H36.4164V177.364H34.9494V181H33.9594ZM39.3582 181.135C38.8782 181.135 38.4567 181.038 38.0937 180.842C37.7307 180.644 37.4472 180.368 37.2432 180.014C37.0422 179.66 36.9417 179.249 36.9417 178.781C36.9417 178.439 37.0002 178.124 37.1172 177.836C37.2342 177.545 37.3992 177.293 37.6122 177.08C37.8252 176.867 38.0742 176.702 38.3592 176.585C38.6472 176.468 38.9607 176.41 39.2997 176.41C39.6687 176.41 39.9972 176.476 40.2852 176.608C40.5732 176.737 40.8117 176.918 41.0007 177.152C41.1927 177.386 41.3277 177.661 41.4057 177.976C41.4867 178.288 41.5002 178.627 41.4462 178.993H37.8912C37.8852 179.26 37.9437 179.494 38.0667 179.695C38.1897 179.893 38.3652 180.047 38.5932 180.158C38.8242 180.269 39.0957 180.325 39.4077 180.325C39.6597 180.325 39.9027 180.287 40.1367 180.212C40.3737 180.134 40.5882 180.02 40.7802 179.87L41.1627 180.581C41.0187 180.698 40.8447 180.799 40.6407 180.883C40.4367 180.964 40.2237 181.026 40.0017 181.068C39.7797 181.113 39.5652 181.135 39.3582 181.135ZM37.9497 178.264H40.4742C40.4652 177.928 40.3572 177.664 40.1502 177.472C39.9462 177.28 39.6552 177.184 39.2772 177.184C38.9112 177.184 38.6067 177.28 38.3637 177.472C38.1237 177.664 37.9857 177.928 37.9497 178.264ZM46.7237 181.135C46.2557 181.135 45.8387 181.033 45.4727 180.829C45.1067 180.622 44.8187 180.341 44.6087 179.987C44.4017 179.63 44.2982 179.225 44.2982 178.772C44.2982 178.43 44.3597 178.117 44.4827 177.832C44.6057 177.544 44.7797 177.293 45.0047 177.08C45.2297 176.867 45.4937 176.702 45.7967 176.585C46.1027 176.468 46.4342 176.41 46.7912 176.41C47.0912 176.41 47.3687 176.45 47.6237 176.531C47.8817 176.609 48.1187 176.731 48.3347 176.896L47.8577 177.652C47.7197 177.529 47.5607 177.437 47.3807 177.377C47.2037 177.317 47.0147 177.287 46.8137 177.287C46.5017 177.287 46.2332 177.346 46.0082 177.463C45.7832 177.58 45.6077 177.749 45.4817 177.971C45.3587 178.19 45.2972 178.456 45.2972 178.768C45.2972 179.233 45.4322 179.597 45.7022 179.861C45.9752 180.125 46.3457 180.257 46.8137 180.257C47.0357 180.257 47.2457 180.217 47.4437 180.136C47.6417 180.052 47.8067 179.942 47.9387 179.807L48.4112 180.559C48.1742 180.739 47.9102 180.88 47.6192 180.982C47.3282 181.084 47.0297 181.135 46.7237 181.135ZM51.3654 181.077L51.0189 180.185C51.3249 180.107 51.5484 179.984 51.6894 179.816C51.8334 179.648 51.9234 179.414 51.9594 179.114C51.9984 178.814 52.0179 178.427 52.0179 177.953V176.545H55.6404V181H54.6504V177.364H52.9404V177.953C52.9404 178.43 52.9179 178.846 52.8729 179.2C52.8309 179.554 52.7529 179.855 52.6389 180.104C52.5249 180.353 52.3644 180.557 52.1574 180.716C51.9534 180.872 51.6894 180.992 51.3654 181.077ZM59.0545 181.135C58.5745 181.135 58.153 181.038 57.79 180.842C57.427 180.644 57.1435 180.368 56.9395 180.014C56.7385 179.66 56.638 179.249 56.638 178.781C56.638 178.439 56.6965 178.124 56.8135 177.836C56.9305 177.545 57.0955 177.293 57.3085 177.08C57.5215 176.867 57.7705 176.702 58.0555 176.585C58.3435 176.468 58.657 176.41 58.996 176.41C59.365 176.41 59.6935 176.476 59.9815 176.608C60.2695 176.737 60.508 176.918 60.697 177.152C60.889 177.386 61.024 177.661 61.102 177.976C61.183 178.288 61.1965 178.627 61.1425 178.993H57.5875C57.5815 179.26 57.64 179.494 57.763 179.695C57.886 179.893 58.0615 180.047 58.2895 180.158C58.5205 180.269 58.792 180.325 59.104 180.325C59.356 180.325 59.599 180.287 59.833 180.212C60.07 180.134 60.2845 180.02 60.4765 179.87L60.859 180.581C60.715 180.698 60.541 180.799 60.337 180.883C60.133 180.964 59.92 181.026 59.698 181.068C59.476 181.113 59.2615 181.135 59.0545 181.135ZM57.646 178.264H60.1705C60.1615 177.928 60.0535 177.664 59.8465 177.472C59.6425 177.28 59.3515 177.184 58.9735 177.184C58.6075 177.184 58.303 177.28 58.06 177.472C57.82 177.664 57.682 177.928 57.646 178.264ZM62.1709 181V176.545H63.0304H63.0574L65.0554 179.434L64.6279 179.443L66.5269 176.545H67.4044V181H66.5044L66.5179 177.706L66.7024 177.787L65.1094 180.113H64.4704L62.8054 177.782L62.9899 177.701L63.0034 181H62.1709ZM68.7803 181V176.545H69.6398H69.6668L71.6648 179.434L71.2373 179.443L73.1363 176.545H74.0138V181H73.1138L73.1273 177.706L73.3118 177.787L71.7188 180.113H71.0798L69.4148 177.782L69.5993 177.701L69.6128 181H68.7803ZM75.3897 181V176.545H76.3482V179.551L78.7647 176.545H79.6287V181H78.6747V177.958L76.2357 181H75.3897ZM81.0059 181V176.545H81.9959V178.264H84.2279V176.545H85.2179V181H84.2279V179.083H81.9959V181H81.0059ZM86.5957 181V176.545H89.5297V177.364H87.5857V181H86.5957ZM91.6828 181.135C91.3738 181.135 91.1023 181.078 90.8683 180.964C90.6343 180.847 90.4513 180.683 90.3193 180.473C90.1903 180.26 90.1258 180.01 90.1258 179.722C90.1258 179.479 90.1873 179.26 90.3103 179.065C90.4333 178.867 90.6238 178.703 90.8818 178.574C91.1428 178.445 91.4773 178.36 91.8853 178.318C92.2933 178.273 92.7838 178.279 93.3568 178.336L93.3748 179.02C92.9668 178.963 92.6158 178.939 92.3218 178.948C92.0278 178.957 91.7863 178.994 91.5973 179.06C91.4113 179.123 91.2733 179.209 91.1833 179.317C91.0963 179.422 91.0528 179.543 91.0528 179.681C91.0528 179.897 91.1293 180.064 91.2823 180.181C91.4383 180.298 91.6513 180.356 91.9213 180.356C92.1523 180.356 92.3593 180.314 92.5423 180.23C92.7253 180.146 92.8693 180.028 92.9743 179.875C93.0823 179.722 93.1363 179.542 93.1363 179.335V178.151C93.1363 177.953 93.0943 177.782 93.0103 177.638C92.9263 177.491 92.7988 177.377 92.6278 177.296C92.4568 177.215 92.2438 177.175 91.9888 177.175C91.7548 177.175 91.5238 177.211 91.2958 177.283C91.0678 177.352 90.8503 177.461 90.6433 177.611L90.3643 176.882C90.6433 176.693 90.9343 176.56 91.2373 176.482C91.5403 176.404 91.8313 176.365 92.1103 176.365C92.5243 176.365 92.8783 176.431 93.1723 176.563C93.4693 176.692 93.6973 176.888 93.8563 177.152C94.0153 177.413 94.0948 177.743 94.0948 178.142V181H93.2038V180.473C93.0538 180.686 92.8453 180.85 92.5783 180.964C92.3113 181.078 92.0128 181.135 91.6828 181.135ZM95.4112 181V176.545H96.2707H96.2977L98.2957 179.434L97.8682 179.443L99.7672 176.545H100.645V181H99.7447L99.7582 177.706L99.9427 177.787L98.3497 180.113H97.7107L96.0457 177.782L96.2302 177.701L96.2437 181H95.4112ZM102.021 181V176.545H102.979V179.551L105.396 176.545H106.26V181H105.306V177.958L102.867 181H102.021ZM109.843 181V176.545H110.833V178.264H113.065V176.545H114.055V181H113.065V179.083H110.833V181H109.843ZM116.67 181.135C116.361 181.135 116.09 181.078 115.856 180.964C115.622 180.847 115.439 180.683 115.307 180.473C115.178 180.26 115.113 180.01 115.113 179.722C115.113 179.479 115.175 179.26 115.298 179.065C115.421 178.867 115.611 178.703 115.869 178.574C116.13 178.445 116.465 178.36 116.873 178.318C117.281 178.273 117.771 178.279 118.344 178.336L118.362 179.02C117.954 178.963 117.603 178.939 117.309 178.948C117.015 178.957 116.774 178.994 116.585 179.06C116.399 179.123 116.261 179.209 116.171 179.317C116.084 179.422 116.04 179.543 116.04 179.681C116.04 179.897 116.117 180.064 116.27 180.181C116.426 180.298 116.639 180.356 116.909 180.356C117.14 180.356 117.347 180.314 117.53 180.23C117.713 180.146 117.857 180.028 117.962 179.875C118.07 179.722 118.124 179.542 118.124 179.335V178.151C118.124 177.953 118.082 177.782 117.998 177.638C117.914 177.491 117.786 177.377 117.615 177.296C117.444 177.215 117.231 177.175 116.976 177.175C116.742 177.175 116.511 177.211 116.283 177.283C116.055 177.352 115.838 177.461 115.631 177.611L115.352 176.882C115.631 176.693 115.922 176.56 116.225 176.482C116.528 176.404 116.819 176.365 117.098 176.365C117.512 176.365 117.866 176.431 118.16 176.563C118.457 176.692 118.685 176.888 118.844 177.152C119.003 177.413 119.082 177.743 119.082 178.142V181H118.191V180.473C118.041 180.686 117.833 180.85 117.566 180.964C117.299 181.078 117 181.135 116.67 181.135ZM122.605 181V176.545H123.595V178.264H125.827V176.545H126.817V181H125.827V179.083H123.595V181H122.605ZM130.228 181.135C129.748 181.135 129.327 181.038 128.964 180.842C128.601 180.644 128.317 180.368 128.113 180.014C127.912 179.66 127.812 179.249 127.812 178.781C127.812 178.439 127.87 178.124 127.987 177.836C128.104 177.545 128.269 177.293 128.482 177.08C128.695 176.867 128.944 176.702 129.229 176.585C129.517 176.468 129.831 176.41 130.17 176.41C130.539 176.41 130.867 176.476 131.155 176.608C131.443 176.737 131.682 176.918 131.871 177.152C132.063 177.386 132.198 177.661 132.276 177.976C132.357 178.288 132.37 178.627 132.316 178.993H128.761C128.755 179.26 128.814 179.494 128.937 179.695C129.06 179.893 129.235 180.047 129.463 180.158C129.694 180.269 129.966 180.325 130.278 180.325C130.53 180.325 130.773 180.287 131.007 180.212C131.244 180.134 131.458 180.02 131.65 179.87L132.033 180.581C131.889 180.698 131.715 180.799 131.511 180.883C131.307 180.964 131.094 181.026 130.872 181.068C130.65 181.113 130.435 181.135 130.228 181.135ZM128.82 178.264H131.344C131.335 177.928 131.227 177.664 131.02 177.472C130.816 177.28 130.525 177.184 130.147 177.184C129.781 177.184 129.477 177.28 129.234 177.472C128.994 177.664 128.856 177.928 128.82 178.264ZM129.171 175.757C129.009 175.757 128.865 175.7 128.739 175.586C128.616 175.472 128.554 175.327 128.554 175.15C128.554 175.03 128.583 174.923 128.64 174.83C128.697 174.737 128.772 174.665 128.865 174.614C128.961 174.563 129.063 174.538 129.171 174.538C129.336 174.538 129.48 174.595 129.603 174.709C129.729 174.823 129.792 174.97 129.792 175.15C129.792 175.27 129.763 175.376 129.706 175.469C129.649 175.559 129.573 175.63 129.477 175.681C129.384 175.732 129.282 175.757 129.171 175.757ZM131.119 175.757C130.957 175.757 130.813 175.7 130.687 175.586C130.564 175.472 130.503 175.327 130.503 175.15C130.503 175.03 130.531 174.923 130.588 174.83C130.645 174.737 130.72 174.665 130.813 174.614C130.909 174.563 131.011 174.538 131.119 174.538C131.284 174.538 131.428 174.595 131.551 174.709C131.677 174.823 131.74 174.97 131.74 175.15C131.74 175.27 131.712 175.376 131.655 175.469C131.598 175.559 131.521 175.63 131.425 175.681C131.332 175.732 131.23 175.757 131.119 175.757ZM133.345 181V176.545H134.204H134.231L136.229 179.434L135.802 179.443L137.701 176.545H138.578V181H137.678L137.692 177.706L137.876 177.787L136.283 180.113H135.644L133.979 177.782L134.164 177.701L134.177 181H133.345Z" fill="white"/>
<rect x="1" y="1" width="148" height="198" rx="15" stroke="black" stroke-width="2"/>
<path d="M40 78.283L40.4302 72.6541L75.3743 58.1667L110 28.2672L109.57 33.8959L105.607 39.8684L105.391 45.5609L104.961 51.1896L102.8 57.8189L93.2939 63.2952L89.4049 66.4656L90.5572 74.68L85.0838 77.9947L86.2361 84.4799L80.7626 87.7945L80.0426 95.0001L40 78.283Z" fill="#273390"/>
<path d="M86.666 78.851L86.2358 84.4799L80.7623 87.7945L81.1924 82.1656L86.666 78.851Z" fill="#1F2974"/>
<path d="M90.987 69.0513L90.5569 74.68L85.0835 77.9946L85.5136 72.3659L90.987 69.0513Z" fill="#1F2974"/>
<path d="M61.3156 24.2319L58.2908 14.8645L62.4678 14L68.5174 21.3498L80.9046 18.7556L90.2669 21.3498L99.7734 31.0054L107.695 24.5202L110 28.2672L105.823 34.1758L105.391 45.5608L103.23 52.1899L93.7238 57.6664L89.8349 60.8368L90.9871 69.0513L85.5137 72.3659L86.6661 78.8509L81.1927 82.1656L80.4724 89.3713L61.3156 81.7332L40.4302 72.654L46.1917 69.1953L44.0312 64.4395L49.7926 60.8368L47.344 54.3517L56.1303 49.74L53.2495 44.6961L49.5045 38.4992L52.8174 32.8789L59.155 27.5467L61.3156 24.2319Z" fill="#3E51E5"/>
<path d="M103.23 52.1899L102.8 57.8188L104.961 51.1895L105.391 45.5608L103.23 52.1899Z" fill="#1F2974"/>
<path d="M110 28.2672L109.57 33.8959L105.607 39.8684L105.823 34.1758L110 28.2672Z" fill="#1F2974"/>
<path d="M70.4236 29.3613L64.8258 34.7924L68.0488 40.3929L74.8338 38.0169L75.8516 32.4162L70.4236 29.3613Z" fill="#202A77"/>
<path d="M87.7732 36.3744L82.1754 41.8054L85.3983 47.4059L92.1835 45.03L93.2012 39.4293L87.7732 36.3744Z" fill="#202A77"/>
<path d="M14 84L40.5 54.5V75.5L96 70.5L92.5 52L126.5 77L103 107.5L100.5 86.5L44.5 92L47 110L14 84Z" fill="black" stroke="#487AFA" stroke-width="2"/>
</g>
<defs>
<filter id="filter0_b_2_917" x="-4" y="114" width="158" height="90" filterUnits="userSpaceOnUse" color-interpolation-filters="sRGB">
<feFlood flood-opacity="0" result="BackgroundImageFix"/>
<feGaussianBlur in="BackgroundImageFix" stdDeviation="2"/>
<feComposite in2="SourceAlpha" operator="in" result="effect1_backgroundBlur_2_917"/>
<feBlend mode="normal" in="SourceGraphic" in2="effect1_backgroundBlur_2_917" result="shape"/>
</filter>
<clipPath id="clip0_2_917">
<rect width="150" height="200" rx="16" fill="white"/>
</clipPath>
</defs>
</svg>
