<svg width="150" height="200" viewBox="0 0 150 200" fill="none" xmlns="http://www.w3.org/2000/svg">
<g clip-path="url(#clip0_2_909)">
<rect width="150" height="200" fill="#006B04"/>
<g filter="url(#filter0_b_2_909)">
<rect y="118" width="150" height="82" fill="black" fill-opacity="0.5"/>
</g>
<path d="M19.673 138.165C19.0606 138.165 18.5033 138.092 18.001 137.945C17.5023 137.795 17.0605 137.575 16.6755 137.285L17.396 136.009C17.6563 136.236 17.9716 136.416 18.342 136.548C18.7123 136.68 19.0973 136.746 19.497 136.746C19.827 136.746 20.1111 136.702 20.3495 136.614C20.5915 136.522 20.7785 136.398 20.9105 136.24C21.0425 136.079 21.1085 135.892 21.1085 135.679C21.1085 135.353 20.993 135.105 20.762 134.936C20.5346 134.768 20.1808 134.683 19.7005 134.683H18.1605V133.424H19.574C19.8453 133.424 20.0781 133.387 20.2725 133.314C20.4668 133.241 20.6171 133.134 20.7235 132.995C20.8298 132.856 20.883 132.689 20.883 132.494C20.883 132.304 20.8298 132.144 20.7235 132.016C20.6208 131.884 20.4668 131.785 20.2615 131.719C20.0561 131.649 19.8031 131.614 19.5025 131.614C19.1541 131.614 18.815 131.673 18.485 131.79C18.155 131.908 17.8763 132.069 17.649 132.274L16.9065 131.081C17.2475 130.78 17.6618 130.547 18.1495 130.382C18.6408 130.217 19.1651 130.135 19.7225 130.135C20.2981 130.135 20.7931 130.217 21.2075 130.382C21.6218 130.544 21.9408 130.777 22.1645 131.081C22.3881 131.385 22.5 131.75 22.5 132.175C22.5 132.406 22.4505 132.63 22.3515 132.846C22.2525 133.059 22.1186 133.252 21.95 133.424C21.7813 133.596 21.5961 133.73 21.3945 133.825C21.8235 133.972 22.1645 134.207 22.4175 134.529C22.6741 134.852 22.8006 135.254 22.797 135.734C22.797 136.2 22.6668 136.616 22.4065 136.982C22.1461 137.349 21.7813 137.639 21.312 137.851C20.8426 138.061 20.2963 138.165 19.673 138.165ZM24.233 138V130.3H29.4965V131.719H25.861V133.369H28.941V134.683H25.861V136.564H29.5405V138H24.233ZM30.9752 138.143L30.4197 136.652C30.669 136.575 30.8799 136.487 31.0522 136.388C31.2282 136.286 31.373 136.148 31.4867 135.976C31.604 135.804 31.6957 135.576 31.7617 135.294C31.8277 135.012 31.8735 134.652 31.8992 134.216C31.9249 133.78 31.9377 133.244 31.9377 132.61V130.3H37.5972V138H35.9692V131.785H33.4832V132.538C33.4832 133.33 33.4575 134.018 33.4062 134.601C33.3585 135.18 33.2779 135.675 33.1642 136.086C33.0505 136.493 32.8965 136.832 32.7022 137.103C32.5115 137.371 32.2732 137.587 31.9872 137.752C31.7049 137.917 31.3675 138.048 30.9752 138.143ZM39.4761 138V130.3H44.7396V131.719H41.1041V133.369H44.1841V134.683H41.1041V136.564H44.7836V138H39.4761ZM40.7136 129.535C40.4643 129.535 40.2425 129.453 40.0481 129.288C39.8538 129.123 39.7566 128.905 39.7566 128.633C39.7566 128.45 39.8006 128.292 39.8886 128.16C39.9803 128.025 40.0976 127.92 40.2406 127.847C40.3873 127.77 40.545 127.731 40.7136 127.731C40.9593 127.731 41.1775 127.814 41.3681 127.979C41.5625 128.14 41.6596 128.358 41.6596 128.633C41.6596 128.817 41.6138 128.976 41.5221 129.112C41.4341 129.248 41.3168 129.352 41.1701 129.425C41.0271 129.499 40.875 129.535 40.7136 129.535ZM43.4361 129.535C43.1868 129.535 42.965 129.453 42.7706 129.288C42.5763 129.123 42.4791 128.905 42.4791 128.633C42.4791 128.454 42.5231 128.296 42.6111 128.16C42.7028 128.025 42.8201 127.92 42.9631 127.847C43.1098 127.77 43.2675 127.731 43.4361 127.731C43.6818 127.731 43.9 127.814 44.0906 127.979C44.285 128.14 44.3821 128.358 44.3821 128.633C44.3821 128.817 44.3363 128.976 44.2446 129.112C44.1566 129.248 44.0393 129.352 43.8926 129.425C43.7496 129.499 43.5975 129.535 43.4361 129.535ZM46.3834 138V130.3H48.0114V133.22H51.2784V130.3H52.9064V138H51.2784V134.711H48.0114V138H46.3834ZM54.7838 138V130.3H56.4118V133.028H57.7153C58.2763 133.028 58.7749 133.127 59.2113 133.325C59.6476 133.523 59.9904 133.807 60.2398 134.177C60.4928 134.548 60.6193 134.995 60.6193 135.519C60.6193 135.915 60.5533 136.267 60.4213 136.575C60.2929 136.883 60.1023 137.144 59.8493 137.356C59.5963 137.569 59.2883 137.73 58.9253 137.84C58.5623 137.947 58.1461 138 57.6768 138H54.7838ZM56.4118 136.63H57.6493C58.0709 136.63 58.3991 136.544 58.6338 136.372C58.8721 136.2 58.9913 135.925 58.9913 135.547C58.9913 135.169 58.8703 134.891 58.6283 134.711C58.3863 134.528 58.0636 134.436 57.6603 134.436H56.4118V136.63ZM61.6588 138V130.3H63.2868V138H61.6588ZM65.1607 138V130.3H66.7722V135.404L70.1382 130.3H71.7442V138H70.1272V132.846L66.7557 138H65.1607ZM68.4497 129.475C68.0097 129.475 67.6247 129.389 67.2947 129.216C66.9647 129.044 66.708 128.806 66.5247 128.501C66.345 128.197 66.2607 127.845 66.2717 127.445H67.5807C67.5697 127.739 67.643 127.975 67.8007 128.155C67.9584 128.331 68.1747 128.419 68.4497 128.419C68.7247 128.419 68.9392 128.331 69.0932 128.155C69.2509 127.975 69.3224 127.739 69.3077 127.445H70.6222C70.6332 127.838 70.547 128.188 70.3637 128.496C70.1804 128.8 69.9237 129.04 69.5937 129.216C69.2637 129.389 68.8824 129.475 68.4497 129.475ZM76.0387 138.143L75.4832 136.652C75.7325 136.575 75.9434 136.487 76.1157 136.388C76.2917 136.286 76.4365 136.148 76.5502 135.976C76.6675 135.804 76.7592 135.576 76.8252 135.294C76.8912 135.012 76.937 134.652 76.9627 134.216C76.9884 133.78 77.0012 133.244 77.0012 132.61V130.3H82.6607V138H81.0327V131.785H78.5467V132.538C78.5467 133.33 78.521 134.018 78.4697 134.601C78.422 135.18 78.3414 135.675 78.2277 136.086C78.114 136.493 77.96 136.832 77.7657 137.103C77.575 137.371 77.3367 137.587 77.0507 137.752C76.7684 137.917 76.431 138.048 76.0387 138.143ZM84.5396 138V130.3H89.8031V131.719H86.1676V133.369H89.2476V134.683H86.1676V136.564H89.8471V138H84.5396ZM91.4468 138V130.3H93.0143L96.0118 135.239L95.3683 135.25L98.2283 130.3H99.7848V138H98.2063L98.2338 132.401L98.5253 132.505L96.1713 136.482H95.0603L92.6348 132.505L92.9098 132.401L92.9373 138H91.4468ZM101.663 138V130.3H103.23L106.228 135.239L105.584 135.25L108.444 130.3H110.001V138H108.422L108.45 132.401L108.741 132.505L106.387 136.482H105.276L102.851 132.505L103.126 132.401L103.153 138H101.663ZM111.878 138V130.3H113.49V135.404L116.856 130.3H118.462V138H116.845V132.846L113.473 138H111.878ZM120.333 138V130.3H121.961V133.22H125.228V130.3H126.856V138H125.228V134.711H121.961V138H120.333ZM128.733 138V130.3H133.325V131.785H130.361V138H128.733Z" fill="white"/>
<path d="M16.248 159.135C15.774 159.135 15.342 159.074 14.952 158.95C14.562 158.827 14.2215 158.652 13.9305 158.424L14.4075 157.614C14.6235 157.809 14.8845 157.962 15.1905 158.073C15.4965 158.181 15.8205 158.235 16.1625 158.235C16.4685 158.235 16.7325 158.191 16.9545 158.104C17.1795 158.017 17.352 157.896 17.472 157.74C17.595 157.581 17.658 157.395 17.661 157.182C17.661 156.849 17.55 156.597 17.328 156.426C17.109 156.252 16.767 156.165 16.302 156.165H15.0735V155.355H16.2255C16.4805 155.355 16.701 155.317 16.887 155.242C17.073 155.164 17.217 155.055 17.319 154.914C17.421 154.77 17.472 154.597 17.472 154.396C17.472 154.201 17.421 154.038 17.319 153.906C17.22 153.771 17.073 153.669 16.878 153.6C16.686 153.528 16.452 153.492 16.176 153.492C15.879 153.492 15.594 153.541 15.321 153.64C15.048 153.736 14.8125 153.871 14.6145 154.045L14.1375 153.303C14.4015 153.066 14.7195 152.884 15.0915 152.758C15.4665 152.629 15.8685 152.565 16.2975 152.565C16.7445 152.565 17.1315 152.632 17.4585 152.767C17.7855 152.899 18.036 153.091 18.21 153.343C18.387 153.592 18.4755 153.889 18.4755 154.234C18.4755 154.432 18.429 154.626 18.336 154.815C18.243 155.001 18.1215 155.166 17.9715 155.31C17.8245 155.451 17.6685 155.556 17.5035 155.625C17.8545 155.736 18.1425 155.928 18.3675 156.201C18.5925 156.471 18.7035 156.813 18.7005 157.227C18.6975 157.581 18.594 157.902 18.39 158.19C18.186 158.478 17.8995 158.707 17.5305 158.878C17.1645 159.05 16.737 159.135 16.248 159.135ZM21.9032 159.135C21.4232 159.135 21.0017 159.038 20.6387 158.842C20.2757 158.644 19.9922 158.368 19.7882 158.014C19.5872 157.66 19.4867 157.249 19.4867 156.781C19.4867 156.439 19.5452 156.124 19.6622 155.836C19.7792 155.545 19.9442 155.293 20.1572 155.08C20.3702 154.867 20.6192 154.702 20.9042 154.585C21.1922 154.468 21.5057 154.41 21.8447 154.41C22.2137 154.41 22.5422 154.476 22.8302 154.608C23.1182 154.737 23.3567 154.918 23.5457 155.152C23.7377 155.386 23.8727 155.661 23.9507 155.976C24.0317 156.288 24.0452 156.627 23.9912 156.993H20.4362C20.4302 157.26 20.4887 157.494 20.6117 157.695C20.7347 157.893 20.9102 158.047 21.1382 158.158C21.3692 158.269 21.6407 158.325 21.9527 158.325C22.2047 158.325 22.4477 158.287 22.6817 158.212C22.9187 158.134 23.1332 158.02 23.3252 157.87L23.7077 158.581C23.5637 158.698 23.3897 158.799 23.1857 158.883C22.9817 158.964 22.7687 159.026 22.5467 159.068C22.3247 159.113 22.1102 159.135 21.9032 159.135ZM20.4947 156.264H23.0192C23.0102 155.928 22.9022 155.664 22.6952 155.472C22.4912 155.28 22.2002 155.184 21.8222 155.184C21.4562 155.184 21.1517 155.28 20.9087 155.472C20.6687 155.664 20.5307 155.928 20.4947 156.264ZM24.8576 159.077L24.5111 158.185C24.8171 158.107 25.0406 157.984 25.1816 157.816C25.3256 157.648 25.4156 157.414 25.4516 157.114C25.4906 156.814 25.5101 156.427 25.5101 155.953V154.545H29.1326V159H28.1426V155.364H26.4326V155.953C26.4326 156.43 26.4101 156.846 26.3651 157.2C26.3231 157.554 26.2451 157.855 26.1311 158.104C26.0171 158.353 25.8566 158.557 25.6496 158.716C25.4456 158.872 25.1816 158.992 24.8576 159.077ZM32.5467 159.135C32.0667 159.135 31.6452 159.038 31.2822 158.842C30.9192 158.644 30.6357 158.368 30.4317 158.014C30.2307 157.66 30.1302 157.249 30.1302 156.781C30.1302 156.439 30.1887 156.124 30.3057 155.836C30.4227 155.545 30.5877 155.293 30.8007 155.08C31.0137 154.867 31.2627 154.702 31.5477 154.585C31.8357 154.468 32.1492 154.41 32.4882 154.41C32.8572 154.41 33.1857 154.476 33.4737 154.608C33.7617 154.737 34.0002 154.918 34.1892 155.152C34.3812 155.386 34.5162 155.661 34.5942 155.976C34.6752 156.288 34.6887 156.627 34.6347 156.993H31.0797C31.0737 157.26 31.1322 157.494 31.2552 157.695C31.3782 157.893 31.5537 158.047 31.7817 158.158C32.0127 158.269 32.2842 158.325 32.5962 158.325C32.8482 158.325 33.0912 158.287 33.3252 158.212C33.5622 158.134 33.7767 158.02 33.9687 157.87L34.3512 158.581C34.2072 158.698 34.0332 158.799 33.8292 158.883C33.6252 158.964 33.4122 159.026 33.1902 159.068C32.9682 159.113 32.7537 159.135 32.5467 159.135ZM31.1382 156.264H33.6627C33.6537 155.928 33.5457 155.664 33.3387 155.472C33.1347 155.28 32.8437 155.184 32.4657 155.184C32.0997 155.184 31.7952 155.28 31.5522 155.472C31.3122 155.664 31.1742 155.928 31.1382 156.264ZM31.4892 153.757C31.3272 153.757 31.1832 153.7 31.0572 153.586C30.9342 153.472 30.8727 153.327 30.8727 153.15C30.8727 153.03 30.9012 152.923 30.9582 152.83C31.0152 152.737 31.0902 152.665 31.1832 152.614C31.2792 152.563 31.3812 152.538 31.4892 152.538C31.6542 152.538 31.7982 152.595 31.9212 152.709C32.0472 152.823 32.1102 152.97 32.1102 153.15C32.1102 153.27 32.0817 153.376 32.0247 153.469C31.9677 153.559 31.8912 153.63 31.7952 153.681C31.7022 153.732 31.6002 153.757 31.4892 153.757ZM33.4377 153.757C33.2757 153.757 33.1317 153.7 33.0057 153.586C32.8827 153.472 32.8212 153.327 32.8212 153.15C32.8212 153.03 32.8497 152.923 32.9067 152.83C32.9637 152.737 33.0387 152.665 33.1317 152.614C33.2277 152.563 33.3297 152.538 33.4377 152.538C33.6027 152.538 33.7467 152.595 33.8697 152.709C33.9957 152.823 34.0587 152.97 34.0587 153.15C34.0587 153.27 34.0302 153.376 33.9732 153.469C33.9162 153.559 33.8397 153.63 33.7437 153.681C33.6507 153.732 33.5487 153.757 33.4377 153.757ZM35.6631 159V154.545H36.6531V156.264H38.8851V154.545H39.8751V159H38.8851V157.083H36.6531V159H35.6631ZM41.253 159V154.545H42.243V158.248H43.0485C43.3725 158.248 43.617 158.185 43.782 158.059C43.947 157.933 44.0295 157.746 44.0295 157.497C44.0295 157.251 43.953 157.062 43.8 156.93C43.647 156.798 43.422 156.732 43.125 156.732H42.108V155.989H43.2015C43.7775 155.989 44.2305 156.118 44.5605 156.376C44.8905 156.634 45.0555 157.008 45.0555 157.497C45.0555 157.812 44.976 158.082 44.817 158.307C44.658 158.529 44.4345 158.7 44.1465 158.82C43.8615 158.94 43.527 159 43.143 159H41.253ZM45.771 159V154.545H46.761V159H45.771ZM48.1348 159V154.545H49.0933V157.551L51.5098 154.545H52.3738V159H51.4198V155.958L48.9808 159H48.1348ZM50.2543 153.78C49.9213 153.78 49.6288 153.711 49.3768 153.573C49.1248 153.435 48.9298 153.244 48.7918 153.001C48.6538 152.758 48.5893 152.479 48.5983 152.164H49.4263C49.4143 152.44 49.4833 152.664 49.6333 152.835C49.7863 153.003 49.9933 153.087 50.2543 153.087C50.5153 153.087 50.7208 153.003 50.8708 152.835C51.0208 152.664 51.0883 152.44 51.0733 152.164H51.9058C51.9118 152.476 51.8443 152.754 51.7033 152.997C51.5653 153.24 51.3703 153.432 51.1183 153.573C50.8693 153.711 50.5813 153.78 50.2543 153.78ZM55.7951 159.077L55.4486 158.185C55.7546 158.107 55.9781 157.984 56.1191 157.816C56.2631 157.648 56.3531 157.414 56.3891 157.114C56.4281 156.814 56.4476 156.427 56.4476 155.953V154.545H60.0701V159H59.0801V155.364H57.3701V155.953C57.3701 156.43 57.3476 156.846 57.3026 157.2C57.2606 157.554 57.1826 157.855 57.0686 158.104C56.9546 158.353 56.7941 158.557 56.5871 158.716C56.3831 158.872 56.1191 158.992 55.7951 159.077ZM63.4842 159.135C63.0042 159.135 62.5827 159.038 62.2197 158.842C61.8567 158.644 61.5732 158.368 61.3692 158.014C61.1682 157.66 61.0677 157.249 61.0677 156.781C61.0677 156.439 61.1262 156.124 61.2432 155.836C61.3602 155.545 61.5252 155.293 61.7382 155.08C61.9512 154.867 62.2002 154.702 62.4852 154.585C62.7732 154.468 63.0867 154.41 63.4257 154.41C63.7947 154.41 64.1232 154.476 64.4112 154.608C64.6992 154.737 64.9377 154.918 65.1267 155.152C65.3187 155.386 65.4537 155.661 65.5317 155.976C65.6127 156.288 65.6262 156.627 65.5722 156.993H62.0172C62.0112 157.26 62.0697 157.494 62.1927 157.695C62.3157 157.893 62.4912 158.047 62.7192 158.158C62.9502 158.269 63.2217 158.325 63.5337 158.325C63.7857 158.325 64.0287 158.287 64.2627 158.212C64.4997 158.134 64.7142 158.02 64.9062 157.87L65.2887 158.581C65.1447 158.698 64.9707 158.799 64.7667 158.883C64.5627 158.964 64.3497 159.026 64.1277 159.068C63.9057 159.113 63.6912 159.135 63.4842 159.135ZM62.0757 156.264H64.6002C64.5912 155.928 64.4832 155.664 64.2762 155.472C64.0722 155.28 63.7812 155.184 63.4032 155.184C63.0372 155.184 62.7327 155.28 62.4897 155.472C62.2497 155.664 62.1117 155.928 62.0757 156.264ZM66.6006 159V154.545H67.4601H67.4871L69.4851 157.434L69.0576 157.443L70.9566 154.545H71.8341V159H70.9341L70.9476 155.706L71.1321 155.787L69.5391 158.113H68.9001L67.2351 155.782L67.4196 155.701L67.4331 159H66.6006ZM73.21 159V154.545H74.0695H74.0965L76.0945 157.434L75.667 157.443L77.566 154.545H78.4435V159H77.5435L77.557 155.706L77.7415 155.787L76.1485 158.113H75.5095L73.8445 155.782L74.029 155.701L74.0425 159H73.21ZM79.8194 159V154.545H80.7779V157.551L83.1944 154.545H84.0584V159H83.1044V155.958L80.6654 159H79.8194ZM85.4356 159V154.545H86.4256V156.264H88.6576V154.545H89.6476V159H88.6576V157.083H86.4256V159H85.4356ZM91.0254 159V154.545H93.9594V155.364H92.0154V159H91.0254ZM97.0811 159V154.545H98.0396V157.551L100.456 154.545H101.32V159H100.366V155.958L97.9271 159H97.0811ZM105.933 159V155.364H104.133V155.953C104.133 156.358 104.109 156.724 104.061 157.051C104.013 157.378 103.927 157.666 103.804 157.915C103.681 158.161 103.509 158.365 103.287 158.527C103.068 158.689 102.787 158.808 102.445 158.883L102.202 158.212C102.487 158.143 102.702 158.014 102.846 157.825C102.99 157.636 103.086 157.387 103.134 157.078C103.185 156.766 103.21 156.391 103.21 155.953V154.545H106.923V159H105.933ZM102.202 160.35V158.212L102.814 158.275L102.967 158.181H107.818V160.35H106.914V159H103.107V160.35H102.202ZM110.655 159.135C110.175 159.135 109.754 159.038 109.391 158.842C109.028 158.644 108.744 158.368 108.54 158.014C108.339 157.66 108.239 157.249 108.239 156.781C108.239 156.439 108.297 156.124 108.414 155.836C108.531 155.545 108.696 155.293 108.909 155.08C109.122 154.867 109.371 154.702 109.656 154.585C109.944 154.468 110.258 154.41 110.597 154.41C110.966 154.41 111.294 154.476 111.582 154.608C111.87 154.737 112.109 154.918 112.298 155.152C112.49 155.386 112.625 155.661 112.703 155.976C112.784 156.288 112.797 156.627 112.743 156.993H109.188C109.182 157.26 109.241 157.494 109.364 157.695C109.487 157.893 109.662 158.047 109.89 158.158C110.121 158.269 110.393 158.325 110.705 158.325C110.957 158.325 111.2 158.287 111.434 158.212C111.671 158.134 111.885 158.02 112.077 157.87L112.46 158.581C112.316 158.698 112.142 158.799 111.938 158.883C111.734 158.964 111.521 159.026 111.299 159.068C111.077 159.113 110.862 159.135 110.655 159.135ZM109.247 156.264H111.771C111.762 155.928 111.654 155.664 111.447 155.472C111.243 155.28 110.952 155.184 110.574 155.184C110.208 155.184 109.904 155.28 109.661 155.472C109.421 155.664 109.283 155.928 109.247 156.264ZM109.598 153.757C109.436 153.757 109.292 153.7 109.166 153.586C109.043 153.472 108.981 153.327 108.981 153.15C108.981 153.03 109.01 152.923 109.067 152.83C109.124 152.737 109.199 152.665 109.292 152.614C109.388 152.563 109.49 152.538 109.598 152.538C109.763 152.538 109.907 152.595 110.03 152.709C110.156 152.823 110.219 152.97 110.219 153.15C110.219 153.27 110.19 153.376 110.133 153.469C110.076 153.559 110 153.63 109.904 153.681C109.811 153.732 109.709 153.757 109.598 153.757ZM111.546 153.757C111.384 153.757 111.24 153.7 111.114 153.586C110.991 153.472 110.93 153.327 110.93 153.15C110.93 153.03 110.958 152.923 111.015 152.83C111.072 152.737 111.147 152.665 111.24 152.614C111.336 152.563 111.438 152.538 111.546 152.538C111.711 152.538 111.855 152.595 111.978 152.709C112.104 152.823 112.167 152.97 112.167 153.15C112.167 153.27 112.139 153.376 112.082 153.469C112.025 153.559 111.948 153.63 111.852 153.681C111.759 153.732 111.657 153.757 111.546 153.757ZM114.766 159V155.364H113.304V154.545H117.223V155.364H115.756V159H114.766ZM120.337 159V154.545H121.327V156.264H123.559V154.545H124.549V159H123.559V157.083H121.327V159H120.337ZM127.164 159.135C126.855 159.135 126.584 159.078 126.35 158.964C126.116 158.847 125.933 158.683 125.801 158.473C125.672 158.26 125.607 158.01 125.607 157.722C125.607 157.479 125.669 157.26 125.792 157.065C125.915 156.867 126.105 156.703 126.363 156.574C126.624 156.445 126.959 156.36 127.367 156.318C127.775 156.273 128.265 156.279 128.838 156.336L128.856 157.02C128.448 156.963 128.097 156.939 127.803 156.948C127.509 156.957 127.268 156.994 127.079 157.06C126.893 157.123 126.755 157.209 126.665 157.317C126.578 157.422 126.534 157.543 126.534 157.681C126.534 157.897 126.611 158.064 126.764 158.181C126.92 158.298 127.133 158.356 127.403 158.356C127.634 158.356 127.841 158.314 128.024 158.23C128.207 158.146 128.351 158.028 128.456 157.875C128.564 157.722 128.618 157.542 128.618 157.335V156.151C128.618 155.953 128.576 155.782 128.492 155.638C128.408 155.491 128.28 155.377 128.109 155.296C127.938 155.215 127.725 155.175 127.47 155.175C127.236 155.175 127.005 155.211 126.777 155.283C126.549 155.352 126.332 155.461 126.125 155.611L125.846 154.882C126.125 154.693 126.416 154.56 126.719 154.482C127.022 154.404 127.313 154.365 127.592 154.365C128.006 154.365 128.36 154.431 128.654 154.563C128.951 154.692 129.179 154.888 129.338 155.152C129.497 155.413 129.576 155.743 129.576 156.142V159H128.685V158.473C128.535 158.686 128.327 158.85 128.06 158.964C127.793 159.078 127.494 159.135 127.164 159.135ZM134.377 159V153.762L132.743 154.36L132.482 153.577L135.241 152.565H135.313V159H134.377ZM24.044 170V165.545H28.2515V170H27.2615V166.364H25.034V170H24.044ZM31.6545 170.135C31.1895 170.135 30.774 170.029 30.408 169.815C30.045 169.599 29.76 169.313 29.553 168.956C29.346 168.596 29.2425 168.201 29.2425 167.772C29.2425 167.454 29.301 167.154 29.418 166.872C29.538 166.587 29.706 166.335 29.922 166.116C30.141 165.897 30.3975 165.725 30.6915 165.599C30.9855 165.473 31.308 165.41 31.659 165.41C32.124 165.41 32.538 165.518 32.901 165.734C33.267 165.947 33.5535 166.233 33.7605 166.593C33.9675 166.95 34.071 167.343 34.071 167.772C34.071 168.087 34.011 168.387 33.891 168.672C33.774 168.957 33.6075 169.209 33.3915 169.428C33.1755 169.647 32.9205 169.82 32.6265 169.946C32.3325 170.072 32.0085 170.135 31.6545 170.135ZM31.6545 169.257C31.9305 169.257 32.175 169.197 32.388 169.077C32.604 168.954 32.7735 168.782 32.8965 168.56C33.0195 168.338 33.081 168.075 33.081 167.772C33.081 167.469 33.0195 167.207 32.8965 166.985C32.7735 166.76 32.604 166.587 32.388 166.467C32.175 166.347 31.9305 166.287 31.6545 166.287C31.3785 166.287 31.1325 166.347 30.9165 166.467C30.7035 166.587 30.5355 166.76 30.4125 166.985C30.2925 167.207 30.2325 167.469 30.2325 167.772C30.2325 168.075 30.294 168.338 30.417 168.56C30.54 168.782 30.708 168.954 30.921 169.077C31.137 169.197 31.3815 169.257 31.6545 169.257ZM34.9035 170.077L34.557 169.185C34.863 169.107 35.0865 168.984 35.2275 168.816C35.3715 168.648 35.4615 168.414 35.4975 168.114C35.5365 167.814 35.556 167.427 35.556 166.953V165.545H39.1785V170H38.1885V166.364H36.4785V166.953C36.4785 167.43 36.456 167.846 36.411 168.2C36.369 168.554 36.291 168.855 36.177 169.104C36.063 169.353 35.9025 169.557 35.6955 169.716C35.4915 169.872 35.2275 169.992 34.9035 170.077ZM42.5926 170.135C42.1126 170.135 41.6911 170.038 41.3281 169.842C40.9651 169.644 40.6816 169.368 40.4776 169.014C40.2766 168.66 40.1761 168.249 40.1761 167.781C40.1761 167.439 40.2346 167.124 40.3516 166.836C40.4686 166.545 40.6336 166.293 40.8466 166.08C41.0596 165.867 41.3086 165.702 41.5936 165.585C41.8816 165.468 42.1951 165.41 42.5341 165.41C42.9031 165.41 43.2316 165.476 43.5196 165.608C43.8076 165.737 44.0461 165.918 44.2351 166.152C44.4271 166.386 44.5621 166.661 44.6401 166.976C44.7211 167.288 44.7346 167.627 44.6806 167.993H41.1256C41.1196 168.26 41.1781 168.494 41.3011 168.695C41.4241 168.893 41.5996 169.047 41.8276 169.158C42.0586 169.269 42.3301 169.325 42.6421 169.325C42.8941 169.325 43.1371 169.287 43.3711 169.212C43.6081 169.134 43.8226 169.02 44.0146 168.87L44.3971 169.581C44.2531 169.698 44.0791 169.799 43.8751 169.883C43.6711 169.964 43.4581 170.026 43.2361 170.068C43.0141 170.113 42.7996 170.135 42.5926 170.135ZM41.1841 167.264H43.7086C43.6996 166.928 43.5916 166.664 43.3846 166.472C43.1806 166.28 42.8896 166.184 42.5116 166.184C42.1456 166.184 41.8411 166.28 41.5981 166.472C41.3581 166.664 41.2201 166.928 41.1841 167.264ZM47.9151 170V165.545H50.0391C50.5431 165.545 50.9466 165.641 51.2496 165.833C51.5526 166.025 51.7041 166.313 51.7041 166.697C51.7041 166.877 51.6606 167.037 51.5736 167.178C51.4866 167.316 51.3666 167.432 51.2136 167.525C51.0606 167.618 50.8821 167.685 50.6781 167.728L50.6601 167.507C51.0531 167.561 51.3576 167.691 51.5736 167.898C51.7896 168.105 51.8976 168.368 51.8976 168.686C51.8976 168.956 51.8271 169.19 51.6861 169.388C51.5451 169.583 51.3426 169.734 51.0786 169.842C50.8146 169.947 50.4981 170 50.1291 170H47.9151ZM48.8736 169.266H49.9941C50.2911 169.266 50.5191 169.217 50.6781 169.118C50.8401 169.019 50.9211 168.87 50.9211 168.672C50.9211 168.477 50.8416 168.332 50.6826 168.236C50.5236 168.137 50.2941 168.087 49.9941 168.087H48.7431V167.381H49.8906C50.1696 167.381 50.3856 167.339 50.5386 167.255C50.6916 167.168 50.7681 167.027 50.7681 166.832C50.7681 166.637 50.6916 166.496 50.5386 166.409C50.3856 166.319 50.1696 166.274 49.8906 166.274H48.8736V169.266ZM53.0127 170V165.545H57.2202V170H56.2302V166.364H54.0027V170H53.0127ZM58.5938 171.89V165.545H59.4848V166.17C59.6618 165.945 59.8883 165.762 60.1643 165.621C60.4403 165.48 60.7808 165.41 61.1858 165.41C61.6208 165.41 62.0063 165.513 62.3423 165.72C62.6813 165.924 62.9453 166.205 63.1343 166.562C63.3233 166.916 63.4178 167.319 63.4178 167.772C63.4178 168.099 63.3638 168.407 63.2558 168.695C63.1478 168.98 62.9933 169.23 62.7923 169.446C62.5943 169.662 62.3573 169.832 62.0813 169.955C61.8083 170.075 61.5053 170.135 61.1723 170.135C60.8243 170.135 60.5183 170.072 60.2543 169.946C59.9903 169.82 59.7653 169.65 59.5793 169.438V171.89H58.5938ZM61.0058 169.257C61.2818 169.257 61.5263 169.197 61.7393 169.077C61.9553 168.954 62.1233 168.782 62.2433 168.56C62.3663 168.338 62.4278 168.075 62.4278 167.772C62.4278 167.469 62.3663 167.207 62.2433 166.985C62.1203 166.76 61.9508 166.587 61.7348 166.467C61.5218 166.347 61.2788 166.287 61.0058 166.287C60.7298 166.287 60.4838 166.347 60.2678 166.467C60.0548 166.587 59.8868 166.76 59.7638 166.985C59.6408 167.207 59.5793 167.469 59.5793 167.772C59.5793 168.075 59.6408 168.338 59.7638 168.56C59.8868 168.782 60.0548 168.954 60.2678 169.077C60.4838 169.197 60.7298 169.257 61.0058 169.257ZM65.6496 170.135C65.3406 170.135 65.0691 170.078 64.8351 169.964C64.6011 169.847 64.4181 169.683 64.2861 169.473C64.1571 169.26 64.0926 169.01 64.0926 168.722C64.0926 168.479 64.1541 168.26 64.2771 168.065C64.4001 167.867 64.5906 167.703 64.8486 167.574C65.1096 167.445 65.4441 167.36 65.8521 167.318C66.2601 167.273 66.7506 167.279 67.3236 167.336L67.3416 168.02C66.9336 167.963 66.5826 167.939 66.2886 167.948C65.9946 167.957 65.7531 167.994 65.5641 168.06C65.3781 168.123 65.2401 168.209 65.1501 168.317C65.0631 168.422 65.0196 168.543 65.0196 168.681C65.0196 168.897 65.0961 169.064 65.2491 169.181C65.4051 169.298 65.6181 169.356 65.8881 169.356C66.1191 169.356 66.3261 169.314 66.5091 169.23C66.6921 169.146 66.8361 169.028 66.9411 168.875C67.0491 168.722 67.1031 168.542 67.1031 168.335V167.151C67.1031 166.953 67.0611 166.782 66.9771 166.638C66.8931 166.491 66.7656 166.377 66.5946 166.296C66.4236 166.215 66.2106 166.175 65.9556 166.175C65.7216 166.175 65.4906 166.211 65.2626 166.283C65.0346 166.352 64.8171 166.461 64.6101 166.611L64.3311 165.882C64.6101 165.693 64.9011 165.56 65.2041 165.482C65.5071 165.404 65.7981 165.365 66.0771 165.365C66.4911 165.365 66.8451 165.431 67.1391 165.563C67.4361 165.692 67.6641 165.888 67.8231 166.152C67.9821 166.413 68.0616 166.743 68.0616 167.142V170H67.1706V169.473C67.0206 169.686 66.8121 169.85 66.5451 169.964C66.2781 170.078 65.9796 170.135 65.6496 170.135ZM69.378 170V165.545H71.502C72.006 165.545 72.4095 165.641 72.7125 165.833C73.0155 166.025 73.167 166.313 73.167 166.697C73.167 166.877 73.1235 167.037 73.0365 167.178C72.9495 167.316 72.8295 167.432 72.6765 167.525C72.5235 167.618 72.345 167.685 72.141 167.728L72.123 167.507C72.516 167.561 72.8205 167.691 73.0365 167.898C73.2525 168.105 73.3605 168.368 73.3605 168.686C73.3605 168.956 73.29 169.19 73.149 169.388C73.008 169.583 72.8055 169.734 72.5415 169.842C72.2775 169.947 71.961 170 71.592 170H69.378ZM70.3365 169.266H71.457C71.754 169.266 71.982 169.217 72.141 169.118C72.303 169.019 72.384 168.87 72.384 168.672C72.384 168.477 72.3045 168.332 72.1455 168.236C71.9865 168.137 71.757 168.087 71.457 168.087H70.206V167.381H71.3535C71.6325 167.381 71.8485 167.339 72.0015 167.255C72.1545 167.168 72.231 167.027 72.231 166.832C72.231 166.637 72.1545 166.496 72.0015 166.409C71.8485 166.319 71.6325 166.274 71.3535 166.274H70.3365V169.266ZM76.5051 170.135C76.0401 170.135 75.6246 170.029 75.2586 169.815C74.8956 169.599 74.6106 169.313 74.4036 168.956C74.1966 168.596 74.0931 168.201 74.0931 167.772C74.0931 167.454 74.1516 167.154 74.2686 166.872C74.3886 166.587 74.5566 166.335 74.7726 166.116C74.9916 165.897 75.2481 165.725 75.5421 165.599C75.8361 165.473 76.1586 165.41 76.5096 165.41C76.9746 165.41 77.3886 165.518 77.7516 165.734C78.1176 165.947 78.4041 166.233 78.6111 166.593C78.8181 166.95 78.9216 167.343 78.9216 167.772C78.9216 168.087 78.8616 168.387 78.7416 168.672C78.6246 168.957 78.4581 169.209 78.2421 169.428C78.0261 169.647 77.7711 169.82 77.4771 169.946C77.1831 170.072 76.8591 170.135 76.5051 170.135ZM76.5051 169.257C76.7811 169.257 77.0256 169.197 77.2386 169.077C77.4546 168.954 77.6241 168.782 77.7471 168.56C77.8701 168.338 77.9316 168.075 77.9316 167.772C77.9316 167.469 77.8701 167.207 77.7471 166.985C77.6241 166.76 77.4546 166.587 77.2386 166.467C77.0256 166.347 76.7811 166.287 76.5051 166.287C76.2291 166.287 75.9831 166.347 75.7671 166.467C75.5541 166.587 75.3861 166.76 75.2631 166.985C75.1431 167.207 75.0831 167.469 75.0831 167.772C75.0831 168.075 75.1446 168.338 75.2676 168.56C75.3906 168.782 75.5586 168.954 75.7716 169.077C75.9876 169.197 76.2321 169.257 76.5051 169.257ZM82.1221 170V165.545H83.0806V168.551L85.4971 165.545H86.3611V170H85.4071V166.958L82.9681 170H82.1221ZM87.5763 170.077L87.2298 169.185C87.5358 169.107 87.7593 168.984 87.9003 168.816C88.0443 168.648 88.1343 168.414 88.1703 168.114C88.2093 167.814 88.2288 167.427 88.2288 166.953V165.545H91.8513V170H90.8613V166.364H89.1513V166.953C89.1513 167.43 89.1288 167.846 89.0838 168.2C89.0418 168.554 88.9638 168.855 88.8498 169.104C88.7358 169.353 88.5753 169.557 88.3683 169.716C88.1643 169.872 87.9003 169.992 87.5763 170.077ZM93.2315 170V165.545H94.19V168.551L96.6065 165.545H97.4705V170H96.5165V166.958L94.0775 170H93.2315ZM101.054 170V165.545H103.178C103.682 165.545 104.085 165.641 104.388 165.833C104.691 166.025 104.843 166.313 104.843 166.697C104.843 166.877 104.799 167.037 104.712 167.178C104.625 167.316 104.505 167.432 104.352 167.525C104.199 167.618 104.021 167.685 103.817 167.728L103.799 167.507C104.192 167.561 104.496 167.691 104.712 167.898C104.928 168.105 105.036 168.368 105.036 168.686C105.036 168.956 104.966 169.19 104.825 169.388C104.684 169.583 104.481 169.734 104.217 169.842C103.953 169.947 103.637 170 103.268 170H101.054ZM102.012 169.266H103.133C103.43 169.266 103.658 169.217 103.817 169.118C103.979 169.019 104.06 168.87 104.06 168.672C104.06 168.477 103.98 168.332 103.821 168.236C103.662 168.137 103.433 168.087 103.133 168.087H101.882V167.381H103.029C103.308 167.381 103.524 167.339 103.677 167.255C103.83 167.168 103.907 167.027 103.907 166.832C103.907 166.637 103.83 166.496 103.677 166.409C103.524 166.319 103.308 166.274 103.029 166.274H102.012V169.266ZM105.989 170.077L105.643 169.185C105.949 169.107 106.172 168.984 106.313 168.816C106.457 168.648 106.547 168.414 106.583 168.114C106.622 167.814 106.642 167.427 106.642 166.953V165.545H110.264V170H109.274V166.364H107.564V166.953C107.564 167.43 107.542 167.846 107.497 168.2C107.455 168.554 107.377 168.855 107.263 169.104C107.149 169.353 106.988 169.557 106.781 169.716C106.577 169.872 106.313 169.992 105.989 170.077ZM113.679 170.135C113.199 170.135 112.777 170.038 112.414 169.842C112.051 169.644 111.768 169.368 111.564 169.014C111.363 168.66 111.262 168.249 111.262 167.781C111.262 167.439 111.321 167.124 111.438 166.836C111.555 166.545 111.72 166.293 111.933 166.08C112.146 165.867 112.395 165.702 112.68 165.585C112.968 165.468 113.281 165.41 113.62 165.41C113.989 165.41 114.318 165.476 114.606 165.608C114.894 165.737 115.132 165.918 115.321 166.152C115.513 166.386 115.648 166.661 115.726 166.976C115.807 167.288 115.821 167.627 115.767 167.993H112.212C112.206 168.26 112.264 168.494 112.387 168.695C112.51 168.893 112.686 169.047 112.914 169.158C113.145 169.269 113.416 169.325 113.728 169.325C113.98 169.325 114.223 169.287 114.457 169.212C114.694 169.134 114.909 169.02 115.101 168.87L115.483 169.581C115.339 169.698 115.165 169.799 114.961 169.883C114.757 169.964 114.544 170.026 114.322 170.068C114.1 170.113 113.886 170.135 113.679 170.135ZM112.27 167.264H114.795C114.786 166.928 114.678 166.664 114.471 166.472C114.267 166.28 113.976 166.184 113.598 166.184C113.232 166.184 112.927 166.28 112.684 166.472C112.444 166.664 112.306 166.928 112.27 167.264ZM116.795 170V165.545H118.919C119.423 165.545 119.826 165.641 120.129 165.833C120.432 166.025 120.584 166.313 120.584 166.697C120.584 166.877 120.54 167.037 120.453 167.178C120.366 167.316 120.246 167.432 120.093 167.525C119.94 167.618 119.762 167.685 119.558 167.728L119.54 167.507C119.933 167.561 120.237 167.691 120.453 167.898C120.669 168.105 120.777 168.368 120.777 168.686C120.777 168.956 120.707 169.19 120.566 169.388C120.425 169.583 120.222 169.734 119.958 169.842C119.694 169.947 119.378 170 119.009 170H116.795ZM117.753 169.266H118.874C119.171 169.266 119.399 169.217 119.558 169.118C119.72 169.019 119.801 168.87 119.801 168.672C119.801 168.477 119.721 168.332 119.562 168.236C119.403 168.137 119.174 168.087 118.874 168.087H117.623V167.381H118.77C119.049 167.381 119.265 167.339 119.418 167.255C119.571 167.168 119.648 167.027 119.648 166.832C119.648 166.637 119.571 166.496 119.418 166.409C119.265 166.319 119.049 166.274 118.77 166.274H117.753V169.266ZM123.922 170.135C123.457 170.135 123.042 170.029 122.676 169.815C122.313 169.599 122.028 169.313 121.821 168.956C121.614 168.596 121.51 168.201 121.51 167.772C121.51 167.454 121.569 167.154 121.686 166.872C121.806 166.587 121.974 166.335 122.19 166.116C122.409 165.897 122.665 165.725 122.959 165.599C123.253 165.473 123.576 165.41 123.927 165.41C124.392 165.41 124.806 165.518 125.169 165.734C125.535 165.947 125.821 166.233 126.028 166.593C126.235 166.95 126.339 167.343 126.339 167.772C126.339 168.087 126.279 168.387 126.159 168.672C126.042 168.957 125.875 169.209 125.659 169.428C125.443 169.647 125.188 169.82 124.894 169.946C124.6 170.072 124.276 170.135 123.922 170.135ZM123.922 169.257C124.198 169.257 124.443 169.197 124.656 169.077C124.872 168.954 125.041 168.782 125.164 168.56C125.287 168.338 125.349 168.075 125.349 167.772C125.349 167.469 125.287 167.207 125.164 166.985C125.041 166.76 124.872 166.587 124.656 166.467C124.443 166.347 124.198 166.287 123.922 166.287C123.646 166.287 123.4 166.347 123.184 166.467C122.971 166.587 122.803 166.76 122.68 166.985C122.56 167.207 122.5 167.469 122.5 167.772C122.5 168.075 122.562 168.338 122.685 168.56C122.808 168.782 122.976 168.954 123.189 169.077C123.405 169.197 123.649 169.257 123.922 169.257ZM11.4229 181V176.545H13.5469C14.0509 176.545 14.4544 176.641 14.7574 176.833C15.0604 177.025 15.2119 177.313 15.2119 177.697C15.2119 177.877 15.1684 178.037 15.0814 178.178C14.9944 178.316 14.8744 178.432 14.7214 178.525C14.5684 178.618 14.3899 178.685 14.1859 178.728L14.1679 178.507C14.5609 178.561 14.8654 178.691 15.0814 178.898C15.2974 179.105 15.4054 179.368 15.4054 179.686C15.4054 179.956 15.3349 180.19 15.1939 180.388C15.0529 180.583 14.8504 180.734 14.5864 180.842C14.3224 180.947 14.0059 181 13.6369 181H11.4229ZM12.3814 180.266H13.5019C13.7989 180.266 14.0269 180.217 14.1859 180.118C14.3479 180.019 14.4289 179.87 14.4289 179.672C14.4289 179.477 14.3494 179.332 14.1904 179.236C14.0314 179.137 13.8019 179.087 13.5019 179.087H12.2509V178.381H13.3984C13.6774 178.381 13.8934 178.339 14.0464 178.255C14.1994 178.168 14.2759 178.027 14.2759 177.832C14.2759 177.637 14.1994 177.496 14.0464 177.409C13.8934 177.319 13.6774 177.274 13.3984 177.274H12.3814V180.266ZM16.5205 181V176.545H17.38H17.407L19.405 179.434L18.9775 179.443L20.8765 176.545H21.754V181H20.854L20.8675 177.706L21.052 177.787L19.459 180.113H18.82L17.155 177.782L17.3395 177.701L17.353 181H16.5205ZM25.1639 181.135C24.6839 181.135 24.2624 181.038 23.8994 180.842C23.5364 180.644 23.2529 180.368 23.0489 180.014C22.8479 179.66 22.7474 179.249 22.7474 178.781C22.7474 178.439 22.8059 178.124 22.9229 177.836C23.0399 177.545 23.2049 177.293 23.4179 177.08C23.6309 176.867 23.8799 176.702 24.1649 176.585C24.4529 176.468 24.7664 176.41 25.1054 176.41C25.4744 176.41 25.8029 176.476 26.0909 176.608C26.3789 176.737 26.6174 176.918 26.8064 177.152C26.9984 177.386 27.1334 177.661 27.2114 177.976C27.2924 178.288 27.3059 178.627 27.2519 178.993H23.6969C23.6909 179.26 23.7494 179.494 23.8724 179.695C23.9954 179.893 24.1709 180.047 24.3989 180.158C24.6299 180.269 24.9014 180.325 25.2134 180.325C25.4654 180.325 25.7084 180.287 25.9424 180.212C26.1794 180.134 26.3939 180.02 26.5859 179.87L26.9684 180.581C26.8244 180.698 26.6504 180.799 26.4464 180.883C26.2424 180.964 26.0294 181.026 25.8074 181.068C25.5854 181.113 25.3709 181.135 25.1639 181.135ZM23.7554 178.264H26.2799C26.2709 177.928 26.1629 177.664 25.9559 177.472C25.7519 177.28 25.4609 177.184 25.0829 177.184C24.7169 177.184 24.4124 177.28 24.1694 177.472C23.9294 177.664 23.7914 177.928 23.7554 178.264ZM30.3672 181.135C29.8992 181.135 29.4822 181.033 29.1162 180.829C28.7502 180.622 28.4622 180.341 28.2522 179.987C28.0452 179.63 27.9417 179.225 27.9417 178.772C27.9417 178.43 28.0032 178.117 28.1262 177.832C28.2492 177.544 28.4232 177.293 28.6482 177.08C28.8732 176.867 29.1372 176.702 29.4402 176.585C29.7462 176.468 30.0777 176.41 30.4347 176.41C30.7347 176.41 31.0122 176.45 31.2672 176.531C31.5252 176.609 31.7622 176.731 31.9782 176.896L31.5012 177.652C31.3632 177.529 31.2042 177.437 31.0242 177.377C30.8472 177.317 30.6582 177.287 30.4572 177.287C30.1452 177.287 29.8767 177.346 29.6517 177.463C29.4267 177.58 29.2512 177.749 29.1252 177.971C29.0022 178.19 28.9407 178.456 28.9407 178.768C28.9407 179.233 29.0757 179.597 29.3457 179.861C29.6187 180.125 29.9892 180.257 30.4572 180.257C30.6792 180.257 30.8892 180.217 31.0872 180.136C31.2852 180.052 31.4502 179.942 31.5822 179.807L32.0547 180.559C31.8177 180.739 31.5537 180.88 31.2627 180.982C30.9717 181.084 30.6732 181.135 30.3672 181.135ZM33.9594 181V177.364H32.4969V176.545H36.4164V177.364H34.9494V181H33.9594ZM39.3582 181.135C38.8782 181.135 38.4567 181.038 38.0937 180.842C37.7307 180.644 37.4472 180.368 37.2432 180.014C37.0422 179.66 36.9417 179.249 36.9417 178.781C36.9417 178.439 37.0002 178.124 37.1172 177.836C37.2342 177.545 37.3992 177.293 37.6122 177.08C37.8252 176.867 38.0742 176.702 38.3592 176.585C38.6472 176.468 38.9607 176.41 39.2997 176.41C39.6687 176.41 39.9972 176.476 40.2852 176.608C40.5732 176.737 40.8117 176.918 41.0007 177.152C41.1927 177.386 41.3277 177.661 41.4057 177.976C41.4867 178.288 41.5002 178.627 41.4462 178.993H37.8912C37.8852 179.26 37.9437 179.494 38.0667 179.695C38.1897 179.893 38.3652 180.047 38.5932 180.158C38.8242 180.269 39.0957 180.325 39.4077 180.325C39.6597 180.325 39.9027 180.287 40.1367 180.212C40.3737 180.134 40.5882 180.02 40.7802 179.87L41.1627 180.581C41.0187 180.698 40.8447 180.799 40.6407 180.883C40.4367 180.964 40.2237 181.026 40.0017 181.068C39.7797 181.113 39.5652 181.135 39.3582 181.135ZM37.9497 178.264H40.4742C40.4652 177.928 40.3572 177.664 40.1502 177.472C39.9462 177.28 39.6552 177.184 39.2772 177.184C38.9112 177.184 38.6067 177.28 38.3637 177.472C38.1237 177.664 37.9857 177.928 37.9497 178.264ZM46.7237 181.135C46.2557 181.135 45.8387 181.033 45.4727 180.829C45.1067 180.622 44.8187 180.341 44.6087 179.987C44.4017 179.63 44.2982 179.225 44.2982 178.772C44.2982 178.43 44.3597 178.117 44.4827 177.832C44.6057 177.544 44.7797 177.293 45.0047 177.08C45.2297 176.867 45.4937 176.702 45.7967 176.585C46.1027 176.468 46.4342 176.41 46.7912 176.41C47.0912 176.41 47.3687 176.45 47.6237 176.531C47.8817 176.609 48.1187 176.731 48.3347 176.896L47.8577 177.652C47.7197 177.529 47.5607 177.437 47.3807 177.377C47.2037 177.317 47.0147 177.287 46.8137 177.287C46.5017 177.287 46.2332 177.346 46.0082 177.463C45.7832 177.58 45.6077 177.749 45.4817 177.971C45.3587 178.19 45.2972 178.456 45.2972 178.768C45.2972 179.233 45.4322 179.597 45.7022 179.861C45.9752 180.125 46.3457 180.257 46.8137 180.257C47.0357 180.257 47.2457 180.217 47.4437 180.136C47.6417 180.052 47.8067 179.942 47.9387 179.807L48.4112 180.559C48.1742 180.739 47.9102 180.88 47.6192 180.982C47.3282 181.084 47.0297 181.135 46.7237 181.135ZM51.3654 181.077L51.0189 180.185C51.3249 180.107 51.5484 179.984 51.6894 179.816C51.8334 179.648 51.9234 179.414 51.9594 179.114C51.9984 178.814 52.0179 178.427 52.0179 177.953V176.545H55.6404V181H54.6504V177.364H52.9404V177.953C52.9404 178.43 52.9179 178.846 52.8729 179.2C52.8309 179.554 52.7529 179.855 52.6389 180.104C52.5249 180.353 52.3644 180.557 52.1574 180.716C51.9534 180.872 51.6894 180.992 51.3654 181.077ZM59.0545 181.135C58.5745 181.135 58.153 181.038 57.79 180.842C57.427 180.644 57.1435 180.368 56.9395 180.014C56.7385 179.66 56.638 179.249 56.638 178.781C56.638 178.439 56.6965 178.124 56.8135 177.836C56.9305 177.545 57.0955 177.293 57.3085 177.08C57.5215 176.867 57.7705 176.702 58.0555 176.585C58.3435 176.468 58.657 176.41 58.996 176.41C59.365 176.41 59.6935 176.476 59.9815 176.608C60.2695 176.737 60.508 176.918 60.697 177.152C60.889 177.386 61.024 177.661 61.102 177.976C61.183 178.288 61.1965 178.627 61.1425 178.993H57.5875C57.5815 179.26 57.64 179.494 57.763 179.695C57.886 179.893 58.0615 180.047 58.2895 180.158C58.5205 180.269 58.792 180.325 59.104 180.325C59.356 180.325 59.599 180.287 59.833 180.212C60.07 180.134 60.2845 180.02 60.4765 179.87L60.859 180.581C60.715 180.698 60.541 180.799 60.337 180.883C60.133 180.964 59.92 181.026 59.698 181.068C59.476 181.113 59.2615 181.135 59.0545 181.135ZM57.646 178.264H60.1705C60.1615 177.928 60.0535 177.664 59.8465 177.472C59.6425 177.28 59.3515 177.184 58.9735 177.184C58.6075 177.184 58.303 177.28 58.06 177.472C57.82 177.664 57.682 177.928 57.646 178.264ZM62.1709 181V176.545H63.0304H63.0574L65.0554 179.434L64.6279 179.443L66.5269 176.545H67.4044V181H66.5044L66.5179 177.706L66.7024 177.787L65.1094 180.113H64.4704L62.8054 177.782L62.9899 177.701L63.0034 181H62.1709ZM68.7803 181V176.545H69.6398H69.6668L71.6648 179.434L71.2373 179.443L73.1363 176.545H74.0138V181H73.1138L73.1273 177.706L73.3118 177.787L71.7188 180.113H71.0798L69.4148 177.782L69.5993 177.701L69.6128 181H68.7803ZM75.3897 181V176.545H76.3482V179.551L78.7647 176.545H79.6287V181H78.6747V177.958L76.2357 181H75.3897ZM81.0059 181V176.545H81.9959V178.264H84.2279V176.545H85.2179V181H84.2279V179.083H81.9959V181H81.0059ZM86.5957 181V176.545H89.5297V177.364H87.5857V181H86.5957ZM91.6828 181.135C91.3738 181.135 91.1023 181.078 90.8683 180.964C90.6343 180.847 90.4513 180.683 90.3193 180.473C90.1903 180.26 90.1258 180.01 90.1258 179.722C90.1258 179.479 90.1873 179.26 90.3103 179.065C90.4333 178.867 90.6238 178.703 90.8818 178.574C91.1428 178.445 91.4773 178.36 91.8853 178.318C92.2933 178.273 92.7838 178.279 93.3568 178.336L93.3748 179.02C92.9668 178.963 92.6158 178.939 92.3218 178.948C92.0278 178.957 91.7863 178.994 91.5973 179.06C91.4113 179.123 91.2733 179.209 91.1833 179.317C91.0963 179.422 91.0528 179.543 91.0528 179.681C91.0528 179.897 91.1293 180.064 91.2823 180.181C91.4383 180.298 91.6513 180.356 91.9213 180.356C92.1523 180.356 92.3593 180.314 92.5423 180.23C92.7253 180.146 92.8693 180.028 92.9743 179.875C93.0823 179.722 93.1363 179.542 93.1363 179.335V178.151C93.1363 177.953 93.0943 177.782 93.0103 177.638C92.9263 177.491 92.7988 177.377 92.6278 177.296C92.4568 177.215 92.2438 177.175 91.9888 177.175C91.7548 177.175 91.5238 177.211 91.2958 177.283C91.0678 177.352 90.8503 177.461 90.6433 177.611L90.3643 176.882C90.6433 176.693 90.9343 176.56 91.2373 176.482C91.5403 176.404 91.8313 176.365 92.1103 176.365C92.5243 176.365 92.8783 176.431 93.1723 176.563C93.4693 176.692 93.6973 176.888 93.8563 177.152C94.0153 177.413 94.0948 177.743 94.0948 178.142V181H93.2038V180.473C93.0538 180.686 92.8453 180.85 92.5783 180.964C92.3113 181.078 92.0128 181.135 91.6828 181.135ZM95.4112 181V176.545H96.2707H96.2977L98.2957 179.434L97.8682 179.443L99.7672 176.545H100.645V181H99.7447L99.7582 177.706L99.9427 177.787L98.3497 180.113H97.7107L96.0457 177.782L96.2302 177.701L96.2437 181H95.4112ZM102.021 181V176.545H102.979V179.551L105.396 176.545H106.26V181H105.306V177.958L102.867 181H102.021ZM109.843 181V176.545H110.833V178.264H113.065V176.545H114.055V181H113.065V179.083H110.833V181H109.843ZM116.67 181.135C116.361 181.135 116.09 181.078 115.856 180.964C115.622 180.847 115.439 180.683 115.307 180.473C115.178 180.26 115.113 180.01 115.113 179.722C115.113 179.479 115.175 179.26 115.298 179.065C115.421 178.867 115.611 178.703 115.869 178.574C116.13 178.445 116.465 178.36 116.873 178.318C117.281 178.273 117.771 178.279 118.344 178.336L118.362 179.02C117.954 178.963 117.603 178.939 117.309 178.948C117.015 178.957 116.774 178.994 116.585 179.06C116.399 179.123 116.261 179.209 116.171 179.317C116.084 179.422 116.04 179.543 116.04 179.681C116.04 179.897 116.117 180.064 116.27 180.181C116.426 180.298 116.639 180.356 116.909 180.356C117.14 180.356 117.347 180.314 117.53 180.23C117.713 180.146 117.857 180.028 117.962 179.875C118.07 179.722 118.124 179.542 118.124 179.335V178.151C118.124 177.953 118.082 177.782 117.998 177.638C117.914 177.491 117.786 177.377 117.615 177.296C117.444 177.215 117.231 177.175 116.976 177.175C116.742 177.175 116.511 177.211 116.283 177.283C116.055 177.352 115.838 177.461 115.631 177.611L115.352 176.882C115.631 176.693 115.922 176.56 116.225 176.482C116.528 176.404 116.819 176.365 117.098 176.365C117.512 176.365 117.866 176.431 118.16 176.563C118.457 176.692 118.685 176.888 118.844 177.152C119.003 177.413 119.082 177.743 119.082 178.142V181H118.191V180.473C118.041 180.686 117.833 180.85 117.566 180.964C117.299 181.078 117 181.135 116.67 181.135ZM122.605 181V176.545H123.595V178.264H125.827V176.545H126.817V181H125.827V179.083H123.595V181H122.605ZM130.228 181.135C129.748 181.135 129.327 181.038 128.964 180.842C128.601 180.644 128.317 180.368 128.113 180.014C127.912 179.66 127.812 179.249 127.812 178.781C127.812 178.439 127.87 178.124 127.987 177.836C128.104 177.545 128.269 177.293 128.482 177.08C128.695 176.867 128.944 176.702 129.229 176.585C129.517 176.468 129.831 176.41 130.17 176.41C130.539 176.41 130.867 176.476 131.155 176.608C131.443 176.737 131.682 176.918 131.871 177.152C132.063 177.386 132.198 177.661 132.276 177.976C132.357 178.288 132.37 178.627 132.316 178.993H128.761C128.755 179.26 128.814 179.494 128.937 179.695C129.06 179.893 129.235 180.047 129.463 180.158C129.694 180.269 129.966 180.325 130.278 180.325C130.53 180.325 130.773 180.287 131.007 180.212C131.244 180.134 131.458 180.02 131.65 179.87L132.033 180.581C131.889 180.698 131.715 180.799 131.511 180.883C131.307 180.964 131.094 181.026 130.872 181.068C130.65 181.113 130.435 181.135 130.228 181.135ZM128.82 178.264H131.344C131.335 177.928 131.227 177.664 131.02 177.472C130.816 177.28 130.525 177.184 130.147 177.184C129.781 177.184 129.477 177.28 129.234 177.472C128.994 177.664 128.856 177.928 128.82 178.264ZM129.171 175.757C129.009 175.757 128.865 175.7 128.739 175.586C128.616 175.472 128.554 175.327 128.554 175.15C128.554 175.03 128.583 174.923 128.64 174.83C128.697 174.737 128.772 174.665 128.865 174.614C128.961 174.563 129.063 174.538 129.171 174.538C129.336 174.538 129.48 174.595 129.603 174.709C129.729 174.823 129.792 174.97 129.792 175.15C129.792 175.27 129.763 175.376 129.706 175.469C129.649 175.559 129.573 175.63 129.477 175.681C129.384 175.732 129.282 175.757 129.171 175.757ZM131.119 175.757C130.957 175.757 130.813 175.7 130.687 175.586C130.564 175.472 130.503 175.327 130.503 175.15C130.503 175.03 130.531 174.923 130.588 174.83C130.645 174.737 130.72 174.665 130.813 174.614C130.909 174.563 131.011 174.538 131.119 174.538C131.284 174.538 131.428 174.595 131.551 174.709C131.677 174.823 131.74 174.97 131.74 175.15C131.74 175.27 131.712 175.376 131.655 175.469C131.598 175.559 131.521 175.63 131.425 175.681C131.332 175.732 131.23 175.757 131.119 175.757ZM133.345 181V176.545H134.204H134.231L136.229 179.434L135.802 179.443L137.701 176.545H138.578V181H137.678L137.692 177.706L137.876 177.787L136.283 180.113H135.644L133.979 177.782L134.164 177.701L134.177 181H133.345Z" fill="white"/>
<rect x="1" y="1" width="148" height="198" rx="15" stroke="black" stroke-width="2"/>
<path d="M40 78.283L40.4302 72.6541L75.3743 58.1667L110 28.2672L109.57 33.8959L105.607 39.8684L105.391 45.5609L104.961 51.1896L102.8 57.8189L93.2939 63.2952L89.4049 66.4656L90.5572 74.68L85.0838 77.9947L86.2361 84.4799L80.7626 87.7945L80.0426 95.0001L40 78.283Z" fill="#14773D"/>
<path d="M86.6661 78.851L86.2359 84.4799L80.7625 87.7945L81.1926 82.1656L86.6661 78.851Z" fill="#105F31"/>
<path d="M90.987 69.0513L90.5569 74.68L85.0835 77.9946L85.5136 72.3659L90.987 69.0513Z" fill="#105F31"/>
<path d="M61.3155 24.2319L58.2908 14.8645L62.4678 14L68.5174 21.3498L80.9045 18.7556L90.2669 21.3498L99.7734 31.0054L107.695 24.5202L110 28.2672L105.823 34.1758L105.391 45.5608L103.23 52.1899L93.7237 57.6664L89.8348 60.8368L90.9871 69.0513L85.5136 72.3659L86.666 78.8509L81.1926 82.1656L80.4723 89.3713L61.3155 81.7332L40.4302 72.654L46.1916 69.1953L44.0311 64.4395L49.7926 60.8368L47.3439 54.3517L56.1302 49.74L53.2495 44.6961L49.5045 38.4992L52.8173 32.8789L59.155 27.5467L61.3155 24.2319Z" fill="#00F249"/>
<path d="M103.23 52.1899L102.8 57.8188L104.961 51.1895L105.391 45.5608L103.23 52.1899Z" fill="#105F31"/>
<path d="M110 28.2672L109.57 33.8959L105.607 39.8684L105.823 34.1758L110 28.2672Z" fill="#105F31"/>
<path d="M70.4236 29.3613L64.8258 34.7924L68.0488 40.3929L74.8338 38.0169L75.8516 32.4162L70.4236 29.3613Z" fill="#178344"/>
<path d="M87.7732 36.3744L82.1754 41.8054L85.3983 47.4059L92.1835 45.03L93.2012 39.4293L87.7732 36.3744Z" fill="#178344"/>
<path d="M14 84L40.5 54.5V75.5L96 70.5L92.5 52L126.5 77L103 107.5L100.5 86.5L44.5 92L47 110L14 84Z" fill="black" stroke="#48FA4E" stroke-width="2"/>
</g>
<defs>
<filter id="filter0_b_2_909" x="-4" y="114" width="158" height="90" filterUnits="userSpaceOnUse" color-interpolation-filters="sRGB">
<feFlood flood-opacity="0" result="BackgroundImageFix"/>
<feGaussianBlur in="BackgroundImageFix" stdDeviation="2"/>
<feComposite in2="SourceAlpha" operator="in" result="effect1_backgroundBlur_2_909"/>
<feBlend mode="normal" in="SourceGraphic" in2="effect1_backgroundBlur_2_909" result="shape"/>
</filter>
<clipPath id="clip0_2_909">
<rect width="150" height="200" rx="16" fill="white"/>
</clipPath>
</defs>
</svg>
