<svg width="150" height="200" viewBox="0 0 150 200" fill="none" xmlns="http://www.w3.org/2000/svg">
<g clip-path="url(#clip0_2_1016)">
<rect width="150" height="200" fill="#858585"/>
<g filter="url(#filter0_b_2_1016)">
<rect y="118" width="150" height="82" fill="black" fill-opacity="0.5"/>
</g>
<path d="M24.8829 138V130.3H29.9869V131.719H26.5109V133.385H27.7594C28.621 133.385 29.3085 133.582 29.8219 133.974C30.3352 134.363 30.5919 134.936 30.5919 135.695C30.5919 136.183 30.4782 136.599 30.2509 136.944C30.0272 137.285 29.7027 137.547 29.2774 137.73C28.8557 137.91 28.3479 138 27.7539 138H24.8829ZM26.5109 136.779H27.5999C28.0215 136.779 28.3442 136.687 28.5679 136.504C28.7915 136.317 28.9034 136.049 28.9034 135.701C28.9034 135.364 28.7952 135.098 28.5789 134.903C28.3625 134.705 28.06 134.606 27.6714 134.606H26.5109V136.779ZM32.0372 138V130.3H37.3007V131.719H33.6652V133.369H36.7452V134.683H33.6652V136.564H37.3447V138H32.0372ZM38.7794 138.143L38.2239 136.652C38.4732 136.575 38.6841 136.487 38.8564 136.388C39.0324 136.286 39.1772 136.148 39.2909 135.976C39.4082 135.804 39.4999 135.576 39.5659 135.294C39.6319 135.012 39.6777 134.652 39.7034 134.216C39.7291 133.78 39.7419 133.244 39.7419 132.61V130.3H45.4014V138H43.7734V131.785H41.2874V132.538C41.2874 133.33 41.2617 134.018 41.2104 134.601C41.1627 135.18 41.0821 135.675 40.9684 136.086C40.8547 136.493 40.7007 136.832 40.5064 137.103C40.3157 137.371 40.0774 137.587 39.7914 137.752C39.5091 137.917 39.1717 138.048 38.7794 138.143ZM47.2803 138V130.3H48.9083V133.028H50.2118C50.7728 133.028 51.2715 133.127 51.7078 133.325C52.1442 133.523 52.487 133.807 52.7363 134.177C52.9893 134.548 53.1158 134.995 53.1158 135.519C53.1158 135.915 53.0498 136.267 52.9178 136.575C52.7895 136.883 52.5988 137.144 52.3458 137.356C52.0928 137.569 51.7848 137.73 51.4218 137.84C51.0588 137.947 50.6427 138 50.1733 138H47.2803ZM48.9083 136.63H50.1458C50.5675 136.63 50.8957 136.544 51.1303 136.372C51.3687 136.2 51.4878 135.925 51.4878 135.547C51.4878 135.169 51.3668 134.891 51.1248 134.711C50.8828 134.528 50.5602 134.436 50.1568 134.436H48.9083V136.63ZM54.1553 138V130.3H55.7833V138H54.1553ZM57.6573 138V130.3H59.2688V135.404L62.6348 130.3H64.2408V138H62.6238V132.846L59.2523 138H57.6573ZM60.9463 129.475C60.5063 129.475 60.1213 129.389 59.7913 129.216C59.4613 129.044 59.2046 128.806 59.0213 128.501C58.8416 128.197 58.7573 127.845 58.7683 127.445H60.0773C60.0663 127.739 60.1396 127.975 60.2973 128.155C60.455 128.331 60.6713 128.419 60.9463 128.419C61.2213 128.419 61.4358 128.331 61.5898 128.155C61.7475 127.975 61.819 127.739 61.8043 127.445H63.1188C63.1298 127.838 63.0436 128.188 62.8603 128.496C62.677 128.8 62.4203 129.04 62.0903 129.216C61.7603 129.389 61.379 129.475 60.9463 129.475ZM68.5353 138.143L67.9798 136.652C68.2291 136.575 68.4399 136.487 68.6123 136.388C68.7883 136.286 68.9331 136.148 69.0468 135.976C69.1641 135.804 69.2558 135.576 69.3218 135.294C69.3878 135.012 69.4336 134.652 69.4593 134.216C69.4849 133.78 69.4978 133.244 69.4978 132.61V130.3H75.1573V138H73.5293V131.785H71.0433V132.538C71.0433 133.33 71.0176 134.018 70.9663 134.601C70.9186 135.18 70.8379 135.675 70.7243 136.086C70.6106 136.493 70.4566 136.832 70.2623 137.103C70.0716 137.371 69.8333 137.587 69.5473 137.752C69.2649 137.917 68.9276 138.048 68.5353 138.143ZM77.0362 138V130.3H82.2997V131.719H78.6642V133.369H81.7442V134.683H78.6642V136.564H82.3437V138H77.0362ZM83.9434 138V130.3H85.5109L88.5084 135.239L87.8649 135.25L90.7249 130.3H92.2814V138H90.7029L90.7304 132.401L91.0219 132.505L88.6679 136.482H87.5569L85.1314 132.505L85.4064 132.401L85.4339 138H83.9434ZM94.1593 138V130.3H95.7268L98.7243 135.239L98.0808 135.25L100.941 130.3H102.497V138H100.919L100.946 132.401L101.238 132.505L98.8838 136.482H97.7728L95.3473 132.505L95.6223 132.401L95.6498 138H94.1593ZM104.375 138V130.3H105.987V135.404L109.353 130.3H110.959V138H109.342V132.846L105.97 138H104.375ZM112.829 138V130.3H114.457V133.22H117.724V130.3H119.352V138H117.724V134.711H114.457V138H112.829ZM121.23 138V130.3H125.822V131.785H122.858V138H121.23Z" fill="white"/>
<path d="M19.7711 159V152.7H23.7311V153.591H20.7791V155.301H21.9266C22.6076 155.301 23.1536 155.458 23.5646 155.773C23.9756 156.085 24.1811 156.544 24.1811 157.15C24.1811 157.546 24.0911 157.882 23.9111 158.158C23.7341 158.431 23.4761 158.64 23.1371 158.784C22.8011 158.928 22.3961 159 21.9221 159H19.7711ZM20.7791 158.208H21.8681C22.2761 158.208 22.5896 158.118 22.8086 157.938C23.0306 157.758 23.1416 157.5 23.1416 157.164C23.1416 156.837 23.0321 156.577 22.8131 156.385C22.5941 156.193 22.2926 156.097 21.9086 156.097H20.7791V158.208ZM27.3788 159.135C26.8988 159.135 26.4773 159.038 26.1143 158.842C25.7513 158.644 25.4678 158.368 25.2638 158.014C25.0628 157.66 24.9623 157.249 24.9623 156.781C24.9623 156.439 25.0208 156.124 25.1378 155.836C25.2548 155.545 25.4198 155.293 25.6328 155.08C25.8458 154.867 26.0948 154.702 26.3798 154.585C26.6678 154.468 26.9813 154.41 27.3203 154.41C27.6893 154.41 28.0178 154.476 28.3058 154.608C28.5938 154.737 28.8323 154.918 29.0213 155.152C29.2133 155.386 29.3483 155.661 29.4263 155.976C29.5073 156.288 29.5208 156.627 29.4668 156.993H25.9118C25.9058 157.26 25.9643 157.494 26.0873 157.695C26.2103 157.893 26.3858 158.047 26.6138 158.158C26.8448 158.269 27.1163 158.325 27.4283 158.325C27.6803 158.325 27.9233 158.287 28.1573 158.212C28.3943 158.134 28.6088 158.02 28.8008 157.87L29.1833 158.581C29.0393 158.698 28.8653 158.799 28.6613 158.883C28.4573 158.964 28.2443 159.026 28.0223 159.068C27.8003 159.113 27.5858 159.135 27.3788 159.135ZM25.9703 156.264H28.4948C28.4858 155.928 28.3778 155.664 28.1708 155.472C27.9668 155.28 27.6758 155.184 27.2978 155.184C26.9318 155.184 26.6273 155.28 26.3843 155.472C26.1443 155.664 26.0063 155.928 25.9703 156.264ZM30.3331 159.077L29.9866 158.185C30.2926 158.107 30.5161 157.984 30.6571 157.816C30.8011 157.648 30.8911 157.414 30.9271 157.114C30.9661 156.814 30.9856 156.427 30.9856 155.953V154.545H34.6081V159H33.6181V155.364H31.9081V155.953C31.9081 156.43 31.8856 156.846 31.8406 157.2C31.7986 157.554 31.7206 157.855 31.6066 158.104C31.4926 158.353 31.3321 158.557 31.1251 158.716C30.9211 158.872 30.6571 158.992 30.3331 159.077ZM35.9883 159V154.545H36.9783V158.248H37.7838C38.1078 158.248 38.3523 158.185 38.5173 158.059C38.6823 157.933 38.7648 157.746 38.7648 157.497C38.7648 157.251 38.6883 157.062 38.5353 156.93C38.3823 156.798 38.1573 156.732 37.8603 156.732H36.8433V155.989H37.9368C38.5128 155.989 38.9658 156.118 39.2958 156.376C39.6258 156.634 39.7908 157.008 39.7908 157.497C39.7908 157.812 39.7113 158.082 39.5523 158.307C39.3933 158.529 39.1698 158.7 38.8818 158.82C38.5968 158.94 38.2623 159 37.8783 159H35.9883ZM40.5063 159V154.545H41.4963V159H40.5063ZM42.8701 159V154.545H43.8286V157.551L46.2451 154.545H47.1091V159H46.1551V155.958L43.7161 159H42.8701ZM44.9896 153.78C44.6566 153.78 44.3641 153.711 44.1121 153.573C43.8601 153.435 43.6651 153.244 43.5271 153.001C43.3891 152.758 43.3246 152.479 43.3336 152.164H44.1616C44.1496 152.44 44.2186 152.664 44.3686 152.835C44.5216 153.003 44.7286 153.087 44.9896 153.087C45.2506 153.087 45.4561 153.003 45.6061 152.835C45.7561 152.664 45.8236 152.44 45.8086 152.164H46.6411C46.6471 152.476 46.5796 152.754 46.4386 152.997C46.3006 153.24 46.1056 153.432 45.8536 153.573C45.6046 153.711 45.3166 153.78 44.9896 153.78ZM50.5304 159.077L50.1839 158.185C50.4899 158.107 50.7134 157.984 50.8544 157.816C50.9984 157.648 51.0884 157.414 51.1244 157.114C51.1634 156.814 51.1829 156.427 51.1829 155.953V154.545H54.8054V159H53.8154V155.364H52.1054V155.953C52.1054 156.43 52.0829 156.846 52.0379 157.2C51.9959 157.554 51.9179 157.855 51.8039 158.104C51.6899 158.353 51.5294 158.557 51.3224 158.716C51.1184 158.872 50.8544 158.992 50.5304 159.077ZM58.2196 159.135C57.7396 159.135 57.3181 159.038 56.9551 158.842C56.5921 158.644 56.3086 158.368 56.1046 158.014C55.9036 157.66 55.8031 157.249 55.8031 156.781C55.8031 156.439 55.8616 156.124 55.9786 155.836C56.0956 155.545 56.2606 155.293 56.4736 155.08C56.6866 154.867 56.9356 154.702 57.2206 154.585C57.5086 154.468 57.8221 154.41 58.1611 154.41C58.5301 154.41 58.8586 154.476 59.1466 154.608C59.4346 154.737 59.6731 154.918 59.8621 155.152C60.0541 155.386 60.1891 155.661 60.2671 155.976C60.3481 156.288 60.3616 156.627 60.3076 156.993H56.7526C56.7466 157.26 56.8051 157.494 56.9281 157.695C57.0511 157.893 57.2266 158.047 57.4546 158.158C57.6856 158.269 57.9571 158.325 58.2691 158.325C58.5211 158.325 58.7641 158.287 58.9981 158.212C59.2351 158.134 59.4496 158.02 59.6416 157.87L60.0241 158.581C59.8801 158.698 59.7061 158.799 59.5021 158.883C59.2981 158.964 59.0851 159.026 58.8631 159.068C58.6411 159.113 58.4266 159.135 58.2196 159.135ZM56.8111 156.264H59.3356C59.3266 155.928 59.2186 155.664 59.0116 155.472C58.8076 155.28 58.5166 155.184 58.1386 155.184C57.7726 155.184 57.4681 155.28 57.2251 155.472C56.9851 155.664 56.8471 155.928 56.8111 156.264ZM61.336 159V154.545H62.1955H62.2225L64.2205 157.434L63.793 157.443L65.692 154.545H66.5695V159H65.6695L65.683 155.706L65.8675 155.787L64.2745 158.113H63.6355L61.9705 155.782L62.155 155.701L62.1685 159H61.336ZM67.9453 159V154.545H68.8048H68.8318L70.8298 157.434L70.4023 157.443L72.3013 154.545H73.1788V159H72.2788L72.2923 155.706L72.4768 155.787L70.8838 158.113H70.2448L68.5798 155.782L68.7643 155.701L68.7778 159H67.9453ZM74.5547 159V154.545H75.5132V157.551L77.9297 154.545H78.7937V159H77.8397V155.958L75.4007 159H74.5547ZM80.1709 159V154.545H81.1609V156.264H83.3929V154.545H84.3829V159H83.3929V157.083H81.1609V159H80.1709ZM85.7608 159V154.545H88.6948V155.364H86.7508V159H85.7608ZM91.8164 159V154.545H92.7749V157.551L95.1914 154.545H96.0554V159H95.1014V155.958L92.6624 159H91.8164ZM100.668 159V155.364H98.8681V155.953C98.8681 156.358 98.8441 156.724 98.7961 157.051C98.7481 157.378 98.6626 157.666 98.5396 157.915C98.4166 158.161 98.2441 158.365 98.0221 158.527C97.8031 158.689 97.5226 158.808 97.1806 158.883L96.9376 158.212C97.2226 158.143 97.4371 158.014 97.5811 157.825C97.7251 157.636 97.8211 157.387 97.8691 157.078C97.9201 156.766 97.9456 156.391 97.9456 155.953V154.545H101.658V159H100.668ZM96.9376 160.35V158.212L97.5496 158.275L97.7026 158.181H102.554V160.35H101.649V159H97.8421V160.35H96.9376ZM105.39 159.135C104.91 159.135 104.489 159.038 104.126 158.842C103.763 158.644 103.479 158.368 103.275 158.014C103.074 157.66 102.974 157.249 102.974 156.781C102.974 156.439 103.032 156.124 103.149 155.836C103.266 155.545 103.431 155.293 103.644 155.08C103.857 154.867 104.106 154.702 104.391 154.585C104.679 154.468 104.993 154.41 105.332 154.41C105.701 154.41 106.029 154.476 106.317 154.608C106.605 154.737 106.844 154.918 107.033 155.152C107.225 155.386 107.36 155.661 107.438 155.976C107.519 156.288 107.532 156.627 107.478 156.993H103.923C103.917 157.26 103.976 157.494 104.099 157.695C104.222 157.893 104.397 158.047 104.625 158.158C104.856 158.269 105.128 158.325 105.44 158.325C105.692 158.325 105.935 158.287 106.169 158.212C106.406 158.134 106.62 158.02 106.812 157.87L107.195 158.581C107.051 158.698 106.877 158.799 106.673 158.883C106.469 158.964 106.256 159.026 106.034 159.068C105.812 159.113 105.597 159.135 105.39 159.135ZM103.982 156.264H106.506C106.497 155.928 106.389 155.664 106.182 155.472C105.978 155.28 105.687 155.184 105.309 155.184C104.943 155.184 104.639 155.28 104.396 155.472C104.156 155.664 104.018 155.928 103.982 156.264ZM104.333 153.757C104.171 153.757 104.027 153.7 103.901 153.586C103.778 153.472 103.716 153.327 103.716 153.15C103.716 153.03 103.745 152.923 103.802 152.83C103.859 152.737 103.934 152.665 104.027 152.614C104.123 152.563 104.225 152.538 104.333 152.538C104.498 152.538 104.642 152.595 104.765 152.709C104.891 152.823 104.954 152.97 104.954 153.15C104.954 153.27 104.925 153.376 104.868 153.469C104.811 153.559 104.735 153.63 104.639 153.681C104.546 153.732 104.444 153.757 104.333 153.757ZM106.281 153.757C106.119 153.757 105.975 153.7 105.849 153.586C105.726 153.472 105.665 153.327 105.665 153.15C105.665 153.03 105.693 152.923 105.75 152.83C105.807 152.737 105.882 152.665 105.975 152.614C106.071 152.563 106.173 152.538 106.281 152.538C106.446 152.538 106.59 152.595 106.713 152.709C106.839 152.823 106.902 152.97 106.902 153.15C106.902 153.27 106.874 153.376 106.817 153.469C106.76 153.559 106.683 153.63 106.587 153.681C106.494 153.732 106.392 153.757 106.281 153.757ZM109.501 159V155.364H108.039V154.545H111.958V155.364H110.491V159H109.501ZM115.072 159V154.545H116.062V156.264H118.294V154.545H119.284V159H118.294V157.083H116.062V159H115.072ZM121.9 159.135C121.591 159.135 121.319 159.078 121.085 158.964C120.851 158.847 120.668 158.683 120.536 158.473C120.407 158.26 120.343 158.01 120.343 157.722C120.343 157.479 120.404 157.26 120.527 157.065C120.65 156.867 120.841 156.703 121.099 156.574C121.36 156.445 121.694 156.36 122.102 156.318C122.51 156.273 123.001 156.279 123.574 156.336L123.592 157.02C123.184 156.963 122.833 156.939 122.539 156.948C122.245 156.957 122.003 156.994 121.814 157.06C121.628 157.123 121.49 157.209 121.4 157.317C121.313 157.422 121.27 157.543 121.27 157.681C121.27 157.897 121.346 158.064 121.499 158.181C121.655 158.298 121.868 158.356 122.138 158.356C122.369 158.356 122.576 158.314 122.759 158.23C122.942 158.146 123.086 158.028 123.191 157.875C123.299 157.722 123.353 157.542 123.353 157.335V156.151C123.353 155.953 123.311 155.782 123.227 155.638C123.143 155.491 123.016 155.377 122.845 155.296C122.674 155.215 122.461 155.175 122.206 155.175C121.972 155.175 121.741 155.211 121.513 155.283C121.285 155.352 121.067 155.461 120.86 155.611L120.581 154.882C120.86 154.693 121.151 154.56 121.454 154.482C121.757 154.404 122.048 154.365 122.327 154.365C122.741 154.365 123.095 154.431 123.389 154.563C123.686 154.692 123.914 154.888 124.073 155.152C124.232 155.413 124.312 155.743 124.312 156.142V159H123.421V158.473C123.271 158.686 123.062 158.85 122.795 158.964C122.528 159.078 122.23 159.135 121.9 159.135ZM129.112 159V153.762L127.479 154.36L127.218 153.577L129.976 152.565H130.048V159H129.112ZM24.044 170V165.545H28.2515V170H27.2615V166.364H25.034V170H24.044ZM31.6545 170.135C31.1895 170.135 30.774 170.029 30.408 169.815C30.045 169.599 29.76 169.313 29.553 168.956C29.346 168.596 29.2425 168.201 29.2425 167.772C29.2425 167.454 29.301 167.154 29.418 166.872C29.538 166.587 29.706 166.335 29.922 166.116C30.141 165.897 30.3975 165.725 30.6915 165.599C30.9855 165.473 31.308 165.41 31.659 165.41C32.124 165.41 32.538 165.518 32.901 165.734C33.267 165.947 33.5535 166.233 33.7605 166.593C33.9675 166.95 34.071 167.343 34.071 167.772C34.071 168.087 34.011 168.387 33.891 168.672C33.774 168.957 33.6075 169.209 33.3915 169.428C33.1755 169.647 32.9205 169.82 32.6265 169.946C32.3325 170.072 32.0085 170.135 31.6545 170.135ZM31.6545 169.257C31.9305 169.257 32.175 169.197 32.388 169.077C32.604 168.954 32.7735 168.782 32.8965 168.56C33.0195 168.338 33.081 168.075 33.081 167.772C33.081 167.469 33.0195 167.207 32.8965 166.985C32.7735 166.76 32.604 166.587 32.388 166.467C32.175 166.347 31.9305 166.287 31.6545 166.287C31.3785 166.287 31.1325 166.347 30.9165 166.467C30.7035 166.587 30.5355 166.76 30.4125 166.985C30.2925 167.207 30.2325 167.469 30.2325 167.772C30.2325 168.075 30.294 168.338 30.417 168.56C30.54 168.782 30.708 168.954 30.921 169.077C31.137 169.197 31.3815 169.257 31.6545 169.257ZM34.9035 170.077L34.557 169.185C34.863 169.107 35.0865 168.984 35.2275 168.816C35.3715 168.648 35.4615 168.414 35.4975 168.114C35.5365 167.814 35.556 167.427 35.556 166.953V165.545H39.1785V170H38.1885V166.364H36.4785V166.953C36.4785 167.43 36.456 167.846 36.411 168.2C36.369 168.554 36.291 168.855 36.177 169.104C36.063 169.353 35.9025 169.557 35.6955 169.716C35.4915 169.872 35.2275 169.992 34.9035 170.077ZM42.5926 170.135C42.1126 170.135 41.6911 170.038 41.3281 169.842C40.9651 169.644 40.6816 169.368 40.4776 169.014C40.2766 168.66 40.1761 168.249 40.1761 167.781C40.1761 167.439 40.2346 167.124 40.3516 166.836C40.4686 166.545 40.6336 166.293 40.8466 166.08C41.0596 165.867 41.3086 165.702 41.5936 165.585C41.8816 165.468 42.1951 165.41 42.5341 165.41C42.9031 165.41 43.2316 165.476 43.5196 165.608C43.8076 165.737 44.0461 165.918 44.2351 166.152C44.4271 166.386 44.5621 166.661 44.6401 166.976C44.7211 167.288 44.7346 167.627 44.6806 167.993H41.1256C41.1196 168.26 41.1781 168.494 41.3011 168.695C41.4241 168.893 41.5996 169.047 41.8276 169.158C42.0586 169.269 42.3301 169.325 42.6421 169.325C42.8941 169.325 43.1371 169.287 43.3711 169.212C43.6081 169.134 43.8226 169.02 44.0146 168.87L44.3971 169.581C44.2531 169.698 44.0791 169.799 43.8751 169.883C43.6711 169.964 43.4581 170.026 43.2361 170.068C43.0141 170.113 42.7996 170.135 42.5926 170.135ZM41.1841 167.264H43.7086C43.6996 166.928 43.5916 166.664 43.3846 166.472C43.1806 166.28 42.8896 166.184 42.5116 166.184C42.1456 166.184 41.8411 166.28 41.5981 166.472C41.3581 166.664 41.2201 166.928 41.1841 167.264ZM47.9151 170V165.545H50.0391C50.5431 165.545 50.9466 165.641 51.2496 165.833C51.5526 166.025 51.7041 166.313 51.7041 166.697C51.7041 166.877 51.6606 167.037 51.5736 167.178C51.4866 167.316 51.3666 167.432 51.2136 167.525C51.0606 167.618 50.8821 167.685 50.6781 167.728L50.6601 167.507C51.0531 167.561 51.3576 167.691 51.5736 167.898C51.7896 168.105 51.8976 168.368 51.8976 168.686C51.8976 168.956 51.8271 169.19 51.6861 169.388C51.5451 169.583 51.3426 169.734 51.0786 169.842C50.8146 169.947 50.4981 170 50.1291 170H47.9151ZM48.8736 169.266H49.9941C50.2911 169.266 50.5191 169.217 50.6781 169.118C50.8401 169.019 50.9211 168.87 50.9211 168.672C50.9211 168.477 50.8416 168.332 50.6826 168.236C50.5236 168.137 50.2941 168.087 49.9941 168.087H48.7431V167.381H49.8906C50.1696 167.381 50.3856 167.339 50.5386 167.255C50.6916 167.168 50.7681 167.027 50.7681 166.832C50.7681 166.637 50.6916 166.496 50.5386 166.409C50.3856 166.319 50.1696 166.274 49.8906 166.274H48.8736V169.266ZM53.0127 170V165.545H57.2202V170H56.2302V166.364H54.0027V170H53.0127ZM58.5938 171.89V165.545H59.4848V166.17C59.6618 165.945 59.8883 165.762 60.1643 165.621C60.4403 165.48 60.7808 165.41 61.1858 165.41C61.6208 165.41 62.0063 165.513 62.3423 165.72C62.6813 165.924 62.9453 166.205 63.1343 166.562C63.3233 166.916 63.4178 167.319 63.4178 167.772C63.4178 168.099 63.3638 168.407 63.2558 168.695C63.1478 168.98 62.9933 169.23 62.7923 169.446C62.5943 169.662 62.3573 169.832 62.0813 169.955C61.8083 170.075 61.5053 170.135 61.1723 170.135C60.8243 170.135 60.5183 170.072 60.2543 169.946C59.9903 169.82 59.7653 169.65 59.5793 169.438V171.89H58.5938ZM61.0058 169.257C61.2818 169.257 61.5263 169.197 61.7393 169.077C61.9553 168.954 62.1233 168.782 62.2433 168.56C62.3663 168.338 62.4278 168.075 62.4278 167.772C62.4278 167.469 62.3663 167.207 62.2433 166.985C62.1203 166.76 61.9508 166.587 61.7348 166.467C61.5218 166.347 61.2788 166.287 61.0058 166.287C60.7298 166.287 60.4838 166.347 60.2678 166.467C60.0548 166.587 59.8868 166.76 59.7638 166.985C59.6408 167.207 59.5793 167.469 59.5793 167.772C59.5793 168.075 59.6408 168.338 59.7638 168.56C59.8868 168.782 60.0548 168.954 60.2678 169.077C60.4838 169.197 60.7298 169.257 61.0058 169.257ZM65.6496 170.135C65.3406 170.135 65.0691 170.078 64.8351 169.964C64.6011 169.847 64.4181 169.683 64.2861 169.473C64.1571 169.26 64.0926 169.01 64.0926 168.722C64.0926 168.479 64.1541 168.26 64.2771 168.065C64.4001 167.867 64.5906 167.703 64.8486 167.574C65.1096 167.445 65.4441 167.36 65.8521 167.318C66.2601 167.273 66.7506 167.279 67.3236 167.336L67.3416 168.02C66.9336 167.963 66.5826 167.939 66.2886 167.948C65.9946 167.957 65.7531 167.994 65.5641 168.06C65.3781 168.123 65.2401 168.209 65.1501 168.317C65.0631 168.422 65.0196 168.543 65.0196 168.681C65.0196 168.897 65.0961 169.064 65.2491 169.181C65.4051 169.298 65.6181 169.356 65.8881 169.356C66.1191 169.356 66.3261 169.314 66.5091 169.23C66.6921 169.146 66.8361 169.028 66.9411 168.875C67.0491 168.722 67.1031 168.542 67.1031 168.335V167.151C67.1031 166.953 67.0611 166.782 66.9771 166.638C66.8931 166.491 66.7656 166.377 66.5946 166.296C66.4236 166.215 66.2106 166.175 65.9556 166.175C65.7216 166.175 65.4906 166.211 65.2626 166.283C65.0346 166.352 64.8171 166.461 64.6101 166.611L64.3311 165.882C64.6101 165.693 64.9011 165.56 65.2041 165.482C65.5071 165.404 65.7981 165.365 66.0771 165.365C66.4911 165.365 66.8451 165.431 67.1391 165.563C67.4361 165.692 67.6641 165.888 67.8231 166.152C67.9821 166.413 68.0616 166.743 68.0616 167.142V170H67.1706V169.473C67.0206 169.686 66.8121 169.85 66.5451 169.964C66.2781 170.078 65.9796 170.135 65.6496 170.135ZM69.378 170V165.545H71.502C72.006 165.545 72.4095 165.641 72.7125 165.833C73.0155 166.025 73.167 166.313 73.167 166.697C73.167 166.877 73.1235 167.037 73.0365 167.178C72.9495 167.316 72.8295 167.432 72.6765 167.525C72.5235 167.618 72.345 167.685 72.141 167.728L72.123 167.507C72.516 167.561 72.8205 167.691 73.0365 167.898C73.2525 168.105 73.3605 168.368 73.3605 168.686C73.3605 168.956 73.29 169.19 73.149 169.388C73.008 169.583 72.8055 169.734 72.5415 169.842C72.2775 169.947 71.961 170 71.592 170H69.378ZM70.3365 169.266H71.457C71.754 169.266 71.982 169.217 72.141 169.118C72.303 169.019 72.384 168.87 72.384 168.672C72.384 168.477 72.3045 168.332 72.1455 168.236C71.9865 168.137 71.757 168.087 71.457 168.087H70.206V167.381H71.3535C71.6325 167.381 71.8485 167.339 72.0015 167.255C72.1545 167.168 72.231 167.027 72.231 166.832C72.231 166.637 72.1545 166.496 72.0015 166.409C71.8485 166.319 71.6325 166.274 71.3535 166.274H70.3365V169.266ZM76.5051 170.135C76.0401 170.135 75.6246 170.029 75.2586 169.815C74.8956 169.599 74.6106 169.313 74.4036 168.956C74.1966 168.596 74.0931 168.201 74.0931 167.772C74.0931 167.454 74.1516 167.154 74.2686 166.872C74.3886 166.587 74.5566 166.335 74.7726 166.116C74.9916 165.897 75.2481 165.725 75.5421 165.599C75.8361 165.473 76.1586 165.41 76.5096 165.41C76.9746 165.41 77.3886 165.518 77.7516 165.734C78.1176 165.947 78.4041 166.233 78.6111 166.593C78.8181 166.95 78.9216 167.343 78.9216 167.772C78.9216 168.087 78.8616 168.387 78.7416 168.672C78.6246 168.957 78.4581 169.209 78.2421 169.428C78.0261 169.647 77.7711 169.82 77.4771 169.946C77.1831 170.072 76.8591 170.135 76.5051 170.135ZM76.5051 169.257C76.7811 169.257 77.0256 169.197 77.2386 169.077C77.4546 168.954 77.6241 168.782 77.7471 168.56C77.8701 168.338 77.9316 168.075 77.9316 167.772C77.9316 167.469 77.8701 167.207 77.7471 166.985C77.6241 166.76 77.4546 166.587 77.2386 166.467C77.0256 166.347 76.7811 166.287 76.5051 166.287C76.2291 166.287 75.9831 166.347 75.7671 166.467C75.5541 166.587 75.3861 166.76 75.2631 166.985C75.1431 167.207 75.0831 167.469 75.0831 167.772C75.0831 168.075 75.1446 168.338 75.2676 168.56C75.3906 168.782 75.5586 168.954 75.7716 169.077C75.9876 169.197 76.2321 169.257 76.5051 169.257ZM82.1221 170V165.545H83.0806V168.551L85.4971 165.545H86.3611V170H85.4071V166.958L82.9681 170H82.1221ZM87.5763 170.077L87.2298 169.185C87.5358 169.107 87.7593 168.984 87.9003 168.816C88.0443 168.648 88.1343 168.414 88.1703 168.114C88.2093 167.814 88.2288 167.427 88.2288 166.953V165.545H91.8513V170H90.8613V166.364H89.1513V166.953C89.1513 167.43 89.1288 167.846 89.0838 168.2C89.0418 168.554 88.9638 168.855 88.8498 169.104C88.7358 169.353 88.5753 169.557 88.3683 169.716C88.1643 169.872 87.9003 169.992 87.5763 170.077ZM93.2315 170V165.545H94.19V168.551L96.6065 165.545H97.4705V170H96.5165V166.958L94.0775 170H93.2315ZM101.054 170V165.545H103.178C103.682 165.545 104.085 165.641 104.388 165.833C104.691 166.025 104.843 166.313 104.843 166.697C104.843 166.877 104.799 167.037 104.712 167.178C104.625 167.316 104.505 167.432 104.352 167.525C104.199 167.618 104.021 167.685 103.817 167.728L103.799 167.507C104.192 167.561 104.496 167.691 104.712 167.898C104.928 168.105 105.036 168.368 105.036 168.686C105.036 168.956 104.966 169.19 104.825 169.388C104.684 169.583 104.481 169.734 104.217 169.842C103.953 169.947 103.637 170 103.268 170H101.054ZM102.012 169.266H103.133C103.43 169.266 103.658 169.217 103.817 169.118C103.979 169.019 104.06 168.87 104.06 168.672C104.06 168.477 103.98 168.332 103.821 168.236C103.662 168.137 103.433 168.087 103.133 168.087H101.882V167.381H103.029C103.308 167.381 103.524 167.339 103.677 167.255C103.83 167.168 103.907 167.027 103.907 166.832C103.907 166.637 103.83 166.496 103.677 166.409C103.524 166.319 103.308 166.274 103.029 166.274H102.012V169.266ZM105.989 170.077L105.643 169.185C105.949 169.107 106.172 168.984 106.313 168.816C106.457 168.648 106.547 168.414 106.583 168.114C106.622 167.814 106.642 167.427 106.642 166.953V165.545H110.264V170H109.274V166.364H107.564V166.953C107.564 167.43 107.542 167.846 107.497 168.2C107.455 168.554 107.377 168.855 107.263 169.104C107.149 169.353 106.988 169.557 106.781 169.716C106.577 169.872 106.313 169.992 105.989 170.077ZM113.679 170.135C113.199 170.135 112.777 170.038 112.414 169.842C112.051 169.644 111.768 169.368 111.564 169.014C111.363 168.66 111.262 168.249 111.262 167.781C111.262 167.439 111.321 167.124 111.438 166.836C111.555 166.545 111.72 166.293 111.933 166.08C112.146 165.867 112.395 165.702 112.68 165.585C112.968 165.468 113.281 165.41 113.62 165.41C113.989 165.41 114.318 165.476 114.606 165.608C114.894 165.737 115.132 165.918 115.321 166.152C115.513 166.386 115.648 166.661 115.726 166.976C115.807 167.288 115.821 167.627 115.767 167.993H112.212C112.206 168.26 112.264 168.494 112.387 168.695C112.51 168.893 112.686 169.047 112.914 169.158C113.145 169.269 113.416 169.325 113.728 169.325C113.98 169.325 114.223 169.287 114.457 169.212C114.694 169.134 114.909 169.02 115.101 168.87L115.483 169.581C115.339 169.698 115.165 169.799 114.961 169.883C114.757 169.964 114.544 170.026 114.322 170.068C114.1 170.113 113.886 170.135 113.679 170.135ZM112.27 167.264H114.795C114.786 166.928 114.678 166.664 114.471 166.472C114.267 166.28 113.976 166.184 113.598 166.184C113.232 166.184 112.927 166.28 112.684 166.472C112.444 166.664 112.306 166.928 112.27 167.264ZM116.795 170V165.545H118.919C119.423 165.545 119.826 165.641 120.129 165.833C120.432 166.025 120.584 166.313 120.584 166.697C120.584 166.877 120.54 167.037 120.453 167.178C120.366 167.316 120.246 167.432 120.093 167.525C119.94 167.618 119.762 167.685 119.558 167.728L119.54 167.507C119.933 167.561 120.237 167.691 120.453 167.898C120.669 168.105 120.777 168.368 120.777 168.686C120.777 168.956 120.707 169.19 120.566 169.388C120.425 169.583 120.222 169.734 119.958 169.842C119.694 169.947 119.378 170 119.009 170H116.795ZM117.753 169.266H118.874C119.171 169.266 119.399 169.217 119.558 169.118C119.72 169.019 119.801 168.87 119.801 168.672C119.801 168.477 119.721 168.332 119.562 168.236C119.403 168.137 119.174 168.087 118.874 168.087H117.623V167.381H118.77C119.049 167.381 119.265 167.339 119.418 167.255C119.571 167.168 119.648 167.027 119.648 166.832C119.648 166.637 119.571 166.496 119.418 166.409C119.265 166.319 119.049 166.274 118.77 166.274H117.753V169.266ZM123.922 170.135C123.457 170.135 123.042 170.029 122.676 169.815C122.313 169.599 122.028 169.313 121.821 168.956C121.614 168.596 121.51 168.201 121.51 167.772C121.51 167.454 121.569 167.154 121.686 166.872C121.806 166.587 121.974 166.335 122.19 166.116C122.409 165.897 122.665 165.725 122.959 165.599C123.253 165.473 123.576 165.41 123.927 165.41C124.392 165.41 124.806 165.518 125.169 165.734C125.535 165.947 125.821 166.233 126.028 166.593C126.235 166.95 126.339 167.343 126.339 167.772C126.339 168.087 126.279 168.387 126.159 168.672C126.042 168.957 125.875 169.209 125.659 169.428C125.443 169.647 125.188 169.82 124.894 169.946C124.6 170.072 124.276 170.135 123.922 170.135ZM123.922 169.257C124.198 169.257 124.443 169.197 124.656 169.077C124.872 168.954 125.041 168.782 125.164 168.56C125.287 168.338 125.349 168.075 125.349 167.772C125.349 167.469 125.287 167.207 125.164 166.985C125.041 166.76 124.872 166.587 124.656 166.467C124.443 166.347 124.198 166.287 123.922 166.287C123.646 166.287 123.4 166.347 123.184 166.467C122.971 166.587 122.803 166.76 122.68 166.985C122.56 167.207 122.5 167.469 122.5 167.772C122.5 168.075 122.562 168.338 122.685 168.56C122.808 168.782 122.976 168.954 123.189 169.077C123.405 169.197 123.649 169.257 123.922 169.257ZM11.4229 181V176.545H13.5469C14.0509 176.545 14.4544 176.641 14.7574 176.833C15.0604 177.025 15.2119 177.313 15.2119 177.697C15.2119 177.877 15.1684 178.037 15.0814 178.178C14.9944 178.316 14.8744 178.432 14.7214 178.525C14.5684 178.618 14.3899 178.685 14.1859 178.728L14.1679 178.507C14.5609 178.561 14.8654 178.691 15.0814 178.898C15.2974 179.105 15.4054 179.368 15.4054 179.686C15.4054 179.956 15.3349 180.19 15.1939 180.388C15.0529 180.583 14.8504 180.734 14.5864 180.842C14.3224 180.947 14.0059 181 13.6369 181H11.4229ZM12.3814 180.266H13.5019C13.7989 180.266 14.0269 180.217 14.1859 180.118C14.3479 180.019 14.4289 179.87 14.4289 179.672C14.4289 179.477 14.3494 179.332 14.1904 179.236C14.0314 179.137 13.8019 179.087 13.5019 179.087H12.2509V178.381H13.3984C13.6774 178.381 13.8934 178.339 14.0464 178.255C14.1994 178.168 14.2759 178.027 14.2759 177.832C14.2759 177.637 14.1994 177.496 14.0464 177.409C13.8934 177.319 13.6774 177.274 13.3984 177.274H12.3814V180.266ZM16.5205 181V176.545H17.38H17.407L19.405 179.434L18.9775 179.443L20.8765 176.545H21.754V181H20.854L20.8675 177.706L21.052 177.787L19.459 180.113H18.82L17.155 177.782L17.3395 177.701L17.353 181H16.5205ZM25.1639 181.135C24.6839 181.135 24.2624 181.038 23.8994 180.842C23.5364 180.644 23.2529 180.368 23.0489 180.014C22.8479 179.66 22.7474 179.249 22.7474 178.781C22.7474 178.439 22.8059 178.124 22.9229 177.836C23.0399 177.545 23.2049 177.293 23.4179 177.08C23.6309 176.867 23.8799 176.702 24.1649 176.585C24.4529 176.468 24.7664 176.41 25.1054 176.41C25.4744 176.41 25.8029 176.476 26.0909 176.608C26.3789 176.737 26.6174 176.918 26.8064 177.152C26.9984 177.386 27.1334 177.661 27.2114 177.976C27.2924 178.288 27.3059 178.627 27.2519 178.993H23.6969C23.6909 179.26 23.7494 179.494 23.8724 179.695C23.9954 179.893 24.1709 180.047 24.3989 180.158C24.6299 180.269 24.9014 180.325 25.2134 180.325C25.4654 180.325 25.7084 180.287 25.9424 180.212C26.1794 180.134 26.3939 180.02 26.5859 179.87L26.9684 180.581C26.8244 180.698 26.6504 180.799 26.4464 180.883C26.2424 180.964 26.0294 181.026 25.8074 181.068C25.5854 181.113 25.3709 181.135 25.1639 181.135ZM23.7554 178.264H26.2799C26.2709 177.928 26.1629 177.664 25.9559 177.472C25.7519 177.28 25.4609 177.184 25.0829 177.184C24.7169 177.184 24.4124 177.28 24.1694 177.472C23.9294 177.664 23.7914 177.928 23.7554 178.264ZM30.3672 181.135C29.8992 181.135 29.4822 181.033 29.1162 180.829C28.7502 180.622 28.4622 180.341 28.2522 179.987C28.0452 179.63 27.9417 179.225 27.9417 178.772C27.9417 178.43 28.0032 178.117 28.1262 177.832C28.2492 177.544 28.4232 177.293 28.6482 177.08C28.8732 176.867 29.1372 176.702 29.4402 176.585C29.7462 176.468 30.0777 176.41 30.4347 176.41C30.7347 176.41 31.0122 176.45 31.2672 176.531C31.5252 176.609 31.7622 176.731 31.9782 176.896L31.5012 177.652C31.3632 177.529 31.2042 177.437 31.0242 177.377C30.8472 177.317 30.6582 177.287 30.4572 177.287C30.1452 177.287 29.8767 177.346 29.6517 177.463C29.4267 177.58 29.2512 177.749 29.1252 177.971C29.0022 178.19 28.9407 178.456 28.9407 178.768C28.9407 179.233 29.0757 179.597 29.3457 179.861C29.6187 180.125 29.9892 180.257 30.4572 180.257C30.6792 180.257 30.8892 180.217 31.0872 180.136C31.2852 180.052 31.4502 179.942 31.5822 179.807L32.0547 180.559C31.8177 180.739 31.5537 180.88 31.2627 180.982C30.9717 181.084 30.6732 181.135 30.3672 181.135ZM33.9594 181V177.364H32.4969V176.545H36.4164V177.364H34.9494V181H33.9594ZM39.3582 181.135C38.8782 181.135 38.4567 181.038 38.0937 180.842C37.7307 180.644 37.4472 180.368 37.2432 180.014C37.0422 179.66 36.9417 179.249 36.9417 178.781C36.9417 178.439 37.0002 178.124 37.1172 177.836C37.2342 177.545 37.3992 177.293 37.6122 177.08C37.8252 176.867 38.0742 176.702 38.3592 176.585C38.6472 176.468 38.9607 176.41 39.2997 176.41C39.6687 176.41 39.9972 176.476 40.2852 176.608C40.5732 176.737 40.8117 176.918 41.0007 177.152C41.1927 177.386 41.3277 177.661 41.4057 177.976C41.4867 178.288 41.5002 178.627 41.4462 178.993H37.8912C37.8852 179.26 37.9437 179.494 38.0667 179.695C38.1897 179.893 38.3652 180.047 38.5932 180.158C38.8242 180.269 39.0957 180.325 39.4077 180.325C39.6597 180.325 39.9027 180.287 40.1367 180.212C40.3737 180.134 40.5882 180.02 40.7802 179.87L41.1627 180.581C41.0187 180.698 40.8447 180.799 40.6407 180.883C40.4367 180.964 40.2237 181.026 40.0017 181.068C39.7797 181.113 39.5652 181.135 39.3582 181.135ZM37.9497 178.264H40.4742C40.4652 177.928 40.3572 177.664 40.1502 177.472C39.9462 177.28 39.6552 177.184 39.2772 177.184C38.9112 177.184 38.6067 177.28 38.3637 177.472C38.1237 177.664 37.9857 177.928 37.9497 178.264ZM46.7237 181.135C46.2557 181.135 45.8387 181.033 45.4727 180.829C45.1067 180.622 44.8187 180.341 44.6087 179.987C44.4017 179.63 44.2982 179.225 44.2982 178.772C44.2982 178.43 44.3597 178.117 44.4827 177.832C44.6057 177.544 44.7797 177.293 45.0047 177.08C45.2297 176.867 45.4937 176.702 45.7967 176.585C46.1027 176.468 46.4342 176.41 46.7912 176.41C47.0912 176.41 47.3687 176.45 47.6237 176.531C47.8817 176.609 48.1187 176.731 48.3347 176.896L47.8577 177.652C47.7197 177.529 47.5607 177.437 47.3807 177.377C47.2037 177.317 47.0147 177.287 46.8137 177.287C46.5017 177.287 46.2332 177.346 46.0082 177.463C45.7832 177.58 45.6077 177.749 45.4817 177.971C45.3587 178.19 45.2972 178.456 45.2972 178.768C45.2972 179.233 45.4322 179.597 45.7022 179.861C45.9752 180.125 46.3457 180.257 46.8137 180.257C47.0357 180.257 47.2457 180.217 47.4437 180.136C47.6417 180.052 47.8067 179.942 47.9387 179.807L48.4112 180.559C48.1742 180.739 47.9102 180.88 47.6192 180.982C47.3282 181.084 47.0297 181.135 46.7237 181.135ZM51.3654 181.077L51.0189 180.185C51.3249 180.107 51.5484 179.984 51.6894 179.816C51.8334 179.648 51.9234 179.414 51.9594 179.114C51.9984 178.814 52.0179 178.427 52.0179 177.953V176.545H55.6404V181H54.6504V177.364H52.9404V177.953C52.9404 178.43 52.9179 178.846 52.8729 179.2C52.8309 179.554 52.7529 179.855 52.6389 180.104C52.5249 180.353 52.3644 180.557 52.1574 180.716C51.9534 180.872 51.6894 180.992 51.3654 181.077ZM59.0545 181.135C58.5745 181.135 58.153 181.038 57.79 180.842C57.427 180.644 57.1435 180.368 56.9395 180.014C56.7385 179.66 56.638 179.249 56.638 178.781C56.638 178.439 56.6965 178.124 56.8135 177.836C56.9305 177.545 57.0955 177.293 57.3085 177.08C57.5215 176.867 57.7705 176.702 58.0555 176.585C58.3435 176.468 58.657 176.41 58.996 176.41C59.365 176.41 59.6935 176.476 59.9815 176.608C60.2695 176.737 60.508 176.918 60.697 177.152C60.889 177.386 61.024 177.661 61.102 177.976C61.183 178.288 61.1965 178.627 61.1425 178.993H57.5875C57.5815 179.26 57.64 179.494 57.763 179.695C57.886 179.893 58.0615 180.047 58.2895 180.158C58.5205 180.269 58.792 180.325 59.104 180.325C59.356 180.325 59.599 180.287 59.833 180.212C60.07 180.134 60.2845 180.02 60.4765 179.87L60.859 180.581C60.715 180.698 60.541 180.799 60.337 180.883C60.133 180.964 59.92 181.026 59.698 181.068C59.476 181.113 59.2615 181.135 59.0545 181.135ZM57.646 178.264H60.1705C60.1615 177.928 60.0535 177.664 59.8465 177.472C59.6425 177.28 59.3515 177.184 58.9735 177.184C58.6075 177.184 58.303 177.28 58.06 177.472C57.82 177.664 57.682 177.928 57.646 178.264ZM62.1709 181V176.545H63.0304H63.0574L65.0554 179.434L64.6279 179.443L66.5269 176.545H67.4044V181H66.5044L66.5179 177.706L66.7024 177.787L65.1094 180.113H64.4704L62.8054 177.782L62.9899 177.701L63.0034 181H62.1709ZM68.7803 181V176.545H69.6398H69.6668L71.6648 179.434L71.2373 179.443L73.1363 176.545H74.0138V181H73.1138L73.1273 177.706L73.3118 177.787L71.7188 180.113H71.0798L69.4148 177.782L69.5993 177.701L69.6128 181H68.7803ZM75.3897 181V176.545H76.3482V179.551L78.7647 176.545H79.6287V181H78.6747V177.958L76.2357 181H75.3897ZM81.0059 181V176.545H81.9959V178.264H84.2279V176.545H85.2179V181H84.2279V179.083H81.9959V181H81.0059ZM86.5957 181V176.545H89.5297V177.364H87.5857V181H86.5957ZM91.6828 181.135C91.3738 181.135 91.1023 181.078 90.8683 180.964C90.6343 180.847 90.4513 180.683 90.3193 180.473C90.1903 180.26 90.1258 180.01 90.1258 179.722C90.1258 179.479 90.1873 179.26 90.3103 179.065C90.4333 178.867 90.6238 178.703 90.8818 178.574C91.1428 178.445 91.4773 178.36 91.8853 178.318C92.2933 178.273 92.7838 178.279 93.3568 178.336L93.3748 179.02C92.9668 178.963 92.6158 178.939 92.3218 178.948C92.0278 178.957 91.7863 178.994 91.5973 179.06C91.4113 179.123 91.2733 179.209 91.1833 179.317C91.0963 179.422 91.0528 179.543 91.0528 179.681C91.0528 179.897 91.1293 180.064 91.2823 180.181C91.4383 180.298 91.6513 180.356 91.9213 180.356C92.1523 180.356 92.3593 180.314 92.5423 180.23C92.7253 180.146 92.8693 180.028 92.9743 179.875C93.0823 179.722 93.1363 179.542 93.1363 179.335V178.151C93.1363 177.953 93.0943 177.782 93.0103 177.638C92.9263 177.491 92.7988 177.377 92.6278 177.296C92.4568 177.215 92.2438 177.175 91.9888 177.175C91.7548 177.175 91.5238 177.211 91.2958 177.283C91.0678 177.352 90.8503 177.461 90.6433 177.611L90.3643 176.882C90.6433 176.693 90.9343 176.56 91.2373 176.482C91.5403 176.404 91.8313 176.365 92.1103 176.365C92.5243 176.365 92.8783 176.431 93.1723 176.563C93.4693 176.692 93.6973 176.888 93.8563 177.152C94.0153 177.413 94.0948 177.743 94.0948 178.142V181H93.2038V180.473C93.0538 180.686 92.8453 180.85 92.5783 180.964C92.3113 181.078 92.0128 181.135 91.6828 181.135ZM95.4112 181V176.545H96.2707H96.2977L98.2957 179.434L97.8682 179.443L99.7672 176.545H100.645V181H99.7447L99.7582 177.706L99.9427 177.787L98.3497 180.113H97.7107L96.0457 177.782L96.2302 177.701L96.2437 181H95.4112ZM102.021 181V176.545H102.979V179.551L105.396 176.545H106.26V181H105.306V177.958L102.867 181H102.021ZM109.843 181V176.545H110.833V178.264H113.065V176.545H114.055V181H113.065V179.083H110.833V181H109.843ZM116.67 181.135C116.361 181.135 116.09 181.078 115.856 180.964C115.622 180.847 115.439 180.683 115.307 180.473C115.178 180.26 115.113 180.01 115.113 179.722C115.113 179.479 115.175 179.26 115.298 179.065C115.421 178.867 115.611 178.703 115.869 178.574C116.13 178.445 116.465 178.36 116.873 178.318C117.281 178.273 117.771 178.279 118.344 178.336L118.362 179.02C117.954 178.963 117.603 178.939 117.309 178.948C117.015 178.957 116.774 178.994 116.585 179.06C116.399 179.123 116.261 179.209 116.171 179.317C116.084 179.422 116.04 179.543 116.04 179.681C116.04 179.897 116.117 180.064 116.27 180.181C116.426 180.298 116.639 180.356 116.909 180.356C117.14 180.356 117.347 180.314 117.53 180.23C117.713 180.146 117.857 180.028 117.962 179.875C118.07 179.722 118.124 179.542 118.124 179.335V178.151C118.124 177.953 118.082 177.782 117.998 177.638C117.914 177.491 117.786 177.377 117.615 177.296C117.444 177.215 117.231 177.175 116.976 177.175C116.742 177.175 116.511 177.211 116.283 177.283C116.055 177.352 115.838 177.461 115.631 177.611L115.352 176.882C115.631 176.693 115.922 176.56 116.225 176.482C116.528 176.404 116.819 176.365 117.098 176.365C117.512 176.365 117.866 176.431 118.16 176.563C118.457 176.692 118.685 176.888 118.844 177.152C119.003 177.413 119.082 177.743 119.082 178.142V181H118.191V180.473C118.041 180.686 117.833 180.85 117.566 180.964C117.299 181.078 117 181.135 116.67 181.135ZM122.605 181V176.545H123.595V178.264H125.827V176.545H126.817V181H125.827V179.083H123.595V181H122.605ZM130.228 181.135C129.748 181.135 129.327 181.038 128.964 180.842C128.601 180.644 128.317 180.368 128.113 180.014C127.912 179.66 127.812 179.249 127.812 178.781C127.812 178.439 127.87 178.124 127.987 177.836C128.104 177.545 128.269 177.293 128.482 177.08C128.695 176.867 128.944 176.702 129.229 176.585C129.517 176.468 129.831 176.41 130.17 176.41C130.539 176.41 130.867 176.476 131.155 176.608C131.443 176.737 131.682 176.918 131.871 177.152C132.063 177.386 132.198 177.661 132.276 177.976C132.357 178.288 132.37 178.627 132.316 178.993H128.761C128.755 179.26 128.814 179.494 128.937 179.695C129.06 179.893 129.235 180.047 129.463 180.158C129.694 180.269 129.966 180.325 130.278 180.325C130.53 180.325 130.773 180.287 131.007 180.212C131.244 180.134 131.458 180.02 131.65 179.87L132.033 180.581C131.889 180.698 131.715 180.799 131.511 180.883C131.307 180.964 131.094 181.026 130.872 181.068C130.65 181.113 130.435 181.135 130.228 181.135ZM128.82 178.264H131.344C131.335 177.928 131.227 177.664 131.02 177.472C130.816 177.28 130.525 177.184 130.147 177.184C129.781 177.184 129.477 177.28 129.234 177.472C128.994 177.664 128.856 177.928 128.82 178.264ZM129.171 175.757C129.009 175.757 128.865 175.7 128.739 175.586C128.616 175.472 128.554 175.327 128.554 175.15C128.554 175.03 128.583 174.923 128.64 174.83C128.697 174.737 128.772 174.665 128.865 174.614C128.961 174.563 129.063 174.538 129.171 174.538C129.336 174.538 129.48 174.595 129.603 174.709C129.729 174.823 129.792 174.97 129.792 175.15C129.792 175.27 129.763 175.376 129.706 175.469C129.649 175.559 129.573 175.63 129.477 175.681C129.384 175.732 129.282 175.757 129.171 175.757ZM131.119 175.757C130.957 175.757 130.813 175.7 130.687 175.586C130.564 175.472 130.503 175.327 130.503 175.15C130.503 175.03 130.531 174.923 130.588 174.83C130.645 174.737 130.72 174.665 130.813 174.614C130.909 174.563 131.011 174.538 131.119 174.538C131.284 174.538 131.428 174.595 131.551 174.709C131.677 174.823 131.74 174.97 131.74 175.15C131.74 175.27 131.712 175.376 131.655 175.469C131.598 175.559 131.521 175.63 131.425 175.681C131.332 175.732 131.23 175.757 131.119 175.757ZM133.345 181V176.545H134.204H134.231L136.229 179.434L135.802 179.443L137.701 176.545H138.578V181H137.678L137.692 177.706L137.876 177.787L136.283 180.113H135.644L133.979 177.782L134.164 177.701L134.177 181H133.345Z" fill="white"/>
<rect x="1" y="1" width="148" height="198" rx="15" stroke="black" stroke-width="2"/>
<path d="M40 78.283L40.4302 72.6541L75.3742 58.1667L110 28.2672L109.57 33.8959L105.607 39.8684L105.391 45.5609L104.961 51.1896L102.8 57.8189L93.2939 63.2952L89.4049 66.4656L90.5572 74.68L85.0838 77.9947L86.2361 84.4799L80.7626 87.7945L80.0426 95.0001L40 78.283Z" fill="#798081"/>
<path d="M86.6661 78.851L86.2359 84.4799L80.7625 87.7945L81.1926 82.1656L86.6661 78.851Z" fill="#606566"/>
<path d="M90.987 69.0513L90.5569 74.68L85.0835 77.9946L85.5136 72.3659L90.987 69.0513Z" fill="#606566"/>
<path d="M61.3155 24.2319L58.2908 14.8645L62.4678 14L68.5174 21.3498L80.9045 18.7556L90.2669 21.3498L99.7734 31.0054L107.695 24.5202L110 28.2672L105.823 34.1758L105.391 45.5608L103.23 52.1899L93.7237 57.6664L89.8348 60.8368L90.987 69.0513L85.5136 72.3659L86.666 78.8509L81.1926 82.1656L80.4723 89.3713L61.3155 81.7332L40.4302 72.654L46.1916 69.1953L44.0311 64.4395L49.7926 60.8368L47.3439 54.3517L56.1302 49.74L53.2495 44.6961L49.5045 38.4992L52.8173 32.8789L59.155 27.5467L61.3155 24.2319Z" fill="#F2FDFF"/>
<path d="M103.23 52.1899L102.8 57.8188L104.961 51.1895L105.391 45.5608L103.23 52.1899Z" fill="#606566"/>
<path d="M110 28.2672L109.57 33.8959L105.607 39.8684L105.823 34.1758L110 28.2672Z" fill="#606566"/>
<path d="M70.4236 29.3613L64.8258 34.7924L68.0488 40.3929L74.8338 38.0169L75.8516 32.4162L70.4236 29.3613Z" fill="#7D8485"/>
<path d="M87.7733 36.3744L82.1755 41.8054L85.3984 47.4059L92.1836 45.03L93.2014 39.4293L87.7733 36.3744Z" fill="#7D8485"/>
<path d="M14 84L40.5 54.5V75.5L96 70.5L92.5 52L126.5 77L103 107.5L100.5 86.5L44.5 92L47 110L14 84Z" fill="black" stroke="white" stroke-width="2"/>
</g>
<defs>
<filter id="filter0_b_2_1016" x="-4" y="114" width="158" height="90" filterUnits="userSpaceOnUse" color-interpolation-filters="sRGB">
<feFlood flood-opacity="0" result="BackgroundImageFix"/>
<feGaussianBlur in="BackgroundImageFix" stdDeviation="2"/>
<feComposite in2="SourceAlpha" operator="in" result="effect1_backgroundBlur_2_1016"/>
<feBlend mode="normal" in="SourceGraphic" in2="effect1_backgroundBlur_2_1016" result="shape"/>
</filter>
<clipPath id="clip0_2_1016">
<rect width="150" height="200" rx="16" fill="white"/>
</clipPath>
</defs>
</svg>
