<svg width="150" height="200" viewBox="0 0 150 200" fill="none" xmlns="http://www.w3.org/2000/svg">
<g clip-path="url(#clip0_1_345)">
<rect width="150" height="200" fill="#002168"/>
<path d="M156.288 68.2114L166.673 81.3081L176.135 111.009L177.14 174.043L176.246 203.297L165.333 223.284L145.681 113.466L156.288 68.2114Z" fill="#456043"/>
<path d="M-5.25261 80.686L-14.2599 107.438L-19 135.868L-15.3681 191.276L-11.7839 207.583L-0.367765 224.847L5.88516 90.0172L-5.25261 80.686Z" fill="#669564"/>
<path d="M-2.09432 161.831L-5.28064 211.895L-0.367762 224.847L51.665 222.614L90.7455 225.294L134.069 222.167L165.333 223.284L168.683 192.69L164.973 162.146L111.29 151.412L26.6535 147.615L-2.09432 161.831Z" fill="#50754E"/>
<path d="M-2.09436 161.831L68.9645 158.357L139.392 164.673L164.973 162.146L162.604 85.4235L156.288 68.2115L66.122 57L8.32749 69.9485L-5.25265 80.6862L-6.20007 129.322L-2.09436 161.831Z" fill="#48CB43"/>
<path d="M17.1479 110.659L12.3093 100.636" stroke="#70EF6B" stroke-width="0.999999" stroke-linecap="round" stroke-linejoin="round"/>
<path d="M21.2951 106.166L17.1479 91.6506" stroke="#70EF6B" stroke-width="0.999999" stroke-linecap="round" stroke-linejoin="round"/>
<path d="M26.8248 103.401L27.516 90.2683" stroke="#70EF6B" stroke-width="0.999999" stroke-linecap="round" stroke-linejoin="round"/>
<path d="M34.0823 94.07L34.4277 81.9739" stroke="#70EF6B" stroke-width="0.999999" stroke-linecap="round" stroke-linejoin="round"/>
<path d="M40.9944 115.152L43.7592 100.291" stroke="#70EF6B" stroke-width="0.999999" stroke-linecap="round" stroke-linejoin="round"/>
<path d="M51.017 117.225L57.5835 108.585" stroke="#70EF6B" stroke-width="0.999999" stroke-linecap="round" stroke-linejoin="round"/>
<path d="M57.5835 122.064L63.4587 116.88" stroke="#70EF6B" stroke-width="0.999999" stroke-linecap="round" stroke-linejoin="round"/>
<path d="M91.107 91.6507L83.1581 80.937" stroke="#70EF6B" stroke-width="0.999999" stroke-linecap="round" stroke-linejoin="round"/>
<path d="M93.5261 89.5771V79.9001" stroke="#70EF6B" stroke-width="0.999999" stroke-linecap="round" stroke-linejoin="round"/>
<path d="M101.475 88.886L105.277 74.0249" stroke="#70EF6B" stroke-width="0.999999" stroke-linecap="round" stroke-linejoin="round"/>
<path d="M110.461 90.6138L121.52 79.9001" stroke="#70EF6B" stroke-width="0.999999" stroke-linecap="round" stroke-linejoin="round"/>
<path d="M117.718 98.5628L123.939 86.8123" stroke="#70EF6B" stroke-width="0.999999" stroke-linecap="round" stroke-linejoin="round"/>
<path d="M95.2542 133.469L92.4894 121.027" stroke="#70EF6B" stroke-width="0.999999" stroke-linecap="round" stroke-linejoin="round"/>
<path d="M99.7471 132.086L98.7103 115.843" stroke="#70EF6B" stroke-width="0.999999" stroke-linecap="round" stroke-linejoin="round"/>
<path d="M103.894 132.432L107.005 118.953" stroke="#70EF6B" stroke-width="0.999999" stroke-linecap="round" stroke-linejoin="round"/>
<path d="M87.651 134.16L84.8861 126.211" stroke="#70EF6B" stroke-width="0.999999" stroke-linecap="round" stroke-linejoin="round"/>
<path d="M111.498 136.234L117.027 129.322" stroke="#70EF6B" stroke-width="0.999999" stroke-linecap="round" stroke-linejoin="round"/>
<path d="M144.33 143.837L139.146 135.888" stroke="#70EF6B" stroke-width="0.999999" stroke-linecap="round" stroke-linejoin="round"/>
<path d="M148.823 144.182L149.514 124.829" stroke="#70EF6B" stroke-width="0.999999" stroke-linecap="round" stroke-linejoin="round"/>
<path d="M29.9353 146.256L24.7511 136.579" stroke="#70EF6B" stroke-width="0.999999" stroke-linecap="round" stroke-linejoin="round"/>
<path d="M37.5385 142.8L38.9209 132.086" stroke="#70EF6B" stroke-width="0.999999" stroke-linecap="round" stroke-linejoin="round"/>
<path opacity="0.314159" d="M-16.6301 121.653L-9.47632 177.065L-3.68765 186.863L55.6699 197.974L121.68 195.555L154.858 197.283L168.683 192.69L171.62 137.839L167.818 98.7861L166.673 81.3081L176.134 111.009L176.246 203.297L165.333 223.284L134.069 222.167L90.7455 225.294L51.665 222.614L-0.367765 224.847L-11.7839 207.583L-15.3681 191.276L-19 135.868L-16.6301 121.653Z" fill="#3238B1"/>
<g filter="url(#filter0_b_1_345)">
<rect y="118" width="150" height="82" fill="black" fill-opacity="0.5"/>
</g>
<rect x="1" y="1" width="148" height="198" rx="15" stroke="black" stroke-width="2"/>
<path d="M13.1202 138V130.3H16.1067C16.6714 130.3 17.1719 130.399 17.6082 130.597C18.0445 130.791 18.3874 131.075 18.6367 131.449C18.886 131.82 19.0107 132.265 19.0107 132.786C19.0107 133.318 18.8952 133.769 18.6642 134.139C18.4332 134.506 18.0977 134.786 17.6577 134.98C17.2214 135.171 16.6915 135.266 16.0682 135.266H14.7482V138H13.1202ZM14.7482 133.897H16.0407C16.4624 133.897 16.7905 133.811 17.0252 133.638C17.2635 133.466 17.3827 133.193 17.3827 132.819C17.3827 132.441 17.2617 132.161 17.0197 131.977C16.7777 131.794 16.455 131.702 16.0517 131.702H14.7482V133.897ZM23.8717 138.165C23.2851 138.165 22.7424 138.064 22.2437 137.862C21.7451 137.657 21.3124 137.373 20.9457 137.01C20.5791 136.647 20.2931 136.222 20.0877 135.734C19.8861 135.246 19.7852 134.718 19.7852 134.15C19.7852 133.578 19.8861 133.048 20.0877 132.56C20.2931 132.073 20.5791 131.647 20.9457 131.284C21.3124 130.921 21.7451 130.639 22.2437 130.437C22.7424 130.236 23.2851 130.135 23.8717 130.135C24.4584 130.135 24.9992 130.238 25.4942 130.443C25.9929 130.648 26.4256 130.934 26.7922 131.301C27.1626 131.668 27.4504 132.095 27.6557 132.582C27.8611 133.066 27.9637 133.589 27.9637 134.15C27.9637 134.718 27.8611 135.246 27.6557 135.734C27.4504 136.222 27.1626 136.647 26.7922 137.01C26.4256 137.373 25.9929 137.657 25.4942 137.862C24.9992 138.064 24.4584 138.165 23.8717 138.165ZM23.8717 136.636C24.2127 136.636 24.5281 136.577 24.8177 136.46C25.1074 136.343 25.3604 136.176 25.5767 135.959C25.7931 135.739 25.9599 135.477 26.0772 135.173C26.1982 134.869 26.2587 134.528 26.2587 134.15C26.2587 133.648 26.1542 133.211 25.9452 132.841C25.7362 132.467 25.4521 132.177 25.0927 131.972C24.7334 131.767 24.3264 131.664 23.8717 131.664C23.5344 131.664 23.2191 131.723 22.9257 131.84C22.6361 131.957 22.3831 132.124 22.1667 132.34C21.9541 132.557 21.7872 132.819 21.6662 133.127C21.5489 133.431 21.4902 133.772 21.4902 134.15C21.4902 134.652 21.5947 135.09 21.8037 135.464C22.0127 135.835 22.2969 136.123 22.6562 136.328C23.0156 136.533 23.4207 136.636 23.8717 136.636ZM29.3624 138V130.3H30.9299L33.9274 135.239L33.2839 135.25L36.1439 130.3H37.7004V138H36.1219L36.1494 132.401L36.4409 132.505L34.0869 136.482H32.9759L30.5504 132.505L30.8254 132.401L30.8529 138H29.3624ZM39.5782 138V130.3H44.8417V131.719H41.2062V133.369H44.2862V134.683H41.2062V136.564H44.8857V138H39.5782ZM50.0934 138.165C49.5068 138.165 48.9641 138.064 48.4654 137.862C47.9668 137.657 47.5341 137.373 47.1674 137.01C46.8008 136.647 46.5148 136.222 46.3094 135.734C46.1078 135.246 46.0069 134.718 46.0069 134.15C46.0069 133.578 46.1078 133.048 46.3094 132.56C46.5148 132.073 46.8008 131.647 47.1674 131.284C47.5341 130.921 47.9668 130.639 48.4654 130.437C48.9641 130.236 49.5068 130.135 50.0934 130.135C50.6801 130.135 51.2209 130.238 51.7159 130.443C52.2146 130.648 52.6473 130.934 53.0139 131.301C53.3843 131.668 53.6721 132.095 53.8774 132.582C54.0828 133.066 54.1854 133.589 54.1854 134.15C54.1854 134.718 54.0828 135.246 53.8774 135.734C53.6721 136.222 53.3843 136.647 53.0139 137.01C52.6473 137.373 52.2146 137.657 51.7159 137.862C51.2209 138.064 50.6801 138.165 50.0934 138.165ZM50.0934 136.636C50.4344 136.636 50.7498 136.577 51.0394 136.46C51.3291 136.343 51.5821 136.176 51.7984 135.959C52.0148 135.739 52.1816 135.477 52.2989 135.173C52.4199 134.869 52.4804 134.528 52.4804 134.15C52.4804 133.648 52.3759 133.211 52.1669 132.841C51.9579 132.467 51.6738 132.177 51.3144 131.972C50.9551 131.767 50.5481 131.664 50.0934 131.664C49.7561 131.664 49.4408 131.723 49.1474 131.84C48.8578 131.957 48.6048 132.124 48.3884 132.34C48.1758 132.557 48.0089 132.819 47.8879 133.127C47.7706 133.431 47.7119 133.772 47.7119 134.15C47.7119 134.652 47.8164 135.09 48.0254 135.464C48.2344 135.835 48.5186 136.123 48.8779 136.328C49.2373 136.533 49.6424 136.636 50.0934 136.636ZM58.1729 138V130.3H59.7844V135.404L63.1504 130.3H64.7564V138H63.1394V132.846L59.7679 138H58.1729ZM74.1824 138V131.785H71.6084V132.538C71.6084 133.437 71.5626 134.207 71.4709 134.848C71.3792 135.486 71.2326 136.016 71.0309 136.438C70.8329 136.86 70.5689 137.193 70.2389 137.439C69.9089 137.685 69.5074 137.864 69.0344 137.978L68.4679 136.619C68.7906 136.546 69.0546 136.434 69.2599 136.284C69.4689 136.134 69.6321 135.912 69.7494 135.618C69.8667 135.321 69.9474 134.925 69.9914 134.43C70.0391 133.932 70.0629 133.301 70.0629 132.538V130.3H75.8104V138H74.1824ZM68.4679 139.947V136.619L69.4414 136.663L69.9749 136.509H77.0479V139.947H75.5024V138H70.0134V139.947H68.4679ZM86.5493 138L83.7388 133.968L86.2578 130.3H88.1113L85.5538 133.963L88.4578 138H86.5493ZM77.4358 138L80.3233 134.056L77.8098 130.3H79.7183L82.1383 133.985L79.2783 138H77.4358ZM82.1328 138V134.634H80.8348V133.27H82.1328V130.3H83.7608V133.27H85.0643V134.634H83.7608V138H82.1328ZM89.7881 138.143L89.1941 136.658C89.6635 136.566 90.076 136.423 90.4316 136.229C90.791 136.031 91.11 135.765 91.3886 135.431C91.671 135.098 91.9331 134.678 92.1751 134.172L94.0286 130.3H95.9151L93.6326 134.832C93.3613 135.378 93.0845 135.848 92.8021 136.24C92.5198 136.629 92.2246 136.953 91.9166 137.213C91.6086 137.474 91.2786 137.677 90.9266 137.824C90.5783 137.971 90.1988 138.077 89.7881 138.143ZM91.8946 135.767L88.9411 130.3H90.9156L92.9946 134.381L91.8946 135.767ZM96.1857 138.143L95.6302 136.652C95.8795 136.575 96.0903 136.487 96.2627 136.388C96.4387 136.286 96.5835 136.148 96.6972 135.976C96.8145 135.804 96.9062 135.576 96.9722 135.294C97.0382 135.012 97.084 134.652 97.1097 134.216C97.1353 133.78 97.1482 133.244 97.1482 132.61V130.3H102.808V138H101.18V131.785H98.6937V132.538C98.6937 133.33 98.668 134.018 98.6167 134.601C98.569 135.18 98.4883 135.675 98.3747 136.086C98.261 136.493 98.107 136.832 97.9127 137.103C97.722 137.371 97.4837 137.587 97.1977 137.752C96.9153 137.917 96.578 138.048 96.1857 138.143ZM104.687 138V130.3H106.315V133.028H107.673C108.234 133.028 108.733 133.127 109.169 133.325C109.605 133.523 109.948 133.807 110.198 134.177C110.451 134.548 110.577 134.995 110.577 135.519C110.577 135.915 110.511 136.267 110.379 136.575C110.251 136.883 110.06 137.144 109.807 137.356C109.554 137.569 109.246 137.73 108.883 137.84C108.52 137.947 108.104 138 107.635 138H104.687ZM106.315 136.63H107.607C108.029 136.63 108.357 136.544 108.592 136.372C108.83 136.2 108.949 135.925 108.949 135.547C108.949 135.169 108.828 134.891 108.586 134.711C108.344 134.528 108.021 134.436 107.618 134.436H106.315V136.63ZM111.83 138V130.3H117.094V131.719H113.458V133.369H116.538V134.683H113.458V136.564H117.138V138H111.83ZM120.123 138V131.785H118.033V130.3H123.852V131.785H121.762V138H120.123ZM126.483 138V131.785H124.393V130.3H130.212V131.785H128.122V138H126.483ZM130.023 138L132.938 130.3H134.792L137.751 138H135.919L135.32 136.35H132.388L131.805 138H130.023ZM132.773 134.975H134.924L133.835 132.082L132.773 134.975Z" fill="white"/>
<path d="M18.734 159V152.7H23.801V159H22.793V153.622H19.742V159H18.734ZM27.3436 159.135C26.8636 159.135 26.4421 159.038 26.0791 158.842C25.7161 158.644 25.4326 158.368 25.2286 158.014C25.0276 157.66 24.9271 157.249 24.9271 156.781C24.9271 156.439 24.9856 156.124 25.1026 155.836C25.2196 155.545 25.3846 155.293 25.5976 155.08C25.8106 154.867 26.0596 154.702 26.3446 154.585C26.6326 154.468 26.9461 154.41 27.2851 154.41C27.6541 154.41 27.9826 154.476 28.2706 154.608C28.5586 154.737 28.7971 154.918 28.9861 155.152C29.1781 155.386 29.3131 155.661 29.3911 155.976C29.4721 156.288 29.4856 156.627 29.4316 156.993H25.8766C25.8706 157.26 25.9291 157.494 26.0521 157.695C26.1751 157.893 26.3506 158.047 26.5786 158.158C26.8096 158.269 27.0811 158.325 27.3931 158.325C27.6451 158.325 27.8881 158.287 28.1221 158.212C28.3591 158.134 28.5736 158.02 28.7656 157.87L29.1481 158.581C29.0041 158.698 28.8301 158.799 28.6261 158.883C28.4221 158.964 28.2091 159.026 27.9871 159.068C27.7651 159.113 27.5506 159.135 27.3436 159.135ZM25.9351 156.264H28.4596C28.4506 155.928 28.3426 155.664 28.1356 155.472C27.9316 155.28 27.6406 155.184 27.2626 155.184C26.8966 155.184 26.5921 155.28 26.3491 155.472C26.1091 155.664 25.9711 155.928 25.9351 156.264ZM30.46 160.89V154.545H31.351V155.17C31.528 154.945 31.7545 154.762 32.0305 154.621C32.3065 154.48 32.647 154.41 33.052 154.41C33.487 154.41 33.8725 154.513 34.2085 154.72C34.5475 154.924 34.8115 155.205 35.0005 155.562C35.1895 155.916 35.284 156.319 35.284 156.772C35.284 157.099 35.23 157.407 35.122 157.695C35.014 157.98 34.8595 158.23 34.6585 158.446C34.4605 158.662 34.2235 158.832 33.9475 158.955C33.6745 159.075 33.3715 159.135 33.0385 159.135C32.6905 159.135 32.3845 159.072 32.1205 158.946C31.8565 158.82 31.6315 158.65 31.4455 158.438V160.89H30.46ZM32.872 158.257C33.148 158.257 33.3925 158.197 33.6055 158.077C33.8215 157.954 33.9895 157.782 34.1095 157.56C34.2325 157.338 34.294 157.075 34.294 156.772C34.294 156.469 34.2325 156.207 34.1095 155.985C33.9865 155.76 33.817 155.587 33.601 155.467C33.388 155.347 33.145 155.287 32.872 155.287C32.596 155.287 32.35 155.347 32.134 155.467C31.921 155.587 31.753 155.76 31.63 155.985C31.507 156.207 31.4455 156.469 31.4455 156.772C31.4455 157.075 31.507 157.338 31.63 157.56C31.753 157.782 31.921 157.954 32.134 158.077C32.35 158.197 32.596 158.257 32.872 158.257ZM38.3563 159.135C37.8763 159.135 37.4548 159.038 37.0918 158.842C36.7288 158.644 36.4453 158.368 36.2413 158.014C36.0403 157.66 35.9398 157.249 35.9398 156.781C35.9398 156.439 35.9983 156.124 36.1153 155.836C36.2323 155.545 36.3973 155.293 36.6103 155.08C36.8233 154.867 37.0723 154.702 37.3573 154.585C37.6453 154.468 37.9588 154.41 38.2978 154.41C38.6668 154.41 38.9953 154.476 39.2833 154.608C39.5713 154.737 39.8098 154.918 39.9988 155.152C40.1908 155.386 40.3258 155.661 40.4038 155.976C40.4848 156.288 40.4983 156.627 40.4443 156.993H36.8893C36.8833 157.26 36.9418 157.494 37.0648 157.695C37.1878 157.893 37.3633 158.047 37.5913 158.158C37.8223 158.269 38.0938 158.325 38.4058 158.325C38.6578 158.325 38.9008 158.287 39.1348 158.212C39.3718 158.134 39.5863 158.02 39.7783 157.87L40.1608 158.581C40.0168 158.698 39.8428 158.799 39.6388 158.883C39.4348 158.964 39.2218 159.026 38.9998 159.068C38.7778 159.113 38.5633 159.135 38.3563 159.135ZM36.9478 156.264H39.4723C39.4633 155.928 39.3553 155.664 39.1483 155.472C38.9443 155.28 38.6533 155.184 38.2753 155.184C37.9093 155.184 37.6048 155.28 37.3618 155.472C37.1218 155.664 36.9838 155.928 36.9478 156.264ZM41.4727 159V154.545H42.3322H42.3592L44.3572 157.434L43.9297 157.443L45.8287 154.545H46.7062V159H45.8062L45.8197 155.706L46.0042 155.787L44.4112 158.113H43.7722L42.1072 155.782L42.2917 155.701L42.3052 159H41.4727ZM50.1161 159.135C49.6361 159.135 49.2146 159.038 48.8516 158.842C48.4886 158.644 48.2051 158.368 48.0011 158.014C47.8001 157.66 47.6996 157.249 47.6996 156.781C47.6996 156.439 47.7581 156.124 47.8751 155.836C47.9921 155.545 48.1571 155.293 48.3701 155.08C48.5831 154.867 48.8321 154.702 49.1171 154.585C49.4051 154.468 49.7186 154.41 50.0576 154.41C50.4266 154.41 50.7551 154.476 51.0431 154.608C51.3311 154.737 51.5696 154.918 51.7586 155.152C51.9506 155.386 52.0856 155.661 52.1636 155.976C52.2446 156.288 52.2581 156.627 52.2041 156.993H48.6491C48.6431 157.26 48.7016 157.494 48.8246 157.695C48.9476 157.893 49.1231 158.047 49.3511 158.158C49.5821 158.269 49.8536 158.325 50.1656 158.325C50.4176 158.325 50.6606 158.287 50.8946 158.212C51.1316 158.134 51.3461 158.02 51.5381 157.87L51.9206 158.581C51.7766 158.698 51.6026 158.799 51.3986 158.883C51.1946 158.964 50.9816 159.026 50.7596 159.068C50.5376 159.113 50.3231 159.135 50.1161 159.135ZM48.7076 156.264H51.2321C51.2231 155.928 51.1151 155.664 50.9081 155.472C50.7041 155.28 50.4131 155.184 50.0351 155.184C49.6691 155.184 49.3646 155.28 49.1216 155.472C48.8816 155.664 48.7436 155.928 48.7076 156.264ZM55.3194 159.135C54.8514 159.135 54.4344 159.033 54.0684 158.829C53.7024 158.622 53.4144 158.341 53.2044 157.987C52.9974 157.63 52.8939 157.225 52.8939 156.772C52.8939 156.43 52.9554 156.117 53.0784 155.832C53.2014 155.544 53.3754 155.293 53.6004 155.08C53.8254 154.867 54.0894 154.702 54.3924 154.585C54.6984 154.468 55.0299 154.41 55.3869 154.41C55.6869 154.41 55.9644 154.45 56.2194 154.531C56.4774 154.609 56.7144 154.731 56.9304 154.896L56.4534 155.652C56.3154 155.529 56.1564 155.437 55.9764 155.377C55.7994 155.317 55.6104 155.287 55.4094 155.287C55.0974 155.287 54.8289 155.346 54.6039 155.463C54.3789 155.58 54.2034 155.749 54.0774 155.971C53.9544 156.19 53.8929 156.456 53.8929 156.768C53.8929 157.233 54.0279 157.597 54.2979 157.861C54.5709 158.125 54.9414 158.257 55.4094 158.257C55.6314 158.257 55.8414 158.217 56.0394 158.136C56.2374 158.052 56.4024 157.942 56.5344 157.807L57.0069 158.559C56.7699 158.739 56.5059 158.88 56.2149 158.982C55.9239 159.084 55.6254 159.135 55.3194 159.135ZM58.9115 159V155.364H57.449V154.545H61.3685V155.364H59.9015V159H58.9115ZM62.2764 159V154.545H63.2349V157.551L65.6514 154.545H66.5154V159H65.5614V155.958L63.1224 159H62.2764ZM68.8871 159V155.364H67.4246V154.545H71.3441V155.364H69.8771V159H68.8871ZM72.252 159V154.545H73.242V158.248H74.0925C74.4165 158.248 74.661 158.185 74.826 158.059C74.991 157.933 75.0735 157.746 75.0735 157.497C75.0735 157.251 74.997 157.062 74.844 156.93C74.691 156.798 74.466 156.732 74.169 156.732H73.107V155.989H74.2455C74.8215 155.989 75.2745 156.118 75.6045 156.376C75.9345 156.634 76.0995 157.008 76.0995 157.497C76.0995 157.812 76.02 158.082 75.861 158.307C75.702 158.529 75.4785 158.7 75.1905 158.82C74.9055 158.94 74.571 159 74.187 159H72.252ZM82.5803 159V155.364H80.7803V155.953C80.7803 156.358 80.7563 156.724 80.7083 157.051C80.6603 157.378 80.5748 157.666 80.4518 157.915C80.3288 158.161 80.1563 158.365 79.9343 158.527C79.7153 158.689 79.4348 158.808 79.0928 158.883L78.8498 158.212C79.1348 158.143 79.3493 158.014 79.4933 157.825C79.6373 157.636 79.7333 157.387 79.7812 157.078C79.8323 156.766 79.8578 156.391 79.8578 155.953V154.545H83.5703V159H82.5803ZM78.8498 160.35V158.212L79.4618 158.275L79.6148 158.181H84.4658V160.35H83.5613V159H79.7543V160.35H78.8498ZM85.3389 159V154.545H87.4629C87.9669 154.545 88.3704 154.641 88.6734 154.833C88.9764 155.025 89.1279 155.313 89.1279 155.697C89.1279 155.877 89.0844 156.037 88.9974 156.178C88.9104 156.316 88.7904 156.432 88.6374 156.525C88.4844 156.618 88.3059 156.685 88.1019 156.728L88.0839 156.507C88.4769 156.561 88.7814 156.691 88.9974 156.898C89.2134 157.105 89.3214 157.368 89.3214 157.686C89.3214 157.956 89.2509 158.19 89.1099 158.388C88.9689 158.583 88.7664 158.734 88.5024 158.842C88.2384 158.947 87.9219 159 87.5529 159H85.3389ZM86.2974 158.266H87.4179C87.7149 158.266 87.9429 158.217 88.1019 158.118C88.2639 158.019 88.3449 157.87 88.3449 157.672C88.3449 157.477 88.2654 157.332 88.1064 157.236C87.9474 157.137 87.7179 157.087 87.4179 157.087H86.1669V156.381H87.3144C87.5934 156.381 87.8094 156.339 87.9624 156.255C88.1154 156.168 88.1919 156.027 88.1919 155.832C88.1919 155.637 88.1154 155.496 87.9624 155.409C87.8094 155.319 87.5934 155.274 87.3144 155.274H86.2974V158.266ZM90.819 161.016C90.657 161.016 90.498 160.998 90.342 160.962C90.186 160.926 90.033 160.865 89.883 160.778L90.108 159.932C90.201 159.992 90.303 160.037 90.414 160.067C90.525 160.097 90.624 160.112 90.711 160.112C90.921 160.112 91.086 160.062 91.206 159.963C91.326 159.864 91.4205 159.711 91.4895 159.504L91.638 159.072L89.883 154.545H90.9675L92.2005 158.001L93.402 154.545H94.4505L92.5245 159.644C92.3865 160.001 92.232 160.278 92.061 160.476C91.89 160.677 91.701 160.817 91.494 160.895C91.287 160.976 91.062 161.016 90.819 161.016ZM94.6731 159.005L96.2841 156.763L94.7676 154.545H96.0141L96.9636 156.052L97.8816 154.545H99.0966L97.6251 156.736L99.2226 159H97.9536L96.9276 157.434L95.8881 158.991L94.6731 159.005ZM102.096 159.077L101.749 158.185C102.055 158.107 102.279 157.984 102.42 157.816C102.564 157.648 102.654 157.414 102.69 157.114C102.729 156.814 102.748 156.427 102.748 155.953V154.545H106.371V159H105.381V155.364H103.671V155.953C103.671 156.43 103.648 156.846 103.603 157.2C103.561 157.554 103.483 157.855 103.369 158.104C103.255 158.353 103.095 158.557 102.888 158.716C102.684 158.872 102.42 158.992 102.096 159.077ZM107.751 159V154.545H108.741L108.737 156.264H110.244V157.083H108.737L108.741 159H107.751ZM112.112 159.135C111.644 159.135 111.228 159.029 110.865 158.815C110.502 158.599 110.216 158.313 110.006 157.956C109.799 157.596 109.695 157.201 109.695 156.772C109.695 156.454 109.755 156.154 109.875 155.872C109.995 155.587 110.163 155.335 110.379 155.116C110.595 154.897 110.85 154.725 111.144 154.599C111.438 154.473 111.761 154.41 112.112 154.41C112.58 154.41 112.995 154.518 113.358 154.734C113.721 154.947 114.006 155.233 114.213 155.593C114.423 155.95 114.528 156.343 114.528 156.772C114.528 157.087 114.468 157.387 114.348 157.672C114.228 157.957 114.06 158.209 113.844 158.428C113.628 158.647 113.373 158.82 113.079 158.946C112.785 159.072 112.463 159.135 112.112 159.135ZM112.112 158.257C112.388 158.257 112.632 158.197 112.845 158.077C113.058 157.954 113.226 157.782 113.349 157.56C113.472 157.338 113.534 157.075 113.534 156.772C113.534 156.469 113.472 156.207 113.349 155.985C113.226 155.76 113.058 155.587 112.845 155.467C112.632 155.347 112.388 155.287 112.112 155.287C111.836 155.287 111.59 155.347 111.374 155.467C111.161 155.587 110.993 155.76 110.87 155.985C110.75 156.207 110.69 156.469 110.69 156.772C110.69 157.075 110.75 157.338 110.87 157.56C110.993 157.782 111.161 157.954 111.374 158.077C111.59 158.197 111.836 158.257 112.112 158.257ZM117.699 159.135C117.324 159.135 116.985 159.071 116.682 158.941C116.379 158.812 116.121 158.626 115.908 158.383C115.695 158.137 115.531 157.839 115.417 157.488C115.306 157.134 115.251 156.732 115.251 156.282C115.251 155.787 115.288 155.343 115.363 154.95C115.441 154.557 115.563 154.216 115.728 153.928C115.896 153.64 116.116 153.403 116.389 153.217C116.665 153.031 117 152.898 117.393 152.817L119.526 152.385L119.688 153.244L117.613 153.645C117.265 153.717 116.992 153.832 116.794 153.991C116.596 154.15 116.451 154.353 116.358 154.599C116.265 154.845 116.203 155.134 116.173 155.467C116.362 155.212 116.598 155.008 116.88 154.855C117.162 154.702 117.49 154.626 117.865 154.626C118.288 154.626 118.662 154.726 118.986 154.927C119.313 155.125 119.568 155.391 119.751 155.724C119.934 156.057 120.025 156.426 120.025 156.831C120.025 157.146 119.97 157.443 119.859 157.722C119.751 158.001 119.593 158.247 119.386 158.46C119.179 158.67 118.933 158.835 118.648 158.955C118.363 159.075 118.047 159.135 117.699 159.135ZM117.676 158.257C117.937 158.257 118.17 158.2 118.374 158.086C118.581 157.969 118.743 157.806 118.86 157.596C118.977 157.383 119.035 157.131 119.035 156.84C119.035 156.549 118.977 156.298 118.86 156.088C118.743 155.875 118.581 155.712 118.374 155.598C118.17 155.481 117.937 155.422 117.676 155.422C117.415 155.422 117.181 155.481 116.974 155.598C116.77 155.712 116.61 155.875 116.493 156.088C116.376 156.298 116.317 156.549 116.317 156.84C116.317 157.131 116.376 157.383 116.493 157.596C116.61 157.806 116.77 157.969 116.974 158.086C117.181 158.2 117.415 158.257 117.676 158.257ZM121.066 159V154.545H122.056V158.248H122.862C123.186 158.248 123.43 158.185 123.595 158.059C123.76 157.933 123.843 157.746 123.843 157.497C123.843 157.251 123.766 157.062 123.613 156.93C123.46 156.798 123.235 156.732 122.938 156.732H121.921V155.989H123.015C123.591 155.989 124.044 156.118 124.374 156.376C124.704 156.634 124.869 157.008 124.869 157.497C124.869 157.812 124.789 158.082 124.63 158.307C124.471 158.529 124.248 158.7 123.96 158.82C123.675 158.94 123.34 159 122.956 159H121.066ZM125.584 159V154.545H126.574V159H125.584ZM127.395 159.005L129.006 156.763L127.489 154.545H128.736L129.685 156.052L130.603 154.545H131.818L130.347 156.736L131.944 159H130.675L129.649 157.434L128.61 158.991L127.395 159.005ZM16.2355 170.077L15.889 169.185C16.195 169.107 16.4185 168.984 16.5595 168.816C16.7035 168.648 16.7935 168.414 16.8295 168.114C16.8685 167.814 16.888 167.427 16.888 166.953V165.545H20.5105V170H19.5205V166.364H17.8105V166.953C17.8105 167.43 17.788 167.846 17.743 168.2C17.701 168.554 17.623 168.855 17.509 169.104C17.395 169.353 17.2345 169.557 17.0275 169.716C16.8235 169.872 16.5595 169.992 16.2355 170.077ZM23.9246 170.135C23.4446 170.135 23.0231 170.038 22.6601 169.842C22.2971 169.644 22.0136 169.368 21.8096 169.014C21.6086 168.66 21.5081 168.249 21.5081 167.781C21.5081 167.439 21.5666 167.124 21.6836 166.836C21.8006 166.545 21.9656 166.293 22.1786 166.08C22.3916 165.867 22.6406 165.702 22.9256 165.585C23.2136 165.468 23.5271 165.41 23.8661 165.41C24.2351 165.41 24.5636 165.476 24.8516 165.608C25.1396 165.737 25.3781 165.918 25.5671 166.152C25.7591 166.386 25.8941 166.661 25.9721 166.976C26.0531 167.288 26.0666 167.627 26.0126 167.993H22.4576C22.4516 168.26 22.5101 168.494 22.6331 168.695C22.7561 168.893 22.9316 169.047 23.1596 169.158C23.3906 169.269 23.6621 169.325 23.9741 169.325C24.2261 169.325 24.4691 169.287 24.7031 169.212C24.9401 169.134 25.1546 169.02 25.3466 168.87L25.7291 169.581C25.5851 169.698 25.4111 169.799 25.2071 169.883C25.0031 169.964 24.7901 170.026 24.5681 170.068C24.3461 170.113 24.1316 170.135 23.9246 170.135ZM22.5161 167.264H25.0406C25.0316 166.928 24.9236 166.664 24.7166 166.472C24.5126 166.28 24.2216 166.184 23.8436 166.184C23.4776 166.184 23.1731 166.28 22.9301 166.472C22.6901 166.664 22.5521 166.928 22.5161 167.264ZM27.041 170V165.545H27.9005H27.9275L29.9255 168.434L29.498 168.443L31.397 165.545H32.2745V170H31.3745L31.388 166.706L31.5725 166.787L29.9795 169.113H29.3405L27.6755 166.782L27.86 166.701L27.8735 170H27.041ZM33.6504 170V165.545H34.5099H34.5369L36.5349 168.434L36.1074 168.443L38.0064 165.545H38.8839V170H37.9839L37.9974 166.706L38.1819 166.787L36.5889 169.113H35.9499L34.2849 166.782L34.4694 166.701L34.4829 170H33.6504ZM40.2598 170V165.545H41.2183V168.551L43.6348 165.545H44.4988V170H43.5448V166.958L41.1058 170H40.2598ZM45.876 170V165.545H46.866V167.264H49.098V165.545H50.088V170H49.098V168.083H46.866V170H45.876ZM51.4658 170V165.545H54.3998V166.364H52.4558V170H51.4658ZM57.345 170.135C56.88 170.135 56.4645 170.029 56.0985 169.815C55.7355 169.599 55.4505 169.313 55.2435 168.956C55.0365 168.596 54.933 168.201 54.933 167.772C54.933 167.454 54.9915 167.154 55.1085 166.872C55.2285 166.587 55.3965 166.335 55.6125 166.116C55.8315 165.897 56.088 165.725 56.382 165.599C56.676 165.473 56.9985 165.41 57.3495 165.41C57.8145 165.41 58.2285 165.518 58.5915 165.734C58.9575 165.947 59.244 166.233 59.451 166.593C59.658 166.95 59.7615 167.343 59.7615 167.772C59.7615 168.087 59.7015 168.387 59.5815 168.672C59.4645 168.957 59.298 169.209 59.082 169.428C58.866 169.647 58.611 169.82 58.317 169.946C58.023 170.072 57.699 170.135 57.345 170.135ZM57.345 169.257C57.621 169.257 57.8655 169.197 58.0785 169.077C58.2945 168.954 58.464 168.782 58.587 168.56C58.71 168.338 58.7715 168.075 58.7715 167.772C58.7715 167.469 58.71 167.207 58.587 166.985C58.464 166.76 58.2945 166.587 58.0785 166.467C57.8655 166.347 57.621 166.287 57.345 166.287C57.069 166.287 56.823 166.347 56.607 166.467C56.394 166.587 56.226 166.76 56.103 166.985C55.983 167.207 55.923 167.469 55.923 167.772C55.923 168.075 55.9845 168.338 56.1075 168.56C56.2305 168.782 56.3985 168.954 56.6115 169.077C56.8275 169.197 57.072 169.257 57.345 169.257ZM60.7559 170V165.545H62.8799C63.3839 165.545 63.7874 165.641 64.0904 165.833C64.3934 166.025 64.5449 166.313 64.5449 166.697C64.5449 166.877 64.5014 167.037 64.4144 167.178C64.3274 167.316 64.2074 167.432 64.0544 167.525C63.9014 167.618 63.7229 167.685 63.5189 167.728L63.5009 167.507C63.8939 167.561 64.1984 167.691 64.4144 167.898C64.6304 168.105 64.7384 168.368 64.7384 168.686C64.7384 168.956 64.6679 169.19 64.5269 169.388C64.3859 169.583 64.1834 169.734 63.9194 169.842C63.6554 169.947 63.3389 170 62.9699 170H60.7559ZM61.7144 169.266H62.8349C63.1319 169.266 63.3599 169.217 63.5189 169.118C63.6809 169.019 63.7619 168.87 63.7619 168.672C63.7619 168.477 63.6824 168.332 63.5234 168.236C63.3644 168.137 63.1349 168.087 62.8349 168.087H61.5839V167.381H62.7314C63.0104 167.381 63.2264 167.339 63.3794 167.255C63.5324 167.168 63.6089 167.027 63.6089 166.832C63.6089 166.637 63.5324 166.496 63.3794 166.409C63.2264 166.319 63.0104 166.274 62.7314 166.274H61.7144V169.266ZM68.0596 170V165.545H69.0496V167.264H71.2816V165.545H72.2716V170H71.2816V168.083H69.0496V170H68.0596ZM74.8869 170.135C74.5779 170.135 74.3064 170.078 74.0724 169.964C73.8384 169.847 73.6554 169.683 73.5234 169.473C73.3944 169.26 73.3299 169.01 73.3299 168.722C73.3299 168.479 73.3914 168.26 73.5144 168.065C73.6374 167.867 73.8279 167.703 74.0859 167.574C74.3469 167.445 74.6814 167.36 75.0894 167.318C75.4974 167.273 75.9879 167.279 76.5609 167.336L76.5789 168.02C76.1709 167.963 75.8199 167.939 75.5259 167.948C75.2319 167.957 74.9904 167.994 74.8014 168.06C74.6154 168.123 74.4774 168.209 74.3874 168.317C74.3004 168.422 74.2569 168.543 74.2569 168.681C74.2569 168.897 74.3334 169.064 74.4864 169.181C74.6424 169.298 74.8554 169.356 75.1254 169.356C75.3564 169.356 75.5634 169.314 75.7464 169.23C75.9294 169.146 76.0734 169.028 76.1784 168.875C76.2864 168.722 76.3404 168.542 76.3404 168.335V167.151C76.3404 166.953 76.2984 166.782 76.2144 166.638C76.1304 166.491 76.0029 166.377 75.8319 166.296C75.6609 166.215 75.4479 166.175 75.1929 166.175C74.9589 166.175 74.7279 166.211 74.4999 166.283C74.2719 166.352 74.0544 166.461 73.8474 166.611L73.5684 165.882C73.8474 165.693 74.1384 165.56 74.4414 165.482C74.7444 165.404 75.0354 165.365 75.3144 165.365C75.7284 165.365 76.0824 165.431 76.3764 165.563C76.6734 165.692 76.9014 165.888 77.0604 166.152C77.2194 166.413 77.2989 166.743 77.2989 167.142V170H76.4079V169.473C76.2579 169.686 76.0494 169.85 75.7824 169.964C75.5154 170.078 75.2169 170.135 74.8869 170.135ZM82.8508 170.135C82.3858 170.135 81.9703 170.029 81.6043 169.815C81.2413 169.599 80.9563 169.313 80.7493 168.956C80.5423 168.596 80.4388 168.201 80.4388 167.772C80.4388 167.454 80.4973 167.154 80.6143 166.872C80.7343 166.587 80.9023 166.335 81.1183 166.116C81.3373 165.897 81.5938 165.725 81.8878 165.599C82.1818 165.473 82.5043 165.41 82.8553 165.41C83.3203 165.41 83.7343 165.518 84.0973 165.734C84.4633 165.947 84.7498 166.233 84.9568 166.593C85.1638 166.95 85.2673 167.343 85.2673 167.772C85.2673 168.087 85.2073 168.387 85.0873 168.672C84.9703 168.957 84.8038 169.209 84.5878 169.428C84.3718 169.647 84.1168 169.82 83.8228 169.946C83.5288 170.072 83.2048 170.135 82.8508 170.135ZM82.8508 169.257C83.1268 169.257 83.3713 169.197 83.5843 169.077C83.8003 168.954 83.9698 168.782 84.0928 168.56C84.2158 168.338 84.2773 168.075 84.2773 167.772C84.2773 167.469 84.2158 167.207 84.0928 166.985C83.9698 166.76 83.8003 166.587 83.5843 166.467C83.3713 166.347 83.1268 166.287 82.8508 166.287C82.5748 166.287 82.3288 166.347 82.1128 166.467C81.8998 166.587 81.7318 166.76 81.6088 166.985C81.4888 167.207 81.4288 167.469 81.4288 167.772C81.4288 168.075 81.4903 168.338 81.6133 168.56C81.7363 168.782 81.9043 168.954 82.1173 169.077C82.3333 169.197 82.5778 169.257 82.8508 169.257ZM89.4972 170V166.364H87.6972V166.953C87.6972 167.358 87.6732 167.724 87.6252 168.051C87.5772 168.378 87.4917 168.666 87.3687 168.915C87.2457 169.161 87.0732 169.365 86.8512 169.527C86.6322 169.689 86.3517 169.808 86.0097 169.883L85.7667 169.212C86.0517 169.143 86.2662 169.014 86.4102 168.825C86.5542 168.636 86.6502 168.387 86.6982 168.078C86.7492 167.766 86.7747 167.391 86.7747 166.953V165.545H90.4872V170H89.4972ZM85.7667 171.35V169.212L86.3787 169.275L86.5317 169.181H91.3827V171.35H90.4782V170H86.6712V171.35H85.7667ZM92.2559 170V165.545H93.2459V167.264H95.4779V165.545H96.4679V170H95.4779V168.083H93.2459V170H92.2559ZM99.8752 170.135C99.4102 170.135 98.9947 170.029 98.6287 169.815C98.2657 169.599 97.9807 169.313 97.7737 168.956C97.5667 168.596 97.4632 168.201 97.4632 167.772C97.4632 167.454 97.5217 167.154 97.6387 166.872C97.7587 166.587 97.9267 166.335 98.1427 166.116C98.3617 165.897 98.6182 165.725 98.9122 165.599C99.2062 165.473 99.5287 165.41 99.8797 165.41C100.345 165.41 100.759 165.518 101.122 165.734C101.488 165.947 101.774 166.233 101.981 166.593C102.188 166.95 102.292 167.343 102.292 167.772C102.292 168.087 102.232 168.387 102.112 168.672C101.995 168.957 101.828 169.209 101.612 169.428C101.396 169.647 101.141 169.82 100.847 169.946C100.553 170.072 100.229 170.135 99.8752 170.135ZM99.8752 169.257C100.151 169.257 100.396 169.197 100.609 169.077C100.825 168.954 100.994 168.782 101.117 168.56C101.24 168.338 101.302 168.075 101.302 167.772C101.302 167.469 101.24 167.207 101.117 166.985C100.994 166.76 100.825 166.587 100.609 166.467C100.396 166.347 100.151 166.287 99.8752 166.287C99.5992 166.287 99.3532 166.347 99.1372 166.467C98.9242 166.587 98.7562 166.76 98.6332 166.985C98.5132 167.207 98.4532 167.469 98.4532 167.772C98.4532 168.075 98.5147 168.338 98.6377 168.56C98.7607 168.782 98.9287 168.954 99.1417 169.077C99.3577 169.197 99.6022 169.257 99.8752 169.257ZM105.33 170.077L104.984 169.185C105.29 169.107 105.513 168.984 105.654 168.816C105.798 168.648 105.888 168.414 105.924 168.114C105.963 167.814 105.983 167.427 105.983 166.953V165.545H109.605V170H108.615V166.364H106.905V166.953C106.905 167.43 106.883 167.846 106.838 168.2C106.796 168.554 106.718 168.855 106.604 169.104C106.49 169.353 106.329 169.557 106.122 169.716C105.918 169.872 105.654 169.992 105.33 170.077ZM110.985 170V165.545H111.975L111.971 167.264H113.478V168.083H111.971L111.975 170H110.985ZM115.346 170.135C114.878 170.135 114.462 170.029 114.099 169.815C113.736 169.599 113.45 169.313 113.24 168.956C113.033 168.596 112.929 168.201 112.929 167.772C112.929 167.454 112.989 167.154 113.109 166.872C113.229 166.587 113.397 166.335 113.613 166.116C113.829 165.897 114.084 165.725 114.378 165.599C114.672 165.473 114.995 165.41 115.346 165.41C115.814 165.41 116.229 165.518 116.592 165.734C116.955 165.947 117.24 166.233 117.447 166.593C117.657 166.95 117.762 167.343 117.762 167.772C117.762 168.087 117.702 168.387 117.582 168.672C117.462 168.957 117.294 169.209 117.078 169.428C116.862 169.647 116.607 169.82 116.313 169.946C116.019 170.072 115.697 170.135 115.346 170.135ZM115.346 169.257C115.622 169.257 115.866 169.197 116.079 169.077C116.292 168.954 116.46 168.782 116.583 168.56C116.706 168.338 116.768 168.075 116.768 167.772C116.768 167.469 116.706 167.207 116.583 166.985C116.46 166.76 116.292 166.587 116.079 166.467C115.866 166.347 115.622 166.287 115.346 166.287C115.07 166.287 114.824 166.347 114.608 166.467C114.395 166.587 114.227 166.76 114.104 166.985C113.984 167.207 113.924 167.469 113.924 167.772C113.924 168.075 113.984 168.338 114.104 168.56C114.227 168.782 114.395 168.954 114.608 169.077C114.824 169.197 115.07 169.257 115.346 169.257ZM120.933 170.135C120.558 170.135 120.219 170.071 119.916 169.941C119.613 169.812 119.355 169.626 119.142 169.383C118.929 169.137 118.765 168.839 118.651 168.488C118.54 168.134 118.485 167.732 118.485 167.282C118.485 166.787 118.522 166.343 118.597 165.95C118.675 165.557 118.797 165.216 118.962 164.928C119.13 164.64 119.35 164.403 119.623 164.217C119.899 164.031 120.234 163.898 120.627 163.817L122.76 163.385L122.922 164.244L120.847 164.645C120.499 164.717 120.226 164.832 120.028 164.991C119.83 165.15 119.685 165.353 119.592 165.599C119.499 165.845 119.437 166.134 119.407 166.467C119.596 166.212 119.832 166.008 120.114 165.855C120.396 165.702 120.724 165.626 121.099 165.626C121.522 165.626 121.896 165.726 122.22 165.927C122.547 166.125 122.802 166.391 122.985 166.724C123.168 167.057 123.259 167.426 123.259 167.831C123.259 168.146 123.204 168.443 123.093 168.722C122.985 169.001 122.827 169.247 122.62 169.46C122.413 169.67 122.167 169.835 121.882 169.955C121.597 170.075 121.281 170.135 120.933 170.135ZM120.91 169.257C121.171 169.257 121.404 169.2 121.608 169.086C121.815 168.969 121.977 168.806 122.094 168.596C122.211 168.383 122.269 168.131 122.269 167.84C122.269 167.549 122.211 167.298 122.094 167.088C121.977 166.875 121.815 166.712 121.608 166.598C121.404 166.481 121.171 166.422 120.91 166.422C120.649 166.422 120.415 166.481 120.208 166.598C120.004 166.712 119.844 166.875 119.727 167.088C119.61 167.298 119.551 167.549 119.551 167.84C119.551 168.131 119.61 168.383 119.727 168.596C119.844 168.806 120.004 168.969 120.208 169.086C120.415 169.2 120.649 169.257 120.91 169.257ZM126.374 170.135C125.909 170.135 125.494 170.029 125.128 169.815C124.765 169.599 124.48 169.313 124.273 168.956C124.066 168.596 123.962 168.201 123.962 167.772C123.962 167.454 124.021 167.154 124.138 166.872C124.258 166.587 124.426 166.335 124.642 166.116C124.861 165.897 125.117 165.725 125.411 165.599C125.705 165.473 126.028 165.41 126.379 165.41C126.844 165.41 127.258 165.518 127.621 165.734C127.987 165.947 128.273 166.233 128.48 166.593C128.687 166.95 128.791 167.343 128.791 167.772C128.791 168.087 128.731 168.387 128.611 168.672C128.494 168.957 128.327 169.209 128.111 169.428C127.895 169.647 127.64 169.82 127.346 169.946C127.052 170.072 126.728 170.135 126.374 170.135ZM126.374 169.257C126.65 169.257 126.895 169.197 127.108 169.077C127.324 168.954 127.493 168.782 127.616 168.56C127.739 168.338 127.801 168.075 127.801 167.772C127.801 167.469 127.739 167.207 127.616 166.985C127.493 166.76 127.324 166.587 127.108 166.467C126.895 166.347 126.65 166.287 126.374 166.287C126.098 166.287 125.852 166.347 125.636 166.467C125.423 166.587 125.255 166.76 125.132 166.985C125.012 167.207 124.952 167.469 124.952 167.772C124.952 168.075 125.014 168.338 125.137 168.56C125.26 168.782 125.428 168.954 125.641 169.077C125.857 169.197 126.101 169.257 126.374 169.257ZM131.863 170.135C131.383 170.135 130.962 170.038 130.599 169.842C130.236 169.644 129.952 169.368 129.748 169.014C129.547 168.66 129.447 168.249 129.447 167.781C129.447 167.439 129.505 167.124 129.622 166.836C129.739 166.545 129.904 166.293 130.117 166.08C130.33 165.867 130.579 165.702 130.864 165.585C131.152 165.468 131.466 165.41 131.805 165.41C132.174 165.41 132.502 165.476 132.79 165.608C133.078 165.737 133.317 165.918 133.506 166.152C133.698 166.386 133.833 166.661 133.911 166.976C133.992 167.288 134.005 167.627 133.951 167.993H130.396C130.39 168.26 130.449 168.494 130.572 168.695C130.695 168.893 130.87 169.047 131.098 169.158C131.329 169.269 131.601 169.325 131.913 169.325C132.165 169.325 132.408 169.287 132.642 169.212C132.879 169.134 133.093 169.02 133.285 168.87L133.668 169.581C133.524 169.698 133.35 169.799 133.146 169.883C132.942 169.964 132.729 170.026 132.507 170.068C132.285 170.113 132.07 170.135 131.863 170.135ZM130.455 167.264H132.979C132.97 166.928 132.862 166.664 132.655 166.472C132.451 166.28 132.16 166.184 131.782 166.184C131.416 166.184 131.112 166.28 130.869 166.472C130.629 166.664 130.491 166.928 130.455 167.264ZM33.4483 181V176.545H34.3078H34.3348L36.3328 179.434L35.9053 179.443L37.8043 176.545H38.6818V181H37.7818L37.7953 177.706L37.9798 177.787L36.3868 180.113H35.7478L34.0828 177.782L34.2673 177.701L34.2808 181H33.4483ZM42.0916 181.135C41.6116 181.135 41.1901 181.038 40.8271 180.842C40.4641 180.644 40.1806 180.368 39.9766 180.014C39.7756 179.66 39.6751 179.249 39.6751 178.781C39.6751 178.439 39.7336 178.124 39.8506 177.836C39.9676 177.545 40.1326 177.293 40.3456 177.08C40.5586 176.867 40.8076 176.702 41.0926 176.585C41.3806 176.468 41.6941 176.41 42.0331 176.41C42.4021 176.41 42.7306 176.476 43.0186 176.608C43.3066 176.737 43.5451 176.918 43.7341 177.152C43.9261 177.386 44.0611 177.661 44.1391 177.976C44.2201 178.288 44.2336 178.627 44.1796 178.993H40.6246C40.6186 179.26 40.6771 179.494 40.8001 179.695C40.9231 179.893 41.0986 180.047 41.3266 180.158C41.5576 180.269 41.8291 180.325 42.1411 180.325C42.3931 180.325 42.6361 180.287 42.8701 180.212C43.1071 180.134 43.3216 180.02 43.5136 179.87L43.8961 180.581C43.7521 180.698 43.5781 180.799 43.3741 180.883C43.1701 180.964 42.9571 181.026 42.7351 181.068C42.5131 181.113 42.2986 181.135 42.0916 181.135ZM40.6831 178.264H43.2076C43.1986 177.928 43.0906 177.664 42.8836 177.472C42.6796 177.28 42.3886 177.184 42.0106 177.184C41.6446 177.184 41.3401 177.28 41.0971 177.472C40.8571 177.664 40.7191 177.928 40.6831 178.264ZM47.295 181.135C46.827 181.135 46.41 181.033 46.044 180.829C45.678 180.622 45.39 180.341 45.18 179.987C44.973 179.63 44.8695 179.225 44.8695 178.772C44.8695 178.43 44.931 178.117 45.054 177.832C45.177 177.544 45.351 177.293 45.576 177.08C45.801 176.867 46.065 176.702 46.368 176.585C46.674 176.468 47.0055 176.41 47.3625 176.41C47.6625 176.41 47.94 176.45 48.195 176.531C48.453 176.609 48.69 176.731 48.906 176.896L48.429 177.652C48.291 177.529 48.132 177.437 47.952 177.377C47.775 177.317 47.586 177.287 47.385 177.287C47.073 177.287 46.8045 177.346 46.5795 177.463C46.3545 177.58 46.179 177.749 46.053 177.971C45.93 178.19 45.8685 178.456 45.8685 178.768C45.8685 179.233 46.0035 179.597 46.2735 179.861C46.5465 180.125 46.917 180.257 47.385 180.257C47.607 180.257 47.817 180.217 48.015 180.136C48.213 180.052 48.378 179.942 48.51 179.807L48.9825 180.559C48.7455 180.739 48.4815 180.88 48.1905 180.982C47.8995 181.084 47.601 181.135 47.295 181.135ZM50.8871 181V177.364H49.4246V176.545H53.3441V177.364H51.8771V181H50.8871ZM56.2815 181.135C55.8165 181.135 55.401 181.029 55.035 180.815C54.672 180.599 54.387 180.313 54.18 179.956C53.973 179.596 53.8695 179.201 53.8695 178.772C53.8695 178.454 53.928 178.154 54.045 177.872C54.165 177.587 54.333 177.335 54.549 177.116C54.768 176.897 55.0245 176.725 55.3185 176.599C55.6125 176.473 55.935 176.41 56.286 176.41C56.751 176.41 57.165 176.518 57.528 176.734C57.894 176.947 58.1805 177.233 58.3875 177.593C58.5945 177.95 58.698 178.343 58.698 178.772C58.698 179.087 58.638 179.387 58.518 179.672C58.401 179.957 58.2345 180.209 58.0185 180.428C57.8025 180.647 57.5475 180.82 57.2535 180.946C56.9595 181.072 56.6355 181.135 56.2815 181.135ZM56.2815 180.257C56.5575 180.257 56.802 180.197 57.015 180.077C57.231 179.954 57.4005 179.782 57.5235 179.56C57.6465 179.338 57.708 179.075 57.708 178.772C57.708 178.469 57.6465 178.207 57.5235 177.985C57.4005 177.76 57.231 177.587 57.015 177.467C56.802 177.347 56.5575 177.287 56.2815 177.287C56.0055 177.287 55.7595 177.347 55.5435 177.467C55.3305 177.587 55.1625 177.76 55.0395 177.985C54.9195 178.207 54.8595 178.469 54.8595 178.772C54.8595 179.075 54.921 179.338 55.044 179.56C55.167 179.782 55.335 179.954 55.548 180.077C55.764 180.197 56.0085 180.257 56.2815 180.257ZM59.564 182.359L59.2175 181.9C59.4425 181.792 59.6405 181.662 59.8115 181.509C59.9855 181.359 60.104 181.21 60.167 181.063C60.029 181.072 59.9045 181.051 59.7935 181C59.6825 180.952 59.594 180.881 59.528 180.788C59.462 180.692 59.429 180.58 59.429 180.451C59.429 180.259 59.492 180.103 59.618 179.983C59.747 179.86 59.909 179.798 60.104 179.798C60.329 179.798 60.509 179.873 60.644 180.023C60.782 180.17 60.851 180.373 60.851 180.631C60.851 180.829 60.803 181.029 60.707 181.23C60.611 181.434 60.467 181.63 60.275 181.819C60.086 182.011 59.849 182.191 59.564 182.359ZM67.1886 181L65.7126 178.633L67.0851 176.545H68.1426L66.7791 178.588L68.3721 181H67.1886ZM64.2276 181V176.545H65.2176V178.264H66.5586V179.083H65.2176V181H64.2276ZM69.2461 182.89V176.545H70.1371V177.17C70.3141 176.945 70.5406 176.762 70.8166 176.621C71.0926 176.48 71.4331 176.41 71.8381 176.41C72.2731 176.41 72.6586 176.513 72.9946 176.72C73.3336 176.924 73.5976 177.205 73.7866 177.562C73.9756 177.916 74.0701 178.319 74.0701 178.772C74.0701 179.099 74.0161 179.407 73.9081 179.695C73.8001 179.98 73.6456 180.23 73.4446 180.446C73.2466 180.662 73.0096 180.832 72.7336 180.955C72.4606 181.075 72.1576 181.135 71.8246 181.135C71.4766 181.135 71.1706 181.072 70.9066 180.946C70.6426 180.82 70.4176 180.65 70.2316 180.438V182.89H69.2461ZM71.6581 180.257C71.9341 180.257 72.1786 180.197 72.3916 180.077C72.6076 179.954 72.7756 179.782 72.8956 179.56C73.0186 179.338 73.0801 179.075 73.0801 178.772C73.0801 178.469 73.0186 178.207 72.8956 177.985C72.7726 177.76 72.6031 177.587 72.3871 177.467C72.1741 177.347 71.9311 177.287 71.6581 177.287C71.3821 177.287 71.1361 177.347 70.9201 177.467C70.7071 177.587 70.5391 177.76 70.4161 177.985C70.2931 178.207 70.2316 178.469 70.2316 178.772C70.2316 179.075 70.2931 179.338 70.4161 179.56C70.5391 179.782 70.7071 179.954 70.9201 180.077C71.1361 180.197 71.3821 180.257 71.6581 180.257ZM77.1379 181.135C76.6729 181.135 76.2574 181.029 75.8914 180.815C75.5284 180.599 75.2434 180.313 75.0364 179.956C74.8294 179.596 74.7259 179.201 74.7259 178.772C74.7259 178.454 74.7844 178.154 74.9014 177.872C75.0214 177.587 75.1894 177.335 75.4054 177.116C75.6244 176.897 75.8809 176.725 76.1749 176.599C76.4689 176.473 76.7914 176.41 77.1424 176.41C77.6074 176.41 78.0214 176.518 78.3844 176.734C78.7504 176.947 79.0369 177.233 79.2439 177.593C79.4509 177.95 79.5544 178.343 79.5544 178.772C79.5544 179.087 79.4944 179.387 79.3744 179.672C79.2574 179.957 79.0909 180.209 78.8749 180.428C78.6589 180.647 78.4039 180.82 78.1099 180.946C77.8159 181.072 77.4919 181.135 77.1379 181.135ZM77.1379 180.257C77.4139 180.257 77.6584 180.197 77.8714 180.077C78.0874 179.954 78.2569 179.782 78.3799 179.56C78.5029 179.338 78.5644 179.075 78.5644 178.772C78.5644 178.469 78.5029 178.207 78.3799 177.985C78.2569 177.76 78.0874 177.587 77.8714 177.467C77.6584 177.347 77.4139 177.287 77.1379 177.287C76.8619 177.287 76.6159 177.347 76.3999 177.467C76.1869 177.587 76.0189 177.76 75.8959 177.985C75.7759 178.207 75.7159 178.469 75.7159 178.772C75.7159 179.075 75.7774 179.338 75.9004 179.56C76.0234 179.782 76.1914 179.954 76.4044 180.077C76.6204 180.197 76.8649 180.257 77.1379 180.257ZM80.5489 181V176.545H81.4084H81.4354L83.4334 179.434L83.0059 179.443L84.9049 176.545H85.7824V181H84.8824L84.8959 177.706L85.0804 177.787L83.4874 180.113H82.8484L81.1834 177.782L81.3679 177.701L81.3814 181H80.5489ZM89.1922 181.135C88.7122 181.135 88.2907 181.038 87.9277 180.842C87.5647 180.644 87.2812 180.368 87.0772 180.014C86.8762 179.66 86.7757 179.249 86.7757 178.781C86.7757 178.439 86.8342 178.124 86.9512 177.836C87.0682 177.545 87.2332 177.293 87.4462 177.08C87.6592 176.867 87.9082 176.702 88.1932 176.585C88.4812 176.468 88.7947 176.41 89.1337 176.41C89.5027 176.41 89.8312 176.476 90.1192 176.608C90.4072 176.737 90.6457 176.918 90.8347 177.152C91.0267 177.386 91.1617 177.661 91.2397 177.976C91.3207 178.288 91.3342 178.627 91.2802 178.993H87.7252C87.7192 179.26 87.7777 179.494 87.9007 179.695C88.0237 179.893 88.1992 180.047 88.4272 180.158C88.6582 180.269 88.9297 180.325 89.2417 180.325C89.4937 180.325 89.7367 180.287 89.9707 180.212C90.2077 180.134 90.4222 180.02 90.6142 179.87L90.9967 180.581C90.8527 180.698 90.6787 180.799 90.4747 180.883C90.2707 180.964 90.0577 181.026 89.8357 181.068C89.6137 181.113 89.3992 181.135 89.1922 181.135ZM87.7837 178.264H90.3082C90.2992 177.928 90.1912 177.664 89.9842 177.472C89.7802 177.28 89.4892 177.184 89.1112 177.184C88.7452 177.184 88.4407 177.28 88.1977 177.472C87.9577 177.664 87.8197 177.928 87.7837 178.264ZM94.5147 181V176.545H96.6387C97.1427 176.545 97.5462 176.641 97.8492 176.833C98.1522 177.025 98.3037 177.313 98.3037 177.697C98.3037 177.877 98.2602 178.037 98.1732 178.178C98.0862 178.316 97.9662 178.432 97.8132 178.525C97.6602 178.618 97.4817 178.685 97.2777 178.728L97.2597 178.507C97.6527 178.561 97.9572 178.691 98.1732 178.898C98.3892 179.105 98.4972 179.368 98.4972 179.686C98.4972 179.956 98.4267 180.19 98.2857 180.388C98.1447 180.583 97.9422 180.734 97.6782 180.842C97.4142 180.947 97.0977 181 96.7287 181H94.5147ZM95.4732 180.266H96.5937C96.8907 180.266 97.1187 180.217 97.2777 180.118C97.4397 180.019 97.5207 179.87 97.5207 179.672C97.5207 179.477 97.4412 179.332 97.2822 179.236C97.1232 179.137 96.8937 179.087 96.5937 179.087H95.3427V178.381H96.4902C96.7692 178.381 96.9852 178.339 97.1382 178.255C97.2912 178.168 97.3677 178.027 97.3677 177.832C97.3677 177.637 97.2912 177.496 97.1382 177.409C96.9852 177.319 96.7692 177.274 96.4902 177.274H95.4732V180.266ZM101.642 181.135C101.177 181.135 100.761 181.029 100.395 180.815C100.032 180.599 99.7473 180.313 99.5403 179.956C99.3333 179.596 99.2298 179.201 99.2298 178.772C99.2298 178.454 99.2883 178.154 99.4053 177.872C99.5253 177.587 99.6933 177.335 99.9093 177.116C100.128 176.897 100.385 176.725 100.679 176.599C100.973 176.473 101.295 176.41 101.646 176.41C102.111 176.41 102.525 176.518 102.888 176.734C103.254 176.947 103.541 177.233 103.748 177.593C103.955 177.95 104.058 178.343 104.058 178.772C104.058 179.087 103.998 179.387 103.878 179.672C103.761 179.957 103.595 180.209 103.379 180.428C103.163 180.647 102.908 180.82 102.614 180.946C102.32 181.072 101.996 181.135 101.642 181.135ZM101.642 180.257C101.918 180.257 102.162 180.197 102.375 180.077C102.591 179.954 102.761 179.782 102.884 179.56C103.007 179.338 103.068 179.075 103.068 178.772C103.068 178.469 103.007 178.207 102.884 177.985C102.761 177.76 102.591 177.587 102.375 177.467C102.162 177.347 101.918 177.287 101.642 177.287C101.366 177.287 101.12 177.347 100.904 177.467C100.691 177.587 100.523 177.76 100.4 177.985C100.28 178.207 100.22 178.469 100.22 178.772C100.22 179.075 100.281 179.338 100.404 179.56C100.527 179.782 100.695 179.954 100.908 180.077C101.124 180.197 101.369 180.257 101.642 180.257ZM108.288 181V177.364H106.488V177.953C106.488 178.358 106.464 178.724 106.416 179.051C106.368 179.378 106.283 179.666 106.16 179.915C106.037 180.161 105.864 180.365 105.642 180.527C105.423 180.689 105.143 180.808 104.801 180.883L104.558 180.212C104.843 180.143 105.057 180.014 105.201 179.825C105.345 179.636 105.441 179.387 105.489 179.078C105.54 178.766 105.566 178.391 105.566 177.953V176.545H109.278V181H108.288ZM104.558 182.35V180.212L105.17 180.275L105.323 180.181H110.174V182.35H109.269V181H105.462V182.35H104.558ZM111.047 181V176.545H112.037V180.248H112.842C113.166 180.248 113.411 180.185 113.576 180.059C113.741 179.933 113.823 179.746 113.823 179.497C113.823 179.251 113.747 179.062 113.594 178.93C113.441 178.798 113.216 178.732 112.919 178.732H111.902V177.989H112.995C113.571 177.989 114.024 178.118 114.354 178.376C114.684 178.634 114.849 179.008 114.849 179.497C114.849 179.812 114.77 180.082 114.611 180.307C114.452 180.529 114.228 180.7 113.94 180.82C113.655 180.94 113.321 181 112.937 181H111.047ZM115.565 181V176.545H116.555V181H115.565Z" fill="white"/>
<path d="M82 66.8872L82.2581 63.482L103.225 54.7181L124 36.6307L123.742 40.0358L121.364 43.6488L121.235 47.0923L120.977 50.4974L119.68 54.5077L113.976 57.8205L111.643 59.7384L112.334 64.7076L109.05 66.7128L109.742 70.6359L106.458 72.6411L106.026 77L82 66.8872Z" fill="#8F8E1B"/>
<path d="M110 67.2307L109.742 70.6359L106.457 72.641L106.716 69.2359L110 67.2307Z" fill="#7A7221"/>
<path d="M112.592 61.3025L112.334 64.7075L109.05 66.7127L109.308 63.3076L112.592 61.3025Z" fill="#7A7221"/>
<path d="M94.7893 34.1897L92.9745 28.523L95.4807 28L99.1104 32.4462L106.543 30.8768L112.16 32.4462L117.864 38.2872L122.617 34.3641L124 36.6308L121.494 40.2051L121.234 47.0924L119.938 51.1026L114.234 54.4155L111.901 56.3334L112.592 61.3026L109.308 63.3078L110 67.2308L106.716 69.236L106.283 73.595L94.7893 68.9744L82.2581 63.4821L85.715 61.3898L84.4187 58.5128L87.8755 56.3334L86.4064 52.4103L91.6781 49.6205L89.9497 46.5693L87.7027 42.8205L89.6904 39.4206L93.493 36.1949L94.7893 34.1897Z" fill="#EADD32"/>
<path d="M119.938 51.1025L119.68 54.5076L120.976 50.4973L121.235 47.0923L119.938 51.1025Z" fill="#7A7221"/>
<path d="M124 36.6307L123.742 40.0358L121.364 43.6488L121.494 40.2051L124 36.6307Z" fill="#7A7221"/>
<path d="M100.254 37.2926L96.8955 40.578L98.8293 43.966L102.9 42.5287L103.511 39.1406L100.254 37.2926Z" fill="#7B7815"/>
<path d="M110.664 41.5352L107.305 44.8206L109.239 48.2086L113.31 46.7712L113.921 43.3832L110.664 41.5352Z" fill="#7B7815"/>
<path d="M37 69.8872L37.2581 66.482L58.2246 57.7181L79 39.6307L78.7419 43.0358L76.3641 46.6488L76.2346 50.0923L75.9766 53.4974L74.6802 57.5077L68.9763 60.8205L66.6429 62.7384L67.3343 67.7076L64.0503 69.7128L64.7417 73.6359L61.4575 75.6411L61.0255 80L37 69.8872Z" fill="#681183"/>
<path d="M64.9996 70.2308L64.7415 73.636L61.4575 75.6411L61.7155 72.236L64.9996 70.2308Z" fill="#580E70"/>
<path d="M67.5922 64.3026L67.3342 67.7076L64.0501 69.7128L64.3082 66.3078L67.5922 64.3026Z" fill="#580E70"/>
<path d="M49.7893 37.1897L47.9745 31.523L50.4807 31L54.1104 35.4462L61.5427 33.8768L67.1601 35.4462L72.864 41.2872L77.6172 37.3641L79 39.6308L76.4937 43.2051L76.2345 50.0924L74.9381 54.1026L69.2342 57.4155L66.9009 59.3334L67.5922 64.3026L64.3082 66.3078L64.9996 70.2308L61.7156 72.236L61.2834 76.595L49.7893 71.9744L37.2581 66.4821L40.715 64.3898L39.4187 61.5128L42.8755 59.3334L41.4064 55.4103L46.6781 52.6205L44.9497 49.5693L42.7027 45.8205L44.6904 42.4206L48.493 39.1949L49.7893 37.1897Z" fill="#C21FF7"/>
<path d="M74.9381 54.1026L74.6801 57.5077L75.9764 53.4974L76.2345 50.0924L74.9381 54.1026Z" fill="#580E70"/>
<path d="M79 39.6307L78.7419 43.0358L76.3641 46.6488L76.4938 43.2051L79 39.6307Z" fill="#580E70"/>
<path d="M55.2542 40.2927L51.8955 43.5782L53.8293 46.9661L57.9003 45.5288L58.511 42.1408L55.2542 40.2927Z" fill="#6D128B"/>
<path d="M65.664 44.5352L62.3053 47.8206L64.239 51.2086L68.3102 49.7712L68.9208 46.3832L65.664 44.5352Z" fill="#6D128B"/>
<path d="M77.3984 88.4603L102.782 106.177L100.24 92.9762L143.395 81.7443L96.5401 81.3655L95.1813 66.088L77.3984 88.4603Z" fill="black" stroke="#48CB43" stroke-width="2"/>
<path d="M72.6774 86.4614L47.0034 68.5831L49.5905 81.9147L5.99997 93.2858L53.3455 93.6391L54.7399 109.068L72.6774 86.4614Z" fill="black" stroke="#48CB43" stroke-width="2"/>
</g>
<defs>
<filter id="filter0_b_1_345" x="-4" y="114" width="158" height="90" filterUnits="userSpaceOnUse" color-interpolation-filters="sRGB">
<feFlood flood-opacity="0" result="BackgroundImageFix"/>
<feGaussianBlur in="BackgroundImageFix" stdDeviation="2"/>
<feComposite in2="SourceAlpha" operator="in" result="effect1_backgroundBlur_1_345"/>
<feBlend mode="normal" in="SourceGraphic" in2="effect1_backgroundBlur_1_345" result="shape"/>
</filter>
<clipPath id="clip0_1_345">
<rect width="150" height="200" rx="16" fill="white"/>
</clipPath>
</defs>
</svg>
