<svg width="150" height="200" viewBox="0 0 150 200" fill="none" xmlns="http://www.w3.org/2000/svg">
<g clip-path="url(#clip0_1_438)">
<rect width="150" height="200" fill="url(#paint0_angular_1_438)"/>
<g filter="url(#filter0_b_1_438)">
<rect y="118" width="150" height="82" fill="black" fill-opacity="0.5"/>
</g>
<rect x="1" y="1" width="148" height="198" rx="15" stroke="black" stroke-width="2"/>
<path d="M59.2579 138V130.3H62.1234C62.8934 130.3 63.5094 130.465 63.9714 130.795C64.437 131.121 64.6699 131.605 64.6699 132.247C64.6699 132.485 64.6185 132.707 64.5159 132.912C64.4132 133.118 64.2776 133.299 64.1089 133.457C63.9402 133.611 63.755 133.732 63.5534 133.82C63.9714 133.959 64.3106 134.199 64.5709 134.54C64.8349 134.881 64.9669 135.292 64.9669 135.772C64.9669 136.22 64.855 136.61 64.6314 136.944C64.4077 137.278 64.0905 137.538 63.6799 137.725C63.2692 137.908 62.7797 138 62.2114 138H59.2579ZM60.8859 136.779H61.9694C62.4094 136.779 62.7375 136.691 62.9539 136.515C63.1702 136.339 63.2784 136.073 63.2784 135.717C63.2784 135.373 63.172 135.109 62.9594 134.925C62.7467 134.738 62.4277 134.645 62.0024 134.645H60.8859V136.779ZM60.8859 133.501H61.8979C62.1435 133.501 62.3544 133.461 62.5304 133.38C62.71 133.299 62.8475 133.184 62.9429 133.033C63.0419 132.879 63.0914 132.694 63.0914 132.478C63.0914 132.17 62.985 131.933 62.7724 131.768C62.5634 131.603 62.2627 131.521 61.8704 131.521H60.8859V133.501ZM74.7007 138L71.8902 133.968L74.4092 130.3H76.2627L73.7052 133.963L76.6092 138H74.7007ZM65.5872 138L68.4747 134.056L65.9612 130.3H67.8697L70.2897 133.985L67.4297 138H65.5872ZM70.2842 138V134.634H68.9862V133.27H70.2842V130.3H71.9122V133.27H73.2157V134.634H71.9122V138H70.2842ZM77.9395 138.143L77.3455 136.658C77.8148 136.566 78.2273 136.423 78.583 136.229C78.9423 136.031 79.2613 135.765 79.54 135.431C79.8223 135.098 80.0845 134.678 80.3265 134.172L82.18 130.3H84.0665L81.784 134.832C81.5127 135.378 81.2358 135.848 80.9535 136.24C80.6712 136.629 80.376 136.953 80.068 137.213C79.76 137.474 79.43 137.677 79.078 137.824C78.7297 137.971 78.3502 138.077 77.9395 138.143ZM80.046 135.767L77.0925 130.3H79.067L81.146 134.381L80.046 135.767ZM84.3396 138L86.7596 134.067L84.4496 130.3H86.4076L87.9311 132.841L89.5206 130.3H91.4236L89.0366 134.1L91.4841 138H89.5096L87.8596 135.299L86.2591 138H84.3396Z" fill="white"/>
<path d="M22.3771 159V152.7H27.4441V159H26.4361V153.622H23.3851V159H22.3771ZM30.9822 159.135C30.5172 159.135 30.1017 159.029 29.7357 158.815C29.3727 158.599 29.0877 158.313 28.8807 157.956C28.6737 157.596 28.5702 157.201 28.5702 156.772C28.5702 156.454 28.6287 156.154 28.7457 155.872C28.8657 155.587 29.0337 155.335 29.2497 155.116C29.4687 154.897 29.7252 154.725 30.0192 154.599C30.3132 154.473 30.6357 154.41 30.9867 154.41C31.4517 154.41 31.8657 154.518 32.2287 154.734C32.5947 154.947 32.8812 155.233 33.0882 155.593C33.2952 155.95 33.3987 156.343 33.3987 156.772C33.3987 157.087 33.3387 157.387 33.2187 157.672C33.1017 157.957 32.9352 158.209 32.7192 158.428C32.5032 158.647 32.2482 158.82 31.9542 158.946C31.6602 159.072 31.3362 159.135 30.9822 159.135ZM30.9822 158.257C31.2582 158.257 31.5027 158.197 31.7157 158.077C31.9317 157.954 32.1012 157.782 32.2242 157.56C32.3472 157.338 32.4087 157.075 32.4087 156.772C32.4087 156.469 32.3472 156.207 32.2242 155.985C32.1012 155.76 31.9317 155.587 31.7157 155.467C31.5027 155.347 31.2582 155.287 30.9822 155.287C30.7062 155.287 30.4602 155.347 30.2442 155.467C30.0312 155.587 29.8632 155.76 29.7402 155.985C29.6202 156.207 29.5602 156.469 29.5602 156.772C29.5602 157.075 29.6217 157.338 29.7447 157.56C29.8677 157.782 30.0357 157.954 30.2487 158.077C30.4647 158.197 30.7092 158.257 30.9822 158.257ZM34.3931 159V154.545H35.2526H35.2796L37.2776 157.434L36.8501 157.443L38.7491 154.545H39.6266V159H38.7266L38.7401 155.706L38.9246 155.787L37.3316 158.113H36.6926L35.0276 155.782L35.2121 155.701L35.2256 159H34.3931ZM43.0365 159.135C42.5565 159.135 42.135 159.038 41.772 158.842C41.409 158.644 41.1255 158.368 40.9215 158.014C40.7205 157.66 40.62 157.249 40.62 156.781C40.62 156.439 40.6785 156.124 40.7955 155.836C40.9125 155.545 41.0775 155.293 41.2905 155.08C41.5035 154.867 41.7525 154.702 42.0375 154.585C42.3255 154.468 42.639 154.41 42.978 154.41C43.347 154.41 43.6755 154.476 43.9635 154.608C44.2515 154.737 44.49 154.918 44.679 155.152C44.871 155.386 45.006 155.661 45.084 155.976C45.165 156.288 45.1785 156.627 45.1245 156.993H41.5695C41.5635 157.26 41.622 157.494 41.745 157.695C41.868 157.893 42.0435 158.047 42.2715 158.158C42.5025 158.269 42.774 158.325 43.086 158.325C43.338 158.325 43.581 158.287 43.815 158.212C44.052 158.134 44.2665 158.02 44.4585 157.87L44.841 158.581C44.697 158.698 44.523 158.799 44.319 158.883C44.115 158.964 43.902 159.026 43.68 159.068C43.458 159.113 43.2435 159.135 43.0365 159.135ZM41.628 156.264H44.1525C44.1435 155.928 44.0355 155.664 43.8285 155.472C43.6245 155.28 43.3335 155.184 42.9555 155.184C42.5895 155.184 42.285 155.28 42.042 155.472C41.802 155.664 41.664 155.928 41.628 156.264ZM46.1529 159V154.545H47.1429V156.264H49.3749V154.545H50.3649V159H49.3749V157.083H47.1429V159H46.1529ZM51.4322 159L53.1422 156.718L53.3582 157.357C52.9892 157.36 52.6742 157.306 52.4132 157.195C52.1522 157.081 51.9527 156.922 51.8147 156.718C51.6797 156.511 51.6122 156.267 51.6122 155.985C51.6122 155.682 51.6887 155.424 51.8417 155.211C51.9947 154.995 52.2107 154.83 52.4897 154.716C52.7687 154.602 53.0957 154.545 53.4707 154.545H55.3922V159H54.4382V155.296H53.5697C53.2517 155.296 53.0102 155.352 52.8452 155.463C52.6832 155.574 52.6022 155.74 52.6022 155.962C52.6022 156.178 52.6772 156.346 52.8272 156.466C52.9802 156.583 53.2007 156.642 53.4887 156.642H54.5642V157.362H53.7812L52.5617 159H51.4322ZM57.7645 159V155.364H56.302V154.545H60.2215V155.364H58.7545V159H57.7645ZM61.1294 159V154.545H62.1194V158.248H62.9699C63.2939 158.248 63.5384 158.185 63.7034 158.059C63.8684 157.933 63.9509 157.746 63.9509 157.497C63.9509 157.251 63.8744 157.062 63.7214 156.93C63.5684 156.798 63.3434 156.732 63.0464 156.732H61.9844V155.989H63.1229C63.6989 155.989 64.1519 156.118 64.4819 156.376C64.8119 156.634 64.9769 157.008 64.9769 157.497C64.9769 157.812 64.8974 158.082 64.7384 158.307C64.5794 158.529 64.3559 158.7 64.0679 158.82C63.7829 158.94 63.4484 159 63.0644 159H61.1294ZM68.2222 159V154.545H69.0817H69.1087L71.1067 157.434L70.6792 157.443L72.5782 154.545H73.4557V159H72.5557L72.5692 155.706L72.7537 155.787L71.1607 158.113H70.5217L68.8567 155.782L69.0412 155.701L69.0547 159H68.2222ZM76.8656 159.135C76.3856 159.135 75.9641 159.038 75.6011 158.842C75.2381 158.644 74.9546 158.368 74.7506 158.014C74.5496 157.66 74.4491 157.249 74.4491 156.781C74.4491 156.439 74.5076 156.124 74.6246 155.836C74.7416 155.545 74.9066 155.293 75.1196 155.08C75.3326 154.867 75.5816 154.702 75.8666 154.585C76.1546 154.468 76.4681 154.41 76.8071 154.41C77.1761 154.41 77.5046 154.476 77.7926 154.608C78.0806 154.737 78.3191 154.918 78.5081 155.152C78.7001 155.386 78.8351 155.661 78.9131 155.976C78.9941 156.288 79.0076 156.627 78.9536 156.993H75.3986C75.3926 157.26 75.4511 157.494 75.5741 157.695C75.6971 157.893 75.8726 158.047 76.1006 158.158C76.3316 158.269 76.6031 158.325 76.9151 158.325C77.1671 158.325 77.4101 158.287 77.6441 158.212C77.8811 158.134 78.0956 158.02 78.2876 157.87L78.6701 158.581C78.5261 158.698 78.3521 158.799 78.1481 158.883C77.9441 158.964 77.7311 159.026 77.5091 159.068C77.2871 159.113 77.0726 159.135 76.8656 159.135ZM75.4571 156.264H77.9816C77.9726 155.928 77.8646 155.664 77.6576 155.472C77.4536 155.28 77.1626 155.184 76.7846 155.184C76.4186 155.184 76.1141 155.28 75.8711 155.472C75.6311 155.664 75.4931 155.928 75.4571 156.264ZM82.0689 159.135C81.6009 159.135 81.1839 159.033 80.8179 158.829C80.4519 158.622 80.1639 158.341 79.9539 157.987C79.7469 157.63 79.6434 157.225 79.6434 156.772C79.6434 156.43 79.7049 156.117 79.8279 155.832C79.9509 155.544 80.1249 155.293 80.3499 155.08C80.5749 154.867 80.8389 154.702 81.1419 154.585C81.4479 154.468 81.7794 154.41 82.1364 154.41C82.4364 154.41 82.7139 154.45 82.9689 154.531C83.2269 154.609 83.4639 154.731 83.6799 154.896L83.2029 155.652C83.0649 155.529 82.9059 155.437 82.7259 155.377C82.5489 155.317 82.3599 155.287 82.1589 155.287C81.8469 155.287 81.5784 155.346 81.3534 155.463C81.1284 155.58 80.9529 155.749 80.8269 155.971C80.7039 156.19 80.6424 156.456 80.6424 156.768C80.6424 157.233 80.7774 157.597 81.0474 157.861C81.3204 158.125 81.6909 158.257 82.1589 158.257C82.3809 158.257 82.5909 158.217 82.7889 158.136C82.9869 158.052 83.1519 157.942 83.2839 157.807L83.7564 158.559C83.5194 158.739 83.2554 158.88 82.9644 158.982C82.6734 159.084 82.3749 159.135 82.0689 159.135ZM85.661 159V155.364H84.1985V154.545H88.118V155.364H86.651V159H85.661ZM90.2634 159.135C89.9544 159.135 89.6829 159.078 89.4489 158.964C89.2149 158.847 89.0319 158.683 88.8999 158.473C88.7709 158.26 88.7064 158.01 88.7064 157.722C88.7064 157.479 88.7679 157.26 88.8909 157.065C89.0139 156.867 89.2044 156.703 89.4624 156.574C89.7234 156.445 90.0579 156.36 90.4659 156.318C90.8739 156.273 91.3644 156.279 91.9374 156.336L91.9554 157.02C91.5474 156.963 91.1964 156.939 90.9024 156.948C90.6084 156.957 90.3669 156.994 90.1779 157.06C89.9919 157.123 89.8539 157.209 89.7639 157.317C89.6769 157.422 89.6334 157.543 89.6334 157.681C89.6334 157.897 89.7099 158.064 89.8629 158.181C90.0189 158.298 90.2319 158.356 90.5019 158.356C90.7329 158.356 90.9399 158.314 91.1229 158.23C91.3059 158.146 91.4499 158.028 91.5549 157.875C91.6629 157.722 91.7169 157.542 91.7169 157.335V156.151C91.7169 155.953 91.6749 155.782 91.5909 155.638C91.5069 155.491 91.3794 155.377 91.2084 155.296C91.0374 155.215 90.8244 155.175 90.5694 155.175C90.3354 155.175 90.1044 155.211 89.8764 155.283C89.6484 155.352 89.4309 155.461 89.2239 155.611L88.9449 154.882C89.2239 154.693 89.5149 154.56 89.8179 154.482C90.1209 154.404 90.4119 154.365 90.6909 154.365C91.1049 154.365 91.4589 154.431 91.7529 154.563C92.0499 154.692 92.2779 154.888 92.4369 155.152C92.5959 155.413 92.6754 155.743 92.6754 156.142V159H91.7844V158.473C91.6344 158.686 91.4259 158.85 91.1589 158.964C90.8919 159.078 90.5934 159.135 90.2634 159.135ZM93.9917 159V154.545H94.8512H94.8782L96.8762 157.434L96.4487 157.443L98.3477 154.545H99.2252V159H98.3252L98.3387 155.706L98.5232 155.787L96.9302 158.113H96.2912L94.6262 155.782L94.8107 155.701L94.8242 159H93.9917ZM100.601 159V154.545H101.56V157.551L103.976 154.545H104.84V159H103.886V155.958L101.447 159H100.601ZM111.659 159V155.364H109.859V155.953C109.859 156.358 109.835 156.724 109.787 157.051C109.739 157.378 109.653 157.666 109.53 157.915C109.407 158.161 109.235 158.365 109.013 158.527C108.794 158.689 108.513 158.808 108.171 158.883L107.928 158.212C108.213 158.143 108.428 158.014 108.572 157.825C108.716 157.636 108.812 157.387 108.86 157.078C108.911 156.766 108.936 156.391 108.936 155.953V154.545H112.649V159H111.659ZM107.928 160.35V158.212L108.54 158.275L108.693 158.181H113.544V160.35H112.64V159H108.833V160.35H107.928ZM114.418 159V154.545H116.542C117.046 154.545 117.449 154.641 117.752 154.833C118.055 155.025 118.207 155.313 118.207 155.697C118.207 155.877 118.163 156.037 118.076 156.178C117.989 156.316 117.869 156.432 117.716 156.525C117.563 156.618 117.385 156.685 117.181 156.728L117.163 156.507C117.556 156.561 117.86 156.691 118.076 156.898C118.292 157.105 118.4 157.368 118.4 157.686C118.4 157.956 118.33 158.19 118.189 158.388C118.048 158.583 117.845 158.734 117.581 158.842C117.317 158.947 117.001 159 116.632 159H114.418ZM115.376 158.266H116.497C116.794 158.266 117.022 158.217 117.181 158.118C117.343 158.019 117.424 157.87 117.424 157.672C117.424 157.477 117.344 157.332 117.185 157.236C117.026 157.137 116.797 157.087 116.497 157.087H115.246V156.381H116.393C116.672 156.381 116.888 156.339 117.041 156.255C117.194 156.168 117.271 156.027 117.271 155.832C117.271 155.637 117.194 155.496 117.041 155.409C116.888 155.319 116.672 155.274 116.393 155.274H115.376V158.266ZM119.898 161.016C119.736 161.016 119.577 160.998 119.421 160.962C119.265 160.926 119.112 160.865 118.962 160.778L119.187 159.932C119.28 159.992 119.382 160.037 119.493 160.067C119.604 160.097 119.703 160.112 119.79 160.112C120 160.112 120.165 160.062 120.285 159.963C120.405 159.864 120.499 159.711 120.568 159.504L120.717 159.072L118.962 154.545H120.046L121.279 158.001L122.481 154.545H123.529L121.603 159.644C121.465 160.001 121.311 160.278 121.14 160.476C120.969 160.677 120.78 160.817 120.573 160.895C120.366 160.976 120.141 161.016 119.898 161.016ZM123.752 159.005L125.363 156.763L123.846 154.545H125.093L126.042 156.052L126.96 154.545H128.175L126.704 156.736L128.301 159H127.032L126.006 157.434L124.967 158.991L123.752 159.005ZM34.4376 170.077L34.0911 169.185C34.3971 169.107 34.6206 168.984 34.7616 168.816C34.9056 168.648 34.9956 168.414 35.0316 168.114C35.0706 167.814 35.0901 167.427 35.0901 166.953V165.545H38.7126V170H37.7226V166.364H36.0126V166.953C36.0126 167.43 35.9901 167.846 35.9451 168.2C35.9031 168.554 35.8251 168.855 35.7111 169.104C35.5971 169.353 35.4366 169.557 35.2296 169.716C35.0256 169.872 34.7616 169.992 34.4376 170.077ZM40.0928 170V165.545H41.0828L41.0783 167.264H42.5858V168.083H41.0783L41.0828 170H40.0928ZM44.4533 170.135C43.9853 170.135 43.5698 170.029 43.2068 169.815C42.8438 169.599 42.5573 169.313 42.3473 168.956C42.1403 168.596 42.0368 168.201 42.0368 167.772C42.0368 167.454 42.0968 167.154 42.2168 166.872C42.3368 166.587 42.5048 166.335 42.7208 166.116C42.9368 165.897 43.1918 165.725 43.4858 165.599C43.7798 165.473 44.1023 165.41 44.4533 165.41C44.9213 165.41 45.3368 165.518 45.6998 165.734C46.0628 165.947 46.3478 166.233 46.5548 166.593C46.7648 166.95 46.8698 167.343 46.8698 167.772C46.8698 168.087 46.8098 168.387 46.6898 168.672C46.5698 168.957 46.4018 169.209 46.1858 169.428C45.9698 169.647 45.7148 169.82 45.4208 169.946C45.1268 170.072 44.8043 170.135 44.4533 170.135ZM44.4533 169.257C44.7293 169.257 44.9738 169.197 45.1868 169.077C45.3998 168.954 45.5678 168.782 45.6908 168.56C45.8138 168.338 45.8753 168.075 45.8753 167.772C45.8753 167.469 45.8138 167.207 45.6908 166.985C45.5678 166.76 45.3998 166.587 45.1868 166.467C44.9738 166.347 44.7293 166.287 44.4533 166.287C44.1773 166.287 43.9313 166.347 43.7153 166.467C43.5023 166.587 43.3343 166.76 43.2113 166.985C43.0913 167.207 43.0313 167.469 43.0313 167.772C43.0313 168.075 43.0913 168.338 43.2113 168.56C43.3343 168.782 43.5023 168.954 43.7153 169.077C43.9313 169.197 44.1773 169.257 44.4533 169.257ZM50.0403 170.135C49.6653 170.135 49.3263 170.071 49.0233 169.941C48.7203 169.812 48.4623 169.626 48.2493 169.383C48.0363 169.137 47.8728 168.839 47.7588 168.488C47.6478 168.134 47.5923 167.732 47.5923 167.282C47.5923 166.787 47.6298 166.343 47.7048 165.95C47.7828 165.557 47.9043 165.216 48.0693 164.928C48.2373 164.64 48.4578 164.403 48.7308 164.217C49.0068 164.031 49.3413 163.898 49.7343 163.817L51.8673 163.385L52.0293 164.244L49.9548 164.645C49.6068 164.717 49.3338 164.832 49.1358 164.991C48.9378 165.15 48.7923 165.353 48.6993 165.599C48.6063 165.845 48.5448 166.134 48.5148 166.467C48.7038 166.212 48.9393 166.008 49.2213 165.855C49.5033 165.702 49.8318 165.626 50.2068 165.626C50.6298 165.626 51.0033 165.726 51.3273 165.927C51.6543 166.125 51.9093 166.391 52.0923 166.724C52.2753 167.057 52.3668 167.426 52.3668 167.831C52.3668 168.146 52.3113 168.443 52.2003 168.722C52.0923 169.001 51.9348 169.247 51.7278 169.46C51.5208 169.67 51.2748 169.835 50.9898 169.955C50.7048 170.075 50.3883 170.135 50.0403 170.135ZM50.0178 169.257C50.2788 169.257 50.5113 169.2 50.7153 169.086C50.9223 168.969 51.0843 168.806 51.2013 168.596C51.3183 168.383 51.3768 168.131 51.3768 167.84C51.3768 167.549 51.3183 167.298 51.2013 167.088C51.0843 166.875 50.9223 166.712 50.7153 166.598C50.5113 166.481 50.2788 166.422 50.0178 166.422C49.7568 166.422 49.5228 166.481 49.3158 166.598C49.1118 166.712 48.9513 166.875 48.8343 167.088C48.7173 167.298 48.6588 167.549 48.6588 167.84C48.6588 168.131 48.7173 168.383 48.8343 168.596C48.9513 168.806 49.1118 168.969 49.3158 169.086C49.5228 169.2 49.7568 169.257 50.0178 169.257ZM53.4082 170V165.545H54.3982V169.248H55.2037C55.5277 169.248 55.7722 169.185 55.9372 169.059C56.1022 168.933 56.1847 168.746 56.1847 168.497C56.1847 168.251 56.1082 168.062 55.9552 167.93C55.8022 167.798 55.5772 167.732 55.2802 167.732H54.2632V166.989H55.3567C55.9327 166.989 56.3857 167.118 56.7157 167.376C57.0457 167.634 57.2107 168.008 57.2107 168.497C57.2107 168.812 57.1312 169.082 56.9722 169.307C56.8132 169.529 56.5897 169.7 56.3017 169.82C56.0167 169.94 55.6822 170 55.2982 170H53.4082ZM57.9262 170V165.545H58.9162V170H57.9262ZM59.7366 170.005L61.3476 167.763L59.8311 165.545H61.0776L62.0271 167.052L62.9451 165.545H64.1601L62.6886 167.736L64.2861 170H63.0171L61.9911 168.434L60.9516 169.991L59.7366 170.005ZM67.1593 170.077L66.8128 169.185C67.1188 169.107 67.3423 168.984 67.4833 168.816C67.6273 168.648 67.7173 168.414 67.7533 168.114C67.7923 167.814 67.8118 167.427 67.8118 166.953V165.545H71.4343V170H70.4443V166.364H68.7343V166.953C68.7343 167.43 68.7118 167.846 68.6668 168.2C68.6248 168.554 68.5468 168.855 68.4328 169.104C68.3188 169.353 68.1583 169.557 67.9513 169.716C67.7473 169.872 67.4833 169.992 67.1593 170.077ZM74.8485 170.135C74.3685 170.135 73.947 170.038 73.584 169.842C73.221 169.644 72.9375 169.368 72.7335 169.014C72.5325 168.66 72.432 168.249 72.432 167.781C72.432 167.439 72.4905 167.124 72.6075 166.836C72.7245 166.545 72.8895 166.293 73.1025 166.08C73.3155 165.867 73.5645 165.702 73.8495 165.585C74.1375 165.468 74.451 165.41 74.79 165.41C75.159 165.41 75.4875 165.476 75.7755 165.608C76.0635 165.737 76.302 165.918 76.491 166.152C76.683 166.386 76.818 166.661 76.896 166.976C76.977 167.288 76.9905 167.627 76.9365 167.993H73.3815C73.3755 168.26 73.434 168.494 73.557 168.695C73.68 168.893 73.8555 169.047 74.0835 169.158C74.3145 169.269 74.586 169.325 74.898 169.325C75.15 169.325 75.393 169.287 75.627 169.212C75.864 169.134 76.0785 169.02 76.2705 168.87L76.653 169.581C76.509 169.698 76.335 169.799 76.131 169.883C75.927 169.964 75.714 170.026 75.492 170.068C75.27 170.113 75.0555 170.135 74.8485 170.135ZM73.44 167.264H75.9645C75.9555 166.928 75.8475 166.664 75.6405 166.472C75.4365 166.28 75.1455 166.184 74.7675 166.184C74.4015 166.184 74.097 166.28 73.854 166.472C73.614 166.664 73.476 166.928 73.44 167.264ZM77.9649 170V165.545H78.8244H78.8514L80.8494 168.434L80.4219 168.443L82.3209 165.545H83.1984V170H82.2984L82.3119 166.706L82.4964 166.787L80.9034 169.113H80.2644L78.5994 166.782L78.7839 166.701L78.7974 170H77.9649ZM84.5742 170V165.545H85.4337H85.4607L87.4587 168.434L87.0312 168.443L88.9302 165.545H89.8077V170H88.9077L88.9212 166.706L89.1057 166.787L87.5127 169.113H86.8737L85.2087 166.782L85.3932 166.701L85.4067 170H84.5742ZM91.1836 170V165.545H92.1421V168.551L94.5586 165.545H95.4226V170H94.4686V166.958L92.0296 170H91.1836ZM96.7998 170V165.545H97.7898V167.264H100.022V165.545H101.012V170H100.022V168.083H97.7898V170H96.7998ZM102.39 170V165.545H105.324V166.364H103.38V170H102.39ZM108.269 170.135C107.804 170.135 107.388 170.029 107.022 169.815C106.659 169.599 106.374 169.313 106.167 168.956C105.96 168.596 105.857 168.201 105.857 167.772C105.857 167.454 105.915 167.154 106.032 166.872C106.152 166.587 106.32 166.335 106.536 166.116C106.755 165.897 107.012 165.725 107.306 165.599C107.6 165.473 107.922 165.41 108.273 165.41C108.738 165.41 109.152 165.518 109.515 165.734C109.881 165.947 110.168 166.233 110.375 166.593C110.582 166.95 110.685 167.343 110.685 167.772C110.685 168.087 110.625 168.387 110.505 168.672C110.388 168.957 110.222 169.209 110.006 169.428C109.79 169.647 109.535 169.82 109.241 169.946C108.947 170.072 108.623 170.135 108.269 170.135ZM108.269 169.257C108.545 169.257 108.789 169.197 109.002 169.077C109.218 168.954 109.388 168.782 109.511 168.56C109.634 168.338 109.695 168.075 109.695 167.772C109.695 167.469 109.634 167.207 109.511 166.985C109.388 166.76 109.218 166.587 109.002 166.467C108.789 166.347 108.545 166.287 108.269 166.287C107.993 166.287 107.747 166.347 107.531 166.467C107.318 166.587 107.15 166.76 107.027 166.985C106.907 167.207 106.847 167.469 106.847 167.772C106.847 168.075 106.908 168.338 107.031 168.56C107.154 168.782 107.322 168.954 107.535 169.077C107.751 169.197 107.996 169.257 108.269 169.257ZM111.68 170V165.545H113.804C114.308 165.545 114.711 165.641 115.014 165.833C115.317 166.025 115.469 166.313 115.469 166.697C115.469 166.877 115.425 167.037 115.338 167.178C115.251 167.316 115.131 167.432 114.978 167.525C114.825 167.618 114.647 167.685 114.443 167.728L114.425 167.507C114.818 167.561 115.122 167.691 115.338 167.898C115.554 168.105 115.662 168.368 115.662 168.686C115.662 168.956 115.592 169.19 115.451 169.388C115.31 169.583 115.107 169.734 114.843 169.842C114.579 169.947 114.263 170 113.894 170H111.68ZM112.638 169.266H113.759C114.056 169.266 114.284 169.217 114.443 169.118C114.605 169.019 114.686 168.87 114.686 168.672C114.686 168.477 114.606 168.332 114.447 168.236C114.288 168.137 114.059 168.087 113.759 168.087H112.508V167.381H113.655C113.934 167.381 114.15 167.339 114.303 167.255C114.456 167.168 114.533 167.027 114.533 166.832C114.533 166.637 114.456 166.496 114.303 166.409C114.15 166.319 113.934 166.274 113.655 166.274H112.638V169.266Z" fill="white"/>
<path d="M23 101.062L23.2827 97.3786L46.2459 87.8992L69 68.3353L68.7173 72.0183L66.1131 75.9263L65.9713 79.6509L65.6886 83.3339L64.2688 87.6716L58.0217 91.2548L55.4661 93.3293L56.2233 98.7042L52.6265 100.873L53.3837 105.116L49.7868 107.285L49.3137 112L23 101.062Z" fill="#14773D"/>
<path d="M53.6663 101.433L53.3836 105.116L49.7867 107.285L50.0694 103.602L53.6663 101.433Z" fill="#105F31"/>
<path d="M56.5058 95.0212L56.2231 98.7042L52.6263 100.873L52.9089 97.1901L56.5058 95.0212Z" fill="#105F31"/>
<path d="M37.0074 65.6949L35.0197 59.5657L37.7646 59L41.74 63.8091L49.8802 62.1117L56.0325 63.8091L62.2797 70.127L67.4855 65.8836L69 68.3353L66.2551 72.2014L65.9711 79.6509L64.5513 83.9885L58.3042 87.5718L55.7486 89.6463L56.5058 95.0212L52.909 97.19L53.6663 101.433L50.0695 103.602L49.5961 108.317L37.0074 103.319L23.2827 97.3786L27.0688 95.1155L25.649 92.0037L29.4351 89.6463L27.826 85.403L33.5999 82.3854L31.7068 79.0851L29.2458 75.0303L31.4228 71.3528L35.5876 67.8639L37.0074 65.6949Z" fill="#00F249"/>
<path d="M64.5513 83.9884L64.2687 87.6715L65.6885 83.3339L65.9711 79.6509L64.5513 83.9884Z" fill="#105F31"/>
<path d="M68.9999 68.3353L68.7172 72.0183L66.113 75.9263L66.255 72.2015L68.9999 68.3353Z" fill="#105F31"/>
<path d="M42.9926 69.0513L39.3141 72.6049L41.432 76.2694L45.8908 74.7148L46.5596 71.0502L42.9926 69.0513Z" fill="#178344"/>
<path d="M54.3939 73.64L50.7153 77.1937L52.8332 80.8582L57.2921 79.3035L57.9609 75.6389L54.3939 73.64Z" fill="#178344"/>
<path d="M80 52.8553L80.2827 49.1027L103.246 39.4445L126 19.5115L125.717 23.264L123.113 27.2456L122.971 31.0406L122.689 34.7931L121.269 39.2126L115.022 42.8634L112.466 44.977L113.223 50.4534L109.626 52.6631L110.384 56.9866L106.787 59.1963L106.314 64L80 52.8553Z" fill="#273390"/>
<path d="M110.666 53.234L110.384 56.9866L106.787 59.1964L107.069 55.4438L110.666 53.234Z" fill="#1F2974"/>
<path d="M113.506 46.7008L113.223 50.4533L109.626 52.6631L109.909 48.9106L113.506 46.7008Z" fill="#1F2974"/>
<path d="M94.0074 16.8212L92.0197 10.5764L94.7646 10L98.74 14.8998L106.88 13.1704L113.033 14.8998L119.28 21.3369L124.486 17.0134L126 19.5114L123.255 23.4505L122.971 31.0406L121.551 35.46L115.304 39.1109L112.749 41.2245L113.506 46.7008L109.909 48.9106L110.666 53.234L107.069 55.4437L106.596 60.2475L94.0074 55.1555L80.2827 49.1027L84.0688 46.7969L82.649 43.6264L86.4351 41.2245L84.826 36.9012L90.5999 33.8267L88.7068 30.4641L86.2458 26.3328L88.4228 22.5859L92.5876 19.0311L94.0074 16.8212Z" fill="#3E51E5"/>
<path d="M121.551 35.4599L121.269 39.2125L122.688 34.793L122.971 31.0405L121.551 35.4599Z" fill="#1F2974"/>
<path d="M126 19.5115L125.717 23.264L123.113 27.2456L123.255 23.4506L126 19.5115Z" fill="#1F2974"/>
<path d="M99.9926 20.2408L96.3141 23.8615L98.432 27.5952L102.891 26.0112L103.56 22.2775L99.9926 20.2408Z" fill="#202A77"/>
<path d="M111.394 24.9163L107.715 28.537L109.833 32.2706L114.292 30.6866L114.961 26.9529L111.394 24.9163Z" fill="#202A77"/>
<path d="M102.645 68.8478L71.6934 64.288L79.9518 75.0686L46 104.678L88.5393 83.8901L96.665 97.0802L102.645 68.8478Z" fill="black" stroke="#7200B4" stroke-width="2"/>
<path d="M37.6413 56.5069L67.021 66.2569L60.8229 54.3272L98.9888 31.2647L53.968 44.2521L48.3125 29.9951L37.6413 56.5069Z" fill="black" stroke="#7200B4" stroke-width="2"/>
</g>
<defs>
<filter id="filter0_b_1_438" x="-4" y="114" width="158" height="90" filterUnits="userSpaceOnUse" color-interpolation-filters="sRGB">
<feFlood flood-opacity="0" result="BackgroundImageFix"/>
<feGaussianBlur in="BackgroundImageFix" stdDeviation="2"/>
<feComposite in2="SourceAlpha" operator="in" result="effect1_backgroundBlur_1_438"/>
<feBlend mode="normal" in="SourceGraphic" in2="effect1_backgroundBlur_1_438" result="shape"/>
</filter>
<radialGradient id="paint0_angular_1_438" cx="0" cy="0" r="1" gradientUnits="userSpaceOnUse" gradientTransform="translate(81.5 88.5) rotate(132.044) scale(75.4072 56.5554)">
<stop offset="0.159786" stop-color="#31004E"/>
<stop offset="0.40358" stop-color="#8500D1"/>
<stop offset="0.644558" stop-color="#210034"/>
<stop offset="0.871214" stop-color="#4D0079"/>
</radialGradient>
<clipPath id="clip0_1_438">
<rect width="150" height="200" rx="16" fill="white"/>
</clipPath>
</defs>
</svg>
